<?xml version="1.0" encoding="UTF-8"?>
<svg id="Layer_1" xmlns="http://www.w3.org/2000/svg" version="1.1" viewBox="0 0 841.89 595.28">
  <!-- Generator: Adobe Illustrator 30.1.0, SVG Export Plug-In . SVG Version: 2.1.1 Build 136)  -->
  <defs>
    <style>
      .st0 {
        fill: #005698;
      }

      .st1 {
        fill: #86c441;
      }

      .st2 {
        fill: none;
      }
    </style>
  </defs>
  <g>
    <path class="st0" d="M565.7,227.56v26.3c-4.64,0-8.63.79-11.88,2.38-3.19,1.61-5.66,3.78-7.33,6.61-1.66,2.81-2.45,6.16-2.45,9.99v37.31h-25.51v-15.46c.83-1.1,1.59-2.25,2.28-3.44,3.93-6.66,5.93-14.2,5.93-22.39s-2-15.71-5.93-22.39c-.7-1.19-1.45-2.34-2.28-3.44v-14.22h25.51v10.06c2.1-2.76,4.49-5,7.1-6.74,4.42-3.04,9.27-4.57,14.56-4.57Z"/>
    <path class="st0" d="M610.22,251.5v34.69h18.47v23.32h-44.11v-58.01h-13.76v-23.32c7.61,0,13.76-6.16,13.76-13.76v-21.51h25.64v35.27h18.47v23.32h-18.47Z"/>
    <path class="st0" d="M716.84,256.71v52.8h-25.64v-44.18c0-4.35-1.23-7.82-3.77-10.43-2.46-2.61-5.72-3.91-9.78-3.91-2.97,0-5.65.65-7.9,1.81-2.32,1.23-4.05,2.97-5.29,5.22-1.23,2.25-1.81,4.78-1.81,7.68v43.82h-25.49v-126.17h25.49v53.82c2.25-2.75,4.85-5,7.82-6.74,4.64-2.75,9.92-4.13,15.79-4.13s11.37,1.23,16.01,3.77c4.63,2.46,8.18,6.01,10.72,10.64,2.61,4.64,3.84,10,3.84,16.01Z"/>
    <path class="st0" d="M745.53,226.29h-29.19l31,81.77.08.08.28-.72,1.23-2.61,12.54-26.51.43-.94-16.37-51.07Z"/>
    <polygon class="st1" points="806.59 239.84 761.98 339.79 728.52 339.79 728.52 316.47 743.94 316.47 747.35 308.14 747.42 308.14 747.71 307.41 748.94 304.81 761.47 278.3 761.91 277.36 777.91 239.84 806.59 239.84"/>
    <polygon class="st0" points="378.52 323.42 377.07 334 351.43 334 340.57 411.93 329.27 411.93 340.28 334 314.64 334 316.23 323.42 378.52 323.42"/>
    <polygon class="st0" points="522.53 323.42 510.07 411.93 498.41 411.93 457.49 342.18 447.64 411.93 436.34 411.93 448.8 323.42 460.46 323.42 501.53 393.39 511.38 323.42 522.53 323.42"/>
    <polygon class="st0" points="436.76 323.42 435.39 334 397.72 334 393.81 362.17 427.2 362.17 425.61 372.67 392.29 372.67 388.24 401.43 426.55 401.43 425.03 411.93 375.49 411.93 387.95 323.42 436.76 323.42"/>
    <polyline class="st2" points="802.96 308.14 802.96 308.07 803.32 307.42"/>
    <path class="st1" d="M518.54,250.8c-.4-.77-.81-1.57-1.26-2.32-3.59-6.08-8.53-10.88-14.82-14.37-6.29-3.49-13.33-5.23-21.11-5.23-7.21,0-13.8,1.49-19.73,4.49l-17.48,53.49c.4.79.83,1.59,1.28,2.36,3.59,6.08,8.53,10.88,14.82,14.37,6.29,3.49,13.33,5.23,21.11,5.23s14.82-1.74,21.11-5.23c6.29-3.49,11.23-8.29,14.82-14.37.45-.76.87-1.55,1.26-2.32,2.76-5.49,4.13-11.5,4.13-18.05s-1.38-12.56-4.13-18.05ZM495.78,277.46c-1.43,2.55-3.44,4.55-5.98,5.99-2.55,1.45-5.36,2.17-8.46,2.17s-5.91-.72-8.46-2.17c-2.55-1.43-4.55-3.46-5.99-6.06-1.45-2.61-2.17-5.44-2.17-8.53s.72-6.06,2.17-8.61c1.43-2.55,3.44-4.53,5.99-5.99,2.55-1.45,5.36-2.17,8.46-2.17s5.91.72,8.46,2.17c2.55,1.45,4.55,3.47,5.98,6.06,1.45,2.61,2.17,5.44,2.17,8.53s-.72,6.06-2.17,8.61Z"/>
    <polygon class="st0" points="467.86 201.52 458.38 230.54 458.37 230.54 456.42 236.55 456.4 236.57 441.83 281.14 439.82 287.26 432.08 310.93 431.93 311.4 404.84 311.4 385.43 249.82 385.43 249.8 383.33 243.17 361.98 310.93 361.83 311.4 334.59 311.4 296.43 198.63 326.34 198.63 348.71 273.74 351.44 265 371.38 201.37 395.95 201.37 418.68 273.44 421.17 264.32 421.17 264.3 438.37 201.52 467.86 201.52"/>
  </g>
  <g>
    <path class="st1" d="M241.83,229.48c-5.84-9.98-13.98-17.83-24.26-23.52-10.36-5.77-21.89-8.58-34.62-8.58s-24.26,2.81-34.62,8.58c-10.28,5.7-18.42,13.54-24.26,23.52-.59.96-1.11,1.92-1.63,2.96,1.18.52,2.22,1.55,2.74,2.81l19.08,44.6,22.04,46.67c5.25,1.26,10.8,1.85,16.64,1.85,12.72,0,24.26-2.89,34.62-8.58,10.28-5.69,18.42-13.61,24.26-23.52,5.92-9.99,8.8-21.15,8.8-33.36s-2.88-23.45-8.8-33.43ZM206.62,276.89c-2.37,4.22-5.62,7.54-9.84,9.91-4.14,2.37-8.73,3.55-13.83,3.55s-9.69-1.18-13.91-3.55c-4.14-2.37-7.4-5.62-9.76-9.84-2.37-4.14-3.55-8.88-3.55-14.05s1.18-9.76,3.55-14.05c2.37-4.22,5.62-7.54,9.76-9.91,4.22-2.37,8.8-3.55,13.91-3.55s9.69,1.18,13.83,3.55c4.22,2.37,7.47,5.62,9.84,9.84,2.37,4.14,3.55,8.88,3.55,14.13s-1.18,9.69-3.55,13.98Z"/>
    <polygon class="st1" points="186.88 355.59 186.88 397.9 126.22 397.9 45.23 216.53 97.3 216.53 115.35 258.84 126.3 284.58 127.11 286.28 140.5 314.76 149.82 334.44 152.11 339.17 152.63 340.43 152.78 340.43 158.92 355.59 186.88 355.59"/>
  </g>
</svg>

