<?xml version="1.0" encoding="UTF-8"?><svg id="Layer_1" xmlns="http://www.w3.org/2000/svg" viewBox="0 0 1080 1080"><defs><style>.cls-1{fill:#484d4d;}.cls-2{fill:#ff692e;}</style></defs><path class="cls-1" d="M518.44,173.88h43.12c20.23,0,36.65,16.42,36.65,36.65v17.25c0,9.52-7.73,17.25-17.25,17.25h-81.93c-9.52,0-17.25-7.73-17.25-17.25v-17.25c0-20.23,16.42-36.65,36.65-36.65Z"/><path class="cls-2" d="M389.57,789.12h299.18v38.08c0,19.88-16.14,36.01-36.01,36.01h-227.15c-19.88,0-36.01-16.14-36.01-36.01v-38.08h0Z"/><rect class="cls-2" x="389.57" y="687.23" width="299.18" height="74.1"/><path class="cls-1" d="M651.14,906.12h-222.28c-43.77,0-79.37-35.61-79.37-79.37V309.8c0-43.77,35.61-79.37,79.37-79.37h222.28c43.77,0,79.37,35.61,79.37,79.37v516.94c0,43.77-35.61,79.37-79.37,79.37ZM428.86,250.75c-32.56,0-59.05,26.49-59.05,59.05v516.94c0,32.56,26.49,59.05,59.05,59.05h222.28c32.56,0,59.05-26.49,59.05-59.05V309.8c0-32.56-26.49-59.05-59.05-59.05h-222.28Z"/></svg>