<?xml version="1.0" encoding="UTF-8"?><svg id="Layer_1" xmlns="http://www.w3.org/2000/svg" xmlns:xlink="http://www.w3.org/1999/xlink" viewBox="0 0 1080 1080"><defs><style>.cls-1{fill:#fff9d7;}.cls-2{opacity:.81;}.cls-3{fill:#ef4136;stroke:#000;stroke-width:.75px;}.cls-3,.cls-4,.cls-5{stroke-miterlimit:10;}.cls-6{opacity:.29;}.cls-4{stroke:#4d4d4d;}.cls-4,.cls-7{fill:#005699;}.cls-8{fill:#1d1e24;}.cls-9,.cls-10{fill:#fff;}.cls-11{fill:#006838;}.cls-12{fill:#ffefe3;}.cls-13{fill:#35c340;}.cls-10{opacity:.6;}.cls-14{fill:#ed1c24;}.cls-15{opacity:.19;}.cls-5{fill:none;stroke:#18191c;stroke-width:.5px;}.cls-16{fill:url(#radial-gradient);opacity:.32;}.cls-17{fill:url(#linear-gradient);}.cls-18{fill:#e6e7e8;}</style><linearGradient id="linear-gradient" x1="616.42" y1="299.51" x2="-10.62" y2="1323.61" gradientUnits="userSpaceOnUse"><stop offset="0" stop-color="#fff"/><stop offset=".21" stop-color="#fff" stop-opacity=".76"/><stop offset=".5" stop-color="#fff" stop-opacity=".44"/><stop offset=".73" stop-color="#fff" stop-opacity=".2"/><stop offset=".91" stop-color="#fff" stop-opacity=".06"/><stop offset="1" stop-color="#fff" stop-opacity="0"/></linearGradient><radialGradient id="radial-gradient" cx="317.74" cy="630.34" fx="317.74" fy="630.34" r="4.84" gradientUnits="userSpaceOnUse"><stop offset=".45" stop-color="#fff"/><stop offset=".51" stop-color="#dbdbdb" stop-opacity=".86"/><stop offset=".65" stop-color="#8e8e8e" stop-opacity=".56"/><stop offset=".77" stop-color="#515151" stop-opacity=".32"/><stop offset=".87" stop-color="#252525" stop-opacity=".15"/><stop offset=".95" stop-color="#0a0a0a" stop-opacity=".04"/><stop offset="1" stop-color="#000" stop-opacity="0"/></radialGradient></defs><rect class="cls-7" x="169.56" y="409.9" width="740.48" height="1496.93" rx="111.1" ry="111.1"/><path class="cls-7" d="M280.66,426.91h518.28c51.93,0,94.09,42.16,94.09,94.09v1274.73c0,51.93-42.16,94.09-94.09,94.09H280.66c-51.93,0-94.09-42.16-94.09-94.09V521c0-51.93,42.16-94.09,94.09-94.09Z"/><path class="cls-7" d="M908.08,665.53v-50.83c0-2.06.33-3.87,1.96-4.9v60.53c-1.9-.86-1.96-3.74-1.96-4.8Z"/><path class="cls-7" d="M907.24,823.48v-101.68c0-2.08.26-5.91,2.79-8.06v116.32c-3.12-2.03-2.79-5.51-2.79-6.58Z"/><path class="cls-7" d="M907.24,960.29v-101.68c0-2.08.26-5.91,2.79-8.06v116.32c-3.12-2.03-2.79-5.51-2.79-6.58Z"/><path class="cls-7" d="M239.91,430.33c-5.21,2.42-10.19,5.26-14.88,8.49-15.05,5.5-27.02,14.28-37.04,27.42,7-11.75,16.13-22.07,26.85-30.46,7.91-4.87,15.01-6.36,25.07-5.45Z"/><path class="cls-7" d="M172.57,1158.44v-636.2c0-20.45,5.64-39.6,15.41-56.01,10.02-13.14,21.99-21.92,37.04-27.42-26.52,18.28-43.95,48.85-43.95,83.43v636.2h-8.5Z"/><path class="cls-7" d="M838.72,430.33c5.21,2.42,10.19,5.26,14.88,8.49,15.05,5.5,27.02,14.28,37.04,27.42-7-11.75-16.13-22.07-26.85-30.46-7.91-4.87-15.01-6.36-25.07-5.45Z"/><path class="cls-7" d="M906.05,1156.4v-634.16c0-20.45-5.64-39.6-15.41-56.01-10.02-13.14-21.99-21.92-37.04-27.42,26.52,18.28,43.95,48.85,43.95,83.43v634.16h8.5Z"/><path class="cls-7" d="M282.35,412.47h513.92c25.44,0,48.87,8.72,67.51,23.31-7.91-4.87-15.01-6.36-25.07-5.45-12.92-5.99-27.29-9.36-42.44-9.36H282.35c-15.15,0-29.52,3.37-42.44,9.36-10.06-.91-17.16.57-25.07,5.45,18.64-14.58,42.07-23.31,67.51-23.31Z"/><path class="cls-7" d="M173.34,923.62v-165.57c0-2.08-.35-5.91-3.77-8.06v180.22c4.21-2.03,3.77-5.51,3.77-6.58Z"/><path class="cls-7" d="M182.94,1795.17V521.98c0-54.67,44.32-98.99,98.99-98.99h515.59c54.18,0,98.11,43.92,98.11,98.11v1272.61c0,54.6-44.26,98.87-98.87,98.87H280.35c-53.8,0-97.41-43.61-97.41-97.41ZM281.93,426.39c-52.79,0-95.58,42.79-95.58,95.58v1273.19c0,51.92,42.09,94.01,94.01,94.01h516.41c52.72,0,95.46-42.74,95.46-95.46V520.51c0-51.98-42.14-94.12-94.12-94.12H281.93Z"/><path class="cls-7" d="M188.27,530.13c0-54.37,25.82-81.37,54.52-93.59-7.68,15.74-41.18,29.37-41.18,93.17v1255.59c0,63.8,33.5,77.43,41.18,93.17-28.7-12.22-54.52-39.22-54.52-93.59l-.81-627.37.81-627.37Z"/><path class="cls-7" d="M888.41,530.13c0-54.37-25.82-81.37-54.52-93.59,7.68,15.74,41.18,29.37,41.18,93.17v1255.59c0,63.8-33.5,77.43-41.18,93.17,28.7-12.22,54.52-39.22,54.52-93.59l.81-627.37-.81-627.37Z"/><path class="cls-7" d="M181.49,1752.71h-11.96v8.99h11.96v-8.99ZM169.53,553.68v8.99h11.96v-8.99h-11.96Z"/><path class="cls-7" d="M898.16,1761.7h11.96v-8.99h-11.96v8.99ZM898.16,553.68v8.99h11.96v-8.99h-11.96Z"/><path class="cls-11" d="M165.37,756.08c1.53,1.49,1.53,6.14,1.53,14.8v148.25c0,2.86.08,6.08-1.35,6.49-.64-.51-.69-2.12-.69-3.95v-159.6c0-2.22-.06-5.48.52-6.01Z"/><path class="cls-13" d="M166.9,919.14v-148.25c0-8.66,0-13.31-1.53-14.8l4.38-2.72c2.19,3.32,2.06,10.36,2.06,13.04v148.86c0,6.79-.42,11.2-1.73,12.15l-4.53-1.79c1.43-.42,1.35-3.63,1.35-6.49Z"/><path class="cls-11" d="M914.28,719.55c-1.53,1.49-1.53,6.14-1.53,14.8v84.9c0,2.86-.08,6.08,1.35,6.49.64-.51.69-2.12.69-3.95v-96.25c0-2.22.06-5.49-.52-6.01Z"/><path class="cls-13" d="M912.75,819.25v-84.9c0-8.66,0-13.31,1.53-14.8l-4.38-2.72c-2.19,3.32-2.06,10.36-2.06,13.04v85.51c0,6.79.42,11.2,1.73,12.15l4.53-1.79c-1.43-.42-1.35-3.63-1.35-6.49Z"/><path class="cls-11" d="M914.28,856.27c-1.53,1.49-1.53,6.14-1.53,14.8v84.9c0,2.86-.08,6.08,1.35,6.49.64-.51.69-2.12.69-3.95v-96.25c0-2.22.06-5.49-.52-6.01Z"/><path class="cls-13" d="M912.75,955.97v-84.9c0-8.66,0-13.31,1.53-14.8l-4.38-2.72c-2.19,3.32-2.06,10.36-2.06,13.04v85.51c0,6.79.42,11.2,1.73,12.15l4.53-1.79c-1.43-.42-1.35-3.63-1.35-6.49Z"/><polygon class="cls-11" points="915.15 612.94 915.15 666.56 913.82 667.89 913.82 611.61 915.15 612.94"/><path class="cls-13" d="M910.03,611.61h3.79v56.28l-.1.1h-4.02c-.67-.67-.7-1.64-.7-3.08v-50.22c0-1.67.18-2.7,1.03-3.08Z"/><g class="cls-6"><path class="cls-17" d="M203.14,517.79v923.71S773.4,498.62,794.02,464.69c5.37-8.83,17.7-26.68,35.09-30.8,0,0-11.48-4.87-26.8-4.87h-510.4c-49.03,0-88.77,39.75-88.77,88.77Z"/></g><path class="cls-15" d="M290.25,728.12c-34.56,0-62.67-28.11-62.67-62.67v-133.55c0-34.56,28.11-62.67,62.67-62.67s62.67,28.11,62.67,62.67v133.55c0,34.56-28.11,62.67-62.67,62.67Z"/><path class="cls-3" d="M290.25,723.87h0c-32.13,0-58.42-26.29-58.42-58.42v-133.55c0-32.13,26.29-58.42,58.42-58.42h0c32.13,0,58.42,26.29,58.42,58.42v133.55c0,32.13-26.29,58.42-58.42,58.42Z"/><path class="cls-4" d="M290.25,715.37c-27.52,0-49.92-22.39-49.92-49.92v-133.55c0-27.52,22.39-49.92,49.92-49.92s49.92,22.39,49.92,49.92v133.55c0,27.52-22.39,49.92-49.92,49.92Z"/><path class="cls-16" d="M322.58,630.34c0,2.67-2.17,4.84-4.84,4.84s-4.84-2.17-4.84-4.84,2.17-4.84,4.84-4.84,4.84,2.17,4.84,4.84Z"/><path class="cls-8" d="M310.86,528.09c0,12.12-9.82,21.94-21.94,21.94s-21.94-9.82-21.94-21.94,9.82-21.94,21.94-21.94,21.94,9.82,21.94,21.94Z"/><path class="cls-5" d="M308.16,528.09c0,10.62-8.61,19.24-19.24,19.24s-19.24-8.61-19.24-19.24,8.61-19.24,19.24-19.24,19.24,8.61,19.24,19.24Z"/><path class="cls-5" d="M303.59,528.09c0,8.1-6.56,14.66-14.66,14.66s-14.66-6.56-14.66-14.66,6.56-14.66,14.66-14.66,14.66,6.56,14.66,14.66Z"/><path class="cls-18" d="M299.9,528.09c0,6.06-4.92,10.98-10.98,10.98s-10.98-4.92-10.98-10.98,4.92-10.98,10.98-10.98,10.98,4.92,10.98,10.98Z"/><path class="cls-8" d="M310.86,670.64c0,12.12-9.82,21.94-21.94,21.94s-21.94-9.82-21.94-21.94,9.82-21.94,21.94-21.94,21.94,9.82,21.94,21.94Z"/><path class="cls-5" d="M308.16,670.64c0,10.63-8.61,19.24-19.24,19.24s-19.24-8.61-19.24-19.24,8.61-19.24,19.24-19.24,19.24,8.61,19.24,19.24Z"/><path class="cls-5" d="M303.59,670.64c0,8.1-6.56,14.66-14.66,14.66s-14.66-6.56-14.66-14.66,6.56-14.66,14.66-14.66,14.66,6.56,14.66,14.66Z"/><path class="cls-18" d="M299.9,670.64c0,6.06-4.92,10.98-10.98,10.98s-10.98-4.92-10.98-10.98,4.92-10.98,10.98-10.98,10.98,4.92,10.98,10.98Z"/><g class="cls-2"><path class="cls-1" d="M308.75,598.47c0-.9-.15-1.76-.27-2.63-.66.38-1.39.66-2.21.66-2.48,0-4.5-2.01-4.5-4.5,0-2.21,1.63-3.97,3.74-4.34-.72-1.11-1.55-2.15-2.47-3.09-.76,1.42-2.2,2.41-3.92,2.41-2.48,0-4.5-2.01-4.5-4.5,0-1,.39-1.87.94-2.62-1.06-.38-2.14-.69-3.27-.88.71.8,1.17,1.82,1.17,2.96,0,2.48-2.01,4.5-4.5,4.5s-4.5-2.01-4.5-4.5c0-1.15.47-2.18,1.18-2.97-1.27.21-2.5.55-3.67.99.3.6.51,1.26.51,1.98,0,2.48-2.01,4.5-4.5,4.5-1.37,0-2.56-.65-3.38-1.62-.72.75-1.39,1.55-1.99,2.41,1.83.57,3.17,2.22,3.17,4.23,0,2.48-2.01,4.5-4.5,4.5-.68,0-1.31-.18-1.89-.45-.15.97-.3,1.94-.3,2.95,0,.03,0,.06,0,.09h39.64s0-.06,0-.09ZM283.31,595.96c-2.48,0-4.5-2.01-4.5-4.5s2.01-4.5,4.5-4.5,4.5,2.01,4.5,4.5-2.01,4.5-4.5,4.5ZM293.47,596.5c-2.48,0-4.5-2.01-4.5-4.5s2.01-4.5,4.5-4.5,4.5,2.01,4.5,4.5-2.01,4.5-4.5,4.5Z"/><path class="cls-12" d="M301.78,603.64c0-2.48,2.01-4.5,4.5-4.5.87,0,1.64.31,2.33.74.03-.45.14-.87.14-1.32h-39.64c0,.56.12,1.09.17,1.64.61-.31,1.27-.52,2-.52,2.48,0,4.5,2.01,4.5,4.5,0,2.25-1.68,4.03-3.84,4.36.63,1.07,1.36,2.06,2.17,2.98.77-1.37,2.18-2.33,3.86-2.33,2.48,0,4.5,2.01,4.5,4.5,0,1.19-.48,2.25-1.23,3.06,2.36.99,4.96,1.55,7.68,1.55s5.29-.55,7.65-1.53c-1.15-.82-1.95-2.09-1.95-3.6,0-2.48,2.01-4.5,4.5-4.5,2.06,0,3.72,1.41,4.26,3.29,1.08-1.16,1.98-2.45,2.76-3.84-2.42-.07-4.37-2.03-4.37-4.47ZM278.81,604.17c0-2.48,2.01-4.5,4.5-4.5s4.5,2.01,4.5,4.5-2.01,4.5-4.5,4.5-4.5-2.01-4.5-4.5ZM288.96,618.19c-2.48,0-4.5-2.01-4.5-4.5s2.01-4.5,4.5-4.5,4.5,2.01,4.5,4.5-2.01,4.5-4.5,4.5ZM293.47,608.14c-2.48,0-4.5-2.01-4.5-4.5s2.01-4.5,4.5-4.5,4.5,2.01,4.5,4.5-2.01,4.5-4.5,4.5Z"/><path class="cls-1" d="M277.98,586.44c2.48,0,4.5-2.01,4.5-4.5,0-.72-.21-1.38-.51-1.98-2.82,1.06-5.33,2.72-7.37,4.86.83.97,2.01,1.62,3.38,1.62Z"/><path class="cls-10" d="M277.98,586.44c2.48,0,4.5-2.01,4.5-4.5,0-.72-.21-1.38-.51-1.98-2.82,1.06-5.33,2.72-7.37,4.86.83.97,2.01,1.62,3.38,1.62Z"/><path class="cls-1" d="M288.96,586.44c2.48,0,4.5-2.01,4.5-4.5,0-1.15-.46-2.17-1.17-2.96-1.1-.19-2.21-.34-3.36-.34s-2.21.15-3.28.33c-.71.8-1.18,1.82-1.18,2.97,0,2.48,2.01,4.5,4.5,4.5Z"/><path class="cls-10" d="M288.96,586.44c2.48,0,4.5-2.01,4.5-4.5,0-1.15-.46-2.17-1.17-2.96-1.1-.19-2.21-.34-3.36-.34s-2.21.15-3.28.33c-.71.8-1.18,1.82-1.18,2.97,0,2.48,2.01,4.5,4.5,4.5Z"/><path class="cls-1" d="M299.12,586.98c1.72,0,3.16-1,3.92-2.41-2.07-2.11-4.64-3.69-7.48-4.7-.55.75-.94,1.62-.94,2.62,0,2.48,2.01,4.5,4.5,4.5Z"/><path class="cls-10" d="M299.12,586.98c1.72,0,3.16-1,3.92-2.41-2.07-2.11-4.64-3.69-7.48-4.7-.55.75-.94,1.62-.94,2.62,0,2.48,2.01,4.5,4.5,4.5Z"/><path class="cls-1" d="M275.78,591.46c0-2.01-1.35-3.66-3.17-4.23-1.67,2.42-2.76,5.25-3.21,8.28.58.27,1.21.45,1.89.45,2.48,0,4.5-2.01,4.5-4.5Z"/><path class="cls-10" d="M275.78,591.46c0-2.01-1.35-3.66-3.17-4.23-1.67,2.42-2.76,5.25-3.21,8.28.58.27,1.21.45,1.89.45,2.48,0,4.5-2.01,4.5-4.5Z"/><path class="cls-1" d="M283.31,586.96c-2.48,0-4.5,2.01-4.5,4.5s2.01,4.5,4.5,4.5,4.5-2.01,4.5-4.5-2.01-4.5-4.5-4.5Z"/><path class="cls-10" d="M283.31,586.96c-2.48,0-4.5,2.01-4.5,4.5s2.01,4.5,4.5,4.5,4.5-2.01,4.5-4.5-2.01-4.5-4.5-4.5Z"/><path class="cls-1" d="M293.47,587.5c-2.48,0-4.5,2.01-4.5,4.5s2.01,4.5,4.5,4.5,4.5-2.01,4.5-4.5-2.01-4.5-4.5-4.5Z"/><path class="cls-10" d="M293.47,587.5c-2.48,0-4.5,2.01-4.5,4.5s2.01,4.5,4.5,4.5,4.5-2.01,4.5-4.5-2.01-4.5-4.5-4.5Z"/><path class="cls-1" d="M301.78,592c0,2.48,2.01,4.5,4.5,4.5.82,0,1.55-.28,2.21-.66-.4-2.98-1.4-5.77-2.97-8.18-2.11.37-3.74,2.13-3.74,4.34Z"/><path class="cls-10" d="M301.78,592c0,2.48,2.01,4.5,4.5,4.5.82,0,1.55-.28,2.21-.66-.4-2.98-1.4-5.77-2.97-8.18-2.11.37-3.74,2.13-3.74,4.34Z"/><path class="cls-12" d="M277.98,609.2c-1.68,0-3.09.96-3.86,2.33,1.96,2.23,4.35,4.06,7.13,5.23.75-.8,1.23-1.87,1.23-3.06,0-2.48-2.01-4.5-4.5-4.5Z"/><path class="cls-10" d="M277.98,609.2c-1.68,0-3.09.96-3.86,2.33,1.96,2.23,4.35,4.06,7.13,5.23.75-.8,1.23-1.87,1.23-3.06,0-2.48-2.01-4.5-4.5-4.5Z"/><circle class="cls-12" cx="288.96" cy="613.69" r="4.5"/><circle class="cls-10" cx="288.96" cy="613.69" r="4.5"/><path class="cls-12" d="M299.12,608.66c-2.48,0-4.5,2.01-4.5,4.5,0,1.51.8,2.79,1.95,3.6,2.61-1.09,4.9-2.77,6.81-4.81-.54-1.89-2.2-3.29-4.26-3.29Z"/><path class="cls-10" d="M299.12,608.66c-2.48,0-4.5,2.01-4.5,4.5,0,1.51.8,2.79,1.95,3.6,2.61-1.09,4.9-2.77,6.81-4.81-.54-1.89-2.2-3.29-4.26-3.29Z"/><path class="cls-12" d="M275.78,604.17c0-2.48-2.01-4.5-4.5-4.5-.73,0-1.39.21-2,.52.27,3.03,1.19,5.85,2.66,8.34,2.16-.33,3.84-2.11,3.84-4.36Z"/><path class="cls-10" d="M275.78,604.17c0-2.48-2.01-4.5-4.5-4.5-.73,0-1.39.21-2,.52.27,3.03,1.19,5.85,2.66,8.34,2.16-.33,3.84-2.11,3.84-4.36Z"/><path class="cls-12" d="M287.81,604.17c0-2.48-2.01-4.5-4.5-4.5s-4.5,2.01-4.5,4.5,2.01,4.5,4.5,4.5,4.5-2.01,4.5-4.5Z"/><path class="cls-10" d="M287.81,604.17c0-2.48-2.01-4.5-4.5-4.5s-4.5,2.01-4.5,4.5,2.01,4.5,4.5,4.5,4.5-2.01,4.5-4.5Z"/><path class="cls-12" d="M293.47,599.14c-2.48,0-4.5,2.01-4.5,4.5s2.01,4.5,4.5,4.5,4.5-2.01,4.5-4.5-2.01-4.5-4.5-4.5Z"/><path class="cls-10" d="M293.47,599.14c-2.48,0-4.5,2.01-4.5,4.5s2.01,4.5,4.5,4.5,4.5-2.01,4.5-4.5-2.01-4.5-4.5-4.5Z"/><path class="cls-12" d="M306.27,599.14c-2.48,0-4.5,2.01-4.5,4.5s1.95,4.4,4.37,4.47c1.39-2.47,2.25-5.25,2.46-8.23-.69-.43-1.46-.74-2.33-.74Z"/><path class="cls-10" d="M306.27,599.14c-2.48,0-4.5,2.01-4.5,4.5s1.95,4.4,4.37,4.47c1.39-2.47,2.25-5.25,2.46-8.23-.69-.43-1.46-.74-2.33-.74Z"/></g><circle class="cls-14" cx="187.99" cy="329.91" r="42.68"/><path class="cls-9" d="M187.98,337.5c-5.84,0-8.12-20.32-8.34-33.08,0-4.55,3.69-8.24,8.24-8.24h.21c4.55,0,8.24,3.69,8.24,8.24,0,0-1.65,33.47-8.36,33.08Z"/><circle class="cls-9" cx="187.99" cy="350.91" r="5.42"/></svg>