<?xml version="1.0" encoding="UTF-8"?><svg id="Layer_1" xmlns="http://www.w3.org/2000/svg" viewBox="0 0 1080 1080"><defs><style>.cls-1{fill:#08173b;}.cls-2{fill:#007baa;}.cls-3{fill:#1f3667;}.cls-4{fill:#96bbe3;}.cls-5{fill:#75bbe7;}.cls-6{fill:#0070aa;}.cls-7{fill:#1b75bb;}.cls-8{fill:#1a3f71;}.cls-9{fill:#262233;}.cls-10{fill:#393939;}.cls-11{fill:#005799;}.cls-12{fill:#86c541;stroke:#fff;stroke-miterlimit:10;stroke-width:.25px;}</style></defs><path d="M677.76,225.55l-247.54,34.79c-15.39,2.16-27.88,17.37-27.91,33.98l-1.12,602.03c-.03,16.61,12.41,28.31,27.8,26.15l247.54-34.79c15.39-2.16,27.88-17.37,27.91-33.98l1.12-602.03c.03-16.61-12.41-28.31-27.8-26.15Z"/><path class="cls-5" d="M697.89,251.68l-1.1,602.03c-.03,12.7-9.8,24.8-21.33,26.4l-247.55,34.8c-.87.13-1.73.18-2.58.18-4.31,0-8.19-1.58-11.15-4.57-3.47-3.47-5.36-8.49-5.36-14.16l1.12-602.03c.03-12.7,9.8-24.8,21.33-26.4l247.55-34.8c.84-.13,1.71-.18,2.55-.18,4.34,0,8.19,1.58,11.17,4.57,3.44,3.44,5.36,8.49,5.33,14.16Z"/><path d="M539.58,267.69c-.68.11-1.32.06-1.92-.11-.59-.17-1.13-.47-1.59-.87-.46-.4-.84-.91-1.1-1.49-.27-.59-.43-1.25-.45-1.97-.02-.71.1-1.42.33-2.08.23-.66.58-1.28,1.01-1.82.43-.54.96-1,1.54-1.36.58-.35,1.23-.6,1.91-.69l41.26-6.05c.62-.09,1.21-.04,1.75.14.54.17,1.02.47,1.43.86.4.39.73.88.96,1.44.22.56.35,1.19.35,1.87,0,.68-.13,1.36-.36,1.99s-.56,1.21-.96,1.73c-.41.51-.89.95-1.42,1.29-.54.34-1.12.57-1.74.67l-40.99,6.47M603.6,254.61c-.41.06-.8.03-1.15-.09-.35-.12-.67-.31-.93-.58-.26-.26-.47-.6-.62-.98-.14-.38-.22-.81-.21-1.28,0-.47.09-.92.25-1.35s.37-.82.65-1.17.59-.64.95-.87c.36-.22.75-.38,1.16-.44.41-.06.79-.02,1.14.1.35.12.66.32.92.59.26.27.47.6.61.98.14.38.22.81.21,1.27,0,.46-.1.92-.25,1.34-.16.42-.38.82-.65,1.16s-.59.64-.94.86c-.35.22-.74.38-1.15.44M634.52,238.65l-162.67,22.96,2.87,2.1c.76.56,1.46,1.18,2.1,1.86.64.67,1.22,1.39,1.73,2.16.51.76.96,1.57,1.34,2.42.38.84.68,1.72.91,2.63l1.09,4.35c.4,1.58,1.07,3,1.96,4.21.89,1.22,1.99,2.23,3.24,3.02,1.25.78,2.65,1.34,4.14,1.62,1.49.29,3.07.31,4.69.04l121.48-20.59c1.24-.21,2.43-.67,3.55-1.32,1.11-.65,2.14-1.51,3.05-2.52.91-1.01,1.69-2.17,2.32-3.43.62-1.27,1.09-2.65,1.34-4.09l.72-3.97c.15-.83.35-1.64.6-2.45.25-.8.56-1.59.91-2.36.35-.77.75-1.51,1.19-2.22.44-.71.93-1.39,1.46-2.03l1.98-2.39"/><path class="cls-9" d="M580.57,251.26l-41.26,6.05c-.68.1-1.33.34-1.91.69-.58.35-1.11.82-1.54,1.36-.43.54-.78,1.16-1.01,1.82-.23.66-.35,1.36-.33,2.08.02.72.18,1.39.45,1.97.27.58.64,1.09,1.1,1.49.46.4,1,.7,1.59.87.59.17,1.24.21,1.92.11l40.99-6.47c.62-.1,1.21-.33,1.74-.67.53-.34,1.02-.77,1.42-1.29.41-.51.73-1.1.96-1.73s.35-1.3.36-1.99c0-.68-.12-1.31-.35-1.87-.23-.56-.55-1.05-.96-1.44-.41-.39-.89-.69-1.43-.86-.54-.17-1.13-.23-1.75-.14"/><path class="cls-10" d="M584.67,255.46c-.23.63-.56,1.21-.96,1.73-.41.51-.89.95-1.42,1.29-.54.34-1.12.57-1.74.67l-40.99,6.47c-.68.11-1.32.06-1.92-.11-.59-.17-1.13-.47-1.59-.87-.46-.4-.84-.91-1.1-1.49-.15-.32-.25-.66-.33-1.02-.07.37-.1.75-.09,1.14.02.72.18,1.39.45,1.97.27.58.64,1.09,1.1,1.49.46.4,1,.7,1.59.87.59.17,1.24.21,1.92.11l40.99-6.47c.62-.1,1.21-.33,1.74-.67.53-.34,1.02-.77,1.42-1.29.4-.51.73-1.1.96-1.73.23-.63.35-1.3.36-1.99,0-.38-.05-.75-.12-1.1-.06.34-.15.67-.27,1Z"/><path class="cls-9" d="M603.7,247.86c-.41.06-.81.21-1.16.44-.36.22-.68.52-.95.87s-.49.74-.65,1.17-.24.88-.25,1.35c0,.47.07.9.21,1.28.14.38.35.71.62.98.26.26.58.46.93.58.35.12.74.15,1.15.09.41-.06.79-.22,1.15-.44.35-.22.67-.52.94-.86s.49-.74.65-1.16c.16-.42.24-.88.25-1.34,0-.46-.07-.89-.21-1.27-.14-.38-.35-.71-.61-.98-.26-.27-.58-.47-.92-.59-.35-.12-.74-.16-1.14-.1"/><path class="cls-10" d="M606.33,251.16c-.16.42-.38.82-.65,1.16-.27.34-.59.64-.94.86s-.74.38-1.15.44c-.41.06-.8.03-1.15-.09-.35-.12-.67-.31-.93-.58-.26-.26-.47-.6-.62-.98-.08-.22-.09-.48-.12-.72-.02.14-.08.28-.08.43,0,.47.07.9.21,1.28.14.38.35.71.62.98.26.26.58.46.93.58.35.12.74.15,1.15.09.41-.06.79-.22,1.15-.44.35-.22.67-.52.94-.86.27-.34.49-.74.65-1.16.16-.42.25-.88.25-1.34,0-.21-.07-.37-.09-.56-.04.31-.07.63-.17.92Z"/><path class="cls-4" d="M697.89,251.68l-1.1,602.03c-.03,12.7-9.8,24.8-21.33,26.4l-247.55,34.8c-.87.13-1.73.18-2.58.18-4.31,0-8.19-1.58-11.15-4.57L692.56,237.53c3.44,3.44,5.36,8.49,5.33,14.16Z"/><path class="cls-1" d="M413.68,919.71l-15.23-8.27-11.1-6.05c-7.78-4.23-12.93-12.91-12.91-23.6l20.71,11.28,6.02,3.27c0,.56,0,1.12.05,1.68,0,.38.03.79.08,1.17.03.46.08.92.15,1.38.13.97.31,1.94.51,2.86.08.36.18.69.28,1.05.28,1.1.64,2.14,1.07,3.16.18.48.38.94.61,1.4,2.19,4.59,5.59,8.27,9.74,10.66Z"/><path class="cls-1" d="M665.89,213.56c-.28-.15-.56-.3-.85-.44-.1-.05-.22-.09-.32-.14-.46-.22-.93-.42-1.41-.61-.19-.08-.38-.16-.57-.23-.67-.24-1.35-.46-2.05-.64-.01,0-.03,0-.04-.01-.09-.02-.18-.03-.26-.05-.59-.15-1.19-.27-1.8-.37-.24-.04-.48-.07-.72-.1-.49-.07-.98-.12-1.48-.15-.26-.02-.52-.03-.79-.04-.52-.02-1.04-.02-1.56,0-.24,0-.47,0-.71.02-.76.04-1.53.1-2.31.21l26.75,14.55c.78-.11,1.55-.17,2.31-.21.24-.01.47-.01.71-.02.53-.01,1.05-.01,1.56,0,.26.01.53.03.79.04.5.04,1,.09,1.49.15.24.03.48.06.71.1.61.1,1.21.22,1.8.37.1.02.2.04.3.07.7.18,1.38.4,2.05.64.19.07.38.15.57.23.48.19.95.39,1.41.61.39.19.79.37,1.17.58l-26.75-14.55Z"/><polygon class="cls-1" points="430.21 260.34 403.47 245.79 651.01 211 677.76 225.55 430.21 260.34"/><polygon class="cls-11" points="402.31 294.31 401.21 876.98 374.47 864.76 375.55 279.77 402.31 294.31"/><path class="cls-3" d="M403.47,245.79c-.86.12-1.72.3-2.56.5-.24.06-.49.13-.73.19-.64.17-1.26.36-1.89.58-.22.08-.45.15-.67.23-.78.29-1.55.6-2.31.96-.02.01-.05.03-.07.04-.21.1-.41.22-.62.33-.61.31-1.23.62-1.82.97-.3.17-.58.37-.87.55-.38.24-.77.47-1.14.72-.08.06-.15.13-.23.18-1.02.72-2.01,1.5-2.95,2.34-.06.05-.12.09-.18.14-.16.14-.29.3-.44.45-.68.64-1.35,1.3-1.98,2-.13.15-.29.27-.42.42-.11.12-.2.26-.3.39-.68.79-1.33,1.62-1.95,2.47-.08.11-.18.21-.26.32-.02.02-.03.05-.05.08-.73,1.04-1.39,2.13-2.01,3.25-.07.12-.15.23-.21.35-.19.36-.36.73-.54,1.09-.15.3-.3.59-.44.9-.31.67-.59,1.35-.86,2.04-.07.19-.16.37-.23.56-.01.03-.03.06-.04.09-.19.51-.33,1.03-.5,1.55-.13.41-.28.82-.4,1.24-.16.58-.28,1.17-.41,1.75-.09.4-.2.8-.28,1.2-.12.66-.2,1.34-.28,2.01-.04.34-.11.67-.14,1.01-.1,1.02-.15,2.04-.15,3.07l26.75,14.55c0-1.03.05-2.06.15-3.07.03-.34.1-.68.14-1.02.08-.67.16-1.34.28-2,.07-.4.18-.8.27-1.19.13-.59.25-1.18.41-1.76.12-.42.27-.83.4-1.25.17-.55.33-1.1.53-1.63.07-.19.16-.38.24-.58.27-.69.55-1.37.86-2.04.14-.3.29-.59.44-.89.24-.48.49-.96.75-1.44.62-1.12,1.28-2.21,2.01-3.25.1-.14.21-.27.3-.4.61-.85,1.27-1.68,1.95-2.47.23-.27.48-.54.72-.81.64-.7,1.3-1.36,1.98-2,.21-.2.41-.4.62-.59.94-.84,1.93-1.62,2.96-2.34.45-.32.91-.61,1.37-.9.29-.18.57-.38.87-.55.59-.35,1.21-.67,1.82-.97.21-.11.41-.23.62-.33.78-.37,1.57-.69,2.38-.99.22-.08.45-.15.67-.23.62-.21,1.25-.4,1.88-.57.24-.07.48-.13.73-.19.84-.2,1.7-.38,2.56-.5l-26.75-14.55Z"/><polygon class="cls-3" points="401.21 876.98 401.18 896.34 374.45 881.8 374.47 864.76 401.21 876.98"/><path class="cls-8" d="M679.6,221.02c-1.79-.15-3.65-.1-5.54.18l-3.42.48-246.2,34.59c-15.54,2.17-28.11,17.53-28.16,34.26l-1.12,602.54v4.54c0,5.18,1.17,9.87,3.29,13.83l15.23,8.27c-4.16-2.4-7.55-6.07-9.74-10.66-.23-.46-.43-.92-.61-1.4-.43-1.02-.79-2.07-1.07-3.16-.1-.33-.2-.69-.28-1.05-.2-.92-.38-1.89-.51-2.86-.08-.46-.13-.92-.15-1.38-.05-.38-.08-.79-.08-1.17-.05-.56-.05-1.12-.05-1.68l1.12-602.03c.03-16.61,12.53-31.81,27.91-33.95l247.55-34.8c.59-.08,1.15-.15,1.73-.18.97-.08,1.91-.1,2.83-.05.79.03,1.56.08,2.3.2.1,0,.2,0,.28.03.28.05.56.08.84.13,1.51.28,2.93.69,4.31,1.25.46.15.94.36,1.4.59.28.13.56.28.84.43l-12.7-6.94Z"/><path class="cls-8" d="M382.06,456.82l.87.49c2.27,1.29,5.1-.35,5.1-2.96l.08-60.63c0-1.23-.66-2.36-1.72-2.97l-.87-.49c-2.27-1.29-5.1.35-5.1,2.96l-.08,60.63c0,1.23.66,2.36,1.72,2.97Z"/><path class="cls-6" d="M380.68,456.82l.87.49c2.27,1.29,5.1-.35,5.1-2.96l.08-60.63c0-1.23-.66-2.36-1.72-2.97l-.87-.49c-2.27-1.29-5.1.35-5.1,2.96l-.08,60.63c0,1.23.66,2.36,1.72,2.97Z"/><path class="cls-2" d="M385.59,454.35l.08-60.63c0-1.23-.66-2.36-1.72-2.97l-.87-.49c-.37-.21-.76-.32-1.14-.38.72-.11,1.49-.02,2.2.38l.87.49c1.07.61,1.73,1.74,1.72,2.97l-.08,60.63c0,2.19-1.98,3.67-3.96,3.34,1.57-.25,2.9-1.55,2.9-3.34Z"/><path class="cls-7" d="M382.79,389.86c-1.63.18-3.04,1.52-3.05,3.37l-.08,60.63c0,1.23.66,2.36,1.72,2.97l.87.49c.44.25.89.36,1.34.4-.68.08-1.39-.03-2.06-.41l-.87-.49c-1.07-.61-1.73-1.74-1.72-2.97l.08-60.63c0-2.11,1.85-3.56,3.76-3.37Z"/><path class="cls-8" d="M382.63,380.46l.53.3c1.4.79,3.13-.21,3.13-1.82l.05-17.31c0-.75-.4-1.45-1.06-1.82l-.53-.3c-1.4-.79-3.13.21-3.13,1.82l-.05,17.31c0,.75.4,1.45,1.06,1.82Z"/><path class="cls-6" d="M381.78,380.46l.53.3c1.4.79,3.13-.21,3.13-1.82l.05-17.31c0-.75-.4-1.45-1.06-1.82l-.53-.3c-1.4-.8-3.13.21-3.13,1.82l-.05,17.31c0,.75.4,1.45,1.06,1.82Z"/><path class="cls-2" d="M384.8,378.94l.05-17.31c0-.75-.4-1.45-1.06-1.82l-.53-.3c-.23-.13-.47-.2-.7-.23.44-.07.91-.02,1.35.24l.53.3c.66.37,1.06,1.07,1.06,1.82l-.05,17.3c0,1.34-1.22,2.25-2.43,2.05.96-.15,1.78-.95,1.78-2.05Z"/><path class="cls-7" d="M383.08,359.26c-1,.11-1.87.93-1.87,2.07l-.05,17.31c0,.75.4,1.45,1.06,1.82l.53.3c.27.15.55.22.83.25-.42.05-.85-.02-1.26-.25l-.53-.3c-.66-.37-1.06-1.07-1.06-1.82l.05-17.31c0-1.3,1.14-2.19,2.31-2.07Z"/><path class="cls-8" d="M382.13,531.57l.87.49c2.27,1.29,5.1-.35,5.1-2.96l.08-60.63c0-1.23-.66-2.36-1.72-2.97l-.87-.49c-2.27-1.29-5.1.35-5.1,2.96l-.08,60.63c0,1.23.66,2.36,1.72,2.97Z"/><path class="cls-6" d="M380.75,531.56l.87.49c2.27,1.29,5.1-.35,5.1-2.96l.08-60.63c0-1.23-.66-2.36-1.72-2.97l-.87-.49c-2.27-1.29-5.1.35-5.1,2.96l-.08,60.63c0,1.23.66,2.36,1.72,2.97Z"/><path class="cls-2" d="M385.66,529.1l.08-60.63c0-1.23-.66-2.36-1.72-2.97l-.87-.49c-.37-.21-.76-.32-1.14-.38.72-.11,1.49-.02,2.2.38l.87.49c1.07.61,1.73,1.74,1.72,2.97l-.08,60.63c0,2.19-1.98,3.67-3.96,3.34,1.57-.25,2.9-1.55,2.9-3.34Z"/><path class="cls-7" d="M382.86,464.6c-1.63.18-3.04,1.52-3.05,3.37l-.08,60.63c0,1.23.66,2.36,1.72,2.97l.87.49c.44.25.89.36,1.34.4-.68.08-1.39-.03-2.05-.41l-.87-.49c-1.07-.61-1.73-1.74-1.72-2.97l.08-60.63c0-2.11,1.85-3.56,3.76-3.37Z"/><polygon class="cls-6" points="375.44 335.53 396.19 342.88 396.17 348.84 375.43 341.94 375.44 335.53"/><polygon class="cls-6" points="396.19 342.88 402.22 342.19 402.31 348.19 396.17 348.84 396.19 342.88"/><polygon class="cls-6" points="374.54 831.09 395.26 838.44 395.26 844.41 374.54 837.52 374.54 831.09"/><polygon class="cls-6" points="395.26 838.44 401.29 837.74 401.28 843.75 395.26 844.41 395.26 838.44"/><polygon class="cls-6" points="644.45 211.93 662.68 222.8 655.59 223.8 637.82 212.86 644.45 211.93"/><polygon class="cls-2" points="662.68 222.8 663.17 227.61 656.17 228.55 655.59 223.8 662.68 222.8"/><line class="cls-12" x1="567.57" y1="523.05" x2="504.19" y2="561.91"/><line class="cls-12" x1="544.98" y1="549.04" x2="637.9" y2="497.06"/><line class="cls-12" x1="534.44" y1="574.03" x2="611.37" y2="526.98"/><line class="cls-12" x1="595.21" y1="491.02" x2="519.05" y2="534.26"/><line class="cls-12" x1="587.11" y1="510.64" x2="651.01" y2="474.68"/></svg>