<?xml version="1.0" encoding="UTF-8"?><svg id="Layer_1" xmlns="http://www.w3.org/2000/svg" viewBox="0 0 1080 1080"><defs><style>.cls-1,.cls-2{fill:#1e2435;}.cls-3{fill:#6a5855;}.cls-4,.cls-5{fill:#fff;}.cls-4,.cls-5,.cls-6,.cls-2,.cls-7,.cls-8,.cls-9,.cls-10{stroke-miterlimit:10;}.cls-4,.cls-5,.cls-7,.cls-9{stroke:#231f20;}.cls-4,.cls-2,.cls-8{stroke-width:3px;}.cls-5,.cls-6,.cls-7{stroke-width:2px;}.cls-6{fill:#005699;stroke:#08173b;}.cls-11,.cls-8{fill:#231f20;}.cls-2,.cls-8{stroke:#e30613;}.cls-7{fill:#d0d2d3;}.cls-9,.cls-10{fill:none;}.cls-10{stroke:#fff;stroke-width:.25px;}</style></defs><rect class="cls-5" x="410.46" y="277.95" width="253.75" height="59.63" transform="translate(-1.65 2.9) rotate(-.31)"/><rect class="cls-1" x="409.68" y="218.96" width="258.92" height="14.6" transform="translate(-1.21 2.91) rotate(-.31)"/><rect class="cls-9" x="407.45" y="232.92" width="263.79" height="14.6" transform="translate(-1.29 2.91) rotate(-.31)"/><path class="cls-6" d="M664.23,284.57l-248.27,1.34c-10.29.06-18.76-8.32-18.81-18.61h0c-.06-10.29,8.32-18.76,18.61-18.81l248.27-1.34c10.29-.06,18.76,8.32,18.81,18.61h0c.06,10.29-8.32,18.76-18.61,18.81Z"/><rect class="cls-11" x="410.37" y="284.34" width="253.75" height="13.69" transform="translate(-1.56 2.9) rotate(-.31)"/><rect class="cls-6" x="410.64" y="336.06" width="253.75" height="11.87" transform="translate(-1.83 2.9) rotate(-.31)"/><rect class="cls-8" x="401.46" y="346.23" width="270.79" height="32.87" rx="3.54" ry="3.54" transform="translate(-1.94 2.9) rotate(-.31)"/><rect class="cls-3" x="415.56" y="347.31" width="5.77" height="31.98" transform="translate(-1.95 2.26) rotate(-.31)"/><rect class="cls-3" x="429.43" y="347.24" width="5.77" height="31.98" transform="translate(-1.95 2.34) rotate(-.31)"/><rect class="cls-3" x="441.42" y="347.17" width="5.77" height="31.98" transform="translate(-1.95 2.4) rotate(-.31)"/><rect class="cls-3" x="455.42" y="347.1" width="5.77" height="31.98" transform="translate(-1.93 2.45) rotate(-.31)"/><rect class="cls-3" x="469.29" y="347.02" width="5.77" height="31.98" transform="translate(-1.95 2.55) rotate(-.31)"/><rect class="cls-3" x="484.51" y="346.94" width="5.77" height="31.98" transform="translate(-1.93 2.61) rotate(-.31)"/><rect class="cls-3" x="498.52" y="346.87" width="5.77" height="31.98" transform="translate(-1.95 2.71) rotate(-.31)"/><rect class="cls-3" x="512.39" y="346.79" width="5.77" height="31.98" transform="translate(-1.95 2.79) rotate(-.31)"/><rect class="cls-3" x="525.72" y="346.72" width="5.77" height="31.98" transform="translate(-1.95 2.86) rotate(-.31)"/><rect class="cls-3" x="539.73" y="346.64" width="5.77" height="31.98" transform="translate(-1.93 2.9) rotate(-.31)"/><rect class="cls-3" x="553.6" y="346.57" width="5.77" height="31.98" transform="translate(-1.93 2.98) rotate(-.31)"/><rect class="cls-3" x="568.82" y="346.49" width="5.77" height="31.98" transform="translate(-1.95 3.09) rotate(-.31)"/><rect class="cls-3" x="582.82" y="346.41" width="5.77" height="31.98" transform="translate(-1.95 3.17) rotate(-.31)"/><rect class="cls-3" x="596.7" y="346.34" width="5.77" height="31.98" transform="translate(-1.95 3.24) rotate(-.31)"/><rect class="cls-3" x="612.27" y="346.25" width="5.77" height="31.98" transform="translate(-1.95 3.32) rotate(-.31)"/><rect class="cls-3" x="626.28" y="346.18" width="5.77" height="31.98" transform="translate(-1.93 3.37) rotate(-.31)"/><rect class="cls-3" x="640.15" y="346.1" width="5.77" height="31.98" transform="translate(-1.92 3.44) rotate(-.31)"/><rect class="cls-3" x="655.37" y="346.02" width="5.77" height="31.98" transform="translate(-1.94 3.56) rotate(-.31)"/><path class="cls-4" d="M403.14,430.38h268.49c3.24,0,5.86,2.63,5.86,5.86v43.95c0,3.24-2.63,5.86-5.86,5.86h-268.49c-3.24,0-5.86-2.63-5.86-5.86v-43.95c0-3.24,2.63-5.86,5.86-5.86Z" transform="translate(-2.46 2.9) rotate(-.31)"/><polygon class="cls-6" points="670.75 562.93 405.75 564.36 405.33 486.77 671.77 485.34 670.44 505.08 670.88 519.8 670.91 529.39 670.91 540.06 670.75 562.93"/><rect class="cls-7" x="404.77" y="590.54" width="270.79" height="43.28" rx="4.07" ry="4.07" transform="translate(-3.29 2.92) rotate(-.31)"/><rect class="cls-3" x="418.86" y="591.76" width="5.77" height="42.11" transform="translate(-3.27 2.26) rotate(-.31)"/><rect class="cls-3" x="432.74" y="591.68" width="5.77" height="42.11" transform="translate(-3.3 2.36) rotate(-.31)"/><rect class="cls-3" x="444.72" y="591.62" width="5.77" height="42.11" transform="translate(-3.3 2.42) rotate(-.31)"/><rect class="cls-3" x="458.73" y="591.54" width="5.77" height="42.11" transform="translate(-3.3 2.5) rotate(-.31)"/><rect class="cls-3" x="472.6" y="591.47" width="5.77" height="42.11" transform="translate(-3.3 2.57) rotate(-.31)"/><rect class="cls-3" x="487.82" y="591.39" width="5.77" height="42.11" transform="translate(-3.3 2.66) rotate(-.31)"/><rect class="cls-3" x="501.82" y="591.31" width="5.77" height="42.11" transform="translate(-3.3 2.73) rotate(-.31)"/><rect class="cls-3" x="515.7" y="591.24" width="5.77" height="42.11" transform="translate(-3.3 2.81) rotate(-.31)"/><rect class="cls-3" x="529.03" y="591.17" width="5.77" height="42.11" transform="translate(-3.3 2.88) rotate(-.31)"/><rect class="cls-3" x="543.03" y="591.09" width="5.77" height="42.11" transform="translate(-3.29 2.95) rotate(-.31)"/><rect class="cls-3" x="556.91" y="591.02" width="5.77" height="42.11" transform="translate(-3.29 3.03) rotate(-.31)"/><rect class="cls-3" x="572.12" y="590.93" width="5.77" height="42.11" transform="translate(-3.29 3.11) rotate(-.31)"/><rect class="cls-3" x="586.13" y="590.86" width="5.77" height="42.11" transform="translate(-3.26 3.15) rotate(-.31)"/><rect class="cls-3" x="600" y="590.78" width="5.77" height="42.11" transform="translate(-3.29 3.26) rotate(-.31)"/><rect class="cls-3" x="615.58" y="590.7" width="5.77" height="42.11" transform="translate(-3.29 3.35) rotate(-.31)"/><rect class="cls-3" x="629.58" y="590.62" width="5.77" height="42.11" transform="translate(-3.29 3.42) rotate(-.31)"/><rect class="cls-3" x="643.46" y="590.55" width="5.77" height="42.11" transform="translate(-3.29 3.5) rotate(-.31)"/><rect class="cls-3" x="658.67" y="590.47" width="5.77" height="42.11" transform="translate(-3.29 3.58) rotate(-.31)"/><rect class="cls-8" x="400.76" y="400.72" width="271.7" height="32.87" rx="3.55" ry="3.55" transform="translate(-2.24 2.9) rotate(-.31)"/><rect class="cls-3" x="414.9" y="401.8" width="5.79" height="31.98" transform="translate(-2.24 2.25) rotate(-.31)"/><rect class="cls-3" x="428.82" y="401.72" width="5.79" height="31.98" transform="translate(-2.24 2.33) rotate(-.31)"/><rect class="cls-3" x="440.85" y="401.66" width="5.79" height="31.98" transform="translate(-2.24 2.39) rotate(-.31)"/><rect class="cls-3" x="454.9" y="401.58" width="5.79" height="31.98" transform="translate(-2.24 2.47) rotate(-.31)"/><rect class="cls-3" x="468.82" y="401.51" width="5.79" height="31.98" transform="translate(-2.24 2.54) rotate(-.31)"/><rect class="cls-3" x="484.09" y="401.43" width="5.79" height="31.98" transform="translate(-2.24 2.62) rotate(-.31)"/><rect class="cls-3" x="498.14" y="401.35" width="5.79" height="31.98" transform="translate(-2.24 2.7) rotate(-.31)"/><rect class="cls-3" x="512.06" y="401.28" width="5.79" height="31.98" transform="translate(-2.26 2.8) rotate(-.31)"/><rect class="cls-3" x="525.44" y="401.2" width="5.79" height="31.98" transform="translate(-2.24 2.85) rotate(-.31)"/><rect class="cls-3" x="539.49" y="401.13" width="5.79" height="31.98" transform="translate(-2.24 2.92) rotate(-.31)"/><rect class="cls-3" x="553.41" y="401.05" width="5.79" height="31.98" transform="translate(-2.23 3) rotate(-.31)"/><rect class="cls-3" x="568.68" y="400.97" width="5.79" height="31.98" transform="translate(-2.23 3.08) rotate(-.31)"/><rect class="cls-3" x="582.73" y="400.9" width="5.79" height="31.98" transform="translate(-2.23 3.16) rotate(-.31)"/><rect class="cls-3" x="596.65" y="400.82" width="5.79" height="31.98" transform="translate(-2.25 3.26) rotate(-.31)"/><rect class="cls-3" x="612.28" y="400.74" width="5.79" height="31.98" transform="translate(-2.23 3.31) rotate(-.31)"/><rect class="cls-3" x="626.33" y="400.66" width="5.79" height="31.98" transform="translate(-2.23 3.39) rotate(-.31)"/><rect class="cls-3" x="640.25" y="400.59" width="5.79" height="31.98" transform="translate(-2.23 3.46) rotate(-.31)"/><rect class="cls-3" x="655.52" y="400.5" width="5.79" height="31.98" transform="translate(-2.23 3.55) rotate(-.31)"/><rect class="cls-2" x="400.14" y="371.76" width="272.61" height="32.87" rx="3.55" ry="3.55" transform="translate(-21.32 31.32) rotate(-3.28)"/><rect class="cls-3" x="414.42" y="372.88" width="5.81" height="31.98" transform="translate(-2.08 2.24) rotate(-.31)"/><rect class="cls-3" x="428.39" y="372.8" width="5.81" height="31.98" transform="translate(-2.1 2.34) rotate(-.31)"/><rect class="cls-3" x="440.45" y="372.74" width="5.81" height="31.98" transform="translate(-2.08 2.38) rotate(-.31)"/><rect class="cls-3" x="454.56" y="372.66" width="5.81" height="31.98" transform="translate(-2.08 2.46) rotate(-.31)"/><rect class="cls-3" x="468.52" y="372.59" width="5.81" height="31.98" transform="translate(-2.1 2.56) rotate(-.31)"/><rect class="cls-3" x="483.84" y="372.5" width="5.81" height="31.98" transform="translate(-2.1 2.64) rotate(-.31)"/><rect class="cls-3" x="497.94" y="372.43" width="5.81" height="31.98" transform="translate(-2.1 2.72) rotate(-.31)"/><rect class="cls-3" x="511.91" y="372.35" width="5.81" height="31.98" transform="translate(-2.07 2.76) rotate(-.31)"/><rect class="cls-3" x="525.33" y="372.28" width="5.81" height="31.98" transform="translate(-2.07 2.84) rotate(-.31)"/><rect class="cls-3" x="539.43" y="372.2" width="5.81" height="31.98" transform="translate(1086.76 773.45) rotate(179.69)"/><rect class="cls-3" x="553.39" y="372.13" width="5.81" height="31.98" transform="translate(-2.09 3.02) rotate(-.31)"/><rect class="cls-3" x="568.71" y="372.05" width="5.81" height="31.98" transform="translate(-2.09 3.1) rotate(-.31)"/><rect class="cls-3" x="582.82" y="371.97" width="5.81" height="31.98" transform="translate(-2.07 3.14) rotate(-.31)"/><rect class="cls-3" x="596.78" y="371.9" width="5.81" height="31.98" transform="translate(-2.07 3.22) rotate(-.31)"/><rect class="cls-3" x="612.46" y="371.81" width="5.81" height="31.98" transform="translate(-2.07 3.3) rotate(-.31)"/><rect class="cls-3" x="626.56" y="371.73" width="5.81" height="31.98" transform="translate(-2.07 3.38) rotate(-.31)"/><rect class="cls-3" x="640.53" y="371.66" width="5.81" height="31.98" transform="translate(-2.09 3.49) rotate(-.31)"/><rect class="cls-3" x="655.85" y="371.58" width="5.81" height="31.98" transform="translate(-2.09 3.57) rotate(-.31)"/><rect class="cls-1" x="403.58" y="624.19" width="272.61" height="43.28" rx="4.08" ry="4.08" transform="translate(-3.47 2.92) rotate(-.31)"/><rect class="cls-3" x="417.77" y="625.42" width="5.81" height="42.11" transform="translate(-3.46 2.26) rotate(-.31)"/><rect class="cls-3" x="431.74" y="625.34" width="5.81" height="42.11" transform="translate(-3.46 2.34) rotate(-.31)"/><rect class="cls-3" x="443.8" y="625.28" width="5.81" height="42.11" transform="translate(-3.49 2.43) rotate(-.31)"/><rect class="cls-3" x="457.9" y="625.2" width="5.81" height="42.11" transform="translate(-3.49 2.5) rotate(-.31)"/><rect class="cls-3" x="471.87" y="625.13" width="5.81" height="42.11" transform="translate(-3.46 2.55) rotate(-.31)"/><rect class="cls-3" x="487.19" y="625.04" width="5.81" height="42.11" transform="translate(-3.46 2.64) rotate(-.31)"/><rect class="cls-3" x="501.29" y="624.97" width="5.81" height="42.11" transform="translate(-3.45 2.71) rotate(-.31)"/><rect class="cls-3" x="515.26" y="624.89" width="5.81" height="42.11" transform="translate(-3.49 2.81) rotate(-.31)"/><rect class="cls-3" x="528.68" y="624.82" width="5.81" height="42.11" transform="translate(-3.49 2.89) rotate(-.31)"/><rect class="cls-3" x="542.78" y="624.74" width="5.81" height="42.11" transform="translate(-3.49 2.96) rotate(-.31)"/><rect class="cls-3" x="556.74" y="624.67" width="5.81" height="42.11" transform="translate(-3.45 3.01) rotate(-.31)"/><rect class="cls-3" x="572.06" y="624.59" width="5.81" height="42.11" transform="translate(-3.45 3.09) rotate(-.31)"/><rect class="cls-3" x="586.16" y="624.51" width="5.81" height="42.11" transform="translate(-3.45 3.17) rotate(-.31)"/><rect class="cls-3" x="600.13" y="624.43" width="5.81" height="42.11" transform="translate(-3.48 3.27) rotate(-.31)"/><rect class="cls-3" x="615.81" y="624.35" width="5.81" height="42.11" transform="translate(-3.48 3.36) rotate(-.31)"/><rect class="cls-3" x="629.91" y="624.27" width="5.81" height="42.11" transform="translate(-3.48 3.43) rotate(-.31)"/><rect class="cls-3" x="643.88" y="624.2" width="5.81" height="42.11" transform="translate(-3.45 3.48) rotate(-.31)"/><rect class="cls-3" x="659.2" y="624.12" width="5.81" height="42.11" transform="translate(-3.45 3.56) rotate(-.31)"/><rect class="cls-7" x="404.15" y="662.28" width="271.7" height="43.28" rx="4.07" ry="4.07" transform="translate(-3.67 2.92) rotate(-.31)"/><rect class="cls-3" x="418.3" y="663.5" width="5.79" height="42.11" transform="translate(-3.68 2.27) rotate(-.31)"/><rect class="cls-3" x="432.22" y="663.43" width="5.79" height="42.11" transform="translate(-3.67 2.35) rotate(-.31)"/><rect class="cls-3" x="444.24" y="663.36" width="5.79" height="42.11" transform="translate(-3.67 2.41) rotate(-.31)"/><rect class="cls-3" x="458.3" y="663.29" width="5.79" height="42.11" transform="translate(-3.67 2.49) rotate(-.31)"/><rect class="cls-3" x="472.22" y="663.21" width="5.79" height="42.11" transform="translate(-3.67 2.56) rotate(-.31)"/><rect class="cls-3" x="487.49" y="663.13" width="5.79" height="42.11" transform="translate(-3.67 2.65) rotate(-.31)"/><rect class="cls-3" x="501.54" y="663.05" width="5.79" height="42.11" transform="translate(-3.67 2.72) rotate(-.31)"/><rect class="cls-3" x="515.46" y="662.98" width="5.79" height="42.11" transform="translate(-3.67 2.8) rotate(-.31)"/><rect class="cls-3" x="528.83" y="662.91" width="5.79" height="42.11" transform="translate(-3.67 2.87) rotate(-.31)"/><rect class="cls-3" x="542.89" y="662.83" width="5.79" height="42.11" transform="translate(-3.67 2.94) rotate(-.31)"/><rect class="cls-3" x="556.81" y="662.76" width="5.79" height="42.11" transform="translate(-3.67 3.02) rotate(-.31)"/><rect class="cls-3" x="572.08" y="662.67" width="5.79" height="42.11" transform="translate(-3.67 3.1) rotate(-.31)"/><rect class="cls-3" x="586.13" y="662.6" width="5.79" height="42.11" transform="translate(-3.67 3.18) rotate(-.31)"/><rect class="cls-3" x="600.05" y="662.52" width="5.79" height="42.11" transform="translate(-3.67 3.25) rotate(-.31)"/><rect class="cls-3" x="615.68" y="662.44" width="5.79" height="42.11" transform="translate(-3.67 3.34) rotate(-.31)"/><rect class="cls-3" x="629.73" y="662.36" width="5.79" height="42.11" transform="translate(-3.67 3.41) rotate(-.31)"/><rect class="cls-3" x="643.65" y="662.29" width="5.79" height="42.11" transform="translate(-3.67 3.49) rotate(-.31)"/><rect class="cls-3" x="658.92" y="662.21" width="5.79" height="42.11" transform="translate(-3.66 3.57) rotate(-.31)"/><rect class="cls-11" x="405.52" y="563.26" width="265.31" height="29.52" transform="translate(-3.1 2.91) rotate(-.31)"/><rect class="cls-6" x="414.93" y="705.57" width="251.16" height="19.17" transform="translate(-3.84 2.92) rotate(-.31)"/><rect class="cls-1" x="414.72" y="724.74" width="251.92" height="14.83" transform="translate(-3.93 2.92) rotate(-.31)"/><rect class="cls-9" x="414.13" y="739.19" width="252.53" height="49.9" transform="translate(-4.11 2.92) rotate(-.31)"/><polygon class="cls-11" points="414.27 789.77 429.57 806.72 657.15 804.89 666.8 788.41 414.27 789.77"/><rect class="cls-4" x="436.31" y="801.85" width="216.02" height="27.38" transform="translate(-4.38 2.94) rotate(-.31)"/><rect class="cls-6" x="444.35" y="818" width="198.37" height="43.2" transform="translate(-4.51 2.94) rotate(-.31)"/><line class="cls-10" x1="397.15" y1="738.51" x2="434.67" y2="766.08"/><line class="cls-10" x1="781.66" y1="835.5" x2="817.13" y2="863.33"/><line class="cls-10" x1="423.73" y1="220.04" x2="423.73" y2="242.19"/></svg>