<?xml version="1.0" encoding="UTF-8"?><svg id="Layer_1" xmlns="http://www.w3.org/2000/svg" viewBox="0 0 1080 1080"><defs><style>.cls-1{stroke-width:3px;}.cls-1,.cls-2,.cls-3,.cls-4{fill:none;}.cls-1,.cls-2,.cls-4{stroke-miterlimit:10;}.cls-1,.cls-4{stroke:#e30613;}.cls-2{stroke:#39b54a;stroke-width:6px;}.cls-4{stroke-width:4px;}</style></defs><rect class="cls-3" x="212.31" y="249.22" width="655.37" height="581.55"/><polyline class="cls-2" points="747.06 249.22 867.69 249.22 867.69 378.63"/><polyline class="cls-2" points="747.06 830.78 867.69 830.78 867.69 714.63"/><polyline class="cls-2" points="212.31 714.63 212.31 830.78 327.06 830.78"/><polyline class="cls-2" points="212.31 378.63 212.31 249.22 327.06 249.22"/><path class="cls-4" d="M678.97,540.29c-.16,75.61-61.29,136.62-136.91,136.62s-136.91-61.3-136.91-136.91,61.3-136.91,136.91-136.91,137.07,61.59,136.91,137.2Z"/><line class="cls-1" x1="542.53" y1="313.93" x2="542.15" y2="495.84"/><line class="cls-1" x1="541.97" y1="581.21" x2="541.59" y2="763.12"/><line class="cls-1" x1="588.03" y1="544.75" x2="768.83" y2="545.13"/><line class="cls-1" x1="492.88" y1="542.88" x2="313.12" y2="544.17"/></svg>