<?xml version="1.0" encoding="UTF-8"?><svg id="Layer_1" xmlns="http://www.w3.org/2000/svg" xmlns:xlink="http://www.w3.org/1999/xlink" viewBox="0 0 1080 1080"><defs><style>.cls-1{fill:url(#linear-gradient-15);}.cls-2{fill:url(#linear-gradient-13);}.cls-3{fill:#29abe2;}.cls-4{fill:url(#linear-gradient-2);}.cls-5{fill:url(#linear-gradient-10);}.cls-6{fill:url(#linear-gradient-12);}.cls-7{fill:#fff;}.cls-8{fill:#262626;}.cls-9{fill:none;}.cls-10{fill:url(#linear-gradient-4);}.cls-11{opacity:.38;}.cls-11,.cls-12{fill:#1c75bc;}.cls-13{fill:url(#linear-gradient-3);}.cls-14{fill:#e30613;}.cls-15{fill:url(#linear-gradient-5);}.cls-16{fill:url(#linear-gradient-8);}.cls-17{fill:url(#linear-gradient-14);}.cls-18{fill:#333;}.cls-19{fill:url(#linear-gradient-17);}.cls-20{fill:url(#linear-gradient-7);}.cls-21{fill:#1a1a1a;}.cls-22{fill:url(#linear-gradient-9);}.cls-23{fill:url(#linear-gradient-11);}.cls-24{fill:url(#linear-gradient-6);}.cls-25{fill:#555658;}.cls-26{fill:#ed1c24;}.cls-27{fill:url(#linear-gradient-16);}.cls-28{fill:url(#linear-gradient);}</style><linearGradient id="linear-gradient" x1="180.69" y1="630.48" x2="182.68" y2="630.48" gradientUnits="userSpaceOnUse"><stop offset="0" stop-color="#666"/><stop offset=".07" stop-color="#5b5b5b"/><stop offset=".29" stop-color="#414141"/><stop offset=".52" stop-color="#2e2e2e"/><stop offset=".75" stop-color="#222"/><stop offset="1" stop-color="#1f1f1f"/></linearGradient><linearGradient id="linear-gradient-2" x1="180.66" y1="764.44" x2="183.54" y2="764.44" gradientUnits="userSpaceOnUse"><stop offset="0" stop-color="#fff"/><stop offset="0" stop-color="#fdfdfd"/><stop offset=".12" stop-color="#c3c3c3"/><stop offset=".25" stop-color="#8f8f8f"/><stop offset=".37" stop-color="#636363"/><stop offset=".5" stop-color="#3f3f3f"/><stop offset=".62" stop-color="#232323"/><stop offset=".75" stop-color="#0f0f0f"/><stop offset=".87" stop-color="#030303"/><stop offset="1" stop-color="#000"/></linearGradient><linearGradient id="linear-gradient-3" y1="903.46" y2="903.46" xlink:href="#linear-gradient-2"/><linearGradient id="linear-gradient-4" x1="864.31" y1="413.91" x2="920.37" y2="451.53" gradientUnits="userSpaceOnUse"><stop offset="0" stop-color="#4d4d4d"/><stop offset="1" stop-color="#1a1a1a"/></linearGradient><linearGradient id="linear-gradient-5" x1="195.68" y1="450.56" x2="252.63" y2="412.75" xlink:href="#linear-gradient-4"/><linearGradient id="linear-gradient-6" x1="195.33" y1="1156.56" x2="919.52" y2="1156.56" gradientUnits="userSpaceOnUse"><stop offset="0" stop-color="#2e2e2e"/><stop offset=".07" stop-color="#000"/><stop offset=".18" stop-color="#363636"/><stop offset=".8" stop-color="#363636"/><stop offset=".94" stop-color="#000"/><stop offset="1" stop-color="#2e2e2e"/></linearGradient><linearGradient id="linear-gradient-7" x1="636.9" y1="452.75" x2="642.9" y2="459.98" gradientUnits="userSpaceOnUse"><stop offset="0" stop-color="#5482ff"/><stop offset=".08" stop-color="#4064c5" stop-opacity=".84"/><stop offset=".17" stop-color="#2f4a91" stop-opacity=".7"/><stop offset=".25" stop-color="#213364" stop-opacity=".58"/><stop offset=".34" stop-color="#152040" stop-opacity=".48"/><stop offset=".43" stop-color="#0b1224" stop-opacity=".4"/><stop offset=".51" stop-color="#050810" stop-opacity=".34"/><stop offset=".6" stop-color="#010204" stop-opacity=".31"/><stop offset=".68" stop-color="#000" stop-opacity=".3"/></linearGradient><linearGradient id="linear-gradient-8" x1="632.63" y1="452.97" x2="638.53" y2="460.08" gradientUnits="userSpaceOnUse"><stop offset="0" stop-color="#5482ff"/><stop offset=".07" stop-color="#4064c5" stop-opacity=".84"/><stop offset=".14" stop-color="#2f4a91" stop-opacity=".7"/><stop offset=".21" stop-color="#213364" stop-opacity=".58"/><stop offset=".28" stop-color="#152040" stop-opacity=".48"/><stop offset=".35" stop-color="#0b1224" stop-opacity=".4"/><stop offset=".42" stop-color="#050810" stop-opacity=".34"/><stop offset=".49" stop-color="#010204" stop-opacity=".31"/><stop offset=".56" stop-color="#000" stop-opacity=".3"/></linearGradient><linearGradient id="linear-gradient-9" x1="921" y1="1156.46" x2="933.15" y2="1156.46" gradientUnits="userSpaceOnUse"><stop offset="0" stop-color="gray"/><stop offset=".33" stop-color="#a9a9a9" stop-opacity=".89"/><stop offset=".66" stop-color="#c3c3c3" stop-opacity=".82"/><stop offset="1" stop-color="#ccc" stop-opacity=".8"/></linearGradient><linearGradient id="linear-gradient-10" x1="-1579.86" y1="1156.46" x2="-1567.7" y2="1156.46" gradientTransform="translate(-1387.1) rotate(-180) scale(1 -1)" gradientUnits="userSpaceOnUse"><stop offset="0" stop-color="gray"/><stop offset=".2" stop-color="#9a9a9a" stop-opacity=".96"/><stop offset=".46" stop-color="#b6b6b6" stop-opacity=".93"/><stop offset=".73" stop-color="#c6c6c6" stop-opacity=".91"/><stop offset="1" stop-color="#ccc" stop-opacity=".9"/></linearGradient><linearGradient id="linear-gradient-11" x1="935.83" y1="834.52" x2="937.95" y2="834.52" gradientUnits="userSpaceOnUse"><stop offset="0" stop-color="#4a4a4a"/><stop offset=".17" stop-color="#4d4d4d"/><stop offset=".33" stop-color="#595959"/><stop offset=".48" stop-color="#6c6c6c"/><stop offset=".64" stop-color="#878787"/><stop offset=".79" stop-color="#aaa"/><stop offset=".94" stop-color="#d4d4d4"/><stop offset="1" stop-color="#e6e6e6"/></linearGradient><linearGradient id="linear-gradient-12" x1="934.11" y1="745.19" x2="934.11" y2="922.77" gradientUnits="userSpaceOnUse"><stop offset=".02" stop-color="#000"/><stop offset=".03" stop-color="#1b1b1b"/><stop offset=".05" stop-color="#5b5b5b"/><stop offset=".07" stop-color="#909090"/><stop offset=".09" stop-color="#b9b9b9"/><stop offset=".11" stop-color="#d7d7d7"/><stop offset=".13" stop-color="#e9e9e9"/><stop offset=".14" stop-color="#f0f0f0"/><stop offset=".87" stop-color="#f0f0f0"/><stop offset=".88" stop-color="#ebebeb"/><stop offset=".89" stop-color="#dcdcdc"/><stop offset=".91" stop-color="#c4c4c4"/><stop offset=".93" stop-color="#a3a3a3"/><stop offset=".94" stop-color="#787878"/><stop offset=".96" stop-color="#434343"/><stop offset=".98" stop-color="#060606"/><stop offset=".98" stop-color="#000"/></linearGradient><linearGradient id="linear-gradient-13" x1="-1578.33" y1="765.21" x2="-1576.22" y2="765.21" gradientTransform="translate(-1400.42) rotate(-180) scale(1 -1)" xlink:href="#linear-gradient-11"/><linearGradient id="linear-gradient-14" x1="-1580.06" y1="708.22" x2="-1580.06" y2="821.17" gradientTransform="translate(-1400.42) rotate(-180) scale(1 -1)" gradientUnits="userSpaceOnUse"><stop offset="0" stop-color="#121212"/><stop offset="0" stop-color="#1c1c1c"/><stop offset=".03" stop-color="#5b5b5b"/><stop offset=".05" stop-color="#909090"/><stop offset=".07" stop-color="#b9b9b9"/><stop offset=".08" stop-color="#d7d7d7"/><stop offset=".1" stop-color="#e9e9e9"/><stop offset=".11" stop-color="#f0f0f0"/><stop offset=".91" stop-color="#f0f0f0"/><stop offset=".92" stop-color="#ebebeb"/><stop offset=".93" stop-color="#dcdcdc"/><stop offset=".95" stop-color="#c4c4c4"/><stop offset=".96" stop-color="#a3a3a3"/><stop offset=".98" stop-color="#787878"/><stop offset=".99" stop-color="#444"/><stop offset="1" stop-color="#242424"/></linearGradient><linearGradient id="linear-gradient-15" x1="-1578.33" y1="904.13" x2="-1576.22" y2="904.13" gradientTransform="translate(-1400.42) rotate(-180) scale(1 -1)" xlink:href="#linear-gradient-11"/><linearGradient id="linear-gradient-16" y1="847.15" y2="960.1" xlink:href="#linear-gradient-14"/><linearGradient id="linear-gradient-17" x1="179.29" y1="601.56" x2="179.29" y2="658.86" gradientTransform="matrix(1,0,0,1,0,0)" xlink:href="#linear-gradient-14"/></defs><circle class="cls-26" cx="226.78" cy="329.91" r="42.68"/><path class="cls-7" d="M226.77,337.5c-5.84,0-8.12-20.32-8.34-33.08,0-4.55,3.69-8.24,8.24-8.24h.21c4.55,0,8.24,3.69,8.24,8.24,0,0-1.65,33.47-8.36,33.08Z"/><circle class="cls-7" cx="226.78" cy="350.91" r="5.42"/><rect x="180.69" y="396.6" width="752.44" height="1521.1" rx="112.89" ry="112.89"/><path class="cls-28" d="M182.68,656.36v-51.65c0-2.09-.34-3.93-1.99-4.98v61.5c1.93-.87,1.99-3.8,1.99-4.88Z"/><path class="cls-4" d="M183.53,816.85v-103.32c0-2.11-.26-6-2.84-8.19v118.2c3.17-2.07,2.84-5.6,2.84-6.69Z"/><path class="cls-13" d="M183.53,955.88v-103.32c0-2.11-.26-6-2.84-8.19v118.2c3.17-2.07,2.84-5.6,2.84-6.69Z"/><path class="cls-10" d="M861.64,417.36c5.3,2.46,10.35,5.34,15.12,8.63,15.3,5.59,27.46,14.51,37.64,27.86-7.11-11.94-16.39-22.43-27.29-30.95-8.04-4.95-15.26-6.46-25.47-5.54Z"/><path class="cls-3" d="M930.06,1157.23V510.76c0-20.78-5.73-40.24-15.66-56.91-10.18-13.35-22.35-22.27-37.64-27.86,26.95,18.57,44.66,49.64,44.66,84.77v646.48h8.64Z"/><path class="cls-15" d="M253.16,417.36c-5.3,2.46-10.35,5.34-15.12,8.63-15.3,5.59-27.46,14.51-37.64,27.86,7.11-11.94,16.39-22.43,27.29-30.95,8.04-4.95,15.26-6.46,25.47-5.54Z"/><path class="cls-3" d="M184.73,1155.16V510.76c0-20.78,5.73-40.24,15.66-56.91,10.18-13.35,22.35-22.27,37.64-27.86-26.95,18.57-44.66,49.64-44.66,84.77v644.41h-8.64Z"/><path class="cls-12" d="M818.51,399.21H296.29c-25.86,0-49.66,8.87-68.6,23.68,8.04-4.95,15.26-6.46,25.47-5.54,13.13-6.09,27.73-9.51,43.13-9.51h522.22c15.4,0,30,3.42,43.13,9.51,10.22-.93,17.44.58,25.47,5.54-18.94-14.82-42.75-23.68-68.6-23.68Z"/><path d="M929.28,918.61v-168.25c0-2.11.35-6,3.83-8.19v183.13c-4.28-2.07-3.83-5.6-3.83-6.69Z"/><path class="cls-24" d="M820.54,1903.22H295.79c-55.48,0-100.46-44.98-100.46-100.46V509.59c0-55.06,44.63-99.69,99.69-99.69h523.92c55.55,0,100.59,45.03,100.59,100.59v1293.75c0,54.67-44.32,98.98-98.98,98.98ZM294.42,413.36c-52.82,0-95.64,42.82-95.64,95.64v1293.76c0,53.57,43.43,97,97,97h524.75c52.76,0,95.53-42.77,95.53-95.53V510.48c0-53.64-43.48-97.13-97.13-97.13H294.42Z"/><path class="cls-12" d="M914.11,518.77c0-55.25-26.24-82.68-55.4-95.1,7.8,16,41.85,29.84,41.85,94.67v1275.87c0,64.83-34.04,78.68-41.85,94.67,29.16-12.42,55.4-39.85,55.4-95.1l.82-637.5-.82-637.5Z"/><path class="cls-12" d="M202.66,518.77c0-55.25,26.24-82.68,55.4-95.1-7.8,16-41.85,29.84-41.85,94.67v1275.87c0,64.83,34.04,78.68,41.85,94.67-29.16-12.42-55.4-39.85-55.4-95.1l-.82-637.5.82-637.5Z"/><path class="cls-11" d="M815.58,415.79H297.04c-16.19,0-31.49,3.88-45.04,10.72l3.34,6.89c11.65-4.54,27.09-7.67,41.71-7.67h518.53c14.61,0,28.75,3.19,40.91,8.79l4.06-8.58c-13.48-6.26-28.78-10.14-44.97-10.14Z"/><path class="cls-7" d="M821.1,441.33h-70.47c-4.9,0-8.87,3.97-8.87,8.87v7.26c0,12.34-11.21,36.19-37.03,36.19h-293.34c-28.98,0-38.34-25.16-38.34-35.44v-8.01c0-4.9-3.97-8.87-8.87-8.87h-71.48c-36.41,0-65.93,29.52-65.93,65.93v1298.22c0,36.41,29.52,65.93,65.93,65.93h528.4c36.41,0,65.93-29.52,65.93-65.93V507.26c0-36.41-29.52-65.93-65.93-65.93Z"/><path class="cls-21" d="M603.93,454.99c-.17-.53-.43-.99-.76-1.42l-.33.33,1.09,1.09Z"/><polygon class="cls-21" points="528.5 458.99 527.1 460.39 528.17 461.46 528.82 461.46 529.9 460.39 528.5 458.99"/><polygon class="cls-21" points="526.02 461.46 526.64 461.46 526.33 461.15 526.02 461.46"/><rect class="cls-21" x="594.59" y="457.23" width="1.98" height="1.98" transform="translate(-149.59 555.24) rotate(-44.99)"/><rect class="cls-21" x="590.27" y="457.23" width="1.98" height="1.98" transform="translate(-150.84 552.29) rotate(-45)"/><rect class="cls-21" x="562.13" y="455.07" width="1.98" height="1.98" transform="translate(-157.55 531.77) rotate(-45)"/><path class="cls-21" d="M602.45,452.75c-.5-.42-1.06-.73-1.69-.94l1.32,1.32.38-.38Z"/><polygon class="cls-21" points="537.15 458.99 535.75 460.39 536.83 461.46 537.48 461.46 538.55 460.39 537.15 458.99"/><polygon class="cls-21" points="524.17 458.99 522.77 460.39 523.84 461.46 524.5 461.46 525.57 460.39 524.17 458.99"/><polygon class="cls-21" points="530.35 461.46 530.97 461.46 530.66 461.15 530.35 461.46"/><path class="cls-21" d="M599.69,461.37c.13-.01.24-.05.37-.08l-.15-.15-.22.22Z"/><polygon class="cls-21" points="597.75 458.99 596.35 460.39 597.42 461.46 598.07 461.46 599.15 460.39 597.75 458.99"/><polygon class="cls-21" points="534.68 461.46 535.3 461.46 534.99 461.15 534.68 461.46"/><path class="cls-21" d="M603.52,458.9c.35-.6.57-1.26.63-1.98l-1.31,1.31.68.68Z"/><path class="cls-21" d="M600.68,460.39l.62.62c.62-.28,1.15-.69,1.61-1.19l-.82-.83-1.4,1.4Z"/><polygon class="cls-21" points="532.83 458.99 531.43 460.39 532.5 461.46 533.15 461.46 534.23 460.39 532.83 458.99"/><rect class="cls-21" x="566.46" y="455.07" width="1.98" height="1.98" transform="translate(-156.28 534.82) rotate(-45)"/><polygon class="cls-21" points="584.76 453.13 586.16 451.73 585.94 451.51 583.59 451.51 583.36 451.73 584.76 453.13"/><rect class="cls-21" x="572.95" y="457.23" width="1.98" height="1.98" transform="translate(-155.91 540.05) rotate(-45)"/><rect class="cls-21" x="553.48" y="455.07" width="1.98" height="1.98" transform="translate(-160.08 525.64) rotate(-45)"/><path class="cls-21" d="M515.51,458.99l-1.4,1.4,1,1c.12,0,.23.07.35.07h.37l1.07-1.07-1.4-1.4Z"/><rect class="cls-21" x="577.28" y="457.23" width="1.98" height="1.98" transform="translate(-154.64 543.11) rotate(-45)"/><rect class="cls-21" x="568.62" y="457.23" width="1.98" height="1.98" transform="translate(-157.16 537.1) rotate(-45.01)"/><polygon class="cls-21" points="597.75 453.13 599.15 451.73 598.92 451.51 596.57 451.51 596.35 451.73 597.75 453.13"/><rect class="cls-21" x="512.36" y="457.23" width="1.98" height="1.98" transform="translate(-173.66 497.2) rotate(-45)"/><polygon class="cls-21" points="580.44 453.13 581.84 451.73 581.61 451.51 579.26 451.51 579.03 451.73 580.44 453.13"/><polygon class="cls-21" points="519.84 458.99 518.44 460.39 519.51 461.46 520.17 461.46 521.24 460.39 519.84 458.99"/><rect class="cls-21" x="585.94" y="457.23" width="1.98" height="1.98" transform="translate(-152.11 549.23) rotate(-45)"/><polygon class="cls-21" points="593.42 453.13 594.82 451.73 594.6 451.51 592.24 451.51 592.02 451.73 593.42 453.13"/><rect class="cls-21" x="557.8" y="455.07" width="1.98" height="1.98" transform="translate(-158.82 528.7) rotate(-45)"/><polygon class="cls-21" points="521.7 461.46 522.32 461.46 522.01 461.15 521.7 461.46"/><rect class="cls-21" x="581.61" y="457.23" width="1.98" height="1.98" transform="translate(-153.37 546.18) rotate(-45)"/><polygon class="cls-21" points="589.09 453.13 590.49 451.73 590.27 451.51 587.91 451.51 587.69 451.73 589.09 453.13"/><polygon class="cls-21" points="517.37 461.46 517.99 461.46 517.68 461.15 517.37 461.46"/><polygon class="cls-21" points="590.95 461.46 591.57 461.46 591.26 461.15 590.95 461.46"/><polygon class="cls-21" points="571.78 458.99 570.38 460.39 571.45 461.46 572.11 461.46 573.18 460.39 571.78 458.99"/><rect class="cls-21" x="583.77" y="455.07" width="1.98" height="1.98" transform="translate(-151.21 547.06) rotate(-45)"/><polygon class="cls-21" points="551.99 461.46 552.61 461.46 552.3 461.15 551.99 461.46"/><polygon class="cls-21" points="569.3 461.46 569.93 461.46 569.62 461.15 569.3 461.46"/><rect class="cls-21" x="575.12" y="455.07" width="1.98" height="1.98" transform="translate(-153.74 540.95) rotate(-45)"/><polygon class="cls-21" points="576.11 458.99 574.71 460.39 575.78 461.46 576.43 461.46 577.51 460.39 576.11 458.99"/><polygon class="cls-21" points="573.63 461.46 574.25 461.46 573.94 461.15 573.63 461.46"/><polygon class="cls-21" points="595.27 461.46 595.89 461.46 595.58 461.15 595.27 461.46"/><polygon class="cls-21" points="558.79 458.99 557.39 460.39 558.47 461.46 559.12 461.46 560.2 460.39 558.79 458.99"/><rect class="cls-21" x="588.1" y="455.07" width="1.98" height="1.98" transform="translate(-149.94 550.13) rotate(-45)"/><polygon class="cls-21" points="560.65 461.46 561.27 461.46 560.96 461.15 560.65 461.46"/><polygon class="cls-21" points="563.12 458.99 561.72 460.39 562.8 461.46 563.45 461.46 564.52 460.39 563.12 458.99"/><rect class="cls-21" x="579.45" y="455.07" width="1.98" height="1.98" transform="translate(-152.46 544.11) rotate(-45.01)"/><polygon class="cls-21" points="554.47 458.99 553.07 460.39 554.14 461.46 554.79 461.46 555.87 460.39 554.47 458.99"/><polygon class="cls-21" points="567.45 458.99 566.05 460.39 567.12 461.46 567.78 461.46 568.85 460.39 567.45 458.99"/><polygon class="cls-21" points="564.98 461.46 565.6 461.46 565.29 461.15 564.98 461.46"/><polygon class="cls-21" points="550.14 458.99 548.74 460.39 549.81 461.46 550.47 461.46 551.54 460.39 550.14 458.99"/><polygon class="cls-21" points="541.48 458.99 540.08 460.39 541.15 461.46 541.81 461.46 542.88 460.39 541.48 458.99"/><polygon class="cls-21" points="589.09 458.99 587.69 460.39 588.76 461.46 589.42 461.46 590.49 460.39 589.09 458.99"/><polygon class="cls-21" points="576.11 453.13 577.51 451.73 577.29 451.51 574.93 451.51 574.71 451.73 576.11 453.13"/><rect class="cls-21" x="570.79" y="455.07" width="1.98" height="1.98" transform="translate(-155.01 537.89) rotate(-45)"/><polygon class="cls-21" points="577.96 461.46 578.58 461.46 578.27 461.15 577.96 461.46"/><rect class="cls-21" x="596.76" y="455.07" width="1.98" height="1.98" transform="translate(-147.37 556.48) rotate(-45.02)"/><polygon class="cls-21" points="593.42 458.99 592.02 460.39 593.09 461.46 593.75 461.46 594.82 460.39 593.42 458.99"/><polygon class="cls-21" points="586.62 461.46 587.24 461.46 586.93 461.15 586.62 461.46"/><polygon class="cls-21" points="539.01 461.46 539.63 461.46 539.32 461.15 539.01 461.46"/><polygon class="cls-21" points="580.44 458.99 579.03 460.39 580.11 461.46 580.76 461.46 581.84 460.39 580.44 458.99"/><polygon class="cls-21" points="545.81 458.99 544.41 460.39 545.48 461.46 546.14 461.46 547.21 460.39 545.81 458.99"/><polygon class="cls-21" points="547.66 461.46 548.29 461.46 547.98 461.15 547.66 461.46"/><polygon class="cls-21" points="543.34 461.46 543.96 461.46 543.65 461.15 543.34 461.46"/><polygon class="cls-21" points="584.76 458.99 583.36 460.39 584.44 461.46 585.09 461.46 586.16 460.39 584.76 458.99"/><rect class="cls-21" x="592.43" y="455.07" width="1.98" height="1.98" transform="translate(-148.67 553.19) rotate(-45)"/><polygon class="cls-21" points="582.29 461.46 582.91 461.46 582.6 461.15 582.29 461.46"/><polygon class="cls-21" points="556.32 461.46 556.94 461.46 556.63 461.15 556.32 461.46"/><rect class="cls-21" x="514.52" y="455.07" width="1.98" height="1.98" transform="translate(-171.49 498.21) rotate(-45.01)"/><rect class="cls-21" x="521.02" y="457.23" width="1.98" height="1.98" transform="translate(-171.12 503.32) rotate(-45)"/><rect class="cls-21" x="564.3" y="452.9" width="1.98" height="1.98" transform="translate(-155.37 532.78) rotate(-45.01)"/><polygon class="cls-21" points="532.83 453.13 534.23 451.73 534 451.51 531.65 451.51 531.43 451.73 532.83 453.13"/><rect class="cls-21" x="559.97" y="452.9" width="1.98" height="1.98" transform="translate(-156.64 529.72) rotate(-45.01)"/><polygon class="cls-21" points="524.17 453.13 525.57 451.73 525.35 451.51 522.99 451.51 522.77 451.73 524.17 453.13"/><rect class="cls-21" x="555.64" y="452.9" width="1.98" height="1.98" transform="translate(-157.92 526.54) rotate(-45)"/><rect class="cls-21" x="516.69" y="457.23" width="1.98" height="1.98" transform="translate(-172.39 500.26) rotate(-45)"/><polygon class="cls-21" points="528.5 453.13 529.9 451.73 529.68 451.51 527.32 451.51 527.1 451.73 528.5 453.13"/><rect class="cls-21" x="518.85" y="455.07" width="1.98" height="1.98" transform="translate(-170.22 501.16) rotate(-45)"/><polygon class="cls-21" points="541.48 453.13 542.88 451.73 542.66 451.51 540.3 451.51 540.08 451.73 541.48 453.13"/><rect class="cls-21" x="546.98" y="452.91" width="1.98" height="1.98" transform="translate(-160.45 520.42) rotate(-45)"/><rect class="cls-21" x="529.67" y="457.23" width="1.98" height="1.98" transform="translate(-168.59 509.45) rotate(-45)"/><polygon class="cls-21" points="537.15 453.13 538.55 451.73 538.33 451.51 535.98 451.51 535.75 451.73 537.15 453.13"/><rect class="cls-21" x="551.31" y="452.9" width="1.98" height="1.98" transform="translate(-159.18 523.59) rotate(-45.01)"/><rect class="cls-21" x="525.34" y="457.23" width="1.98" height="1.98" transform="translate(-169.86 506.28) rotate(-44.99)"/><rect class="cls-21" x="585.94" y="452.9" width="1.98" height="1.98" transform="translate(-149.04 547.96) rotate(-45)"/><rect class="cls-21" x="601.09" y="455.07" width="1.98" height="1.98" transform="translate(-146.14 559.31) rotate(-45)"/><path class="cls-21" d="M512.59,456.06l-1.4-1.4-.4.4c-.14.46-.29.92-.29,1.42,0,.13.06.23.07.35l.62.62,1.4-1.4Z"/><rect class="cls-21" x="594.59" y="452.9" width="1.98" height="1.98" transform="translate(-146.51 554.08) rotate(-45)"/><rect class="cls-21" x="598.92" y="452.91" width="1.98" height="1.98" transform="translate(-145.23 557.26) rotate(-45.01)"/><rect class="cls-21" x="598.92" y="457.23" width="1.98" height="1.98" transform="translate(-148.29 558.51) rotate(-45.01)"/><path class="cls-21" d="M511.45,459.25c.31.45.68.83,1.12,1.16l.02-.02-1.14-1.14Z"/><rect class="cls-21" x="568.62" y="452.91" width="1.98" height="1.98" transform="translate(-154.1 535.83) rotate(-45.01)"/><rect class="cls-21" x="590.27" y="452.9" width="1.98" height="1.98" transform="translate(-147.78 551.02) rotate(-45)"/><polygon class="cls-21" points="519.84 453.13 521.24 451.73 521.02 451.51 518.66 451.51 518.44 451.73 519.84 453.13"/><rect class="cls-21" x="577.28" y="452.9" width="1.98" height="1.98" transform="translate(-151.58 541.84) rotate(-45)"/><rect class="cls-21" x="572.95" y="452.9" width="1.98" height="1.98" transform="translate(-152.83 538.89) rotate(-45.01)"/><rect class="cls-21" x="534" y="457.23" width="1.98" height="1.98" transform="translate(-167.32 512.51) rotate(-45)"/><rect class="cls-21" x="581.61" y="452.91" width="1.98" height="1.98" transform="translate(-150.3 545.01) rotate(-45.01)"/><path class="cls-21" d="M516.91,451.73l-.22-.22h-1.22c-.46,0-.88.15-1.31.27l1.36,1.36,1.4-1.4Z"/><polygon class="cls-21" points="558.79 453.13 560.2 451.73 559.97 451.51 557.62 451.51 557.39 451.73 558.79 453.13"/><rect class="cls-21" x="525.34" y="452.9" width="1.98" height="1.98" transform="translate(-166.79 505.12) rotate(-45)"/><rect class="cls-21" x="555.64" y="457.23" width="1.98" height="1.98" transform="translate(-160.98 527.81) rotate(-45)"/><rect class="cls-21" x="544.82" y="455.07" width="1.98" height="1.98" transform="translate(-162.62 519.52) rotate(-45)"/><rect class="cls-21" x="529.67" y="452.9" width="1.98" height="1.98" transform="translate(-165.52 508.18) rotate(-45)"/><rect class="cls-21" x="551.31" y="457.23" width="1.98" height="1.98" transform="translate(-162.26 524.64) rotate(-44.99)"/><polygon class="cls-21" points="567.45 453.13 568.85 451.73 568.63 451.51 566.27 451.51 566.05 451.73 567.45 453.13"/><polygon class="cls-21" points="563.12 453.13 564.52 451.73 564.3 451.51 561.94 451.51 561.72 451.73 563.12 453.13"/><rect class="cls-21" x="540.49" y="455.07" width="1.98" height="1.98" transform="translate(-163.89 516.46) rotate(-45)"/><rect class="cls-21" x="521.02" y="452.9" width="1.98" height="1.98" transform="translate(-168.06 502.06) rotate(-45)"/><rect class="cls-21" x="516.69" y="452.9" width="1.98" height="1.98" transform="translate(-169.33 499) rotate(-45)"/><rect class="cls-21" x="512.36" y="452.91" width="1.98" height="1.98" transform="translate(-170.59 496.04) rotate(-45.01)"/><rect class="cls-21" x="564.3" y="457.23" width="1.98" height="1.98" transform="translate(-158.44 533.93) rotate(-45)"/><rect class="cls-21" x="559.97" y="457.23" width="1.98" height="1.98" transform="translate(-159.71 530.87) rotate(-45)"/><polygon class="cls-21" points="571.78 453.13 573.18 451.73 572.96 451.51 570.6 451.51 570.38 451.73 571.78 453.13"/><rect class="cls-21" x="549.15" y="455.07" width="1.98" height="1.98" transform="translate(-161.35 522.58) rotate(-45)"/><rect class="cls-21" x="542.66" y="452.9" width="1.98" height="1.98" transform="translate(-161.71 517.47) rotate(-45.01)"/><rect class="cls-21" x="531.84" y="455.07" width="1.98" height="1.98" transform="translate(-166.42 510.34) rotate(-45)"/><polygon class="cls-21" points="554.47 453.13 555.87 451.73 555.64 451.51 553.29 451.51 553.07 451.73 554.47 453.13"/><polygon class="cls-21" points="550.14 453.13 551.54 451.73 551.32 451.51 548.96 451.51 548.74 451.73 550.14 453.13"/><rect class="cls-21" x="538.33" y="452.9" width="1.98" height="1.98" transform="translate(-162.98 514.41) rotate(-45.01)"/><rect class="cls-21" x="527.51" y="455.07" width="1.98" height="1.98" transform="translate(-167.69 507.27) rotate(-45)"/><rect class="cls-21" x="534" y="452.91" width="1.98" height="1.98" transform="translate(-164.25 511.35) rotate(-45.01)"/><rect class="cls-21" x="542.66" y="457.23" width="1.98" height="1.98" transform="translate(-164.78 518.63) rotate(-45)"/><rect class="cls-21" x="536.16" y="455.07" width="1.98" height="1.98" transform="translate(-165.16 513.29) rotate(-44.99)"/><rect class="cls-21" x="523.18" y="455.07" width="1.98" height="1.98" transform="translate(-168.96 504.23) rotate(-45)"/><polygon class="cls-21" points="545.81 453.13 547.21 451.73 546.99 451.51 544.63 451.51 544.41 451.73 545.81 453.13"/><rect class="cls-21" x="546.98" y="457.23" width="1.98" height="1.98" transform="translate(-163.51 521.69) rotate(-45)"/><rect class="cls-21" x="538.33" y="457.23" width="1.98" height="1.98" transform="translate(-166.05 515.56) rotate(-45)"/><path class="cls-8" d="M513.35,459.62l-1.4-1.4-.71.71c.06.11.14.21.21.31l1.14,1.14.76-.76Z"/><path class="cls-8" d="M510.57,456.84c.03.36.11.7.21,1.03l.41-.41-.62-.62Z"/><path class="cls-8" d="M513.47,461.03c.51.22,1.07.32,1.64.36l-1-1-.64.64Z"/><polygon class="cls-8" points="517.68 461.15 517.99 461.46 519.51 461.46 518.44 460.39 517.68 461.15"/><rect class="cls-8" x="516.06" y="458.31" width="1.08" height="1.98" transform="translate(-173.47 499.82) rotate(-45)"/><rect class="cls-8" x="511.73" y="453.99" width="1.08" height="1.98" transform="translate(-171.69 495.29) rotate(-44.98)"/><rect class="cls-8" x="513.89" y="456.15" width="1.08" height="1.98" transform="translate(-172.56 497.85) rotate(-45.02)"/><rect class="cls-8" x="516.06" y="453.99" width="1.08" height="1.98" transform="translate(-170.42 498.44) rotate(-44.99)"/><rect class="cls-8" x="520.38" y="458.31" width="1.08" height="1.98" transform="translate(-172.19 503.06) rotate(-45.02)"/><polygon class="cls-8" points="522.01 461.15 522.32 461.46 523.84 461.46 522.77 460.39 522.01 461.15"/><rect class="cls-8" x="518.22" y="456.15" width="1.08" height="1.98" transform="translate(-171.3 500.82) rotate(-45.01)"/><path class="cls-8" d="M514.75,453.89l.76-.76-1.36-1.36s-.08.01-.11.02l-.7.7,1.4,1.4Z"/><polygon class="cls-8" points="526.33 461.15 526.64 461.46 528.17 461.46 527.1 460.39 526.33 461.15"/><rect class="cls-8" x="520.38" y="453.99" width="1.08" height="1.98" transform="translate(-169.14 501.6) rotate(-45)"/><rect class="cls-8" x="524.71" y="458.31" width="1.08" height="1.98" transform="translate(-170.94 505.94) rotate(-45)"/><rect class="cls-8" x="522.55" y="456.15" width="1.08" height="1.98" transform="translate(-170.04 503.77) rotate(-45)"/><rect class="cls-8" x="518.22" y="451.82" width="1.08" height="1.98" transform="translate(-168.25 499.44) rotate(-45)"/><polygon class="cls-8" points="517.14 451.51 516.69 451.51 516.91 451.73 517.14 451.51"/><polygon class="cls-8" points="530.66 461.15 530.97 461.46 532.5 461.46 531.43 460.39 530.66 461.15"/><rect class="cls-8" x="522.55" y="451.82" width="1.08" height="1.98" transform="translate(-166.98 502.5) rotate(-45)"/><rect class="cls-8" x="529.04" y="458.32" width="1.08" height="1.98" transform="translate(-169.67 509) rotate(-45)"/><rect class="cls-8" x="524.71" y="453.99" width="1.08" height="1.98" transform="translate(-167.88 504.56) rotate(-44.99)"/><rect class="cls-8" x="526.88" y="456.15" width="1.08" height="1.98" transform="translate(-168.76 506.94) rotate(-45.01)"/><polygon class="cls-8" points="521.46 451.51 521.02 451.51 521.24 451.73 521.46 451.51"/><rect class="cls-8" x="526.88" y="451.82" width="1.08" height="1.98" transform="translate(-165.72 505.46) rotate(-44.99)"/><rect class="cls-8" x="533.37" y="458.31" width="1.08" height="1.98" transform="translate(-168.42 511.82) rotate(-44.98)"/><rect class="cls-8" x="531.2" y="456.15" width="1.08" height="1.98" transform="translate(-167.5 509.89) rotate(-45)"/><polygon class="cls-8" points="534.99 461.15 535.3 461.46 536.83 461.46 535.75 460.39 534.99 461.15"/><polygon class="cls-8" points="525.79 451.51 525.35 451.51 525.57 451.73 525.79 451.51"/><rect class="cls-8" x="529.04" y="453.99" width="1.08" height="1.98" transform="translate(-166.61 507.62) rotate(-44.99)"/><rect class="cls-8" x="531.2" y="451.82" width="1.08" height="1.98" transform="translate(-164.44 508.65) rotate(-45)"/><rect class="cls-8" x="537.7" y="458.31" width="1.08" height="1.98" transform="translate(-167.13 515.1) rotate(-45)"/><polygon class="cls-8" points="530.12 451.51 529.68 451.51 529.9 451.73 530.12 451.51"/><rect class="cls-8" x="535.53" y="456.15" width="1.08" height="1.98" transform="translate(-166.24 512.95) rotate(-45)"/><rect class="cls-8" x="533.37" y="453.99" width="1.08" height="1.98" transform="translate(-165.34 510.79) rotate(-45)"/><polygon class="cls-8" points="539.32 461.15 539.63 461.46 541.15 461.46 540.08 460.39 539.32 461.15"/><rect class="cls-8" x="539.86" y="456.15" width="1.08" height="1.98" transform="translate(-164.97 516.01) rotate(-45)"/><rect class="cls-8" x="535.53" y="451.82" width="1.08" height="1.98" transform="translate(-163.18 511.58) rotate(-44.99)"/><rect class="cls-8" x="542.02" y="458.32" width="1.08" height="1.98" transform="translate(-165.85 518.38) rotate(-45.02)"/><polygon class="cls-8" points="543.65 461.15 543.96 461.46 545.48 461.46 544.41 460.39 543.65 461.15"/><polygon class="cls-8" points="534.45 451.51 534 451.51 534.23 451.73 534.45 451.51"/><rect class="cls-8" x="537.7" y="453.99" width="1.08" height="1.98" transform="translate(-164.08 513.73) rotate(-44.99)"/><rect class="cls-8" x="546.35" y="458.31" width="1.08" height="1.98" transform="translate(-164.62 521) rotate(-44.98)"/><rect class="cls-8" x="544.19" y="456.15" width="1.08" height="1.98" transform="translate(-163.71 518.97) rotate(-44.99)"/><polygon class="cls-8" points="547.98 461.15 548.29 461.46 549.81 461.46 548.74 460.39 547.98 461.15"/><polygon class="cls-8" points="538.78 451.51 538.33 451.51 538.55 451.73 538.78 451.51"/><rect class="cls-8" x="539.86" y="451.82" width="1.08" height="1.98" transform="translate(-161.91 514.74) rotate(-45)"/><rect class="cls-8" x="542.02" y="453.99" width="1.08" height="1.98" transform="translate(-162.8 516.91) rotate(-45)"/><rect class="cls-8" x="546.35" y="453.99" width="1.08" height="1.98" transform="translate(-161.55 519.86) rotate(-44.99)"/><rect class="cls-8" x="548.52" y="456.15" width="1.08" height="1.98" transform="translate(-162.42 522.24) rotate(-45.01)"/><polygon class="cls-8" points="543.1 451.51 542.66 451.51 542.88 451.73 543.1 451.51"/><rect class="cls-8" x="544.19" y="451.82" width="1.08" height="1.98" transform="translate(-160.64 517.83) rotate(-45)"/><polygon class="cls-8" points="552.3 461.15 552.61 461.46 554.14 461.46 553.07 460.39 552.3 461.15"/><rect class="cls-8" x="550.68" y="458.32" width="1.08" height="1.98" transform="translate(-163.33 524.3) rotate(-45)"/><polygon class="cls-8" points="547.43 451.51 546.99 451.51 547.21 451.73 547.43 451.51"/><rect class="cls-8" x="550.68" y="453.99" width="1.08" height="1.98" transform="translate(-160.28 522.92) rotate(-44.99)"/><rect class="cls-8" x="552.84" y="456.15" width="1.08" height="1.98" transform="translate(-161.16 525.2) rotate(-45)"/><polygon class="cls-8" points="556.63 461.15 556.94 461.46 558.47 461.46 557.39 460.39 556.63 461.15"/><rect class="cls-8" x="548.52" y="451.82" width="1.08" height="1.98" transform="translate(-159.37 520.87) rotate(-45)"/><rect class="cls-8" x="555.01" y="458.31" width="1.08" height="1.98" transform="translate(-162.04 527.56) rotate(-45.02)"/><polygon class="cls-8" points="560.96 461.15 561.27 461.46 562.8 461.46 561.72 460.39 560.96 461.15"/><rect class="cls-8" x="557.17" y="456.15" width="1.08" height="1.98" transform="translate(-159.9 528.26) rotate(-45)"/><polygon class="cls-8" points="551.76 451.51 551.32 451.51 551.54 451.73 551.76 451.51"/><rect class="cls-8" x="555.01" y="453.99" width="1.08" height="1.98" transform="translate(-159 526.09) rotate(-45)"/><rect class="cls-8" x="552.84" y="451.82" width="1.08" height="1.98" transform="translate(-158.1 523.93) rotate(-45)"/><rect class="cls-8" x="559.34" y="458.31" width="1.08" height="1.98" transform="translate(-160.77 530.62) rotate(-45.02)"/><polygon class="cls-8" points="565.29 461.15 565.6 461.46 567.12 461.46 566.05 460.39 565.29 461.15"/><polygon class="cls-8" points="556.09 451.51 555.64 451.51 555.87 451.73 556.09 451.51"/><rect class="cls-8" x="559.34" y="453.99" width="1.08" height="1.98" transform="translate(-157.73 529.16) rotate(-45)"/><rect class="cls-8" x="561.5" y="456.15" width="1.08" height="1.98" transform="translate(-158.63 531.31) rotate(-45)"/><rect class="cls-8" x="563.66" y="458.32" width="1.08" height="1.98" transform="translate(-159.5 533.7) rotate(-45.02)"/><rect class="cls-8" x="557.17" y="451.82" width="1.08" height="1.98" transform="translate(-156.84 526.99) rotate(-45)"/><polygon class="cls-8" points="569.62 461.15 569.93 461.46 571.45 461.46 570.38 460.39 569.62 461.15"/><polygon class="cls-8" points="560.42 451.51 559.97 451.51 560.2 451.73 560.42 451.51"/><rect class="cls-8" x="561.5" y="451.82" width="1.08" height="1.98" transform="translate(-155.57 530.06) rotate(-45)"/><rect class="cls-8" x="565.83" y="456.15" width="1.08" height="1.98" transform="translate(-157.37 534.26) rotate(-44.99)"/><rect class="cls-8" x="567.99" y="458.31" width="1.08" height="1.98" transform="translate(-158.26 536.5) rotate(-45)"/><rect class="cls-8" x="563.67" y="453.99" width="1.08" height="1.98" transform="translate(-156.46 532.22) rotate(-45)"/><rect class="cls-8" x="565.83" y="451.82" width="1.08" height="1.98" transform="translate(-154.3 533.13) rotate(-45)"/><rect class="cls-8" x="572.32" y="458.32" width="1.08" height="1.98" transform="translate(-156.99 539.6) rotate(-45)"/><polygon class="cls-8" points="573.94 461.15 574.25 461.46 575.78 461.46 574.71 460.39 573.94 461.15"/><polygon class="cls-8" points="564.74 451.51 564.3 451.51 564.52 451.73 564.74 451.51"/><rect class="cls-8" x="570.16" y="456.15" width="1.08" height="1.98" transform="translate(-156.09 537.44) rotate(-45)"/><rect class="cls-8" x="567.99" y="453.99" width="1.08" height="1.98" transform="translate(-155.2 535.27) rotate(-45)"/><rect class="cls-8" x="570.16" y="451.82" width="1.08" height="1.98" transform="translate(-153.03 536.17) rotate(-45)"/><polygon class="cls-8" points="569.07 451.51 568.63 451.51 568.85 451.73 569.07 451.51"/><rect class="cls-8" x="576.65" y="458.32" width="1.08" height="1.98" transform="translate(-155.7 542.87) rotate(-45.02)"/><rect class="cls-8" x="572.32" y="453.99" width="1.08" height="1.98" transform="translate(-153.94 538.22) rotate(-44.99)"/><rect class="cls-8" x="574.49" y="456.15" width="1.08" height="1.98" transform="translate(-154.83 540.5) rotate(-45)"/><polygon class="cls-8" points="578.27 461.15 578.58 461.46 580.11 461.46 579.03 460.39 578.27 461.15"/><rect class="cls-8" x="580.98" y="458.31" width="1.08" height="1.98" transform="translate(-154.46 545.68) rotate(-45)"/><rect class="cls-8" x="576.65" y="453.99" width="1.08" height="1.98" transform="translate(-152.68 541.28) rotate(-44.99)"/><polygon class="cls-8" points="582.6 461.15 582.91 461.46 584.44 461.46 583.36 460.39 582.6 461.15"/><rect class="cls-8" x="574.49" y="451.82" width="1.08" height="1.98" transform="translate(-151.75 539.34) rotate(-45.01)"/><rect class="cls-8" x="578.81" y="456.15" width="1.08" height="1.98" transform="translate(-153.56 543.56) rotate(-45)"/><polygon class="cls-8" points="573.4 451.51 572.96 451.51 573.18 451.73 573.4 451.51"/><rect class="cls-8" x="578.81" y="451.82" width="1.08" height="1.98" transform="translate(-150.48 542.42) rotate(-45.01)"/><polygon class="cls-8" points="586.93 461.15 587.24 461.46 588.76 461.46 587.69 460.39 586.93 461.15"/><polygon class="cls-8" points="577.73 451.51 577.29 451.51 577.51 451.73 577.73 451.51"/><rect class="cls-8" x="580.98" y="453.99" width="1.08" height="1.98" transform="translate(-151.39 544.45) rotate(-45)"/><rect class="cls-8" x="585.31" y="458.32" width="1.08" height="1.98" transform="translate(-153.16 548.99) rotate(-45.02)"/><rect class="cls-8" x="583.14" y="456.15" width="1.08" height="1.98" transform="translate(-152.29 546.63) rotate(-45)"/><rect class="cls-8" x="585.31" y="453.99" width="1.08" height="1.98" transform="translate(-150.14 547.4) rotate(-44.99)"/><rect class="cls-8" x="589.63" y="458.31" width="1.08" height="1.98" transform="translate(-151.89 552.05) rotate(-45.02)"/><rect class="cls-8" x="583.14" y="451.82" width="1.08" height="1.98" transform="translate(-149.23 545.35) rotate(-45)"/><polygon class="cls-8" points="591.26 461.15 591.57 461.46 593.09 461.46 592.02 460.39 591.26 461.15"/><polygon class="cls-8" points="582.06 451.51 581.61 451.51 581.84 451.73 582.06 451.51"/><rect class="cls-8" x="587.47" y="456.15" width="1.08" height="1.98" transform="translate(-151.01 549.79) rotate(-45.01)"/><rect class="cls-8" x="587.47" y="451.82" width="1.08" height="1.98" transform="translate(-147.95 548.52) rotate(-45.01)"/><rect class="cls-8" x="593.96" y="458.32" width="1.08" height="1.98" transform="translate(-150.71 554.48) rotate(-44.97)"/><rect class="cls-8" x="591.8" y="456.15" width="1.08" height="1.98" transform="translate(-149.76 552.74) rotate(-45)"/><polygon class="cls-8" points="586.39 451.51 585.94 451.51 586.16 451.73 586.39 451.51"/><polygon class="cls-8" points="595.58 461.15 595.89 461.46 597.42 461.46 596.35 460.39 595.58 461.15"/><rect class="cls-8" x="589.63" y="453.99" width="1.08" height="1.98" transform="translate(-148.86 550.58) rotate(-45)"/><polygon class="cls-8" points="590.71 451.51 590.27 451.51 590.49 451.73 590.71 451.51"/><rect class="cls-8" x="591.8" y="451.82" width="1.08" height="1.98" transform="translate(-146.68 551.59) rotate(-45.01)"/><rect class="cls-8" x="593.96" y="453.99" width="1.08" height="1.98" transform="translate(-147.59 553.64) rotate(-45)"/><rect class="cls-8" x="598.29" y="458.31" width="1.08" height="1.98" transform="translate(-149.38 557.96) rotate(-45)"/><path class="cls-8" d="M599.91,461.15l.15.15c.42-.07.85-.12,1.23-.3l-.62-.62-.77.77Z"/><rect class="cls-8" x="596.13" y="456.15" width="1.08" height="1.98" transform="translate(-148.49 555.8) rotate(-45)"/><polygon class="cls-8" points="595.04 451.51 594.6 451.51 594.82 451.73 595.04 451.51"/><path class="cls-8" d="M602.07,458.99l.82.83c.25-.27.43-.59.62-.91l-.68-.68-.77.76Z"/><rect class="cls-8" x="596.12" y="451.82" width="1.08" height="1.98" transform="translate(-145.44 554.41) rotate(-44.99)"/><rect class="cls-8" x="598.29" y="453.99" width="1.08" height="1.98" transform="translate(-146.31 556.81) rotate(-45.01)"/><rect class="cls-8" x="600.45" y="456.15" width="1.08" height="1.98" transform="translate(-147.24 558.74) rotate(-44.99)"/><path class="cls-8" d="M602.08,454.66l1.4,1.4.56-.56c-.04-.17-.05-.35-.1-.51l-1.09-1.09-.76.76Z"/><path class="cls-8" d="M601.31,453.89l.76-.76-1.32-1.32s-.09-.02-.13-.03l-.71.71,1.4,1.4Z"/><path class="cls-8" d="M599.35,451.53s-.06-.02-.09-.02h-.33l.22.22.2-.2Z"/><path class="cls-18" d="M513.35,452.49l-.28-.28c-.59.33-1.08.77-1.49,1.31l.37.37,1.4-1.4Z"/><path class="cls-18" d="M510.96,454.44c-.09.2-.12.42-.18.63l.4-.4-.22-.22Z"/><path class="cls-18" d="M511.95,453.9l-.37-.37c-.22.29-.46.57-.62.91l.22.22.76-.76Z"/><path class="cls-18" d="M514.05,451.8c-.35.11-.66.24-.98.42l.28.28.7-.7Z"/><polygon class="cls-18" points="518.66 451.51 518.22 451.51 518.44 451.73 518.66 451.51"/><rect class="cls-18" x="513.44" y="454.44" width="1.98" height="1.08" transform="translate(-171.04 497.02) rotate(-45)"/><rect class="cls-18" x="515.61" y="452.27" width="1.98" height="1.08" transform="translate(-168.88 497.91) rotate(-45)"/><rect class="cls-18" x="511.28" y="456.6" width="1.98" height="1.08" transform="translate(-173.21 496.12) rotate(-45)"/><path class="cls-18" d="M511.19,457.46l-.41.41c.11.38.26.73.46,1.07l.71-.71-.76-.76Z"/><rect class="cls-18" x="512.81" y="455.52" width="1.08" height="1.08" transform="translate(-172.13 496.57) rotate(-45)"/><rect class="cls-18" x="514.97" y="453.35" width="1.08" height="1.08" transform="translate(-169.95 497.66) rotate(-45.02)"/><polygon class="cls-18" points="517.68 452.49 518.44 451.73 518.22 451.51 517.14 451.51 516.91 451.73 517.68 452.49"/><rect class="cls-18" x="517.77" y="454.44" width="1.98" height="1.08" transform="translate(-169.79 499.88) rotate(-44.98)"/><rect class="cls-18" x="515.61" y="456.6" width="1.98" height="1.08" transform="translate(-171.95 499.08) rotate(-44.99)"/><polygon class="cls-18" points="522.99 451.51 522.55 451.51 522.77 451.73 522.99 451.51"/><rect class="cls-18" x="519.93" y="452.27" width="1.98" height="1.08" transform="translate(-167.63 500.78) rotate(-44.98)"/><rect class="cls-18" x="513.44" y="458.76" width="1.98" height="1.08" transform="translate(-174.12 498.09) rotate(-44.98)"/><path class="cls-18" d="M512.59,460.39l-.02.02s.1.06.14.1l-.12-.12Z"/><path class="cls-18" d="M513.35,459.62l-.76.76.12.12c.26.18.48.39.77.52l.64-.64-.76-.76Z"/><rect class="cls-18" x="514.97" y="457.68" width="1.08" height="1.08" transform="translate(-173.01 498.93) rotate(-45.02)"/><rect class="cls-18" x="517.14" y="455.52" width="1.08" height="1.08" transform="translate(-170.86 499.63) rotate(-45)"/><rect class="cls-18" x="519.3" y="453.35" width="1.08" height="1.08" transform="translate(-168.69 500.51) rotate(-45)"/><polygon class="cls-18" points="522.01 452.49 522.77 451.73 522.55 451.51 521.46 451.51 521.24 451.73 522.01 452.49"/><rect class="cls-18" x="522.1" y="454.44" width="1.98" height="1.08" transform="translate(-168.49 503.35) rotate(-45.02)"/><rect class="cls-18" x="524.26" y="452.27" width="1.98" height="1.08" transform="translate(-166.34 504.03) rotate(-45)"/><rect class="cls-18" x="517.77" y="458.77" width="1.98" height="1.08" transform="translate(-172.84 501.35) rotate(-45)"/><polygon class="cls-18" points="516.91 460.39 515.84 461.46 517.37 461.46 517.68 461.15 516.91 460.39"/><polygon class="cls-18" points="527.32 451.51 526.88 451.51 527.1 451.73 527.32 451.51"/><rect class="cls-18" x="519.93" y="456.6" width="1.98" height="1.08" transform="translate(-170.67 502.24) rotate(-45)"/><rect class="cls-18" x="517.14" y="459.85" width="1.08" height="1.08" transform="translate(-173.92 500.9) rotate(-45)"/><rect class="cls-18" x="519.3" y="457.68" width="1.08" height="1.08" transform="translate(-171.74 501.99) rotate(-45.02)"/><rect class="cls-18" x="521.47" y="455.52" width="1.08" height="1.08" transform="translate(-169.59 502.69) rotate(-45)"/><rect class="cls-18" x="523.63" y="453.35" width="1.08" height="1.08" transform="translate(-167.41 503.8) rotate(-45.02)"/><polygon class="cls-18" points="526.33 452.49 527.1 451.73 526.88 451.51 525.79 451.51 525.57 451.73 526.33 452.49"/><polygon class="cls-18" points="531.65 451.51 531.2 451.51 531.43 451.73 531.65 451.51"/><rect class="cls-18" x="522.1" y="458.76" width="1.98" height="1.08" transform="translate(-171.56 504.6) rotate(-45.02)"/><rect class="cls-18" x="524.26" y="456.6" width="1.98" height="1.08" transform="translate(-169.4 505.31) rotate(-45)"/><polygon class="cls-18" points="521.24 460.39 520.17 461.46 521.7 461.46 522.01 461.15 521.24 460.39"/><rect class="cls-18" x="528.59" y="452.27" width="1.98" height="1.08" transform="translate(-165.08 507.1) rotate(-45)"/><rect class="cls-18" x="526.43" y="454.44" width="1.98" height="1.08" transform="translate(-167.25 506) rotate(-44.98)"/><rect class="cls-18" x="521.47" y="459.85" width="1.08" height="1.08" transform="translate(-172.66 503.8) rotate(-44.99)"/><rect class="cls-18" x="523.63" y="457.68" width="1.08" height="1.08" transform="translate(-170.49 504.84) rotate(-45)"/><rect class="cls-18" x="525.79" y="455.52" width="1.08" height="1.08" transform="translate(-168.32 505.75) rotate(-45)"/><rect class="cls-18" x="527.96" y="453.35" width="1.08" height="1.08" transform="translate(-166.16 506.65) rotate(-45)"/><polygon class="cls-18" points="530.66 452.49 531.43 451.73 531.2 451.51 530.12 451.51 529.9 451.73 530.66 452.49"/><polygon class="cls-18" points="535.98 451.51 535.53 451.51 535.75 451.73 535.98 451.51"/><rect class="cls-18" x="528.59" y="456.6" width="1.98" height="1.08" transform="translate(-168.14 508.36) rotate(-45)"/><rect class="cls-18" x="526.43" y="458.77" width="1.98" height="1.08" transform="translate(-170.29 507.66) rotate(-45.02)"/><polygon class="cls-18" points="525.57 460.39 524.5 461.46 526.02 461.46 526.33 461.15 525.57 460.39"/><rect class="cls-18" x="530.75" y="454.44" width="1.98" height="1.08" transform="translate(-165.97 509.26) rotate(-45)"/><rect class="cls-18" x="532.92" y="452.27" width="1.98" height="1.08" transform="translate(-163.81 510.16) rotate(-45)"/><rect class="cls-18" x="525.79" y="459.85" width="1.08" height="1.08" transform="translate(-171.38 507.02) rotate(-45)"/><rect class="cls-18" x="527.96" y="457.68" width="1.08" height="1.08" transform="translate(-169.21 508.11) rotate(-45.02)"/><rect class="cls-18" x="530.12" y="455.52" width="1.08" height="1.08" transform="translate(-167.05 508.81) rotate(-45)"/><rect class="cls-18" x="532.29" y="453.36" width="1.08" height="1.08" transform="translate(-164.91 509.51) rotate(-44.98)"/><polygon class="cls-18" points="534.99 452.49 535.75 451.73 535.53 451.51 534.45 451.51 534.23 451.73 534.99 452.49"/><polygon class="cls-18" points="529.9 460.39 528.82 461.46 530.35 461.46 530.66 461.15 529.9 460.39"/><rect class="cls-18" x="530.75" y="458.76" width="1.98" height="1.08" transform="translate(-169.03 510.53) rotate(-45)"/><polygon class="cls-18" points="540.3 451.51 539.86 451.51 540.08 451.73 540.3 451.51"/><rect class="cls-18" x="535.08" y="454.44" width="1.98" height="1.08" transform="translate(-164.72 512.12) rotate(-44.98)"/><rect class="cls-18" x="532.92" y="456.6" width="1.98" height="1.08" transform="translate(-166.87 511.42) rotate(-45)"/><rect class="cls-18" x="537.25" y="452.27" width="1.98" height="1.08" transform="translate(-162.54 513.22) rotate(-45)"/><rect class="cls-18" x="530.12" y="459.85" width="1.08" height="1.08" transform="translate(-170.11 510.12) rotate(-45)"/><rect class="cls-18" x="532.29" y="457.68" width="1.08" height="1.08" transform="translate(-167.94 511.17) rotate(-45.02)"/><rect class="cls-18" x="534.45" y="455.52" width="1.08" height="1.08" transform="translate(-165.77 512.05) rotate(-45.02)"/><rect class="cls-18" x="536.61" y="453.35" width="1.08" height="1.08" transform="translate(-163.62 512.75) rotate(-45)"/><polygon class="cls-18" points="539.32 452.49 540.08 451.73 539.86 451.51 538.78 451.51 538.55 451.73 539.32 452.49"/><polygon class="cls-18" points="544.63 451.51 544.19 451.51 544.41 451.73 544.63 451.51"/><rect class="cls-18" x="539.41" y="454.44" width="1.98" height="1.08" transform="translate(-163.44 515.38) rotate(-45)"/><rect class="cls-18" x="535.08" y="458.76" width="1.98" height="1.08" transform="translate(-167.75 513.79) rotate(-45.02)"/><rect class="cls-18" x="541.57" y="452.27" width="1.98" height="1.08" transform="translate(-161.29 516.08) rotate(-44.98)"/><polygon class="cls-18" points="534.23 460.39 533.15 461.46 534.68 461.46 534.99 461.15 534.23 460.39"/><rect class="cls-18" x="537.25" y="456.6" width="1.98" height="1.08" transform="translate(-165.61 514.38) rotate(-44.99)"/><rect class="cls-18" x="534.45" y="459.85" width="1.08" height="1.08" transform="translate(-168.84 513.18) rotate(-45)"/><rect class="cls-18" x="536.61" y="457.68" width="1.08" height="1.08" transform="translate(-166.67 514.23) rotate(-45.02)"/><rect class="cls-18" x="538.78" y="455.52" width="1.08" height="1.08" transform="translate(-164.52 514.92) rotate(-45)"/><rect class="cls-18" x="540.94" y="453.35" width="1.08" height="1.08" transform="translate(-162.34 516.03) rotate(-45.02)"/><polygon class="cls-18" points="543.65 452.49 544.41 451.73 544.19 451.51 543.1 451.51 542.88 451.73 543.65 452.49"/><polygon class="cls-18" points="548.96 451.51 548.52 451.51 548.74 451.73 548.96 451.51"/><rect class="cls-18" x="541.57" y="456.6" width="1.98" height="1.08" transform="translate(-164.33 517.54) rotate(-45)"/><rect class="cls-18" x="545.9" y="452.27" width="1.98" height="1.08" transform="translate(-160.01 519.34) rotate(-45)"/><rect class="cls-18" x="543.74" y="454.44" width="1.98" height="1.08" transform="translate(-162.15 518.64) rotate(-45.02)"/><rect class="cls-18" x="539.41" y="458.77" width="1.98" height="1.08" transform="translate(-166.5 516.66) rotate(-45)"/><polygon class="cls-18" points="538.55 460.39 537.48 461.46 539.01 461.46 539.32 461.15 538.55 460.39"/><rect class="cls-18" x="538.78" y="459.85" width="1.08" height="1.08" transform="translate(-167.58 516.2) rotate(-45)"/><rect class="cls-18" x="540.94" y="457.68" width="1.08" height="1.08" transform="translate(-165.42 517.1) rotate(-45)"/><rect class="cls-18" x="543.11" y="455.52" width="1.08" height="1.08" transform="translate(-163.23 518.19) rotate(-45.02)"/><rect class="cls-18" x="545.27" y="453.36" width="1.08" height="1.08" transform="translate(-161.11 518.69) rotate(-44.98)"/><polygon class="cls-18" points="547.98 452.49 548.74 451.73 548.52 451.51 547.43 451.51 547.21 451.73 547.98 452.49"/><polygon class="cls-18" points="542.88 460.39 541.81 461.46 543.34 461.46 543.65 461.15 542.88 460.39"/><rect class="cls-18" x="543.74" y="458.76" width="1.98" height="1.08" transform="translate(-165.21 519.91) rotate(-45.02)"/><rect class="cls-18" x="548.07" y="454.44" width="1.98" height="1.08" transform="translate(-160.92 521.3) rotate(-44.98)"/><rect class="cls-18" x="550.23" y="452.27" width="1.98" height="1.08" transform="translate(-158.76 522.2) rotate(-44.98)"/><rect class="cls-18" x="545.9" y="456.6" width="1.98" height="1.08" transform="translate(-163.07 520.6) rotate(-45)"/><polygon class="cls-18" points="553.29 451.51 552.84 451.51 553.07 451.73 553.29 451.51"/><rect class="cls-18" x="543.11" y="459.85" width="1.08" height="1.08" transform="translate(-166.33 519.1) rotate(-44.99)"/><rect class="cls-18" x="545.27" y="457.68" width="1.08" height="1.08" transform="translate(-164.15 520.16) rotate(-45)"/><rect class="cls-18" x="547.43" y="455.52" width="1.08" height="1.08" transform="translate(-161.98 521.05) rotate(-45)"/><rect class="cls-18" x="549.6" y="453.35" width="1.08" height="1.08" transform="translate(-159.82 521.95) rotate(-45)"/><polygon class="cls-18" points="552.3 452.49 553.07 451.73 552.84 451.51 551.76 451.51 551.54 451.73 552.3 452.49"/><polygon class="cls-18" points="547.21 460.39 546.14 461.46 547.66 461.46 547.98 461.15 547.21 460.39"/><rect class="cls-18" x="548.07" y="458.77" width="1.98" height="1.08" transform="translate(-163.96 522.77) rotate(-45)"/><rect class="cls-18" x="550.23" y="456.6" width="1.98" height="1.08" transform="translate(-161.8 523.67) rotate(-45)"/><rect class="cls-18" x="552.39" y="454.44" width="1.98" height="1.08" transform="translate(-159.65 524.36) rotate(-44.98)"/><rect class="cls-18" x="554.56" y="452.27" width="1.98" height="1.08" transform="translate(-157.47 525.46) rotate(-45)"/><polygon class="cls-18" points="557.62 451.51 557.17 451.51 557.39 451.73 557.62 451.51"/><rect class="cls-18" x="547.44" y="459.85" width="1.08" height="1.08" transform="translate(-165.04 522.36) rotate(-45)"/><rect class="cls-18" x="549.6" y="457.68" width="1.08" height="1.08" transform="translate(-162.86 523.42) rotate(-45.02)"/><rect class="cls-18" x="551.76" y="455.52" width="1.08" height="1.08" transform="translate(-160.7 524.32) rotate(-45.02)"/><rect class="cls-18" x="553.93" y="453.35" width="1.08" height="1.08" transform="translate(-158.57 524.81) rotate(-44.98)"/><polygon class="cls-18" points="556.63 452.49 557.39 451.73 557.17 451.51 556.09 451.51 555.87 451.73 556.63 452.49"/><polygon class="cls-18" points="551.54 460.39 550.47 461.46 551.99 461.46 552.3 461.15 551.54 460.39"/><polygon class="cls-18" points="561.94 451.51 561.5 451.51 561.72 451.73 561.94 451.51"/><rect class="cls-18" x="554.56" y="456.6" width="1.98" height="1.08" transform="translate(-160.53 526.73) rotate(-45)"/><rect class="cls-18" x="556.72" y="454.44" width="1.98" height="1.08" transform="translate(-158.37 527.62) rotate(-45)"/><rect class="cls-18" x="552.39" y="458.77" width="1.98" height="1.08" transform="translate(-162.68 526.03) rotate(-45.02)"/><rect class="cls-18" x="558.89" y="452.27" width="1.98" height="1.08" transform="translate(-156.2 528.52) rotate(-45)"/><rect class="cls-18" x="551.76" y="459.85" width="1.08" height="1.08" transform="translate(-163.8 525.18) rotate(-44.98)"/><rect class="cls-18" x="553.93" y="457.68" width="1.08" height="1.08" transform="translate(-161.59 526.48) rotate(-45.02)"/><rect class="cls-18" x="556.09" y="455.52" width="1.08" height="1.08" transform="translate(-159.45 527.17) rotate(-45)"/><rect class="cls-18" x="558.25" y="453.35" width="1.08" height="1.08" transform="translate(-157.26 528.27) rotate(-45.02)"/><polygon class="cls-18" points="560.96 452.49 561.72 451.73 561.5 451.51 560.42 451.51 560.2 451.73 560.96 452.49"/><rect class="cls-18" x="556.72" y="458.76" width="1.98" height="1.08" transform="translate(-161.41 529.09) rotate(-45.02)"/><rect class="cls-18" x="558.89" y="456.6" width="1.98" height="1.08" transform="translate(-159.26 529.79) rotate(-45)"/><rect class="cls-18" x="561.05" y="454.44" width="1.98" height="1.08" transform="translate(-157.1 530.7) rotate(-45)"/><polygon class="cls-18" points="555.87 460.39 554.79 461.46 556.32 461.46 556.63 461.15 555.87 460.39"/><polygon class="cls-18" points="566.27 451.51 565.83 451.51 566.05 451.73 566.27 451.51"/><rect class="cls-18" x="563.21" y="452.27" width="1.98" height="1.08" transform="translate(-154.96 531.36) rotate(-44.98)"/><rect class="cls-18" x="556.09" y="459.85" width="1.08" height="1.08" transform="translate(-162.51 528.48) rotate(-45)"/><rect class="cls-18" x="558.25" y="457.68" width="1.08" height="1.08" transform="translate(-160.33 529.54) rotate(-45.02)"/><rect class="cls-18" x="560.42" y="455.52" width="1.08" height="1.08" transform="translate(-158.18 530.25) rotate(-45)"/><rect class="cls-18" x="562.58" y="453.35" width="1.08" height="1.08" transform="translate(-155.99 531.35) rotate(-45.02)"/><polygon class="cls-18" points="565.29 452.49 566.05 451.73 565.83 451.51 564.74 451.51 564.52 451.73 565.29 452.49"/><rect class="cls-18" x="563.21" y="456.6" width="1.98" height="1.08" transform="translate(-157.99 532.86) rotate(-45)"/><polygon class="cls-18" points="560.2 460.39 559.12 461.46 560.65 461.46 560.96 461.15 560.2 460.39"/><rect class="cls-18" x="561.05" y="458.77" width="1.98" height="1.08" transform="translate(-160.16 531.95) rotate(-45)"/><rect class="cls-18" x="567.54" y="452.27" width="1.98" height="1.08" transform="translate(-153.67 534.64) rotate(-45)"/><rect class="cls-18" x="565.38" y="454.44" width="1.98" height="1.08" transform="translate(-155.81 533.95) rotate(-45.02)"/><polygon class="cls-18" points="570.6 451.51 570.16 451.51 570.38 451.73 570.6 451.51"/><rect class="cls-18" x="560.42" y="459.85" width="1.08" height="1.08" transform="translate(-161.24 531.5) rotate(-45)"/><rect class="cls-18" x="562.58" y="457.68" width="1.08" height="1.08" transform="translate(-159.08 532.38) rotate(-45)"/><rect class="cls-18" x="564.75" y="455.52" width="1.08" height="1.08" transform="translate(-156.89 533.51) rotate(-45.02)"/><rect class="cls-18" x="566.91" y="453.36" width="1.08" height="1.08" transform="translate(-154.75 534.19) rotate(-45)"/><polygon class="cls-18" points="569.62 452.49 570.38 451.73 570.16 451.51 569.07 451.51 568.85 451.73 569.62 452.49"/><rect class="cls-18" x="569.71" y="454.44" width="1.98" height="1.08" transform="translate(-154.56 536.8) rotate(-45)"/><polygon class="cls-18" points="574.93 451.51 574.49 451.51 574.71 451.73 574.93 451.51"/><polygon class="cls-18" points="564.52 460.39 563.45 461.46 564.98 461.46 565.29 461.15 564.52 460.39"/><rect class="cls-18" x="571.87" y="452.27" width="1.98" height="1.08" transform="translate(-152.38 537.9) rotate(-45.02)"/><rect class="cls-18" x="565.38" y="458.76" width="1.98" height="1.08" transform="translate(-158.87 535.22) rotate(-45.02)"/><rect class="cls-18" x="567.54" y="456.6" width="1.98" height="1.08" transform="translate(-156.73 535.91) rotate(-45)"/><rect class="cls-18" x="564.75" y="459.85" width="1.08" height="1.08" transform="translate(-159.99 534.38) rotate(-44.99)"/><rect class="cls-18" x="566.91" y="457.68" width="1.08" height="1.08" transform="translate(-157.81 535.46) rotate(-45)"/><rect class="cls-18" x="569.07" y="455.52" width="1.08" height="1.08" transform="translate(-155.65 536.35) rotate(-45)"/><rect class="cls-18" x="571.24" y="453.35" width="1.08" height="1.08" transform="translate(-153.48 537.25) rotate(-45)"/><polygon class="cls-18" points="573.94 452.49 574.71 451.73 574.49 451.51 573.4 451.51 573.18 451.73 573.94 452.49"/><polygon class="cls-18" points="568.85 460.39 567.78 461.46 569.3 461.46 569.62 461.15 568.85 460.39"/><rect class="cls-18" x="574.03" y="454.44" width="1.98" height="1.08" transform="translate(-153.3 539.86) rotate(-45)"/><rect class="cls-18" x="571.87" y="456.6" width="1.98" height="1.08" transform="translate(-155.46 538.97) rotate(-45)"/><polygon class="cls-18" points="579.26 451.51 578.81 451.51 579.03 451.73 579.26 451.51"/><rect class="cls-18" x="576.2" y="452.27" width="1.98" height="1.08" transform="translate(-151.13 540.76) rotate(-45)"/><rect class="cls-18" x="569.71" y="458.76" width="1.98" height="1.08" transform="translate(-157.62 538.07) rotate(-45)"/><rect class="cls-18" x="569.08" y="459.85" width="1.08" height="1.08" transform="translate(-158.7 537.66) rotate(-45)"/><rect class="cls-18" x="571.24" y="457.68" width="1.08" height="1.08" transform="translate(-156.54 538.52) rotate(-45)"/><rect class="cls-18" x="573.4" y="455.52" width="1.08" height="1.08" transform="translate(-154.35 539.62) rotate(-45.02)"/><rect class="cls-18" x="575.57" y="453.35" width="1.08" height="1.08" transform="translate(-152.19 540.52) rotate(-45.02)"/><polygon class="cls-18" points="578.27 452.49 579.03 451.73 578.81 451.51 577.73 451.51 577.51 451.73 578.27 452.49"/><rect class="cls-18" x="574.03" y="458.77" width="1.98" height="1.08" transform="translate(-156.38 540.92) rotate(-44.98)"/><polygon class="cls-18" points="583.59 451.51 583.14 451.51 583.36 451.73 583.59 451.51"/><rect class="cls-18" x="578.36" y="454.44" width="1.98" height="1.08" transform="translate(-152 543.13) rotate(-45.02)"/><polygon class="cls-18" points="573.18 460.39 572.11 461.46 573.63 461.46 573.94 461.15 573.18 460.39"/><rect class="cls-18" x="580.53" y="452.27" width="1.98" height="1.08" transform="translate(-149.89 543.63) rotate(-44.99)"/><rect class="cls-18" x="576.2" y="456.6" width="1.98" height="1.08" transform="translate(-154.19 542.03) rotate(-45)"/><rect class="cls-18" x="573.4" y="459.85" width="1.08" height="1.08" transform="translate(-157.42 540.89) rotate(-45.02)"/><rect class="cls-18" x="575.57" y="457.68" width="1.08" height="1.08" transform="translate(-155.27 541.58) rotate(-45)"/><rect class="cls-18" x="577.73" y="455.52" width="1.08" height="1.08" transform="translate(-153.11 542.48) rotate(-45)"/><rect class="cls-18" x="579.9" y="453.36" width="1.08" height="1.08" transform="translate(-150.95 543.37) rotate(-45)"/><polygon class="cls-18" points="582.6 452.49 583.36 451.73 583.14 451.51 582.06 451.51 581.84 451.73 582.6 452.49"/><polygon class="cls-18" points="577.51 460.39 576.43 461.46 577.96 461.46 578.27 461.15 577.51 460.39"/><polygon class="cls-18" points="587.91 451.51 587.47 451.51 587.69 451.73 587.91 451.51"/><rect class="cls-18" x="578.36" y="458.76" width="1.98" height="1.08" transform="translate(-155.09 544.19) rotate(-45)"/><rect class="cls-18" x="580.53" y="456.6" width="1.98" height="1.08" transform="translate(-152.91 545.19) rotate(-45.01)"/><rect class="cls-18" x="582.69" y="454.44" width="1.98" height="1.08" transform="translate(-150.76 545.97) rotate(-45)"/><rect class="cls-18" x="584.86" y="452.27" width="1.98" height="1.08" transform="translate(-148.6 546.88) rotate(-45)"/><rect class="cls-18" x="577.73" y="459.85" width="1.08" height="1.08" transform="translate(-156.17 543.78) rotate(-45)"/><rect class="cls-18" x="579.9" y="457.68" width="1.08" height="1.08" transform="translate(-154.01 544.64) rotate(-45)"/><rect class="cls-18" x="582.06" y="455.52" width="1.08" height="1.08" transform="translate(-151.84 545.54) rotate(-45)"/><rect class="cls-18" x="584.22" y="453.35" width="1.08" height="1.08" transform="translate(-149.65 546.64) rotate(-45.02)"/><polygon class="cls-18" points="586.93 452.49 587.69 451.73 587.47 451.51 586.39 451.51 586.16 451.73 586.93 452.49"/><rect class="cls-18" x="589.18" y="452.27" width="1.98" height="1.08" transform="translate(-147.33 549.94) rotate(-45)"/><polygon class="cls-18" points="581.84 460.39 580.76 461.46 582.29 461.46 582.6 461.15 581.84 460.39"/><polygon class="cls-18" points="592.24 451.51 591.8 451.51 592.02 451.73 592.24 451.51"/><rect class="cls-18" x="587.02" y="454.44" width="1.98" height="1.08" transform="translate(-149.52 548.84) rotate(-44.98)"/><rect class="cls-18" x="584.86" y="456.6" width="1.98" height="1.08" transform="translate(-151.66 548.14) rotate(-45)"/><rect class="cls-18" x="582.69" y="458.76" width="1.98" height="1.08" transform="translate(-153.8 547.45) rotate(-45.01)"/><rect class="cls-18" x="582.06" y="459.85" width="1.08" height="1.08" transform="translate(-154.92 546.65) rotate(-44.99)"/><rect class="cls-18" x="584.22" y="457.68" width="1.08" height="1.08" transform="translate(-152.74 547.72) rotate(-45)"/><rect class="cls-18" x="586.39" y="455.52" width="1.08" height="1.08" transform="translate(-150.58 548.6) rotate(-45)"/><rect class="cls-18" x="588.55" y="453.35" width="1.08" height="1.08" transform="translate(-148.44 549.28) rotate(-44.98)"/><polygon class="cls-18" points="591.26 452.49 592.02 451.73 591.8 451.51 590.71 451.51 590.49 451.73 591.26 452.49"/><rect class="cls-18" x="593.51" y="452.27" width="1.98" height="1.08" transform="translate(-146.03 553.21) rotate(-45.02)"/><rect class="cls-18" x="591.35" y="454.44" width="1.98" height="1.08" transform="translate(-148.23 552.11) rotate(-45)"/><rect class="cls-18" x="587.02" y="458.77" width="1.98" height="1.08" transform="translate(-152.55 550.31) rotate(-45)"/><polygon class="cls-18" points="586.16 460.39 585.09 461.46 586.62 461.46 586.93 461.15 586.16 460.39"/><polygon class="cls-18" points="596.57 451.51 596.13 451.51 596.35 451.73 596.57 451.51"/><rect class="cls-18" x="589.18" y="456.6" width="1.98" height="1.08" transform="translate(-150.39 551.21) rotate(-45)"/><rect class="cls-18" x="586.39" y="459.85" width="1.08" height="1.08" transform="translate(-153.64 549.86) rotate(-45)"/><rect class="cls-18" x="588.55" y="457.68" width="1.08" height="1.08" transform="translate(-151.45 550.97) rotate(-45.02)"/><rect class="cls-18" x="590.72" y="455.52" width="1.08" height="1.08" transform="translate(-149.28 551.87) rotate(-45.02)"/><rect class="cls-18" x="592.88" y="453.35" width="1.08" height="1.08" transform="translate(-147.14 552.55) rotate(-45)"/><polygon class="cls-18" points="595.58 452.49 596.35 451.73 596.13 451.51 595.04 451.51 594.82 451.73 595.58 452.49"/><polygon class="cls-18" points="590.49 460.39 589.42 461.46 590.95 461.46 591.26 461.15 590.49 460.39"/><rect class="cls-18" x="591.35" y="458.76" width="1.98" height="1.08" transform="translate(-151.31 553.16) rotate(-44.98)"/><rect class="cls-18" x="597.84" y="452.27" width="1.98" height="1.08" transform="translate(-144.79 556.1) rotate(-45)"/><rect class="cls-18" x="593.51" y="456.6" width="1.98" height="1.08" transform="translate(-149.12 554.27) rotate(-45)"/><rect class="cls-18" x="595.68" y="454.44" width="1.98" height="1.08" transform="translate(-146.96 555.17) rotate(-45)"/><rect class="cls-18" x="590.72" y="459.85" width="1.08" height="1.08" transform="translate(-152.37 552.93) rotate(-45)"/><rect class="cls-18" x="592.88" y="457.68" width="1.08" height="1.08" transform="translate(-150.18 554.03) rotate(-45.02)"/><rect class="cls-18" x="595.04" y="455.52" width="1.08" height="1.08" transform="translate(-148.04 554.72) rotate(-45)"/><rect class="cls-18" x="597.21" y="453.35" width="1.08" height="1.08" transform="translate(-145.88 555.61) rotate(-45)"/><path class="cls-18" d="M599.91,452.5l.71-.71c-.41-.12-.82-.25-1.27-.26l-.2.2.77.77Z"/><path class="cls-18" d="M602.84,453.89l.33-.33c-.22-.3-.44-.57-.72-.81l-.38.38.77.77Z"/><rect class="cls-18" x="600" y="454.44" width="1.98" height="1.08" transform="translate(-145.69 558.23) rotate(-45)"/><rect class="cls-18" x="597.84" y="456.6" width="1.98" height="1.08" transform="translate(-147.85 557.33) rotate(-45)"/><rect class="cls-18" x="595.68" y="458.76" width="1.98" height="1.08" transform="translate(-150.02 556.45) rotate(-45)"/><polygon class="cls-18" points="594.82 460.39 593.75 461.46 595.27 461.46 595.58 461.15 594.82 460.39"/><rect class="cls-18" x="595.04" y="459.85" width="1.08" height="1.08" transform="translate(-151.1 555.99) rotate(-45)"/><rect class="cls-18" x="597.21" y="457.68" width="1.08" height="1.08" transform="translate(-148.96 556.67) rotate(-44.98)"/><rect class="cls-18" x="599.37" y="455.52" width="1.08" height="1.08" transform="translate(-146.77 557.78) rotate(-45)"/><rect class="cls-18" x="601.53" y="453.35" width="1.08" height="1.08" transform="translate(-144.61 558.67) rotate(-45)"/><path class="cls-18" d="M602.08,457.46l.76.76,1.31-1.31c0-.05.03-.1.03-.15l-.7-.7-1.4,1.4Z"/><rect class="cls-18" x="600.01" y="458.76" width="1.98" height="1.08" transform="translate(-148.76 559.45) rotate(-45)"/><path class="cls-18" d="M599.15,460.39l-1.07,1.07h1.19c.15,0,.28-.07.43-.09l.22-.22-.76-.76Z"/><rect class="cls-18" x="599.37" y="459.85" width="1.08" height="1.08" transform="translate(-149.86 558.83) rotate(-44.98)"/><rect class="cls-18" x="601.53" y="457.68" width="1.08" height="1.08" transform="translate(-147.7 559.73) rotate(-44.98)"/><path class="cls-18" d="M604.18,456.76c0-.1.06-.18.06-.28,0-.35-.13-.66-.2-.99l-.56.56.7.7Z"/><path class="cls-21" d="M646.54,451.03c.63,1.41.99,2.96.99,4.61,0,6.29-5.1,11.39-11.39,11.39-.31,0-.6-.07-.91-.09.85.22,1.73.38,2.65.38,5.77,0,10.44-4.68,10.44-10.44,0-2.16-.66-4.17-1.78-5.84Z"/><path class="cls-9" d="M644.14,456.12c0,3.71-3.01,6.72-6.72,6.72s-6.72-3.01-6.72-6.72,3.01-6.72,6.72-6.72,6.72,3.01,6.72,6.72Z"/><path class="cls-20" d="M640.24,451.35c-3.54.29-5.27,3.54-1.81,8.67,3.68-.36,5.27-3.76,1.81-8.67Z"/><path class="cls-16" d="M635.62,451.13c-3.68,1.16-4.91,7.01-.72,9.46-.72-3.32,2.46-6.79.72-9.46Z"/><path class="cls-22" d="M921,1770.23h12.16v-9.14h-12.16v9.14ZM921,542.7v9.14h12.16v-9.14h-12.16Z"/><path class="cls-5" d="M192.75,1761.09h-12.16v9.14h12.16v-9.14ZM180.6,542.7v9.14h12.16v-9.14h-12.16Z"/><path class="cls-23" d="M937.38,748.37c-1.55,1.51-1.55,6.24-1.55,15.04v150.65c0,2.91-.08,6.17,1.38,6.6.65-.51.7-2.15.7-4.01v-162.17c0-2.25.06-5.57-.53-6.1Z"/><path class="cls-6" d="M935.82,914.06v-150.65c0-8.8,0-13.53,1.55-15.04l-4.45-2.76c-2.23,3.37-2.09,10.52-2.09,13.25v151.26c0,6.9.42,11.38,1.76,12.35l4.6-1.82c-1.45-.42-1.38-3.69-1.38-6.6Z"/><path class="cls-2" d="M176.37,711.25c1.55,1.51,1.55,6.24,1.55,15.04v86.28c0,2.91.08,6.18-1.38,6.6-.65-.51-.7-2.15-.7-4.01v-97.8c0-2.25-.06-5.57.53-6.1Z"/><path class="cls-17" d="M177.93,812.56v-86.28c0-8.8,0-13.53-1.55-15.04l4.45-2.76c2.23,3.37,2.09,10.52,2.09,13.25v86.89c0,6.9-.42,11.38-1.76,12.35l-4.6-1.82c1.45-.42,1.38-3.69,1.38-6.6Z"/><path class="cls-1" d="M176.37,850.18c1.55,1.51,1.55,6.24,1.55,15.04v86.28c0,2.91.08,6.17-1.38,6.6-.65-.51-.7-2.15-.7-4.01v-97.8c0-2.25-.06-5.57.53-6.1Z"/><path class="cls-27" d="M177.93,951.49v-86.28c0-8.8,0-13.53-1.55-15.04l4.45-2.76c2.23,3.37,2.09,10.52,2.09,13.25v86.89c0,6.9-.42,11.38-1.76,12.35l-4.6-1.82c1.45-.42,1.38-3.69,1.38-6.6Z"/><polygon class="cls-25" points="175.49 602.92 175.49 657.4 176.85 658.76 176.85 601.56 175.49 602.92"/><path class="cls-19" d="M180.69,601.56h-3.85v57.19l.1.1h4.08c.68-.68.71-1.66.71-3.13v-51.03c0-1.69-.18-2.75-1.05-3.13Z"/><path class="cls-21" d="M487.09,457.14c0,4.21-3.41,7.62-7.62,7.62s-7.62-3.41-7.62-7.62,3.41-7.62,7.62-7.62,7.62,3.41,7.62,7.62Z"/><path class="cls-14" d="M698.17,457.14c0,4.21-3.41,7.62-7.62,7.62s-7.62-3.41-7.62-7.62,3.41-7.62,7.62-7.62,7.62,3.41,7.62,7.62Z"/><path class="cls-21" d="M434.42,457.14c0,4.21-3.41,7.62-7.62,7.62s-7.62-3.41-7.62-7.62,3.41-7.62,7.62-7.62,7.62,3.41,7.62,7.62Z"/></svg>