<?xml version="1.0" encoding="UTF-8"?><svg id="Layer_1" xmlns="http://www.w3.org/2000/svg" xmlns:xlink="http://www.w3.org/1999/xlink" viewBox="0 0 1080 1080"><defs><style>.cls-1{fill:url(#linear-gradient-15);}.cls-2{fill:url(#linear-gradient-13);}.cls-3{fill:#29abe2;}.cls-4{fill:#fff9d7;}.cls-5{opacity:.81;}.cls-6{fill:#ef4136;stroke:#000;stroke-width:.75px;}.cls-6,.cls-7,.cls-8{stroke-miterlimit:10;}.cls-9{fill:url(#linear-gradient-2);}.cls-10{opacity:.29;}.cls-11{fill:url(#linear-gradient-10);}.cls-12{fill:url(#linear-gradient-12);}.cls-7{stroke:#4d4d4d;}.cls-7,.cls-13{fill:#005699;}.cls-14{fill:#1d1e24;}.cls-15,.cls-16{fill:#fff;}.cls-17{fill:#262626;}.cls-18,.cls-8{fill:none;}.cls-19{fill:url(#linear-gradient-4);}.cls-20{opacity:.38;}.cls-20,.cls-21{fill:#1c75bc;}.cls-22{fill:url(#linear-gradient-3);}.cls-23{fill:#e30613;}.cls-24{fill:#006838;}.cls-25{fill:url(#linear-gradient-5);}.cls-26{fill:#ffefe3;}.cls-27{fill:url(#linear-gradient-8);}.cls-28{fill:url(#linear-gradient-14);}.cls-29{fill:#333;}.cls-30{fill:url(#linear-gradient-17);}.cls-31{fill:#35c340;}.cls-32{fill:url(#linear-gradient-7);}.cls-33{fill:#1a1a1a;}.cls-34{fill:url(#linear-gradient-9);}.cls-35{fill:url(#linear-gradient-11);}.cls-36{fill:url(#linear-gradient-6);}.cls-37{fill:#555658;}.cls-16{opacity:.6;}.cls-38{fill:#ed1c24;}.cls-39{opacity:.19;}.cls-40{fill:url(#linear-gradient-16);}.cls-8{stroke:#18191c;stroke-width:.5px;}.cls-41{fill:url(#radial-gradient);opacity:.32;}.cls-42{fill:url(#linear-gradient);}.cls-43{fill:#e6e7e8;}.cls-44{fill:url(#linear-gradient-18);}</style><linearGradient id="linear-gradient" x1="478.49" y1="283.2" x2="-29.25" y2="1112.46" gradientUnits="userSpaceOnUse"><stop offset="0" stop-color="#fff"/><stop offset=".21" stop-color="#fff" stop-opacity=".76"/><stop offset=".5" stop-color="#fff" stop-opacity=".44"/><stop offset=".73" stop-color="#fff" stop-opacity=".2"/><stop offset=".91" stop-color="#fff" stop-opacity=".06"/><stop offset="1" stop-color="#fff" stop-opacity="0"/></linearGradient><radialGradient id="radial-gradient" cx="236.63" cy="551.09" fx="236.63" fy="551.09" r="3.92" gradientUnits="userSpaceOnUse"><stop offset=".45" stop-color="#fff"/><stop offset=".51" stop-color="#dbdbdb" stop-opacity=".86"/><stop offset=".65" stop-color="#8e8e8e" stop-opacity=".56"/><stop offset=".77" stop-color="#515151" stop-opacity=".32"/><stop offset=".87" stop-color="#252525" stop-opacity=".15"/><stop offset=".95" stop-color="#0a0a0a" stop-opacity=".04"/><stop offset="1" stop-color="#000" stop-opacity="0"/></radialGradient><linearGradient id="linear-gradient-2" x1="354.02" y1="788.68" x2="355.63" y2="788.68" gradientUnits="userSpaceOnUse"><stop offset="0" stop-color="#666"/><stop offset=".07" stop-color="#5b5b5b"/><stop offset=".29" stop-color="#414141"/><stop offset=".52" stop-color="#2e2e2e"/><stop offset=".75" stop-color="#222"/><stop offset="1" stop-color="#1f1f1f"/></linearGradient><linearGradient id="linear-gradient-3" x1="354" y1="897.16" x2="356.32" y2="897.16" gradientUnits="userSpaceOnUse"><stop offset="0" stop-color="#fff"/><stop offset="0" stop-color="#fdfdfd"/><stop offset=".12" stop-color="#c3c3c3"/><stop offset=".25" stop-color="#8f8f8f"/><stop offset=".37" stop-color="#636363"/><stop offset=".5" stop-color="#3f3f3f"/><stop offset=".62" stop-color="#232323"/><stop offset=".75" stop-color="#0f0f0f"/><stop offset=".87" stop-color="#030303"/><stop offset="1" stop-color="#000"/></linearGradient><linearGradient id="linear-gradient-4" y1="1009.73" y2="1009.73" xlink:href="#linear-gradient-3"/><linearGradient id="linear-gradient-5" x1="907.58" y1="613.31" x2="952.97" y2="643.78" gradientUnits="userSpaceOnUse"><stop offset="0" stop-color="#4d4d4d"/><stop offset="1" stop-color="#1a1a1a"/></linearGradient><linearGradient id="linear-gradient-6" x1="366.16" y1="642.99" x2="412.28" y2="612.38" xlink:href="#linear-gradient-5"/><linearGradient id="linear-gradient-7" x1="365.87" y1="1214.67" x2="952.28" y2="1214.67" gradientUnits="userSpaceOnUse"><stop offset="0" stop-color="#2e2e2e"/><stop offset=".07" stop-color="#000"/><stop offset=".18" stop-color="#363636"/><stop offset=".8" stop-color="#363636"/><stop offset=".94" stop-color="#000"/><stop offset="1" stop-color="#2e2e2e"/></linearGradient><linearGradient id="linear-gradient-8" x1="723.43" y1="644.77" x2="728.29" y2="650.62" gradientUnits="userSpaceOnUse"><stop offset="0" stop-color="#5482ff"/><stop offset=".08" stop-color="#4064c5" stop-opacity=".84"/><stop offset=".17" stop-color="#2f4a91" stop-opacity=".7"/><stop offset=".25" stop-color="#213364" stop-opacity=".58"/><stop offset=".34" stop-color="#152040" stop-opacity=".48"/><stop offset=".43" stop-color="#0b1224" stop-opacity=".4"/><stop offset=".51" stop-color="#050810" stop-opacity=".34"/><stop offset=".6" stop-color="#010204" stop-opacity=".31"/><stop offset=".68" stop-color="#000" stop-opacity=".3"/></linearGradient><linearGradient id="linear-gradient-9" x1="719.97" y1="644.94" x2="724.75" y2="650.7" gradientUnits="userSpaceOnUse"><stop offset="0" stop-color="#5482ff"/><stop offset=".07" stop-color="#4064c5" stop-opacity=".84"/><stop offset=".14" stop-color="#2f4a91" stop-opacity=".7"/><stop offset=".21" stop-color="#213364" stop-opacity=".58"/><stop offset=".28" stop-color="#152040" stop-opacity=".48"/><stop offset=".35" stop-color="#0b1224" stop-opacity=".4"/><stop offset=".42" stop-color="#050810" stop-opacity=".34"/><stop offset=".49" stop-color="#010204" stop-opacity=".31"/><stop offset=".56" stop-color="#000" stop-opacity=".3"/></linearGradient><linearGradient id="linear-gradient-10" x1="953.48" y1="1214.59" x2="963.32" y2="1214.59" gradientUnits="userSpaceOnUse"><stop offset="0" stop-color="gray"/><stop offset=".33" stop-color="#a9a9a9" stop-opacity=".89"/><stop offset=".66" stop-color="#c3c3c3" stop-opacity=".82"/><stop offset="1" stop-color="#ccc" stop-opacity=".8"/></linearGradient><linearGradient id="linear-gradient-11" x1="-4030.89" y1="1214.59" x2="-4021.05" y2="1214.59" gradientTransform="translate(-3667.1) rotate(-180) scale(1 -1)" gradientUnits="userSpaceOnUse"><stop offset="0" stop-color="gray"/><stop offset=".2" stop-color="#9a9a9a" stop-opacity=".96"/><stop offset=".46" stop-color="#b6b6b6" stop-opacity=".93"/><stop offset=".73" stop-color="#c6c6c6" stop-opacity=".91"/><stop offset="1" stop-color="#ccc" stop-opacity=".9"/></linearGradient><linearGradient id="linear-gradient-12" x1="965.49" y1="953.9" x2="967.21" y2="953.9" gradientUnits="userSpaceOnUse"><stop offset="0" stop-color="#4a4a4a"/><stop offset=".17" stop-color="#4d4d4d"/><stop offset=".33" stop-color="#595959"/><stop offset=".48" stop-color="#6c6c6c"/><stop offset=".64" stop-color="#878787"/><stop offset=".79" stop-color="#aaa"/><stop offset=".94" stop-color="#d4d4d4"/><stop offset="1" stop-color="#e6e6e6"/></linearGradient><linearGradient id="linear-gradient-13" x1="964.09" y1="881.57" x2="964.09" y2="1025.36" gradientUnits="userSpaceOnUse"><stop offset=".02" stop-color="#000"/><stop offset=".03" stop-color="#1b1b1b"/><stop offset=".05" stop-color="#5b5b5b"/><stop offset=".07" stop-color="#909090"/><stop offset=".09" stop-color="#b9b9b9"/><stop offset=".11" stop-color="#d7d7d7"/><stop offset=".13" stop-color="#e9e9e9"/><stop offset=".14" stop-color="#f0f0f0"/><stop offset=".87" stop-color="#f0f0f0"/><stop offset=".88" stop-color="#ebebeb"/><stop offset=".89" stop-color="#dcdcdc"/><stop offset=".91" stop-color="#c4c4c4"/><stop offset=".93" stop-color="#a3a3a3"/><stop offset=".94" stop-color="#787878"/><stop offset=".96" stop-color="#434343"/><stop offset=".98" stop-color="#060606"/><stop offset=".98" stop-color="#000"/></linearGradient><linearGradient id="linear-gradient-14" x1="-4032.19" y1="897.78" x2="-4030.48" y2="897.78" gradientTransform="translate(-3680.42) rotate(-180) scale(1 -1)" xlink:href="#linear-gradient-12"/><linearGradient id="linear-gradient-15" x1="-4033.59" y1="851.63" x2="-4033.59" y2="943.09" gradientTransform="translate(-3680.42) rotate(-180) scale(1 -1)" gradientUnits="userSpaceOnUse"><stop offset="0" stop-color="#121212"/><stop offset="0" stop-color="#1c1c1c"/><stop offset=".03" stop-color="#5b5b5b"/><stop offset=".05" stop-color="#909090"/><stop offset=".07" stop-color="#b9b9b9"/><stop offset=".08" stop-color="#d7d7d7"/><stop offset=".1" stop-color="#e9e9e9"/><stop offset=".11" stop-color="#f0f0f0"/><stop offset=".91" stop-color="#f0f0f0"/><stop offset=".92" stop-color="#ebebeb"/><stop offset=".93" stop-color="#dcdcdc"/><stop offset=".95" stop-color="#c4c4c4"/><stop offset=".96" stop-color="#a3a3a3"/><stop offset=".98" stop-color="#787878"/><stop offset=".99" stop-color="#444"/><stop offset="1" stop-color="#242424"/></linearGradient><linearGradient id="linear-gradient-16" x1="-4032.19" y1="1010.27" x2="-4030.48" y2="1010.27" gradientTransform="translate(-3680.42) rotate(-180) scale(1 -1)" xlink:href="#linear-gradient-12"/><linearGradient id="linear-gradient-17" y1="964.13" y2="1055.59" xlink:href="#linear-gradient-15"/><linearGradient id="linear-gradient-18" x1="352.89" y1="765.27" x2="352.89" y2="811.66" gradientTransform="matrix(1,0,0,1,0,0)" xlink:href="#linear-gradient-15"/></defs><rect class="cls-13" x="116.64" y="372.59" width="599.6" height="1212.13" rx="89.96" ry="89.96"/><rect class="cls-13" x="130.41" y="386.36" width="572.05" height="1184.58" rx="76.19" ry="76.19"/><path class="cls-13" d="M714.65,579.58v-41.16c0-1.66.27-3.13,1.59-3.97v49.01c-1.54-.69-1.59-3.03-1.59-3.88Z"/><path class="cls-13" d="M713.98,707.48v-82.33c0-1.68.21-4.78,2.26-6.53v94.19c-2.52-1.65-2.26-4.46-2.26-5.33Z"/><path class="cls-13" d="M713.98,818.26v-82.33c0-1.68.21-4.78,2.26-6.53v94.19c-2.52-1.65-2.26-4.46-2.26-5.33Z"/><path class="cls-13" d="M173.61,389.13c-4.22,1.96-8.25,4.26-12.05,6.87-12.19,4.46-21.88,11.56-30,22.2,5.67-9.51,13.06-17.87,21.75-24.67,6.4-3.95,12.16-5.15,20.3-4.41Z"/><path class="cls-13" d="M119.08,978.71V463.56c0-16.56,4.56-32.06,12.48-45.35,8.11-10.64,17.81-17.75,30-22.2-21.48,14.8-35.59,39.56-35.59,67.55v515.16h-6.89Z"/><path class="cls-13" d="M658.49,389.13c4.22,1.96,8.25,4.26,12.05,6.87,12.19,4.46,21.88,11.56,30,22.2-5.67-9.51-13.06-17.87-21.75-24.67-6.4-3.95-12.16-5.15-20.3-4.41Z"/><path class="cls-13" d="M713.01,977.06V463.56c0-16.56-4.56-32.06-12.48-45.35-8.11-10.64-17.81-17.75-30-22.2,21.48,14.8,35.59,39.56,35.59,67.55v513.51h6.89Z"/><path class="cls-13" d="M207.98,374.67h416.15c20.6,0,39.58,7.06,54.67,18.87-6.4-3.95-12.16-5.15-20.3-4.41-10.46-4.85-22.1-7.58-34.37-7.58H207.98c-12.27,0-23.91,2.73-34.37,7.58-8.14-.74-13.9.46-20.3,4.41,15.09-11.81,34.06-18.87,54.67-18.87Z"/><path class="cls-13" d="M119.7,788.57v-134.07c0-1.68-.28-4.78-3.05-6.53v145.93c3.41-1.65,3.05-4.46,3.05-5.33Z"/><path class="cls-13" d="M119.08,978.5v515.16c0,16.56,4.56,32.06,12.48,45.35,8.11,10.64,17.81,17.75,30,22.2-21.48-14.8-35.59-39.56-35.59-67.55v-515.16h-6.89Z"/><path class="cls-13" d="M713.01,980.15v513.51c0,16.56-4.56,32.06-12.48,45.35-8.11,10.64-17.81,17.75-30,22.2,21.48-14.8,35.59-39.56,35.59-67.55v-513.51h6.89Z"/><path class="cls-13" d="M127.48,1494.3V463.34c0-44.27,35.89-80.15,80.15-80.15h417.49c43.87,0,79.44,35.57,79.44,79.44v1030.49c0,44.21-35.84,80.06-80.06,80.06H206.36c-43.56,0-78.88-35.31-78.88-78.88ZM207.64,385.94c-42.75,0-77.4,34.65-77.4,77.4v1030.96c0,42.04,34.08,76.12,76.12,76.12h418.16c42.69,0,77.3-34.61,77.3-77.3V462.15c0-42.09-34.12-76.21-76.21-76.21H207.64Z"/><path class="cls-13" d="M131.79,469.94c0-44.03,20.91-65.89,44.15-75.78-6.22,12.75-33.35,23.78-33.35,75.44v1016.7c0,51.66,27.13,62.7,33.35,75.44-23.24-9.9-44.15-31.76-44.15-75.78l-.65-508.01.65-508.01Z"/><path class="cls-13" d="M698.73,469.94c0-44.03-20.91-65.89-44.15-75.78,6.22,12.75,33.35,23.78,33.35,75.44v1016.7c0,51.66-27.13,62.7-33.35,75.44,23.24-9.9,44.15-31.76,44.15-75.78l.65-508.01-.65-508.01Z"/><path class="cls-13" d="M126.3,1459.91h-9.69v7.28h9.69v-7.28ZM116.62,489.01v7.28h9.69v-7.28h-9.69Z"/><path class="cls-13" d="M706.62,1467.2h9.69v-7.28h-9.69v7.28ZM706.62,489.01v7.28h9.69v-7.28h-9.69Z"/><path class="cls-24" d="M113.25,652.91c1.24,1.21,1.24,4.97,1.24,11.98v120.05c0,2.32.06,4.92-1.1,5.26-.52-.41-.56-1.71-.56-3.19v-129.23c0-1.8-.05-4.44.42-4.86Z"/><path class="cls-31" d="M114.49,784.94v-120.05c0-7.01,0-10.78-1.24-11.98l3.54-2.2c1.78,2.69,1.66,8.39,1.66,10.56v120.54c0,5.5-.34,9.07-1.4,9.84l-3.67-1.45c1.16-.34,1.1-2.94,1.1-5.26Z"/><path class="cls-24" d="M719.68,623.33c-1.24,1.21-1.24,4.97-1.24,11.98v68.75c0,2.32-.06,4.92,1.1,5.26.52-.41.56-1.71.56-3.19v-77.94c0-1.8.05-4.44-.42-4.86Z"/><path class="cls-31" d="M718.44,704.06v-68.75c0-7.01,0-10.78,1.24-11.98l-3.54-2.2c-1.78,2.69-1.66,8.39-1.66,10.56v69.24c0,5.5.34,9.07,1.4,9.84l3.67-1.45c-1.16-.34-1.1-2.94-1.1-5.26Z"/><path class="cls-24" d="M719.68,734.03c-1.24,1.21-1.24,4.97-1.24,11.98v68.75c0,2.32-.06,4.92,1.1,5.26.52-.41.56-1.71.56-3.19v-77.94c0-1.8.05-4.44-.42-4.86Z"/><path class="cls-31" d="M718.44,814.77v-68.75c0-7.01,0-10.78,1.24-11.98l-3.54-2.2c-1.78,2.69-1.66,8.39-1.66,10.56v69.24c0,5.5.34,9.07,1.4,9.84l3.67-1.45c-1.16-.34-1.1-2.94-1.1-5.26Z"/><polygon class="cls-24" points="720.38 537 720.38 580.42 719.3 581.5 719.3 535.92 720.38 537"/><path class="cls-31" d="M716.23,535.92h3.07v45.58l-.08.08h-3.25c-.54-.54-.57-1.33-.57-2.49v-40.67c0-1.35.14-2.19.84-2.49Z"/><g class="cls-10"><path class="cls-42" d="M143.84,459.95v747.97s461.77-763.49,478.46-790.97c4.34-7.15,14.33-21.61,28.42-24.94,0,0-9.3-3.94-21.7-3.94H215.72c-39.7,0-71.88,32.18-71.88,71.88Z"/></g><path class="cls-39" d="M214.37,630.27c-27.98,0-50.75-22.77-50.75-50.75v-108.14c0-27.98,22.77-50.75,50.75-50.75s50.75,22.77,50.75,50.75v108.14c0,27.98-22.77,50.75-50.75,50.75Z"/><path class="cls-6" d="M214.37,626.82h0c-26.02,0-47.31-21.29-47.31-47.31v-108.14c0-26.02,21.29-47.31,47.31-47.31h0c26.02,0,47.31,21.29,47.31,47.31v108.14c0,26.02-21.29,47.31-47.31,47.31Z"/><path class="cls-7" d="M214.37,619.94c-22.29,0-40.42-18.13-40.42-40.42v-108.14c0-22.29,18.13-40.42,40.42-40.42s40.42,18.13,40.42,40.42v108.14c0,22.29-18.13,40.42-40.42,40.42Z"/><path class="cls-41" d="M240.55,551.09c0,2.17-1.76,3.92-3.92,3.92s-3.92-1.76-3.92-3.92,1.76-3.92,3.92-3.92,3.92,1.76,3.92,3.92Z"/><path class="cls-14" d="M231.06,468.3c0,9.81-7.95,17.77-17.77,17.77s-17.77-7.95-17.77-17.77,7.95-17.77,17.77-17.77,17.77,7.95,17.77,17.77Z"/><path class="cls-8" d="M228.88,468.3c0,8.6-6.97,15.58-15.58,15.58s-15.58-6.97-15.58-15.58,6.97-15.58,15.58-15.58,15.58,6.97,15.58,15.58Z"/><path class="cls-8" d="M225.17,468.3c0,6.56-5.32,11.87-11.87,11.87s-11.87-5.32-11.87-11.87,5.32-11.87,11.87-11.87,11.87,5.32,11.87,11.87Z"/><path class="cls-43" d="M222.19,468.3c0,4.91-3.98,8.89-8.89,8.89s-8.89-3.98-8.89-8.89,3.98-8.89,8.89-8.89,8.89,3.98,8.89,8.89Z"/><path class="cls-14" d="M231.06,583.72c0,9.81-7.95,17.77-17.77,17.77s-17.77-7.95-17.77-17.77,7.95-17.77,17.77-17.77,17.77,7.95,17.77,17.77Z"/><path class="cls-8" d="M228.88,583.72c0,8.6-6.97,15.58-15.58,15.58s-15.58-6.97-15.58-15.58,6.97-15.58,15.58-15.58,15.58,6.97,15.58,15.58Z"/><path class="cls-8" d="M225.17,583.72c0,6.56-5.32,11.87-11.87,11.87s-11.87-5.32-11.87-11.87,5.32-11.87,11.87-11.87,11.87,5.32,11.87,11.87Z"/><path class="cls-43" d="M222.19,583.72c0,4.91-3.98,8.89-8.89,8.89s-8.89-3.98-8.89-8.89,3.98-8.89,8.89-8.89,8.89,3.98,8.89,8.89Z"/><g class="cls-5"><path class="cls-4" d="M229.35,525.28c0-.73-.12-1.43-.22-2.13-.54.31-1.13.54-1.79.54-2.01,0-3.64-1.63-3.64-3.64,0-1.79,1.32-3.22,3.03-3.52-.59-.9-1.25-1.74-2-2.5-.61,1.15-1.78,1.95-3.17,1.95-2.01,0-3.64-1.63-3.64-3.64,0-.81.31-1.52.76-2.12-.86-.31-1.73-.56-2.65-.72.57.64.95,1.47.95,2.4,0,2.01-1.63,3.64-3.64,3.64s-3.64-1.63-3.64-3.64c0-.93.38-1.76.95-2.41-1.03.17-2.02.44-2.97.8.24.49.41,1.02.41,1.6,0,2.01-1.63,3.64-3.64,3.64-1.11,0-2.07-.53-2.74-1.31-.58.61-1.13,1.25-1.61,1.95,1.48.46,2.57,1.79,2.57,3.43,0,2.01-1.63,3.64-3.64,3.64-.55,0-1.06-.14-1.53-.36-.12.79-.24,1.57-.24,2.39,0,.03,0,.05,0,.07h32.1s0-.05,0-.07ZM208.75,523.25c-2.01,0-3.64-1.63-3.64-3.64s1.63-3.64,3.64-3.64,3.64,1.63,3.64,3.64-1.63,3.64-3.64,3.64ZM216.98,523.69c-2.01,0-3.64-1.63-3.64-3.64s1.63-3.64,3.64-3.64,3.64,1.63,3.64,3.64-1.63,3.64-3.64,3.64Z"/><path class="cls-26" d="M223.71,529.47c0-2.01,1.63-3.64,3.64-3.64.71,0,1.33.25,1.89.6.03-.36.11-.7.11-1.07h-32.1c0,.45.1.88.14,1.33.49-.25,1.03-.42,1.62-.42,2.01,0,3.64,1.63,3.64,3.64,0,1.82-1.36,3.27-3.11,3.53.51.86,1.1,1.67,1.76,2.42.63-1.11,1.77-1.88,3.13-1.88,2.01,0,3.64,1.63,3.64,3.64,0,.96-.39,1.82-1,2.47,1.91.81,4.01,1.25,6.22,1.25s4.29-.44,6.19-1.24c-.93-.66-1.58-1.69-1.58-2.92,0-2.01,1.63-3.64,3.64-3.64,1.67,0,3.01,1.14,3.45,2.67.87-.94,1.61-1.99,2.24-3.11-1.96-.06-3.53-1.65-3.53-3.62ZM205.11,529.9c0-2.01,1.63-3.64,3.64-3.64s3.64,1.63,3.64,3.64-1.63,3.64-3.64,3.64-3.64-1.63-3.64-3.64ZM213.33,541.25c-2.01,0-3.64-1.63-3.64-3.64s1.63-3.64,3.64-3.64,3.64,1.63,3.64,3.64-1.63,3.64-3.64,3.64ZM216.98,533.11c-2.01,0-3.64-1.63-3.64-3.64s1.63-3.64,3.64-3.64,3.64,1.63,3.64,3.64-1.63,3.64-3.64,3.64Z"/><path class="cls-4" d="M204.43,515.54c2.01,0,3.64-1.63,3.64-3.64,0-.58-.17-1.11-.41-1.6-2.28.86-4.32,2.2-5.97,3.94.67.78,1.63,1.31,2.74,1.31Z"/><path class="cls-16" d="M204.43,515.54c2.01,0,3.64-1.63,3.64-3.64,0-.58-.17-1.11-.41-1.6-2.28.86-4.32,2.2-5.97,3.94.67.78,1.63,1.31,2.74,1.31Z"/><path class="cls-4" d="M213.33,515.54c2.01,0,3.64-1.63,3.64-3.64,0-.93-.38-1.76-.95-2.4-.89-.15-1.79-.27-2.72-.27s-1.79.12-2.66.27c-.58.64-.95,1.47-.95,2.41,0,2.01,1.63,3.64,3.64,3.64Z"/><path class="cls-16" d="M213.33,515.54c2.01,0,3.64-1.63,3.64-3.64,0-.93-.38-1.76-.95-2.4-.89-.15-1.79-.27-2.72-.27s-1.79.12-2.66.27c-.58.64-.95,1.47-.95,2.41,0,2.01,1.63,3.64,3.64,3.64Z"/><path class="cls-4" d="M221.56,515.98c1.39,0,2.56-.81,3.17-1.95-1.68-1.71-3.76-2.99-6.06-3.81-.44.6-.76,1.31-.76,2.12,0,2.01,1.63,3.64,3.64,3.64Z"/><path class="cls-16" d="M221.56,515.98c1.39,0,2.56-.81,3.17-1.95-1.68-1.71-3.76-2.99-6.06-3.81-.44.6-.76,1.31-.76,2.12,0,2.01,1.63,3.64,3.64,3.64Z"/><path class="cls-4" d="M202.65,519.61c0-1.63-1.09-2.96-2.57-3.43-1.35,1.96-2.23,4.25-2.6,6.71.47.22.98.36,1.53.36,2.01,0,3.64-1.63,3.64-3.64Z"/><path class="cls-16" d="M202.65,519.61c0-1.63-1.09-2.96-2.57-3.43-1.35,1.96-2.23,4.25-2.6,6.71.47.22.98.36,1.53.36,2.01,0,3.64-1.63,3.64-3.64Z"/><path class="cls-4" d="M208.75,515.97c-2.01,0-3.64,1.63-3.64,3.64s1.63,3.64,3.64,3.64,3.64-1.63,3.64-3.64-1.63-3.64-3.64-3.64Z"/><path class="cls-16" d="M208.75,515.97c-2.01,0-3.64,1.63-3.64,3.64s1.63,3.64,3.64,3.64,3.64-1.63,3.64-3.64-1.63-3.64-3.64-3.64Z"/><path class="cls-4" d="M216.98,516.4c-2.01,0-3.64,1.63-3.64,3.64s1.63,3.64,3.64,3.64,3.64-1.63,3.64-3.64-1.63-3.64-3.64-3.64Z"/><path class="cls-16" d="M216.98,516.4c-2.01,0-3.64,1.63-3.64,3.64s1.63,3.64,3.64,3.64,3.64-1.63,3.64-3.64-1.63-3.64-3.64-3.64Z"/><path class="cls-4" d="M223.71,520.04c0,2.01,1.63,3.64,3.64,3.64.66,0,1.25-.23,1.79-.54-.32-2.42-1.13-4.67-2.41-6.62-1.71.3-3.03,1.73-3.03,3.52Z"/><path class="cls-16" d="M223.71,520.04c0,2.01,1.63,3.64,3.64,3.64.66,0,1.25-.23,1.79-.54-.32-2.42-1.13-4.67-2.41-6.62-1.71.3-3.03,1.73-3.03,3.52Z"/><path class="cls-26" d="M204.43,533.97c-1.36,0-2.5.78-3.13,1.88,1.59,1.8,3.52,3.29,5.77,4.23.61-.65,1-1.51,1-2.47,0-2.01-1.63-3.64-3.64-3.64Z"/><path class="cls-16" d="M204.43,533.97c-1.36,0-2.5.78-3.13,1.88,1.59,1.8,3.52,3.29,5.77,4.23.61-.65,1-1.51,1-2.47,0-2.01-1.63-3.64-3.64-3.64Z"/><circle class="cls-26" cx="213.33" cy="537.61" r="3.64"/><circle class="cls-16" cx="213.33" cy="537.61" r="3.64"/><path class="cls-26" d="M221.56,533.53c-2.01,0-3.64,1.63-3.64,3.64,0,1.23.65,2.26,1.58,2.92,2.12-.89,3.97-2.24,5.51-3.89-.43-1.53-1.78-2.67-3.45-2.67Z"/><path class="cls-16" d="M221.56,533.53c-2.01,0-3.64,1.63-3.64,3.64,0,1.23.65,2.26,1.58,2.92,2.12-.89,3.97-2.24,5.51-3.89-.43-1.53-1.78-2.67-3.45-2.67Z"/><path class="cls-26" d="M202.65,529.9c0-2.01-1.63-3.64-3.64-3.64-.59,0-1.13.17-1.62.42.22,2.46.96,4.74,2.16,6.75,1.75-.27,3.11-1.71,3.11-3.53Z"/><path class="cls-16" d="M202.65,529.9c0-2.01-1.63-3.64-3.64-3.64-.59,0-1.13.17-1.62.42.22,2.46.96,4.74,2.16,6.75,1.75-.27,3.11-1.71,3.11-3.53Z"/><path class="cls-26" d="M212.4,529.9c0-2.01-1.63-3.64-3.64-3.64s-3.64,1.63-3.64,3.64,1.63,3.64,3.64,3.64,3.64-1.63,3.64-3.64Z"/><path class="cls-16" d="M212.4,529.9c0-2.01-1.63-3.64-3.64-3.64s-3.64,1.63-3.64,3.64,1.63,3.64,3.64,3.64,3.64-1.63,3.64-3.64Z"/><path class="cls-26" d="M216.98,525.82c-2.01,0-3.64,1.63-3.64,3.64s1.63,3.64,3.64,3.64,3.64-1.63,3.64-3.64-1.63-3.64-3.64-3.64Z"/><path class="cls-16" d="M216.98,525.82c-2.01,0-3.64,1.63-3.64,3.64s1.63,3.64,3.64,3.64,3.64-1.63,3.64-3.64-1.63-3.64-3.64-3.64Z"/><path class="cls-26" d="M227.35,525.82c-2.01,0-3.64,1.63-3.64,3.64s1.58,3.56,3.53,3.62c1.12-2,1.82-4.25,1.99-6.66-.56-.35-1.18-.6-1.89-.6Z"/><path class="cls-16" d="M227.35,525.82c-2.01,0-3.64,1.63-3.64,3.64s1.58,3.56,3.53,3.62c1.12-2,1.82-4.25,1.99-6.66-.56-.35-1.18-.6-1.89-.6Z"/></g><circle class="cls-38" cx="1004.42" cy="350.91" r="42.68"/><path class="cls-15" d="M1004.41,358.5c-5.84,0-8.12-20.32-8.34-33.08,0-4.55,3.69-8.24,8.24-8.24h.21c4.55,0,8.24,3.69,8.24,8.24,0,0-1.65,33.47-8.36,33.08Z"/><circle class="cls-15" cx="1004.42" cy="371.91" r="5.42"/><rect x="354.02" y="599.3" width="609.28" height="1231.7" rx="91.41" ry="91.41"/><path class="cls-9" d="M355.63,809.64v-41.83c0-1.69-.27-3.18-1.61-4.03v49.8c1.56-.7,1.61-3.08,1.61-3.95Z"/><path class="cls-22" d="M356.31,939.6v-83.66c0-1.71-.21-4.86-2.3-6.63v95.71c2.57-1.67,2.3-4.53,2.3-5.42Z"/><path class="cls-19" d="M356.31,1052.17v-83.66c0-1.71-.21-4.86-2.3-6.63v95.71c2.57-1.67,2.3-4.53,2.3-5.42Z"/><path class="cls-25" d="M905.41,616.11c4.29,1.99,8.38,4.32,12.24,6.99,12.39,4.53,22.24,11.75,30.48,22.56-5.76-9.67-13.27-18.16-22.1-25.07-6.51-4.01-12.35-5.23-20.63-4.48Z"/><path class="cls-3" d="M960.81,1215.21v-523.48c0-16.82-4.64-32.58-12.68-46.08-8.24-10.81-18.09-18.03-30.48-22.56,21.82,15.04,36.16,40.2,36.16,68.65v523.48h7Z"/><path class="cls-36" d="M412.7,616.11c-4.29,1.99-8.38,4.32-12.24,6.99-12.39,4.53-22.24,11.75-30.48,22.56,5.76-9.67,13.27-18.16,22.1-25.07,6.51-4.01,12.35-5.23,20.63-4.48Z"/><path class="cls-3" d="M357.29,1213.54v-521.8c0-16.82,4.64-32.58,12.68-46.08,8.24-10.81,18.09-18.03,30.48-22.56-21.82,15.04-36.16,40.2-36.16,68.65v521.8h-7Z"/><path class="cls-21" d="M870.49,601.41h-422.87c-20.94,0-40.22,7.18-55.55,19.18,6.51-4.01,12.35-5.23,20.63-4.48,10.63-4.93,22.46-7.7,34.92-7.7h422.87c12.47,0,24.29,2.77,34.92,7.7,8.27-.75,14.12.47,20.63,4.48-15.33-12-34.61-19.18-55.55-19.18Z"/><path d="M960.19,1021.99v-136.24c0-1.71.29-4.86,3.1-6.63v148.29c-3.46-1.67-3.1-4.53-3.1-5.42Z"/><path class="cls-32" d="M872.13,1819.27h-424.91c-44.93,0-81.35-36.42-81.35-81.35V690.79c0-44.58,36.14-80.72,80.72-80.72h424.24c44.98,0,81.45,36.47,81.45,81.45v1047.61c0,44.27-35.88,80.15-80.15,80.15ZM446.11,612.87c-42.77,0-77.44,34.67-77.44,77.44v1047.62c0,43.38,35.17,78.55,78.55,78.55h424.91c42.72,0,77.35-34.63,77.35-77.35V691.51c0-43.44-35.21-78.65-78.65-78.65h-424.72Z"/><path class="cls-21" d="M947.9,698.22c0-44.74-21.25-66.95-44.86-77.01,6.32,12.95,33.88,24.16,33.88,76.66v1033.12c0,52.5-27.56,63.71-33.88,76.66,23.61-10.06,44.86-32.27,44.86-77.01l.66-516.21-.66-516.21Z"/><path class="cls-21" d="M371.81,698.22c0-44.74,21.25-66.95,44.86-77.01-6.32,12.95-33.88,24.16-33.88,76.66v1033.12c0,52.5,27.56,63.71,33.88,76.66-23.61-10.06-44.86-32.27-44.86-77.01l-.66-516.21.66-516.21Z"/><path class="cls-20" d="M868.11,614.84h-419.88c-13.11,0-25.5,3.14-36.47,8.68l2.7,5.58c9.43-3.68,21.94-6.21,33.77-6.21h419.88c11.83,0,23.28,2.58,33.12,7.12l3.29-6.95c-10.92-5.07-23.3-8.21-36.42-8.21Z"/><path class="cls-15" d="M872.59,635.52h-57.06c-3.97,0-7.18,3.22-7.18,7.18v5.88c0,9.99-9.08,29.3-29.98,29.3h-237.53c-23.47,0-31.04-20.38-31.04-28.7v-6.48c0-3.97-3.22-7.18-7.18-7.18h-57.88c-29.48,0-53.39,23.9-53.39,53.39v1051.23c0,29.48,23.9,53.39,53.39,53.39h427.87c29.48,0,53.39-23.9,53.39-53.39V688.91c0-29.48-23.9-53.39-53.39-53.39Z"/><path class="cls-33" d="M696.73,646.58c-.14-.43-.35-.8-.61-1.15l-.27.27.88.88Z"/><polygon class="cls-33" points="635.65 649.82 634.52 650.95 635.39 651.82 635.92 651.82 636.79 650.95 635.65 649.82"/><polygon class="cls-33" points="633.65 651.82 634.15 651.82 633.9 651.57 633.65 651.82"/><rect class="cls-33" x="689.17" y="648.4" width="1.6" height="1.6" transform="translate(-256.97 677.89) rotate(-44.99)"/><rect class="cls-33" x="685.67" y="648.4" width="1.6" height="1.6" transform="translate(-257.99 675.55) rotate(-45)"/><rect class="cls-33" x="662.89" y="646.64" width="1.6" height="1.6" transform="translate(-263.42 658.94) rotate(-45)"/><path class="cls-33" d="M695.54,644.77c-.4-.34-.86-.59-1.37-.76l1.07,1.07.31-.31Z"/><polygon class="cls-33" points="642.66 649.82 641.53 650.95 642.4 651.82 642.93 651.82 643.8 650.95 642.66 649.82"/><polygon class="cls-33" points="632.15 649.82 631.02 650.95 631.88 651.82 632.41 651.82 633.28 650.95 632.15 649.82"/><polygon class="cls-33" points="637.15 651.82 637.66 651.82 637.41 651.57 637.15 651.82"/><path class="cls-33" d="M693.3,651.75c.1,0,.2-.04.3-.06l-.12-.12-.18.18Z"/><polygon class="cls-33" points="691.73 649.82 690.59 650.95 691.46 651.82 691.99 651.82 692.86 650.95 691.73 649.82"/><polygon class="cls-33" points="640.66 651.82 641.16 651.82 640.91 651.57 640.66 651.82"/><path class="cls-33" d="M696.4,649.75c.28-.49.46-1.02.51-1.61l-1.06,1.06.55.55Z"/><path class="cls-33" d="M694.1,650.95l.5.5c.5-.23.93-.56,1.3-.96l-.67-.67-1.13,1.13Z"/><polygon class="cls-33" points="639.16 649.82 638.02 650.95 638.89 651.82 639.42 651.82 640.29 650.95 639.16 649.82"/><rect class="cls-33" x="666.39" y="646.64" width="1.6" height="1.6" transform="translate(-262.4 661.41) rotate(-45)"/><polygon class="cls-33" points="681.21 645.07 682.35 643.94 682.17 643.76 680.26 643.76 680.08 643.94 681.21 645.07"/><rect class="cls-33" x="671.65" y="648.4" width="1.6" height="1.6" transform="translate(-262.1 665.64) rotate(-45)"/><rect class="cls-33" x="655.88" y="646.64" width="1.6" height="1.6" transform="translate(-265.48 653.98) rotate(-45)"/><path class="cls-33" d="M625.14,649.82l-1.13,1.13.81.81c.1,0,.18.06.29.06h.3l.87-.87-1.13-1.13Z"/><rect class="cls-33" x="675.16" y="648.4" width="1.6" height="1.6" transform="translate(-261.07 668.12) rotate(-45)"/><rect class="cls-33" x="668.15" y="648.4" width="1.6" height="1.6" transform="translate(-263.12 663.31) rotate(-45.01)"/><polygon class="cls-33" points="691.73 645.07 692.86 643.94 692.68 643.76 690.77 643.76 690.59 643.94 691.73 645.07"/><rect class="cls-33" x="622.59" y="648.4" width="1.6" height="1.6" transform="translate(-276.47 630.95) rotate(-45)"/><polygon class="cls-33" points="677.71 645.07 678.84 643.94 678.66 643.76 676.76 643.76 676.58 643.94 677.71 645.07"/><polygon class="cls-33" points="628.64 649.82 627.51 650.95 628.38 651.82 628.91 651.82 629.78 650.95 628.64 649.82"/><rect class="cls-33" x="682.16" y="648.4" width="1.6" height="1.6" transform="translate(-259.02 673.08) rotate(-45)"/><polygon class="cls-33" points="688.22 645.07 689.36 643.94 689.18 643.76 687.27 643.76 687.09 643.94 688.22 645.07"/><rect class="cls-33" x="659.38" y="646.64" width="1.6" height="1.6" transform="translate(-264.45 656.45) rotate(-45)"/><polygon class="cls-33" points="630.15 651.82 630.65 651.82 630.4 651.57 630.15 651.82"/><rect class="cls-33" x="678.66" y="648.4" width="1.6" height="1.6" transform="translate(-260.04 670.61) rotate(-45)"/><polygon class="cls-33" points="684.72 645.07 685.85 643.94 685.67 643.76 683.76 643.76 683.58 643.94 684.72 645.07"/><polygon class="cls-33" points="626.64 651.82 627.14 651.82 626.89 651.57 626.64 651.82"/><polygon class="cls-33" points="686.22 651.82 686.72 651.82 686.47 651.57 686.22 651.82"/><polygon class="cls-33" points="670.7 649.82 669.57 650.95 670.44 651.82 670.97 651.82 671.83 650.95 670.7 649.82"/><rect class="cls-33" x="680.41" y="646.64" width="1.6" height="1.6" transform="translate(-258.29 671.31) rotate(-45)"/><polygon class="cls-33" points="654.68 651.82 655.18 651.82 654.93 651.57 654.68 651.82"/><polygon class="cls-33" points="668.7 651.82 669.2 651.82 668.95 651.57 668.7 651.82"/><rect class="cls-33" x="673.4" y="646.64" width="1.6" height="1.6" transform="translate(-260.34 666.37) rotate(-45)"/><polygon class="cls-33" points="674.21 649.82 673.07 650.95 673.94 651.82 674.47 651.82 675.34 650.95 674.21 649.82"/><polygon class="cls-33" points="672.2 651.82 672.7 651.82 672.45 651.57 672.2 651.82"/><polygon class="cls-33" points="689.73 651.82 690.23 651.82 689.98 651.57 689.73 651.82"/><polygon class="cls-33" points="660.19 649.82 659.05 650.95 659.92 651.82 660.45 651.82 661.32 650.95 660.19 649.82"/><rect class="cls-33" x="683.92" y="646.64" width="1.6" height="1.6" transform="translate(-257.26 673.8) rotate(-45)"/><polygon class="cls-33" points="661.69 651.82 662.19 651.82 661.94 651.57 661.69 651.82"/><polygon class="cls-33" points="663.69 649.82 662.56 650.95 663.43 651.82 663.95 651.82 664.82 650.95 663.69 649.82"/><rect class="cls-33" x="676.91" y="646.64" width="1.6" height="1.6" transform="translate(-259.31 668.98) rotate(-45.01)"/><polygon class="cls-33" points="656.68 649.82 655.55 650.95 656.42 651.82 656.95 651.82 657.82 650.95 656.68 649.82"/><polygon class="cls-33" points="667.2 649.82 666.06 650.95 666.93 651.82 667.46 651.82 668.33 650.95 667.2 649.82"/><polygon class="cls-33" points="665.19 651.82 665.69 651.82 665.44 651.57 665.19 651.82"/><polygon class="cls-33" points="653.18 649.82 652.04 650.95 652.91 651.82 653.44 651.82 654.31 650.95 653.18 649.82"/><polygon class="cls-33" points="646.17 649.82 645.03 650.95 645.9 651.82 646.43 651.82 647.3 650.95 646.17 649.82"/><polygon class="cls-33" points="684.72 649.82 683.58 650.95 684.45 651.82 684.98 651.82 685.85 650.95 684.72 649.82"/><polygon class="cls-33" points="674.21 645.07 675.34 643.94 675.16 643.76 673.25 643.76 673.07 643.94 674.21 645.07"/><rect class="cls-33" x="669.9" y="646.64" width="1.6" height="1.6" transform="translate(-261.37 663.89) rotate(-45)"/><polygon class="cls-33" points="675.71 651.82 676.21 651.82 675.96 651.57 675.71 651.82"/><rect class="cls-33" x="690.93" y="646.64" width="1.6" height="1.6" transform="translate(-255.2 679.05) rotate(-45.02)"/><polygon class="cls-33" points="688.22 649.82 687.09 650.95 687.96 651.82 688.49 651.82 689.36 650.95 688.22 649.82"/><polygon class="cls-33" points="682.72 651.82 683.22 651.82 682.97 651.57 682.72 651.82"/><polygon class="cls-33" points="644.16 651.82 644.67 651.82 644.42 651.57 644.16 651.82"/><polygon class="cls-33" points="677.71 649.82 676.58 650.95 677.44 651.82 677.97 651.82 678.84 650.95 677.71 649.82"/><polygon class="cls-33" points="649.67 649.82 648.54 650.95 649.41 651.82 649.94 651.82 650.81 650.95 649.67 649.82"/><polygon class="cls-33" points="651.17 651.82 651.68 651.82 651.43 651.57 651.17 651.82"/><polygon class="cls-33" points="647.67 651.82 648.17 651.82 647.92 651.57 647.67 651.82"/><polygon class="cls-33" points="681.21 649.82 680.08 650.95 680.95 651.82 681.48 651.82 682.35 650.95 681.21 649.82"/><rect class="cls-33" x="687.42" y="646.64" width="1.6" height="1.6" transform="translate(-256.24 676.28) rotate(-45)"/><polygon class="cls-33" points="679.21 651.82 679.71 651.82 679.46 651.57 679.21 651.82"/><polygon class="cls-33" points="658.18 651.82 658.69 651.82 658.43 651.57 658.18 651.82"/><rect class="cls-33" x="624.34" y="646.64" width="1.6" height="1.6" transform="translate(-274.72 631.81) rotate(-45.01)"/><rect class="cls-33" x="629.59" y="648.4" width="1.6" height="1.6" transform="translate(-274.41 635.89) rotate(-45)"/><rect class="cls-33" x="664.64" y="644.89" width="1.6" height="1.6" transform="translate(-261.67 659.81) rotate(-45.01)"/><polygon class="cls-33" points="639.16 645.07 640.29 643.94 640.11 643.76 638.2 643.76 638.02 643.94 639.16 645.07"/><rect class="cls-33" x="661.14" y="644.89" width="1.6" height="1.6" transform="translate(-262.69 657.33) rotate(-45.01)"/><polygon class="cls-33" points="632.15 645.07 633.28 643.94 633.1 643.76 631.19 643.76 631.02 643.94 632.15 645.07"/><rect class="cls-33" x="657.63" y="644.89" width="1.6" height="1.6" transform="translate(-263.72 654.7) rotate(-45)"/><rect class="cls-33" x="626.09" y="648.4" width="1.6" height="1.6" transform="translate(-275.44 633.43) rotate(-45)"/><polygon class="cls-33" points="635.65 645.07 636.79 643.94 636.61 643.76 634.7 643.76 634.52 643.94 635.65 645.07"/><rect class="cls-33" x="627.84" y="646.64" width="1.6" height="1.6" transform="translate(-273.69 634.15) rotate(-45)"/><polygon class="cls-33" points="646.17 645.07 647.3 643.94 647.12 643.76 645.21 643.76 645.03 643.94 646.17 645.07"/><rect class="cls-33" x="650.62" y="644.89" width="1.6" height="1.6" transform="translate(-265.78 649.75) rotate(-45)"/><rect class="cls-33" x="636.6" y="648.4" width="1.6" height="1.6" transform="translate(-272.36 640.86) rotate(-45)"/><polygon class="cls-33" points="642.66 645.07 643.8 643.94 643.62 643.76 641.71 643.76 641.53 643.94 642.66 645.07"/><rect class="cls-33" x="654.13" y="644.89" width="1.6" height="1.6" transform="translate(-264.75 652.37) rotate(-45.01)"/><rect class="cls-33" x="633.1" y="648.4" width="1.6" height="1.6" transform="translate(-273.38 638.24) rotate(-44.99)"/><rect class="cls-33" x="682.16" y="644.89" width="1.6" height="1.6" transform="translate(-256.54 672.05) rotate(-45)"/><rect class="cls-33" x="694.43" y="646.64" width="1.6" height="1.6" transform="translate(-254.18 681.24) rotate(-45)"/><path class="cls-33" d="M622.77,647.44l-1.13-1.13-.33.33c-.11.37-.23.74-.23,1.15,0,.1.05.19.06.29l.5.5,1.13-1.13Z"/><rect class="cls-33" x="689.17" y="644.89" width="1.6" height="1.6" transform="translate(-254.48 677.01) rotate(-45)"/><rect class="cls-33" x="692.68" y="644.89" width="1.6" height="1.6" transform="translate(-253.45 679.63) rotate(-45.01)"/><rect class="cls-33" x="692.68" y="648.4" width="1.6" height="1.6" transform="translate(-255.93 680.63) rotate(-45.01)"/><path class="cls-33" d="M621.85,650.03c.25.37.55.68.9.94l.02-.02-.92-.92Z"/><rect class="cls-33" x="668.15" y="644.89" width="1.6" height="1.6" transform="translate(-260.64 662.28) rotate(-45.01)"/><rect class="cls-33" x="685.67" y="644.89" width="1.6" height="1.6" transform="translate(-255.51 674.53) rotate(-45)"/><polygon class="cls-33" points="628.64 645.07 629.78 643.94 629.6 643.76 627.69 643.76 627.51 643.94 628.64 645.07"/><rect class="cls-33" x="675.16" y="644.89" width="1.6" height="1.6" transform="translate(-258.59 667.09) rotate(-45)"/><rect class="cls-33" x="671.65" y="644.89" width="1.6" height="1.6" transform="translate(-259.61 664.76) rotate(-45.01)"/><rect class="cls-33" x="640.11" y="648.4" width="1.6" height="1.6" transform="translate(-271.33 643.34) rotate(-45)"/><rect class="cls-33" x="678.66" y="644.89" width="1.6" height="1.6" transform="translate(-257.56 669.7) rotate(-45.01)"/><path class="cls-33" d="M626.27,643.94l-.18-.18h-.99c-.38,0-.72.12-1.06.22l1.1,1.1,1.13-1.13Z"/><polygon class="cls-33" points="660.19 645.07 661.32 643.94 661.14 643.76 659.23 643.76 659.05 643.94 660.19 645.07"/><rect class="cls-33" x="633.1" y="644.89" width="1.6" height="1.6" transform="translate(-270.91 637.35) rotate(-45)"/><rect class="cls-33" x="657.63" y="648.4" width="1.6" height="1.6" transform="translate(-266.2 655.73) rotate(-45)"/><rect class="cls-33" x="648.87" y="646.64" width="1.6" height="1.6" transform="translate(-267.53 649.02) rotate(-45)"/><rect class="cls-33" x="636.6" y="644.89" width="1.6" height="1.6" transform="translate(-269.88 639.83) rotate(-45)"/><rect class="cls-33" x="654.13" y="648.4" width="1.6" height="1.6" transform="translate(-267.23 653.11) rotate(-44.99)"/><polygon class="cls-33" points="667.2 645.07 668.33 643.94 668.15 643.76 666.24 643.76 666.06 643.94 667.2 645.07"/><polygon class="cls-33" points="663.69 645.07 664.82 643.94 664.64 643.76 662.74 643.76 662.56 643.94 663.69 645.07"/><rect class="cls-33" x="645.37" y="646.64" width="1.6" height="1.6" transform="translate(-268.55 646.54) rotate(-45)"/><rect class="cls-33" x="629.59" y="644.89" width="1.6" height="1.6" transform="translate(-271.93 634.88) rotate(-45)"/><rect class="cls-33" x="626.09" y="644.89" width="1.6" height="1.6" transform="translate(-272.96 632.4) rotate(-45)"/><rect class="cls-33" x="622.59" y="644.89" width="1.6" height="1.6" transform="translate(-273.99 630.06) rotate(-45.01)"/><rect class="cls-33" x="664.64" y="648.4" width="1.6" height="1.6" transform="translate(-264.15 660.68) rotate(-45)"/><rect class="cls-33" x="661.14" y="648.4" width="1.6" height="1.6" transform="translate(-265.17 658.21) rotate(-45)"/><polygon class="cls-33" points="670.7 645.07 671.83 643.94 671.65 643.76 669.75 643.76 669.57 643.94 670.7 645.07"/><rect class="cls-33" x="652.37" y="646.64" width="1.6" height="1.6" transform="translate(-266.5 651.5) rotate(-45)"/><rect class="cls-33" x="647.12" y="644.89" width="1.6" height="1.6" transform="translate(-266.8 647.41) rotate(-45.01)"/><rect class="cls-33" x="638.36" y="646.64" width="1.6" height="1.6" transform="translate(-270.61 641.59) rotate(-45)"/><polygon class="cls-33" points="656.68 645.07 657.82 643.94 657.64 643.76 655.73 643.76 655.55 643.94 656.68 645.07"/><polygon class="cls-33" points="653.18 645.07 654.31 643.94 654.13 643.76 652.22 643.76 652.04 643.94 653.18 645.07"/><rect class="cls-33" x="643.61" y="644.89" width="1.6" height="1.6" transform="translate(-267.83 644.93) rotate(-45.01)"/><rect class="cls-33" x="634.85" y="646.64" width="1.6" height="1.6" transform="translate(-271.63 639.1) rotate(-45)"/><rect class="cls-33" x="640.11" y="644.89" width="1.6" height="1.6" transform="translate(-268.86 642.45) rotate(-45.01)"/><rect class="cls-33" x="647.12" y="648.4" width="1.6" height="1.6" transform="translate(-269.28 648.29) rotate(-45)"/><rect class="cls-33" x="641.86" y="646.64" width="1.6" height="1.6" transform="translate(-269.58 643.92) rotate(-44.99)"/><rect class="cls-33" x="631.35" y="646.64" width="1.6" height="1.6" transform="translate(-272.66 636.64) rotate(-45)"/><polygon class="cls-33" points="649.67 645.07 650.81 643.94 650.63 643.76 648.72 643.76 648.54 643.94 649.67 645.07"/><rect class="cls-33" x="650.62" y="648.4" width="1.6" height="1.6" transform="translate(-268.25 650.77) rotate(-45)"/><rect class="cls-33" x="643.61" y="648.4" width="1.6" height="1.6" transform="translate(-270.31 645.81) rotate(-45)"/><path class="cls-17" d="M623.39,650.33l-1.13-1.13-.58.58c.05.09.11.17.17.25l.92.92.62-.62Z"/><path class="cls-17" d="M621.13,648.08c.02.29.09.56.17.84l.33-.33-.5-.5Z"/><path class="cls-17" d="M623.49,651.47c.41.18.86.26,1.33.29l-.81-.81-.52.52Z"/><polygon class="cls-17" points="626.89 651.57 627.14 651.82 628.38 651.82 627.51 650.95 626.89 651.57"/><rect class="cls-17" x="625.58" y="649.27" width=".87" height="1.6" transform="translate(-276.32 633.06) rotate(-45)"/><rect class="cls-17" x="622.07" y="645.77" width=".87" height="1.6" transform="translate(-274.86 629.3) rotate(-44.98)"/><rect class="cls-17" x="623.83" y="647.52" width=".87" height="1.6" transform="translate(-275.59 631.56) rotate(-45.02)"/><rect class="cls-17" x="625.58" y="645.77" width=".87" height="1.6" transform="translate(-273.84 631.9) rotate(-44.99)"/><rect class="cls-17" x="629.08" y="649.27" width=".87" height="1.6" transform="translate(-275.29 635.78) rotate(-45.02)"/><polygon class="cls-17" points="630.4 651.57 630.65 651.82 631.88 651.82 631.02 650.95 630.4 651.57"/><rect class="cls-17" x="627.33" y="647.52" width=".87" height="1.6" transform="translate(-274.57 633.93) rotate(-45.01)"/><path class="cls-17" d="M624.52,645.69l.62-.62-1.1-1.1s-.06,0-.09.02l-.56.56,1.13,1.13Z"/><polygon class="cls-17" points="633.9 651.57 634.15 651.82 635.39 651.82 634.52 650.95 633.9 651.57"/><rect class="cls-17" x="629.08" y="645.77" width=".87" height="1.6" transform="translate(-272.81 634.5) rotate(-45)"/><rect class="cls-17" x="632.59" y="649.27" width=".87" height="1.6" transform="translate(-274.26 638.02) rotate(-45)"/><rect class="cls-17" x="630.84" y="647.52" width=".87" height="1.6" transform="translate(-273.54 636.27) rotate(-45)"/><rect class="cls-17" x="627.33" y="644.01" width=".87" height="1.6" transform="translate(-272.08 632.76) rotate(-45)"/><polygon class="cls-17" points="626.45 643.76 626.09 643.76 626.27 643.94 626.45 643.76"/><polygon class="cls-17" points="637.41 651.57 637.66 651.82 638.89 651.82 638.02 650.95 637.41 651.57"/><rect class="cls-17" x="630.84" y="644.02" width=".87" height="1.6" transform="translate(-271.06 635.24) rotate(-45)"/><rect class="cls-17" x="636.09" y="649.27" width=".87" height="1.6" transform="translate(-273.24 640.5) rotate(-45)"/><rect class="cls-17" x="632.59" y="645.77" width=".87" height="1.6" transform="translate(-271.78 636.85) rotate(-44.99)"/><rect class="cls-17" x="634.34" y="647.52" width=".87" height="1.6" transform="translate(-272.51 638.88) rotate(-45.01)"/><polygon class="cls-17" points="629.96 643.76 629.6 643.76 629.78 643.94 629.96 643.76"/><rect class="cls-17" x="634.34" y="644.01" width=".87" height="1.6" transform="translate(-270.03 637.58) rotate(-44.99)"/><rect class="cls-17" x="639.6" y="649.27" width=".87" height="1.6" transform="translate(-272.21 642.67) rotate(-44.98)"/><rect class="cls-17" x="637.85" y="647.52" width=".87" height="1.6" transform="translate(-271.48 641.22) rotate(-45)"/><polygon class="cls-17" points="640.91 651.57 641.16 651.82 642.4 651.82 641.53 650.95 640.91 651.57"/><polygon class="cls-17" points="633.46 643.76 633.1 643.76 633.28 643.94 633.46 643.76"/><rect class="cls-17" x="636.09" y="645.77" width=".87" height="1.6" transform="translate(-270.76 639.33) rotate(-44.99)"/><rect class="cls-17" x="637.84" y="644.01" width=".87" height="1.6" transform="translate(-269.01 640.22) rotate(-45)"/><rect class="cls-17" x="643.1" y="649.27" width=".87" height="1.6" transform="translate(-271.18 645.43) rotate(-45)"/><polygon class="cls-17" points="636.97 643.76 636.61 643.76 636.79 643.94 636.97 643.76"/><rect class="cls-17" x="641.35" y="647.52" width=".87" height="1.6" transform="translate(-270.46 643.7) rotate(-45)"/><rect class="cls-17" x="639.6" y="645.77" width=".87" height="1.6" transform="translate(-269.73 641.95) rotate(-45)"/><polygon class="cls-17" points="644.42 651.57 644.67 651.82 645.9 651.82 645.03 650.95 644.42 651.57"/><rect class="cls-17" x="644.85" y="647.52" width=".87" height="1.6" transform="translate(-269.43 646.18) rotate(-45)"/><rect class="cls-17" x="641.35" y="644.02" width=".87" height="1.6" transform="translate(-267.98 642.53) rotate(-44.99)"/><rect class="cls-17" x="646.61" y="649.27" width=".87" height="1.6" transform="translate(-270.16 648.19) rotate(-45.02)"/><polygon class="cls-17" points="647.92 651.57 648.17 651.82 649.41 651.82 648.54 650.95 647.92 651.57"/><polygon class="cls-17" points="640.47 643.76 640.11 643.76 640.29 643.94 640.47 643.76"/><rect class="cls-17" x="643.1" y="645.77" width=".87" height="1.6" transform="translate(-268.7 644.28) rotate(-44.99)"/><rect class="cls-17" x="650.11" y="649.27" width=".87" height="1.6" transform="translate(-269.13 650.1) rotate(-44.98)"/><rect class="cls-17" x="648.36" y="647.52" width=".87" height="1.6" transform="translate(-268.4 648.52) rotate(-44.99)"/><polygon class="cls-17" points="651.43 651.57 651.68 651.82 652.91 651.82 652.04 650.95 651.43 651.57"/><polygon class="cls-17" points="643.98 643.76 643.62 643.76 643.8 643.94 643.98 643.76"/><rect class="cls-17" x="644.85" y="644.01" width=".87" height="1.6" transform="translate(-266.95 645.14) rotate(-45)"/><rect class="cls-17" x="646.61" y="645.77" width=".87" height="1.6" transform="translate(-267.68 646.9) rotate(-45)"/><rect class="cls-17" x="650.11" y="645.77" width=".87" height="1.6" transform="translate(-266.65 649.24) rotate(-44.99)"/><rect class="cls-17" x="651.86" y="647.52" width=".87" height="1.6" transform="translate(-267.38 651.28) rotate(-45.01)"/><polygon class="cls-17" points="647.48 643.76 647.12 643.76 647.3 643.94 647.48 643.76"/><rect class="cls-17" x="648.36" y="644.01" width=".87" height="1.6" transform="translate(-265.93 647.66) rotate(-45)"/><polygon class="cls-17" points="654.93 651.57 655.18 651.82 656.42 651.82 655.55 650.95 654.93 651.57"/><rect class="cls-17" x="653.62" y="649.27" width=".87" height="1.6" transform="translate(-268.1 652.89) rotate(-45)"/><polygon class="cls-17" points="650.99 643.76 650.63 643.76 650.81 643.94 650.99 643.76"/><rect class="cls-17" x="653.62" y="645.77" width=".87" height="1.6" transform="translate(-265.63 651.72) rotate(-44.99)"/><rect class="cls-17" x="655.37" y="647.52" width=".87" height="1.6" transform="translate(-266.35 653.61) rotate(-45)"/><polygon class="cls-17" points="658.43 651.57 658.69 651.82 659.92 651.82 659.05 650.95 658.43 651.57"/><rect class="cls-17" x="651.86" y="644.02" width=".87" height="1.6" transform="translate(-264.9 650.11) rotate(-45)"/><rect class="cls-17" x="657.12" y="649.27" width=".87" height="1.6" transform="translate(-267.08 655.63) rotate(-45.02)"/><polygon class="cls-17" points="661.94 651.57 662.19 651.82 663.43 651.82 662.56 650.95 661.94 651.57"/><rect class="cls-17" x="658.87" y="647.52" width=".87" height="1.6" transform="translate(-265.32 656.09) rotate(-45)"/><polygon class="cls-17" points="654.49 643.76 654.13 643.76 654.31 643.94 654.49 643.76"/><rect class="cls-17" x="657.12" y="645.77" width=".87" height="1.6" transform="translate(-264.6 654.34) rotate(-45)"/><rect class="cls-17" x="655.37" y="644.01" width=".87" height="1.6" transform="translate(-263.87 652.59) rotate(-45)"/><rect class="cls-17" x="660.62" y="649.27" width=".87" height="1.6" transform="translate(-266.05 658.11) rotate(-45.02)"/><polygon class="cls-17" points="665.44 651.57 665.69 651.82 666.93 651.82 666.06 650.95 665.44 651.57"/><polygon class="cls-17" points="658 643.76 657.64 643.76 657.82 643.94 658 643.76"/><rect class="cls-17" x="660.62" y="645.77" width=".87" height="1.6" transform="translate(-263.57 656.83) rotate(-45)"/><rect class="cls-17" x="662.38" y="647.52" width=".87" height="1.6" transform="translate(-264.3 658.56) rotate(-45)"/><rect class="cls-17" x="664.13" y="649.27" width=".87" height="1.6" transform="translate(-265.02 660.6) rotate(-45.02)"/><rect class="cls-17" x="658.87" y="644.02" width=".87" height="1.6" transform="translate(-262.85 655.07) rotate(-45)"/><polygon class="cls-17" points="668.95 651.57 669.2 651.82 670.44 651.82 669.57 650.95 668.95 651.57"/><polygon class="cls-17" points="661.5 643.76 661.14 643.76 661.32 643.94 661.5 643.76"/><rect class="cls-17" x="662.38" y="644.01" width=".87" height="1.6" transform="translate(-261.82 657.55) rotate(-45)"/><rect class="cls-17" x="665.88" y="647.52" width=".87" height="1.6" transform="translate(-263.27 660.89) rotate(-44.99)"/><rect class="cls-17" x="667.63" y="649.27" width=".87" height="1.6" transform="translate(-264 662.75) rotate(-45)"/><rect class="cls-17" x="664.13" y="645.77" width=".87" height="1.6" transform="translate(-262.55 659.31) rotate(-45)"/><rect class="cls-17" x="665.88" y="644.01" width=".87" height="1.6" transform="translate(-260.79 660.05) rotate(-45)"/><rect class="cls-17" x="671.14" y="649.27" width=".87" height="1.6" transform="translate(-262.97 665.28) rotate(-45)"/><polygon class="cls-17" points="672.45 651.57 672.7 651.82 673.94 651.82 673.07 650.95 672.45 651.57"/><polygon class="cls-17" points="665 643.76 664.64 643.76 664.82 643.94 665 643.76"/><rect class="cls-17" x="669.39" y="647.52" width=".87" height="1.6" transform="translate(-262.25 663.53) rotate(-45)"/><rect class="cls-17" x="667.63" y="645.77" width=".87" height="1.6" transform="translate(-261.52 661.77) rotate(-45)"/><rect class="cls-17" x="669.39" y="644.02" width=".87" height="1.6" transform="translate(-259.77 662.5) rotate(-45)"/><polygon class="cls-17" points="668.51 643.76 668.15 643.76 668.33 643.94 668.51 643.76"/><rect class="cls-17" x="674.64" y="649.27" width=".87" height="1.6" transform="translate(-261.94 668.02) rotate(-45.02)"/><rect class="cls-17" x="671.14" y="645.77" width=".87" height="1.6" transform="translate(-260.5 664.11) rotate(-44.99)"/><rect class="cls-17" x="672.89" y="647.52" width=".87" height="1.6" transform="translate(-261.22 666) rotate(-45)"/><polygon class="cls-17" points="675.96 651.57 676.21 651.82 677.44 651.82 676.58 650.95 675.96 651.57"/><rect class="cls-17" x="678.15" y="649.27" width=".87" height="1.6" transform="translate(-260.92 670.18) rotate(-45)"/><rect class="cls-17" x="674.64" y="645.77" width=".87" height="1.6" transform="translate(-259.47 666.59) rotate(-44.99)"/><polygon class="cls-17" points="679.46 651.57 679.71 651.82 680.95 651.82 680.08 650.95 679.46 651.57"/><rect class="cls-17" x="672.89" y="644.01" width=".87" height="1.6" transform="translate(-258.74 665.12) rotate(-45.01)"/><rect class="cls-17" x="676.4" y="647.52" width=".87" height="1.6" transform="translate(-260.19 668.48) rotate(-45)"/><polygon class="cls-17" points="672.01 643.76 671.65 643.76 671.83 643.94 672.01 643.76"/><rect class="cls-17" x="676.4" y="644.01" width=".87" height="1.6" transform="translate(-257.71 667.63) rotate(-45.01)"/><polygon class="cls-17" points="682.97 651.57 683.22 651.82 684.45 651.82 683.58 650.95 682.97 651.57"/><polygon class="cls-17" points="675.52 643.76 675.16 643.76 675.34 643.94 675.52 643.76"/><rect class="cls-17" x="678.15" y="645.77" width=".87" height="1.6" transform="translate(-258.44 669.21) rotate(-45)"/><rect class="cls-17" x="681.65" y="649.27" width=".87" height="1.6" transform="translate(-259.89 672.98) rotate(-45.02)"/><rect class="cls-17" x="679.9" y="647.52" width=".87" height="1.6" transform="translate(-259.17 670.97) rotate(-45)"/><rect class="cls-17" x="681.65" y="645.77" width=".87" height="1.6" transform="translate(-257.42 671.54) rotate(-44.99)"/><rect class="cls-17" x="685.16" y="649.27" width=".87" height="1.6" transform="translate(-258.86 675.46) rotate(-45.02)"/><rect class="cls-17" x="679.9" y="644.02" width=".87" height="1.6" transform="translate(-256.69 669.93) rotate(-45)"/><polygon class="cls-17" points="686.47 651.57 686.72 651.82 687.96 651.82 687.09 650.95 686.47 651.57"/><polygon class="cls-17" points="679.02 643.76 678.66 643.76 678.84 643.94 679.02 643.76"/><rect class="cls-17" x="683.41" y="647.52" width=".87" height="1.6" transform="translate(-258.14 673.58) rotate(-45.01)"/><rect class="cls-17" x="683.41" y="644.01" width=".87" height="1.6" transform="translate(-255.66 672.56) rotate(-45.01)"/><rect class="cls-17" x="688.66" y="649.27" width=".87" height="1.6" transform="translate(-257.85 677.13) rotate(-44.97)"/><rect class="cls-17" x="686.91" y="647.52" width=".87" height="1.6" transform="translate(-257.11 675.92) rotate(-45)"/><polygon class="cls-17" points="682.53 643.76 682.17 643.76 682.35 643.94 682.53 643.76"/><polygon class="cls-17" points="689.98 651.57 690.23 651.82 691.46 651.82 690.59 650.95 689.98 651.57"/><rect class="cls-17" x="685.16" y="645.77" width=".87" height="1.6" transform="translate(-256.39 674.16) rotate(-45)"/><polygon class="cls-17" points="686.03 643.76 685.67 643.76 685.85 643.94 686.03 643.76"/><rect class="cls-17" x="686.91" y="644.01" width=".88" height="1.6" transform="translate(-254.63 675.04) rotate(-45.01)"/><rect class="cls-17" x="688.66" y="645.77" width=".88" height="1.6" transform="translate(-255.36 676.64) rotate(-45)"/><rect class="cls-17" x="692.17" y="649.27" width=".88" height="1.6" transform="translate(-256.81 680.15) rotate(-45)"/><path class="cls-17" d="M693.48,651.57l.12.12c.34-.06.69-.1,1-.24l-.5-.5-.62.62Z"/><rect class="cls-17" x="690.41" y="647.52" width=".88" height="1.6" transform="translate(-256.09 678.4) rotate(-45)"/><polygon class="cls-17" points="689.54 643.76 689.18 643.76 689.36 643.94 689.54 643.76"/><path class="cls-17" d="M695.23,649.82l.67.67c.2-.22.35-.48.5-.74l-.55-.55-.62.62Z"/><rect class="cls-17" x="690.41" y="644.01" width=".88" height="1.6" transform="translate(-253.61 677.21) rotate(-44.99)"/><rect class="cls-17" x="692.17" y="645.77" width=".88" height="1.6" transform="translate(-254.33 679.27) rotate(-45.01)"/><rect class="cls-17" x="693.92" y="647.52" width=".88" height="1.6" transform="translate(-255.07 680.73) rotate(-44.99)"/><path class="cls-17" d="M695.23,646.31l1.13,1.13.45-.45c-.03-.14-.04-.28-.08-.41l-.88-.88-.62.62Z"/><path class="cls-17" d="M694.61,645.69l.62-.62-1.07-1.07s-.07-.01-.11-.02l-.58.58,1.13,1.13Z"/><path class="cls-17" d="M693.03,643.78s-.05-.02-.07-.02h-.27l.18.18.16-.17Z"/><path class="cls-29" d="M623.39,644.56l-.23-.23c-.48.27-.88.63-1.21,1.06l.3.3,1.13-1.13Z"/><path class="cls-29" d="M621.46,646.13c-.07.16-.09.34-.15.51l.33-.33-.18-.18Z"/><path class="cls-29" d="M622.25,645.69l-.3-.3c-.18.24-.37.46-.5.74l.18.18.62-.62Z"/><path class="cls-29" d="M623.95,643.99c-.28.09-.54.2-.79.34l.23.23.56-.56Z"/><polygon class="cls-29" points="627.69 643.76 627.33 643.76 627.51 643.94 627.69 643.76"/><rect class="cls-29" x="623.46" y="646.13" width="1.6" height=".87" transform="translate(-274.35 630.8) rotate(-45)"/><rect class="cls-29" x="625.21" y="644.38" width="1.6" height=".87" transform="translate(-272.6 631.52) rotate(-45)"/><rect class="cls-29" x="621.71" y="647.88" width="1.6" height=".87" transform="translate(-276.1 630.07) rotate(-45)"/><path class="cls-29" d="M621.64,648.58l-.33.33c.09.31.21.59.37.86l.58-.58-.62-.62Z"/><rect class="cls-29" x="622.95" y="647.01" width=".87" height=".87" transform="translate(-275.23 630.43) rotate(-45)"/><rect class="cls-29" x="624.7" y="645.26" width=".87" height=".87" transform="translate(-273.48 631.41) rotate(-45.02)"/><polygon class="cls-29" points="626.89 644.56 627.51 643.94 627.33 643.76 626.45 643.76 626.27 643.94 626.89 644.56"/><rect class="cls-29" x="626.97" y="646.13" width="1.6" height=".87" transform="translate(-273.32 633.02) rotate(-44.98)"/><rect class="cls-29" x="625.21" y="647.88" width="1.6" height=".87" transform="translate(-275.07 632.41) rotate(-44.99)"/><polygon class="cls-29" points="631.19 643.76 630.83 643.76 631.02 643.94 631.19 643.76"/><rect class="cls-29" x="628.72" y="644.38" width="1.6" height=".87" transform="translate(-271.57 633.75) rotate(-44.98)"/><rect class="cls-29" x="623.46" y="649.64" width="1.6" height=".87" transform="translate(-276.82 631.57) rotate(-44.98)"/><path class="cls-29" d="M622.77,650.95l-.02.02s.08.05.12.08l-.1-.1Z"/><path class="cls-29" d="M623.39,650.33l-.62.62.1.1c.21.14.39.32.62.42l.52-.52-.62-.62Z"/><rect class="cls-29" x="624.7" y="648.76" width=".87" height=".87" transform="translate(-275.96 632.44) rotate(-45.02)"/><rect class="cls-29" x="626.45" y="647.01" width=".87" height=".87" transform="translate(-274.2 632.91) rotate(-45)"/><rect class="cls-29" x="628.21" y="645.26" width=".87" height=".87" transform="translate(-272.45 633.62) rotate(-45)"/><polygon class="cls-29" points="630.4 644.56 631.02 643.94 630.83 643.76 629.96 643.76 629.78 643.94 630.4 644.56"/><rect class="cls-29" x="630.47" y="646.13" width="1.6" height=".87" transform="translate(-272.3 636.03) rotate(-45.02)"/><rect class="cls-29" x="632.22" y="644.38" width="1.6" height=".87" transform="translate(-270.55 636.48) rotate(-45)"/><rect class="cls-29" x="626.97" y="649.64" width="1.6" height=".87" transform="translate(-275.8 634.3) rotate(-45)"/><polygon class="cls-29" points="626.27 650.95 625.4 651.82 626.64 651.82 626.89 651.57 626.27 650.95"/><polygon class="cls-29" points="634.7 643.76 634.34 643.76 634.52 643.94 634.7 643.76"/><rect class="cls-29" x="628.72" y="647.88" width="1.6" height=".87" transform="translate(-274.05 635.03) rotate(-45)"/><rect class="cls-29" x="626.45" y="650.51" width=".87" height=".87" transform="translate(-276.68 633.94) rotate(-45)"/><rect class="cls-29" x="628.21" y="648.76" width=".87" height=".87" transform="translate(-274.93 634.92) rotate(-45.02)"/><rect class="cls-29" x="629.96" y="647.01" width=".87" height=".87" transform="translate(-273.17 635.39) rotate(-45)"/><rect class="cls-29" x="631.71" y="645.26" width=".87" height=".87" transform="translate(-271.42 636.39) rotate(-45.02)"/><polygon class="cls-29" points="633.9 644.56 634.52 643.94 634.34 643.76 633.46 643.76 633.28 643.94 633.9 644.56"/><polygon class="cls-29" points="638.2 643.76 637.84 643.76 638.02 643.94 638.2 643.76"/><rect class="cls-29" x="630.47" y="649.64" width="1.6" height=".87" transform="translate(-274.78 637.04) rotate(-45.02)"/><rect class="cls-29" x="632.22" y="647.88" width="1.6" height=".87" transform="translate(-273.02 637.52) rotate(-45)"/><polygon class="cls-29" points="629.78 650.95 628.91 651.82 630.15 651.82 630.4 651.57 629.78 650.95"/><rect class="cls-29" x="635.73" y="644.38" width="1.6" height=".87" transform="translate(-269.52 638.96) rotate(-45)"/><rect class="cls-29" x="633.98" y="646.13" width="1.6" height=".87" transform="translate(-271.27 637.97) rotate(-44.98)"/><rect class="cls-29" x="629.96" y="650.51" width=".87" height=".87" transform="translate(-275.65 636.21) rotate(-44.99)"/><rect class="cls-29" x="631.71" y="648.76" width=".87" height=".87" transform="translate(-273.9 637.12) rotate(-45)"/><rect class="cls-29" x="633.46" y="647.01" width=".87" height=".87" transform="translate(-272.15 637.87) rotate(-45)"/><rect class="cls-29" x="635.22" y="645.26" width=".87" height=".87" transform="translate(-270.39 638.59) rotate(-45)"/><polygon class="cls-29" points="637.41 644.56 638.02 643.94 637.84 643.76 636.97 643.76 636.79 643.94 637.41 644.56"/><polygon class="cls-29" points="641.71 643.76 641.35 643.76 641.53 643.94 641.71 643.76"/><rect class="cls-29" x="635.73" y="647.88" width="1.6" height=".87" transform="translate(-272 639.97) rotate(-45)"/><rect class="cls-29" x="633.98" y="649.64" width="1.6" height=".87" transform="translate(-273.75 639.51) rotate(-45.02)"/><polygon class="cls-29" points="633.28 650.95 632.41 651.82 633.65 651.82 633.9 651.57 633.28 650.95"/><rect class="cls-29" x="637.48" y="646.13" width="1.6" height=".87" transform="translate(-270.24 640.71) rotate(-45)"/><rect class="cls-29" x="639.23" y="644.38" width="1.6" height=".87" transform="translate(-268.49 641.44) rotate(-45)"/><rect class="cls-29" x="633.46" y="650.51" width=".87" height=".87" transform="translate(-274.63 638.89) rotate(-45)"/><rect class="cls-29" x="635.22" y="648.76" width=".87" height=".87" transform="translate(-272.88 639.88) rotate(-45.02)"/><rect class="cls-29" x="636.97" y="647.01" width=".87" height=".87" transform="translate(-271.12 640.35) rotate(-45)"/><rect class="cls-29" x="638.72" y="645.26" width=".87" height=".87" transform="translate(-269.37 640.82) rotate(-44.98)"/><polygon class="cls-29" points="640.91 644.56 641.53 643.94 641.35 643.76 640.47 643.76 640.29 643.94 640.91 644.56"/><polygon class="cls-29" points="636.79 650.95 635.92 651.82 637.15 651.82 637.41 651.57 636.79 650.95"/><rect class="cls-29" x="637.48" y="649.64" width="1.6" height=".87" transform="translate(-272.72 641.74) rotate(-45)"/><polygon class="cls-29" points="645.21 643.76 644.85 643.76 645.03 643.94 645.21 643.76"/><rect class="cls-29" x="640.98" y="646.13" width="1.6" height=".87" transform="translate(-269.22 642.93) rotate(-44.98)"/><rect class="cls-29" x="639.23" y="647.88" width="1.6" height=".87" transform="translate(-270.97 642.46) rotate(-45)"/><rect class="cls-29" x="642.74" y="644.38" width="1.6" height=".87" transform="translate(-267.47 643.91) rotate(-45)"/><rect class="cls-29" x="636.97" y="650.51" width=".87" height=".87" transform="translate(-273.6 641.42) rotate(-45)"/><rect class="cls-29" x="638.72" y="648.76" width=".87" height=".87" transform="translate(-271.85 642.36) rotate(-45.02)"/><rect class="cls-29" x="640.47" y="647.01" width=".87" height=".87" transform="translate(-270.1 643.06) rotate(-45.02)"/><rect class="cls-29" x="642.23" y="645.26" width=".87" height=".87" transform="translate(-268.34 643.53) rotate(-45)"/><polygon class="cls-29" points="644.42 644.56 645.03 643.94 644.85 643.76 643.98 643.76 643.8 643.94 644.42 644.56"/><polygon class="cls-29" points="648.72 643.76 648.36 643.76 648.54 643.94 648.72 643.76"/><rect class="cls-29" x="644.49" y="646.13" width="1.6" height=".87" transform="translate(-268.19 645.67) rotate(-45)"/><rect class="cls-29" x="640.99" y="649.64" width="1.6" height=".87" transform="translate(-271.7 644.47) rotate(-45.02)"/><rect class="cls-29" x="646.24" y="644.38" width="1.6" height=".87" transform="translate(-266.44 646.13) rotate(-44.98)"/><polygon class="cls-29" points="640.29 650.95 639.42 651.82 640.66 651.82 640.91 651.57 640.29 650.95"/><rect class="cls-29" x="642.74" y="647.88" width="1.6" height=".87" transform="translate(-269.94 644.8) rotate(-44.99)"/><rect class="cls-29" x="640.47" y="650.51" width=".87" height=".87" transform="translate(-272.57 643.9) rotate(-45)"/><rect class="cls-29" x="642.23" y="648.76" width=".87" height=".87" transform="translate(-270.82 644.84) rotate(-45.02)"/><rect class="cls-29" x="643.98" y="647.01" width=".87" height=".87" transform="translate(-269.07 645.28) rotate(-45)"/><rect class="cls-29" x="645.73" y="645.26" width=".87" height=".87" transform="translate(-267.32 646.29) rotate(-45.02)"/><polygon class="cls-29" points="647.92 644.56 648.54 643.94 648.36 643.76 647.48 643.76 647.3 643.94 647.92 644.56"/><polygon class="cls-29" points="652.22 643.76 651.86 643.76 652.04 643.94 652.22 643.76"/><rect class="cls-29" x="646.24" y="647.88" width="1.6" height=".87" transform="translate(-268.92 647.42) rotate(-45)"/><rect class="cls-29" x="649.75" y="644.38" width="1.6" height=".87" transform="translate(-265.41 648.87) rotate(-45)"/><rect class="cls-29" x="648" y="646.13" width="1.6" height=".87" transform="translate(-267.16 648.4) rotate(-45.02)"/><rect class="cls-29" x="644.49" y="649.64" width="1.6" height=".87" transform="translate(-270.67 646.71) rotate(-45)"/><polygon class="cls-29" points="643.8 650.95 642.93 651.82 644.16 651.82 644.42 651.57 643.8 650.95"/><rect class="cls-29" x="643.98" y="650.51" width=".87" height=".87" transform="translate(-271.55 646.33) rotate(-45)"/><rect class="cls-29" x="645.73" y="648.76" width=".87" height=".87" transform="translate(-269.79 647.06) rotate(-45)"/><rect class="cls-29" x="647.48" y="647.01" width=".87" height=".87" transform="translate(-268.04 648.04) rotate(-45.02)"/><rect class="cls-29" x="649.24" y="645.26" width=".87" height=".87" transform="translate(-266.29 648.25) rotate(-44.98)"/><polygon class="cls-29" points="651.43 644.56 652.04 643.94 651.86 643.76 650.99 643.76 650.81 643.94 651.43 644.56"/><polygon class="cls-29" points="647.3 650.95 646.43 651.82 647.67 651.82 647.92 651.57 647.3 650.95"/><rect class="cls-29" x="647.99" y="649.64" width="1.6" height=".87" transform="translate(-269.64 649.43) rotate(-45.02)"/><rect class="cls-29" x="651.5" y="646.13" width="1.6" height=".87" transform="translate(-266.14 650.36) rotate(-44.98)"/><rect class="cls-29" x="653.25" y="644.38" width="1.6" height=".87" transform="translate(-264.39 651.09) rotate(-44.98)"/><rect class="cls-29" x="649.75" y="647.88" width="1.6" height=".87" transform="translate(-267.89 649.9) rotate(-45)"/><polygon class="cls-29" points="655.73 643.76 655.37 643.76 655.55 643.94 655.73 643.76"/><rect class="cls-29" x="647.48" y="650.51" width=".87" height=".87" transform="translate(-270.52 648.6) rotate(-44.99)"/><rect class="cls-29" x="649.24" y="648.76" width=".87" height=".87" transform="translate(-268.77 649.53) rotate(-45)"/><rect class="cls-29" x="650.99" y="647.01" width=".87" height=".87" transform="translate(-267.02 650.26) rotate(-45)"/><rect class="cls-29" x="652.74" y="645.26" width=".87" height=".87" transform="translate(-265.26 650.98) rotate(-45)"/><polygon class="cls-29" points="654.93 644.56 655.55 643.94 655.37 643.76 654.49 643.76 654.31 643.94 654.93 644.56"/><polygon class="cls-29" points="650.81 650.95 649.94 651.82 651.17 651.82 651.43 651.57 650.81 650.95"/><rect class="cls-29" x="651.5" y="649.64" width="1.6" height=".87" transform="translate(-268.62 651.65) rotate(-45)"/><rect class="cls-29" x="653.25" y="647.88" width="1.6" height=".87" transform="translate(-266.86 652.37) rotate(-45)"/><rect class="cls-29" x="655" y="646.13" width="1.6" height=".87" transform="translate(-265.11 652.84) rotate(-44.98)"/><rect class="cls-29" x="656.76" y="644.38" width="1.6" height=".87" transform="translate(-263.36 653.83) rotate(-45)"/><polygon class="cls-29" points="659.23 643.76 658.87 643.76 659.05 643.94 659.23 643.76"/><rect class="cls-29" x="650.99" y="650.51" width=".87" height=".87" transform="translate(-269.49 651.33) rotate(-45)"/><rect class="cls-29" x="652.74" y="648.76" width=".87" height=".87" transform="translate(-267.74 652.27) rotate(-45.02)"/><rect class="cls-29" x="654.49" y="647.01" width=".87" height=".87" transform="translate(-265.99 653) rotate(-45.02)"/><rect class="cls-29" x="656.24" y="645.26" width=".87" height=".87" transform="translate(-264.24 653.2) rotate(-44.98)"/><polygon class="cls-29" points="658.43 644.56 659.05 643.94 658.87 643.76 658 643.76 657.82 643.94 658.43 644.56"/><polygon class="cls-29" points="654.31 650.95 653.44 651.82 654.68 651.82 654.93 651.57 654.31 650.95"/><polygon class="cls-29" points="662.74 643.76 662.38 643.76 662.56 643.94 662.74 643.76"/><rect class="cls-29" x="656.76" y="647.88" width="1.6" height=".87" transform="translate(-265.84 654.85) rotate(-45)"/><rect class="cls-29" x="658.51" y="646.13" width="1.6" height=".87" transform="translate(-264.09 655.58) rotate(-45)"/><rect class="cls-29" x="655" y="649.64" width="1.6" height=".87" transform="translate(-267.59 654.39) rotate(-45.02)"/><rect class="cls-29" x="660.26" y="644.38" width="1.6" height=".87" transform="translate(-262.33 656.3) rotate(-45)"/><rect class="cls-29" x="654.49" y="650.51" width=".87" height=".87" transform="translate(-268.47 653.5) rotate(-44.98)"/><rect class="cls-29" x="656.24" y="648.76" width=".87" height=".87" transform="translate(-266.71 654.75) rotate(-45.02)"/><rect class="cls-29" x="658" y="647.01" width=".87" height=".87" transform="translate(-264.96 655.22) rotate(-45)"/><rect class="cls-29" x="659.75" y="645.26" width=".87" height=".87" transform="translate(-263.21 656.2) rotate(-45.02)"/><polygon class="cls-29" points="661.94 644.56 662.56 643.94 662.38 643.76 661.5 643.76 661.32 643.94 661.94 644.56"/><rect class="cls-29" x="658.51" y="649.64" width="1.6" height=".87" transform="translate(-266.56 656.87) rotate(-45.02)"/><rect class="cls-29" x="660.26" y="647.88" width="1.6" height=".87" transform="translate(-264.81 657.33) rotate(-45)"/><rect class="cls-29" x="662.01" y="646.13" width="1.6" height=".87" transform="translate(-263.06 658.08) rotate(-45)"/><polygon class="cls-29" points="657.82 650.95 656.95 651.82 658.18 651.82 658.43 651.57 657.82 650.95"/><polygon class="cls-29" points="666.24 643.76 665.88 643.76 666.06 643.94 666.24 643.76"/><rect class="cls-29" x="663.77" y="644.38" width="1.6" height=".87" transform="translate(-261.31 658.5) rotate(-44.98)"/><rect class="cls-29" x="658" y="650.51" width=".87" height=".87" transform="translate(-267.44 656.29) rotate(-45)"/><rect class="cls-29" x="659.75" y="648.76" width=".87" height=".87" transform="translate(-265.69 657.23) rotate(-45.02)"/><rect class="cls-29" x="661.5" y="647.01" width=".87" height=".87" transform="translate(-263.94 657.71) rotate(-45)"/><rect class="cls-29" x="663.25" y="645.26" width=".87" height=".87" transform="translate(-262.18 658.7) rotate(-45.02)"/><polygon class="cls-29" points="665.44 644.56 666.06 643.94 665.88 643.76 665 643.76 664.82 643.94 665.44 644.56"/><rect class="cls-29" x="663.77" y="647.88" width="1.6" height=".87" transform="translate(-263.79 659.82) rotate(-45)"/><polygon class="cls-29" points="661.32 650.95 660.45 651.82 661.69 651.82 661.94 651.57 661.32 650.95"/><rect class="cls-29" x="662.01" y="649.64" width="1.6" height=".87" transform="translate(-265.54 659.08) rotate(-45)"/><rect class="cls-29" x="667.27" y="644.38" width="1.6" height=".87" transform="translate(-260.28 661.26) rotate(-45)"/><rect class="cls-29" x="665.52" y="646.13" width="1.6" height=".87" transform="translate(-262.03 660.8) rotate(-45.02)"/><polygon class="cls-29" points="669.75 643.76 669.39 643.76 669.57 643.94 669.75 643.76"/><rect class="cls-29" x="661.5" y="650.51" width=".87" height=".87" transform="translate(-266.41 658.72) rotate(-45)"/><rect class="cls-29" x="663.25" y="648.76" width=".87" height=".87" transform="translate(-264.66 659.43) rotate(-45)"/><rect class="cls-29" x="665.01" y="647.01" width=".87" height=".87" transform="translate(-262.9 660.45) rotate(-45.02)"/><rect class="cls-29" x="666.76" y="645.26" width=".87" height=".87" transform="translate(-261.16 660.9) rotate(-45)"/><polygon class="cls-29" points="668.95 644.56 669.57 643.94 669.39 643.76 668.51 643.76 668.33 643.94 668.95 644.56"/><rect class="cls-29" x="669.02" y="646.13" width="1.6" height=".87" transform="translate(-261.01 663.01) rotate(-45)"/><polygon class="cls-29" points="673.25 643.76 672.89 643.76 673.07 643.94 673.25 643.76"/><polygon class="cls-29" points="664.82 650.95 663.95 651.82 665.19 651.82 665.44 651.57 664.82 650.95"/><rect class="cls-29" x="670.77" y="644.38" width="1.6" height=".87" transform="translate(-259.25 664) rotate(-45.02)"/><rect class="cls-29" x="665.52" y="649.64" width="1.6" height=".87" transform="translate(-264.51 661.82) rotate(-45.02)"/><rect class="cls-29" x="667.27" y="647.88" width="1.6" height=".87" transform="translate(-262.76 662.29) rotate(-45)"/><rect class="cls-29" x="665.01" y="650.51" width=".87" height=".87" transform="translate(-265.39 660.96) rotate(-44.99)"/><rect class="cls-29" x="666.76" y="648.76" width=".87" height=".87" transform="translate(-263.63 661.92) rotate(-45)"/><rect class="cls-29" x="668.51" y="647.01" width=".87" height=".87" transform="translate(-261.88 662.65) rotate(-45)"/><rect class="cls-29" x="670.26" y="645.26" width=".87" height=".87" transform="translate(-260.13 663.38) rotate(-45)"/><polygon class="cls-29" points="672.45 644.56 673.07 643.94 672.89 643.76 672.01 643.76 671.83 643.94 672.45 644.56"/><polygon class="cls-29" points="668.33 650.95 667.46 651.82 668.7 651.82 668.95 651.57 668.33 650.95"/><rect class="cls-29" x="672.53" y="646.13" width="1.6" height=".87" transform="translate(-259.98 665.49) rotate(-45)"/><rect class="cls-29" x="670.77" y="647.88" width="1.6" height=".87" transform="translate(-261.73 664.77) rotate(-45)"/><polygon class="cls-29" points="676.76 643.76 676.4 643.76 676.58 643.94 676.76 643.76"/><rect class="cls-29" x="674.28" y="644.38" width="1.6" height=".87" transform="translate(-258.23 666.22) rotate(-45)"/><rect class="cls-29" x="669.02" y="649.64" width="1.6" height=".87" transform="translate(-263.48 664.04) rotate(-45)"/><rect class="cls-29" x="668.51" y="650.51" width=".87" height=".87" transform="translate(-264.36 663.73) rotate(-45)"/><rect class="cls-29" x="670.26" y="648.76" width=".87" height=".87" transform="translate(-262.61 664.4) rotate(-45)"/><rect class="cls-29" x="672.02" y="647.01" width=".87" height=".87" transform="translate(-260.85 665.39) rotate(-45.02)"/><rect class="cls-29" x="673.77" y="645.26" width=".87" height=".87" transform="translate(-259.1 666.12) rotate(-45.02)"/><polygon class="cls-29" points="675.96 644.56 676.58 643.94 676.4 643.76 675.52 643.76 675.34 643.94 675.96 644.56"/><rect class="cls-29" x="672.53" y="649.64" width="1.6" height=".87" transform="translate(-262.46 666.25) rotate(-44.98)"/><polygon class="cls-29" points="680.26 643.76 679.9 643.76 680.08 643.94 680.26 643.76"/><rect class="cls-29" x="676.03" y="646.13" width="1.6" height=".87" transform="translate(-258.95 668.23) rotate(-45.02)"/><polygon class="cls-29" points="671.83 650.95 670.97 651.82 672.2 651.82 672.45 651.57 671.83 650.95"/><rect class="cls-29" x="677.78" y="644.38" width="1.6" height=".87" transform="translate(-257.21 668.45) rotate(-44.99)"/><rect class="cls-29" x="674.28" y="647.88" width="1.6" height=".87" transform="translate(-260.71 667.24) rotate(-45)"/><rect class="cls-29" x="672.02" y="650.51" width=".87" height=".87" transform="translate(-263.33 666.42) rotate(-45.02)"/><rect class="cls-29" x="673.77" y="648.76" width=".87" height=".87" transform="translate(-261.58 666.88) rotate(-45)"/><rect class="cls-29" x="675.52" y="647.01" width=".87" height=".87" transform="translate(-259.83 667.61) rotate(-45)"/><rect class="cls-29" x="677.27" y="645.26" width=".87" height=".87" transform="translate(-258.08 668.33) rotate(-45)"/><polygon class="cls-29" points="679.46 644.56 680.08 643.94 679.9 643.76 679.02 643.76 678.84 643.94 679.46 644.56"/><polygon class="cls-29" points="675.34 650.95 674.47 651.82 675.71 651.82 675.96 651.57 675.34 650.95"/><polygon class="cls-29" points="683.76 643.76 683.41 643.76 683.58 643.94 683.76 643.76"/><rect class="cls-29" x="676.03" y="649.64" width="1.6" height=".87" transform="translate(-261.43 669) rotate(-45)"/><rect class="cls-29" x="677.78" y="647.88" width="1.6" height=".87" transform="translate(-259.68 669.86) rotate(-45.01)"/><rect class="cls-29" x="679.54" y="646.13" width="1.6" height=".87" transform="translate(-257.93 670.43) rotate(-45)"/><rect class="cls-29" x="681.29" y="644.38" width="1.6" height=".87" transform="translate(-256.17 671.17) rotate(-45)"/><rect class="cls-29" x="675.52" y="650.51" width=".87" height=".87" transform="translate(-262.31 668.68) rotate(-45)"/><rect class="cls-29" x="677.27" y="648.76" width=".87" height=".87" transform="translate(-260.55 669.36) rotate(-45)"/><rect class="cls-29" x="679.02" y="647.01" width=".87" height=".87" transform="translate(-258.8 670.08) rotate(-45)"/><rect class="cls-29" x="680.78" y="645.26" width=".87" height=".87" transform="translate(-257.04 671.08) rotate(-45.02)"/><polygon class="cls-29" points="682.97 644.56 683.58 643.94 683.41 643.76 682.53 643.76 682.35 643.94 682.97 644.56"/><rect class="cls-29" x="684.79" y="644.38" width="1.6" height=".87" transform="translate(-255.15 673.65) rotate(-45)"/><polygon class="cls-29" points="678.84 650.95 677.97 651.82 679.21 651.82 679.46 651.57 678.84 650.95"/><polygon class="cls-29" points="687.27 643.76 686.91 643.76 687.09 643.94 687.27 643.76"/><rect class="cls-29" x="683.04" y="646.13" width="1.6" height=".87" transform="translate(-256.91 672.66) rotate(-44.98)"/><rect class="cls-29" x="681.29" y="647.88" width="1.6" height=".87" transform="translate(-258.65 672.19) rotate(-45)"/><rect class="cls-29" x="679.54" y="649.64" width="1.6" height=".87" transform="translate(-260.4 671.72) rotate(-45.01)"/><rect class="cls-29" x="679.02" y="650.51" width=".87" height=".87" transform="translate(-261.29 670.92) rotate(-44.99)"/><rect class="cls-29" x="680.78" y="648.76" width=".87" height=".87" transform="translate(-259.53 671.86) rotate(-45)"/><rect class="cls-29" x="682.53" y="647.01" width=".87" height=".87" transform="translate(-257.78 672.56) rotate(-45)"/><rect class="cls-29" x="684.28" y="645.26" width=".87" height=".87" transform="translate(-256.03 673.02) rotate(-44.98)"/><polygon class="cls-29" points="686.47 644.56 687.09 643.94 686.91 643.76 686.03 643.76 685.85 643.94 686.47 644.56"/><rect class="cls-29" x="688.3" y="644.38" width="1.6" height=".87" transform="translate(-254.11 676.4) rotate(-45.02)"/><rect class="cls-29" x="686.55" y="646.13" width="1.6" height=".87" transform="translate(-255.87 675.4) rotate(-45)"/><rect class="cls-29" x="683.04" y="649.64" width="1.6" height=".87" transform="translate(-259.38 673.95) rotate(-45)"/><polygon class="cls-29" points="682.35 650.95 681.48 651.82 682.72 651.82 682.97 651.57 682.35 650.95"/><polygon class="cls-29" points="690.77 643.76 690.41 643.76 690.59 643.94 690.77 643.76"/><rect class="cls-29" x="684.79" y="647.88" width="1.6" height=".87" transform="translate(-257.63 674.68) rotate(-45)"/><rect class="cls-29" x="682.53" y="650.51" width=".87" height=".87" transform="translate(-260.26 673.59) rotate(-45)"/><rect class="cls-29" x="684.28" y="648.76" width=".87" height=".87" transform="translate(-258.5 674.58) rotate(-45.02)"/><rect class="cls-29" x="686.03" y="647.01" width=".87" height=".87" transform="translate(-256.74 675.31) rotate(-45.02)"/><rect class="cls-29" x="687.79" y="645.26" width=".88" height=".87" transform="translate(-255 675.77) rotate(-45)"/><polygon class="cls-29" points="689.98 644.56 690.59 643.94 690.41 643.76 689.54 643.76 689.36 643.94 689.98 644.56"/><polygon class="cls-29" points="685.85 650.95 684.98 651.82 686.22 651.82 686.47 651.57 685.85 650.95"/><rect class="cls-29" x="686.55" y="649.64" width="1.6" height=".87" transform="translate(-258.36 676.16) rotate(-44.98)"/><rect class="cls-29" x="691.8" y="644.38" width="1.6" height=".88" transform="translate(-253.09 678.66) rotate(-45)"/><rect class="cls-29" x="688.3" y="647.88" width="1.6" height=".88" transform="translate(-256.6 677.16) rotate(-45)"/><rect class="cls-29" x="690.05" y="646.13" width="1.6" height=".88" transform="translate(-254.85 677.88) rotate(-45)"/><rect class="cls-29" x="686.03" y="650.51" width=".87" height=".88" transform="translate(-259.23 676.07) rotate(-45)"/><rect class="cls-29" x="687.79" y="648.76" width=".87" height=".88" transform="translate(-257.47 677.06) rotate(-45.02)"/><rect class="cls-29" x="689.54" y="647.01" width=".88" height=".88" transform="translate(-255.72 677.52) rotate(-45)"/><rect class="cls-29" x="691.29" y="645.26" width=".88" height=".88" transform="translate(-253.97 678.25) rotate(-45)"/><path class="cls-29" d="M693.48,644.56l.58-.58c-.33-.1-.67-.2-1.03-.21l-.16.17.62.62Z"/><path class="cls-29" d="M695.85,645.69l.27-.27c-.18-.24-.36-.46-.58-.65l-.31.31.62.62Z"/><rect class="cls-29" x="693.56" y="646.13" width="1.6" height=".88" transform="translate(-253.82 680.36) rotate(-45)"/><rect class="cls-29" x="691.8" y="647.88" width="1.6" height=".88" transform="translate(-255.57 679.63) rotate(-45)"/><rect class="cls-29" x="690.05" y="649.64" width="1.6" height=".88" transform="translate(-257.33 678.93) rotate(-45)"/><polygon class="cls-29" points="689.36 650.95 688.49 651.82 689.73 651.82 689.98 651.57 689.36 650.95"/><rect class="cls-29" x="689.54" y="650.51" width=".87" height=".88" transform="translate(-258.2 678.55) rotate(-45)"/><rect class="cls-29" x="691.29" y="648.76" width=".88" height=".88" transform="translate(-256.46 679) rotate(-44.98)"/><rect class="cls-29" x="693.04" y="647.01" width=".88" height=".88" transform="translate(-254.7 680) rotate(-45)"/><rect class="cls-29" x="694.79" y="645.25" width=".88" height=".88" transform="translate(-252.94 680.72) rotate(-45)"/><path class="cls-29" d="M695.23,648.58l.62.62,1.06-1.06s.02-.08.02-.12l-.57-.57-1.13,1.13Z"/><rect class="cls-29" x="693.56" y="649.64" width="1.6" height=".88" transform="translate(-256.3 681.34) rotate(-45)"/><path class="cls-29" d="M692.86,650.95l-.87.87h.96c.12,0,.23-.06.35-.07l.18-.18-.62-.62Z"/><rect class="cls-29" x="693.04" y="650.51" width=".88" height=".88" transform="translate(-257.18 680.75) rotate(-44.98)"/><rect class="cls-29" x="694.79" y="648.76" width=".88" height=".88" transform="translate(-255.43 681.48) rotate(-44.98)"/><path class="cls-29" d="M696.94,648.02c0-.08.05-.15.05-.23,0-.28-.11-.53-.16-.8l-.45.45.57.57Z"/><path class="cls-33" d="M731.24,643.37c.51,1.14.8,2.4.8,3.73,0,5.09-4.13,9.22-9.22,9.22-.25,0-.49-.05-.74-.07.69.18,1.4.31,2.14.31,4.67,0,8.46-3.79,8.46-8.46,0-1.75-.53-3.38-1.44-4.73Z"/><path class="cls-18" d="M729.29,647.49c0,3-2.44,5.44-5.44,5.44s-5.44-2.44-5.44-5.44,2.44-5.44,5.44-5.44,5.44,2.44,5.44,5.44Z"/><path class="cls-27" d="M726.13,643.63c-2.87.23-4.27,2.87-1.46,7.02,2.98-.29,4.27-3.04,1.46-7.02Z"/><path class="cls-34" d="M722.39,643.45c-2.98.94-3.98,5.67-.58,7.66-.58-2.69,1.99-5.5.58-7.66Z"/><path class="cls-11" d="M953.48,1711.58h9.84v-7.4h-9.84v7.4ZM953.48,717.6v7.4h9.84v-7.4h-9.84Z"/><path class="cls-35" d="M363.79,1704.18h-9.84v7.4h9.84v-7.4ZM353.94,717.6v7.4h9.84v-7.4h-9.84Z"/><path class="cls-12" d="M966.74,884.14c-1.26,1.22-1.26,5.05-1.26,12.18v121.99c0,2.35-.06,5,1.11,5.34.52-.42.57-1.74.57-3.25v-131.32c0-1.82.05-4.51-.43-4.94Z"/><path class="cls-2" d="M965.48,1018.31v-121.99c0-7.12,0-10.95,1.26-12.18l-3.6-2.24c-1.8,2.73-1.69,8.52-1.69,10.73v122.48c0,5.59.34,9.22,1.42,10l3.73-1.47c-1.18-.34-1.11-2.99-1.11-5.34Z"/><path class="cls-28" d="M350.52,854.08c1.26,1.22,1.26,5.05,1.26,12.18v69.86c0,2.35.06,5-1.11,5.34-.52-.42-.57-1.74-.57-3.25v-79.19c0-1.82-.05-4.51.43-4.94Z"/><path class="cls-1" d="M351.78,936.12v-69.86c0-7.12,0-10.95-1.26-12.18l3.6-2.24c1.8,2.73,1.69,8.52,1.69,10.73v70.36c0,5.59-.34,9.22-1.42,10l-3.73-1.47c1.18-.34,1.11-2.99,1.11-5.34Z"/><path class="cls-40" d="M350.52,966.58c1.26,1.22,1.26,5.05,1.26,12.18v69.86c0,2.35.06,5-1.11,5.34-.52-.42-.57-1.74-.57-3.25v-79.19c0-1.82-.05-4.51.43-4.94Z"/><path class="cls-30" d="M351.78,1048.62v-69.86c0-7.12,0-10.95-1.26-12.18l3.6-2.24c1.8,2.73,1.69,8.52,1.69,10.73v70.36c0,5.59-.34,9.22-1.42,10l-3.73-1.47c1.18-.34,1.11-2.99,1.11-5.34Z"/><polygon class="cls-37" points="349.81 766.36 349.81 810.48 350.91 811.58 350.91 765.27 349.81 766.36"/><path class="cls-44" d="M354.02,765.27h-3.12v46.31l.08.08h3.3c.55-.55.58-1.35.58-2.53v-41.32c0-1.37-.15-2.22-.85-2.53Z"/><path class="cls-33" d="M602.12,648.32c0,3.41-2.76,6.17-6.17,6.17s-6.17-2.76-6.17-6.17,2.76-6.17,6.17-6.17,6.17,2.76,6.17,6.17Z"/><path class="cls-23" d="M773.04,648.32c0,3.41-2.76,6.17-6.17,6.17s-6.17-2.76-6.17-6.17,2.76-6.17,6.17-6.17,6.17,2.76,6.17,6.17Z"/><path class="cls-33" d="M559.48,648.32c0,3.41-2.76,6.17-6.17,6.17s-6.17-2.76-6.17-6.17,2.76-6.17,6.17-6.17,6.17,2.76,6.17,6.17Z"/></svg>