<?xml version="1.0" encoding="UTF-8"?><svg id="Layer_1" xmlns="http://www.w3.org/2000/svg" xmlns:xlink="http://www.w3.org/1999/xlink" viewBox="0 0 1080 1080"><defs><style>.cls-1{fill:url(#linear-gradient-15);}.cls-2{fill:url(#linear-gradient-13);}.cls-3{fill:#29abe2;}.cls-4{fill:#fff9d7;}.cls-5{opacity:.81;}.cls-6{fill:url(#linear-gradient-2);}.cls-7{fill:#d0d2d3;stroke-width:3px;}.cls-7,.cls-8,.cls-9,.cls-10,.cls-11,.cls-12{stroke-miterlimit:10;}.cls-7,.cls-10,.cls-11{stroke:#231f20;stroke-linecap:round;}.cls-13{opacity:.29;}.cls-8{stroke:#000;stroke-width:.75px;}.cls-8,.cls-14,.cls-12{fill:none;}.cls-15{fill:url(#linear-gradient-10);}.cls-16{fill:url(#linear-gradient-12);}.cls-9{stroke:#4d4d4d;}.cls-9,.cls-17{fill:#005699;}.cls-18{fill:#1d1e24;}.cls-19,.cls-20{fill:#fff;}.cls-10{fill:url(#Orange_Yellow_2-2);stroke-width:4px;}.cls-21{fill:#262626;}.cls-22{fill:url(#linear-gradient-4);}.cls-23{opacity:.38;}.cls-23,.cls-24{fill:#1c75bc;}.cls-11{fill:url(#Orange_Yellow_2);stroke-width:7px;}.cls-25{fill:url(#linear-gradient-3);}.cls-26{fill:#006838;}.cls-27{fill:url(#linear-gradient-5);}.cls-28{fill:#231f20;}.cls-29{fill:#ffefe3;}.cls-30{fill:url(#linear-gradient-8);}.cls-31{fill:url(#linear-gradient-14);}.cls-32{fill:#333;}.cls-33{fill:url(#linear-gradient-17);}.cls-34{fill:#35c340;}.cls-35{fill:url(#linear-gradient-7);}.cls-36{fill:#1a1a1a;}.cls-37{fill:url(#linear-gradient-9);}.cls-38{fill:url(#linear-gradient-11);}.cls-39{fill:url(#linear-gradient-6);}.cls-40{fill:#555658;}.cls-20{opacity:.6;}.cls-41{opacity:.19;}.cls-42{fill:url(#linear-gradient-16);}.cls-12{stroke:#18191c;stroke-width:.5px;}.cls-43{fill:url(#radial-gradient);opacity:.32;}.cls-44{fill:url(#linear-gradient);}.cls-45{fill:#e6e7e8;}.cls-46{fill:url(#linear-gradient-18);}</style><linearGradient id="linear-gradient" x1="493.15" y1="265.61" x2="-14.59" y2="1094.87" gradientUnits="userSpaceOnUse"><stop offset="0" stop-color="#fff"/><stop offset=".21" stop-color="#fff" stop-opacity=".76"/><stop offset=".5" stop-color="#fff" stop-opacity=".44"/><stop offset=".73" stop-color="#fff" stop-opacity=".2"/><stop offset=".91" stop-color="#fff" stop-opacity=".06"/><stop offset="1" stop-color="#fff" stop-opacity="0"/></linearGradient><radialGradient id="radial-gradient" cx="251.3" cy="533.49" fx="251.3" fy="533.49" r="3.92" gradientUnits="userSpaceOnUse"><stop offset=".45" stop-color="#fff"/><stop offset=".51" stop-color="#dbdbdb" stop-opacity=".86"/><stop offset=".65" stop-color="#8e8e8e" stop-opacity=".56"/><stop offset=".77" stop-color="#515151" stop-opacity=".32"/><stop offset=".87" stop-color="#252525" stop-opacity=".15"/><stop offset=".95" stop-color="#0a0a0a" stop-opacity=".04"/><stop offset="1" stop-color="#000" stop-opacity="0"/></radialGradient><linearGradient id="linear-gradient-2" x1="368.68" y1="771.09" x2="370.3" y2="771.09" gradientUnits="userSpaceOnUse"><stop offset="0" stop-color="#666"/><stop offset=".07" stop-color="#5b5b5b"/><stop offset=".29" stop-color="#414141"/><stop offset=".52" stop-color="#2e2e2e"/><stop offset=".75" stop-color="#222"/><stop offset="1" stop-color="#1f1f1f"/></linearGradient><linearGradient id="linear-gradient-3" x1="368.66" y1="879.56" x2="370.99" y2="879.56" gradientUnits="userSpaceOnUse"><stop offset="0" stop-color="#fff"/><stop offset="0" stop-color="#fdfdfd"/><stop offset=".12" stop-color="#c3c3c3"/><stop offset=".25" stop-color="#8f8f8f"/><stop offset=".37" stop-color="#636363"/><stop offset=".5" stop-color="#3f3f3f"/><stop offset=".62" stop-color="#232323"/><stop offset=".75" stop-color="#0f0f0f"/><stop offset=".87" stop-color="#030303"/><stop offset="1" stop-color="#000"/></linearGradient><linearGradient id="linear-gradient-4" y1="992.13" y2="992.13" xlink:href="#linear-gradient-3"/><linearGradient id="linear-gradient-5" x1="922.24" y1="595.72" x2="967.63" y2="626.19" gradientUnits="userSpaceOnUse"><stop offset="0" stop-color="#4d4d4d"/><stop offset="1" stop-color="#1a1a1a"/></linearGradient><linearGradient id="linear-gradient-6" x1="380.82" y1="625.39" x2="426.94" y2="594.78" xlink:href="#linear-gradient-5"/><linearGradient id="linear-gradient-7" x1="380.54" y1="1197.07" x2="966.95" y2="1197.07" gradientUnits="userSpaceOnUse"><stop offset="0" stop-color="#2e2e2e"/><stop offset=".07" stop-color="#000"/><stop offset=".18" stop-color="#363636"/><stop offset=".8" stop-color="#363636"/><stop offset=".94" stop-color="#000"/><stop offset="1" stop-color="#2e2e2e"/></linearGradient><linearGradient id="linear-gradient-8" x1="738.1" y1="627.17" x2="742.96" y2="633.02" gradientUnits="userSpaceOnUse"><stop offset="0" stop-color="#5482ff"/><stop offset=".08" stop-color="#4064c5" stop-opacity=".84"/><stop offset=".17" stop-color="#2f4a91" stop-opacity=".7"/><stop offset=".25" stop-color="#213364" stop-opacity=".58"/><stop offset=".34" stop-color="#152040" stop-opacity=".48"/><stop offset=".43" stop-color="#0b1224" stop-opacity=".4"/><stop offset=".51" stop-color="#050810" stop-opacity=".34"/><stop offset=".6" stop-color="#010204" stop-opacity=".31"/><stop offset=".68" stop-color="#000" stop-opacity=".3"/></linearGradient><linearGradient id="linear-gradient-9" x1="734.64" y1="627.35" x2="739.42" y2="633.11" gradientUnits="userSpaceOnUse"><stop offset="0" stop-color="#5482ff"/><stop offset=".07" stop-color="#4064c5" stop-opacity=".84"/><stop offset=".14" stop-color="#2f4a91" stop-opacity=".7"/><stop offset=".21" stop-color="#213364" stop-opacity=".58"/><stop offset=".28" stop-color="#152040" stop-opacity=".48"/><stop offset=".35" stop-color="#0b1224" stop-opacity=".4"/><stop offset=".42" stop-color="#050810" stop-opacity=".34"/><stop offset=".49" stop-color="#010204" stop-opacity=".31"/><stop offset=".56" stop-color="#000" stop-opacity=".3"/></linearGradient><linearGradient id="linear-gradient-10" x1="968.15" y1="1197" x2="977.99" y2="1197" gradientUnits="userSpaceOnUse"><stop offset="0" stop-color="gray"/><stop offset=".33" stop-color="#a9a9a9" stop-opacity=".89"/><stop offset=".66" stop-color="#c3c3c3" stop-opacity=".82"/><stop offset="1" stop-color="#ccc" stop-opacity=".8"/></linearGradient><linearGradient id="linear-gradient-11" x1="-6325.56" y1="1197" x2="-6315.71" y2="1197" gradientTransform="translate(-5947.1) rotate(-180) scale(1 -1)" gradientUnits="userSpaceOnUse"><stop offset="0" stop-color="gray"/><stop offset=".2" stop-color="#9a9a9a" stop-opacity=".96"/><stop offset=".46" stop-color="#b6b6b6" stop-opacity=".93"/><stop offset=".73" stop-color="#c6c6c6" stop-opacity=".91"/><stop offset="1" stop-color="#ccc" stop-opacity=".9"/></linearGradient><linearGradient id="linear-gradient-12" x1="980.16" y1="936.3" x2="981.87" y2="936.3" gradientUnits="userSpaceOnUse"><stop offset="0" stop-color="#4a4a4a"/><stop offset=".17" stop-color="#4d4d4d"/><stop offset=".33" stop-color="#595959"/><stop offset=".48" stop-color="#6c6c6c"/><stop offset=".64" stop-color="#878787"/><stop offset=".79" stop-color="#aaa"/><stop offset=".94" stop-color="#d4d4d4"/><stop offset="1" stop-color="#e6e6e6"/></linearGradient><linearGradient id="linear-gradient-13" x1="978.76" y1="863.97" x2="978.76" y2="1007.77" gradientUnits="userSpaceOnUse"><stop offset=".02" stop-color="#000"/><stop offset=".03" stop-color="#1b1b1b"/><stop offset=".05" stop-color="#5b5b5b"/><stop offset=".07" stop-color="#909090"/><stop offset=".09" stop-color="#b9b9b9"/><stop offset=".11" stop-color="#d7d7d7"/><stop offset=".13" stop-color="#e9e9e9"/><stop offset=".14" stop-color="#f0f0f0"/><stop offset=".87" stop-color="#f0f0f0"/><stop offset=".88" stop-color="#ebebeb"/><stop offset=".89" stop-color="#dcdcdc"/><stop offset=".91" stop-color="#c4c4c4"/><stop offset=".93" stop-color="#a3a3a3"/><stop offset=".94" stop-color="#787878"/><stop offset=".96" stop-color="#434343"/><stop offset=".98" stop-color="#060606"/><stop offset=".98" stop-color="#000"/></linearGradient><linearGradient id="linear-gradient-14" x1="-6326.86" y1="880.18" x2="-6325.14" y2="880.18" gradientTransform="translate(-5960.42) rotate(-180) scale(1 -1)" xlink:href="#linear-gradient-12"/><linearGradient id="linear-gradient-15" x1="-6328.25" y1="834.04" x2="-6328.25" y2="925.49" gradientTransform="translate(-5960.42) rotate(-180) scale(1 -1)" gradientUnits="userSpaceOnUse"><stop offset="0" stop-color="#121212"/><stop offset="0" stop-color="#1c1c1c"/><stop offset=".03" stop-color="#5b5b5b"/><stop offset=".05" stop-color="#909090"/><stop offset=".07" stop-color="#b9b9b9"/><stop offset=".08" stop-color="#d7d7d7"/><stop offset=".1" stop-color="#e9e9e9"/><stop offset=".11" stop-color="#f0f0f0"/><stop offset=".91" stop-color="#f0f0f0"/><stop offset=".92" stop-color="#ebebeb"/><stop offset=".93" stop-color="#dcdcdc"/><stop offset=".95" stop-color="#c4c4c4"/><stop offset=".96" stop-color="#a3a3a3"/><stop offset=".98" stop-color="#787878"/><stop offset=".99" stop-color="#444"/><stop offset="1" stop-color="#242424"/></linearGradient><linearGradient id="linear-gradient-16" x1="-6326.86" y1="992.67" x2="-6325.14" y2="992.67" gradientTransform="translate(-5960.42) rotate(-180) scale(1 -1)" xlink:href="#linear-gradient-12"/><linearGradient id="linear-gradient-17" y1="946.53" y2="1037.99" xlink:href="#linear-gradient-15"/><linearGradient id="linear-gradient-18" x1="367.56" y1="747.67" x2="367.56" y2="794.06" gradientTransform="matrix(1,0,0,1,0,0)" xlink:href="#linear-gradient-15"/><linearGradient id="Orange_Yellow_2" x1="-3529.58" y1="-4020.8" x2="-3298.47" y2="-4020.8" gradientTransform="translate(1595.07 1073.84) rotate(-.11) scale(.21 .19)" gradientUnits="userSpaceOnUse"><stop offset="0" stop-color="#fff23a"/><stop offset=".04" stop-color="#fee52c"/><stop offset=".12" stop-color="#fdd41a"/><stop offset=".2" stop-color="#fdc90e"/><stop offset=".28" stop-color="#fdc60b"/><stop offset=".67" stop-color="#f28f3f"/><stop offset=".89" stop-color="#ed693c"/><stop offset="1" stop-color="#e83e39"/></linearGradient><linearGradient id="Orange_Yellow_2-2" x1="332.53" y1="716.23" x2="390.88" y2="716.23" gradientTransform="translate(667.76 -500.96) rotate(1.06) scale(.69 1.31)" xlink:href="#Orange_Yellow_2"/></defs><rect class="cls-17" x="131.31" y="354.99" width="599.6" height="1212.13" rx="89.96" ry="89.96"/><rect class="cls-17" x="145.08" y="368.76" width="572.05" height="1184.58" rx="76.19" ry="76.19"/><path class="cls-17" d="M729.32,561.99v-41.16c0-1.66.27-3.13,1.59-3.97v49.01c-1.54-.69-1.59-3.03-1.59-3.88Z"/><path class="cls-17" d="M728.64,689.88v-82.33c0-1.68.21-4.78,2.26-6.53v94.19c-2.52-1.65-2.26-4.46-2.26-5.33Z"/><path class="cls-17" d="M728.64,800.67v-82.33c0-1.68.21-4.78,2.26-6.53v94.19c-2.52-1.65-2.26-4.46-2.26-5.33Z"/><path class="cls-17" d="M188.28,371.53c-4.22,1.96-8.25,4.26-12.05,6.87-12.19,4.46-21.88,11.56-30,22.2,5.67-9.51,13.06-17.87,21.75-24.67,6.4-3.95,12.16-5.15,20.3-4.41Z"/><path class="cls-17" d="M133.75,961.12V445.96c0-16.56,4.56-32.06,12.48-45.35,8.11-10.64,17.81-17.75,30-22.2-21.48,14.8-35.59,39.56-35.59,67.55v515.16h-6.89Z"/><path class="cls-17" d="M673.16,371.53c4.22,1.96,8.25,4.26,12.05,6.87,12.19,4.46,21.88,11.56,30,22.2-5.67-9.51-13.06-17.87-21.75-24.67-6.4-3.95-12.16-5.15-20.3-4.41Z"/><path class="cls-17" d="M727.68,959.47V445.96c0-16.56-4.56-32.06-12.48-45.35-8.11-10.64-17.81-17.75-30-22.2,21.48,14.8,35.59,39.56,35.59,67.55v513.51h6.89Z"/><path class="cls-17" d="M222.64,357.07h416.15c20.6,0,39.58,7.06,54.67,18.87-6.4-3.95-12.16-5.15-20.3-4.41-10.46-4.85-22.1-7.58-34.37-7.58H222.64c-12.27,0-23.91,2.73-34.37,7.58-8.14-.74-13.9.46-20.3,4.41,15.09-11.81,34.06-18.87,54.67-18.87Z"/><path class="cls-17" d="M134.37,770.97v-134.07c0-1.68-.28-4.78-3.05-6.53v145.93c3.41-1.65,3.05-4.46,3.05-5.33Z"/><path class="cls-17" d="M133.75,960.91v515.16c0,16.56,4.56,32.06,12.48,45.35,8.11,10.64,17.81,17.75,30,22.2-21.48-14.8-35.59-39.56-35.59-67.55v-515.16h-6.89Z"/><path class="cls-17" d="M727.68,962.55v513.51c0,16.56-4.56,32.06-12.48,45.35-8.11,10.64-17.81,17.75-30,22.2,21.48-14.8,35.59-39.56,35.59-67.55v-513.51h6.89Z"/><path class="cls-17" d="M142.15,1476.7V445.75c0-44.27,35.89-80.15,80.15-80.15h417.49c43.87,0,79.44,35.57,79.44,79.44v1030.49c0,44.21-35.84,80.06-80.06,80.06H221.02c-43.56,0-78.88-35.31-78.88-78.88ZM222.3,368.35c-42.75,0-77.4,34.65-77.4,77.4v1030.96c0,42.04,34.08,76.12,76.12,76.12h418.16c42.69,0,77.3-34.61,77.3-77.3V444.56c0-42.09-34.12-76.21-76.21-76.21H222.3Z"/><path class="cls-17" d="M146.46,452.35c0-44.03,20.91-65.89,44.15-75.78-6.22,12.75-33.35,23.78-33.35,75.44v1016.7c0,51.66,27.13,62.7,33.35,75.44-23.24-9.9-44.15-31.76-44.15-75.78l-.65-508.01.65-508.01Z"/><path class="cls-17" d="M713.4,452.35c0-44.03-20.91-65.89-44.15-75.78,6.22,12.75,33.35,23.78,33.35,75.44v1016.7c0,51.66-27.13,62.7-33.35,75.44,23.24-9.9,44.15-31.76,44.15-75.78l.65-508.01-.65-508.01Z"/><path class="cls-17" d="M140.97,1442.32h-9.69v7.28h9.69v-7.28ZM131.28,471.42v7.28h9.69v-7.28h-9.69Z"/><path class="cls-17" d="M721.29,1449.6h9.69v-7.28h-9.69v7.28ZM721.29,471.42v7.28h9.69v-7.28h-9.69Z"/><path class="cls-26" d="M127.92,635.31c1.24,1.21,1.24,4.97,1.24,11.98v120.05c0,2.32.06,4.92-1.1,5.26-.52-.41-.56-1.71-.56-3.19v-129.23c0-1.8-.05-4.44.42-4.86Z"/><path class="cls-34" d="M129.16,767.34v-120.05c0-7.01,0-10.78-1.24-11.98l3.54-2.2c1.78,2.69,1.66,8.39,1.66,10.56v120.54c0,5.5-.34,9.07-1.4,9.84l-3.67-1.45c1.16-.34,1.1-2.94,1.1-5.26Z"/><path class="cls-26" d="M734.34,605.73c-1.24,1.21-1.24,4.97-1.24,11.98v68.75c0,2.32-.06,4.92,1.1,5.26.52-.41.56-1.71.56-3.19v-77.94c0-1.8.05-4.44-.42-4.86Z"/><path class="cls-34" d="M733.11,686.46v-68.75c0-7.01,0-10.78,1.24-11.98l-3.54-2.2c-1.78,2.69-1.66,8.39-1.66,10.56v69.24c0,5.5.34,9.07,1.4,9.84l3.67-1.45c-1.16-.34-1.1-2.94-1.1-5.26Z"/><path class="cls-26" d="M734.34,716.44c-1.24,1.21-1.24,4.97-1.24,11.98v68.75c0,2.32-.06,4.92,1.1,5.26.52-.41.56-1.71.56-3.19v-77.94c0-1.8.05-4.44-.42-4.86Z"/><path class="cls-34" d="M733.11,797.17v-68.75c0-7.01,0-10.78,1.24-11.98l-3.54-2.2c-1.78,2.69-1.66,8.39-1.66,10.56v69.24c0,5.5.34,9.07,1.4,9.84l3.67-1.45c-1.16-.34-1.1-2.94-1.1-5.26Z"/><polygon class="cls-26" points="735.04 519.4 735.04 562.82 733.97 563.9 733.97 518.32 735.04 519.4"/><path class="cls-34" d="M730.9,518.32h3.07v45.58l-.08.08h-3.25c-.54-.54-.57-1.33-.57-2.49v-40.67c0-1.35.14-2.19.84-2.49Z"/><g class="cls-13"><path class="cls-44" d="M158.5,442.36v747.97s461.77-763.49,478.46-790.97c4.34-7.15,14.33-21.61,28.42-24.94,0,0-9.3-3.94-21.7-3.94H230.39c-39.7,0-71.88,32.18-71.88,71.88Z"/></g><path class="cls-41" d="M229.04,612.67c-27.98,0-50.75-22.77-50.75-50.75v-108.14c0-27.98,22.77-50.75,50.75-50.75s50.75,22.77,50.75,50.75v108.14c0,27.98-22.77,50.75-50.75,50.75Z"/><path class="cls-8" d="M229.04,609.23h0c-26.02,0-47.31-21.29-47.31-47.31v-108.14c0-26.02,21.29-47.31,47.31-47.31h0c26.02,0,47.31,21.29,47.31,47.31v108.14c0,26.02-21.29,47.31-47.31,47.31Z"/><path class="cls-9" d="M229.04,602.34c-22.29,0-40.42-18.13-40.42-40.42v-108.14c0-22.29,18.13-40.42,40.42-40.42s40.42,18.13,40.42,40.42v108.14c0,22.29-18.13,40.42-40.42,40.42Z"/><path class="cls-43" d="M255.22,533.49c0,2.17-1.76,3.92-3.92,3.92s-3.92-1.76-3.92-3.92,1.76-3.92,3.92-3.92,3.92,1.76,3.92,3.92Z"/><path class="cls-18" d="M245.73,450.7c0,9.81-7.95,17.77-17.77,17.77s-17.77-7.95-17.77-17.77,7.95-17.77,17.77-17.77,17.77,7.95,17.77,17.77Z"/><path class="cls-12" d="M243.54,450.7c0,8.6-6.97,15.58-15.58,15.58s-15.58-6.97-15.58-15.58,6.97-15.58,15.58-15.58,15.58,6.97,15.58,15.58Z"/><path class="cls-12" d="M239.84,450.7c0,6.56-5.32,11.87-11.87,11.87s-11.87-5.32-11.87-11.87,5.32-11.87,11.87-11.87,11.87,5.32,11.87,11.87Z"/><path class="cls-45" d="M236.85,450.7c0,4.91-3.98,8.89-8.89,8.89s-8.89-3.98-8.89-8.89,3.98-8.89,8.89-8.89,8.89,3.98,8.89,8.89Z"/><path class="cls-18" d="M245.73,566.12c0,9.81-7.95,17.77-17.77,17.77s-17.77-7.95-17.77-17.77,7.95-17.77,17.77-17.77,17.77,7.95,17.77,17.77Z"/><path class="cls-12" d="M243.54,566.12c0,8.6-6.97,15.58-15.58,15.58s-15.58-6.97-15.58-15.58,6.97-15.58,15.58-15.58,15.58,6.97,15.58,15.58Z"/><path class="cls-12" d="M239.84,566.12c0,6.56-5.32,11.87-11.87,11.87s-11.87-5.32-11.87-11.87,5.32-11.87,11.87-11.87,11.87,5.32,11.87,11.87Z"/><path class="cls-45" d="M236.85,566.12c0,4.91-3.98,8.89-8.89,8.89s-8.89-3.98-8.89-8.89,3.98-8.89,8.89-8.89,8.89,3.98,8.89,8.89Z"/><g class="cls-5"><path class="cls-4" d="M244.02,507.68c0-.73-.12-1.43-.22-2.13-.54.31-1.13.54-1.79.54-2.01,0-3.64-1.63-3.64-3.64,0-1.79,1.32-3.22,3.03-3.52-.59-.9-1.25-1.74-2-2.5-.61,1.15-1.78,1.95-3.17,1.95-2.01,0-3.64-1.63-3.64-3.64,0-.81.31-1.52.76-2.12-.86-.31-1.73-.56-2.65-.72.57.64.95,1.47.95,2.4,0,2.01-1.63,3.64-3.64,3.64s-3.64-1.63-3.64-3.64c0-.93.38-1.76.95-2.41-1.03.17-2.02.44-2.97.8.24.49.41,1.02.41,1.6,0,2.01-1.63,3.64-3.64,3.64-1.11,0-2.07-.53-2.74-1.31-.58.61-1.13,1.25-1.61,1.95,1.48.46,2.57,1.79,2.57,3.43,0,2.01-1.63,3.64-3.64,3.64-.55,0-1.06-.14-1.53-.36-.12.79-.24,1.57-.24,2.39,0,.03,0,.05,0,.07h32.1s0-.05,0-.07ZM223.42,505.65c-2.01,0-3.64-1.63-3.64-3.64s1.63-3.64,3.64-3.64,3.64,1.63,3.64,3.64-1.63,3.64-3.64,3.64ZM231.65,506.09c-2.01,0-3.64-1.63-3.64-3.64s1.63-3.64,3.64-3.64,3.64,1.63,3.64,3.64-1.63,3.64-3.64,3.64Z"/><path class="cls-29" d="M238.37,511.87c0-2.01,1.63-3.64,3.64-3.64.71,0,1.33.25,1.89.6.03-.36.11-.7.11-1.07h-32.1c0,.45.1.88.14,1.33.49-.25,1.03-.42,1.62-.42,2.01,0,3.64,1.63,3.64,3.64,0,1.82-1.36,3.27-3.11,3.53.51.86,1.1,1.67,1.76,2.42.63-1.11,1.77-1.88,3.13-1.88,2.01,0,3.64,1.63,3.64,3.64,0,.96-.39,1.82-1,2.47,1.91.81,4.01,1.25,6.22,1.25s4.29-.44,6.19-1.24c-.93-.66-1.58-1.69-1.58-2.92,0-2.01,1.63-3.64,3.64-3.64,1.67,0,3.01,1.14,3.45,2.67.87-.94,1.61-1.99,2.24-3.11-1.96-.06-3.53-1.65-3.53-3.62ZM219.78,512.3c0-2.01,1.63-3.64,3.64-3.64s3.64,1.63,3.64,3.64-1.63,3.64-3.64,3.64-3.64-1.63-3.64-3.64ZM227.99,523.66c-2.01,0-3.64-1.63-3.64-3.64s1.63-3.64,3.64-3.64,3.64,1.63,3.64,3.64-1.63,3.64-3.64,3.64ZM231.65,515.51c-2.01,0-3.64-1.63-3.64-3.64s1.63-3.64,3.64-3.64,3.64,1.63,3.64,3.64-1.63,3.64-3.64,3.64Z"/><path class="cls-4" d="M219.1,497.95c2.01,0,3.64-1.63,3.64-3.64,0-.58-.17-1.11-.41-1.6-2.28.86-4.32,2.2-5.97,3.94.67.78,1.63,1.31,2.74,1.31Z"/><path class="cls-20" d="M219.1,497.95c2.01,0,3.64-1.63,3.64-3.64,0-.58-.17-1.11-.41-1.6-2.28.86-4.32,2.2-5.97,3.94.67.78,1.63,1.31,2.74,1.31Z"/><path class="cls-4" d="M227.99,497.95c2.01,0,3.64-1.63,3.64-3.64,0-.93-.38-1.76-.95-2.4-.89-.15-1.79-.27-2.72-.27s-1.79.12-2.66.27c-.58.64-.95,1.47-.95,2.41,0,2.01,1.63,3.64,3.64,3.64Z"/><path class="cls-20" d="M227.99,497.95c2.01,0,3.64-1.63,3.64-3.64,0-.93-.38-1.76-.95-2.4-.89-.15-1.79-.27-2.72-.27s-1.79.12-2.66.27c-.58.64-.95,1.47-.95,2.41,0,2.01,1.63,3.64,3.64,3.64Z"/><path class="cls-4" d="M236.22,498.38c1.39,0,2.56-.81,3.17-1.95-1.68-1.71-3.76-2.99-6.06-3.81-.44.6-.76,1.31-.76,2.12,0,2.01,1.63,3.64,3.64,3.64Z"/><path class="cls-20" d="M236.22,498.38c1.39,0,2.56-.81,3.17-1.95-1.68-1.71-3.76-2.99-6.06-3.81-.44.6-.76,1.31-.76,2.12,0,2.01,1.63,3.64,3.64,3.64Z"/><path class="cls-4" d="M217.32,502.01c0-1.63-1.09-2.96-2.57-3.43-1.35,1.96-2.23,4.25-2.6,6.71.47.22.98.36,1.53.36,2.01,0,3.64-1.63,3.64-3.64Z"/><path class="cls-20" d="M217.32,502.01c0-1.63-1.09-2.96-2.57-3.43-1.35,1.96-2.23,4.25-2.6,6.71.47.22.98.36,1.53.36,2.01,0,3.64-1.63,3.64-3.64Z"/><path class="cls-4" d="M223.42,498.37c-2.01,0-3.64,1.63-3.64,3.64s1.63,3.64,3.64,3.64,3.64-1.63,3.64-3.64-1.63-3.64-3.64-3.64Z"/><path class="cls-20" d="M223.42,498.37c-2.01,0-3.64,1.63-3.64,3.64s1.63,3.64,3.64,3.64,3.64-1.63,3.64-3.64-1.63-3.64-3.64-3.64Z"/><path class="cls-4" d="M231.65,498.8c-2.01,0-3.64,1.63-3.64,3.64s1.63,3.64,3.64,3.64,3.64-1.63,3.64-3.64-1.63-3.64-3.64-3.64Z"/><path class="cls-20" d="M231.65,498.8c-2.01,0-3.64,1.63-3.64,3.64s1.63,3.64,3.64,3.64,3.64-1.63,3.64-3.64-1.63-3.64-3.64-3.64Z"/><path class="cls-4" d="M238.37,502.45c0,2.01,1.63,3.64,3.64,3.64.66,0,1.25-.23,1.79-.54-.32-2.42-1.13-4.67-2.41-6.62-1.71.3-3.03,1.73-3.03,3.52Z"/><path class="cls-20" d="M238.37,502.45c0,2.01,1.63,3.64,3.64,3.64.66,0,1.25-.23,1.79-.54-.32-2.42-1.13-4.67-2.41-6.62-1.71.3-3.03,1.73-3.03,3.52Z"/><path class="cls-29" d="M219.1,516.37c-1.36,0-2.5.78-3.13,1.88,1.59,1.8,3.52,3.29,5.77,4.23.61-.65,1-1.51,1-2.47,0-2.01-1.63-3.64-3.64-3.64Z"/><path class="cls-20" d="M219.1,516.37c-1.36,0-2.5.78-3.13,1.88,1.59,1.8,3.52,3.29,5.77,4.23.61-.65,1-1.51,1-2.47,0-2.01-1.63-3.64-3.64-3.64Z"/><circle class="cls-29" cx="227.99" cy="520.01" r="3.64"/><circle class="cls-20" cx="227.99" cy="520.01" r="3.64"/><path class="cls-29" d="M236.22,515.94c-2.01,0-3.64,1.63-3.64,3.64,0,1.23.65,2.26,1.58,2.92,2.12-.89,3.97-2.24,5.51-3.89-.43-1.53-1.78-2.67-3.45-2.67Z"/><path class="cls-20" d="M236.22,515.94c-2.01,0-3.64,1.63-3.64,3.64,0,1.23.65,2.26,1.58,2.92,2.12-.89,3.97-2.24,5.51-3.89-.43-1.53-1.78-2.67-3.45-2.67Z"/><path class="cls-29" d="M217.32,512.3c0-2.01-1.63-3.64-3.64-3.64-.59,0-1.13.17-1.62.42.22,2.46.96,4.74,2.16,6.75,1.75-.27,3.11-1.71,3.11-3.53Z"/><path class="cls-20" d="M217.32,512.3c0-2.01-1.63-3.64-3.64-3.64-.59,0-1.13.17-1.62.42.22,2.46.96,4.74,2.16,6.75,1.75-.27,3.11-1.71,3.11-3.53Z"/><path class="cls-29" d="M227.06,512.3c0-2.01-1.63-3.64-3.64-3.64s-3.64,1.63-3.64,3.64,1.63,3.64,3.64,3.64,3.64-1.63,3.64-3.64Z"/><path class="cls-20" d="M227.06,512.3c0-2.01-1.63-3.64-3.64-3.64s-3.64,1.63-3.64,3.64,1.63,3.64,3.64,3.64,3.64-1.63,3.64-3.64Z"/><path class="cls-29" d="M231.65,508.23c-2.01,0-3.64,1.63-3.64,3.64s1.63,3.64,3.64,3.64,3.64-1.63,3.64-3.64-1.63-3.64-3.64-3.64Z"/><path class="cls-20" d="M231.65,508.23c-2.01,0-3.64,1.63-3.64,3.64s1.63,3.64,3.64,3.64,3.64-1.63,3.64-3.64-1.63-3.64-3.64-3.64Z"/><path class="cls-29" d="M242.01,508.23c-2.01,0-3.64,1.63-3.64,3.64s1.58,3.56,3.53,3.62c1.12-2,1.82-4.25,1.99-6.66-.56-.35-1.18-.6-1.89-.6Z"/><path class="cls-20" d="M242.01,508.23c-2.01,0-3.64,1.63-3.64,3.64s1.58,3.56,3.53,3.62c1.12-2,1.82-4.25,1.99-6.66-.56-.35-1.18-.6-1.89-.6Z"/></g><rect x="368.68" y="581.7" width="609.28" height="1231.7" rx="91.41" ry="91.41"/><path class="cls-6" d="M370.3,792.04v-41.83c0-1.69-.27-3.18-1.61-4.03v49.8c1.56-.7,1.61-3.08,1.61-3.95Z"/><path class="cls-25" d="M370.98,922v-83.66c0-1.71-.21-4.86-2.3-6.63v95.71c2.57-1.67,2.3-4.53,2.3-5.42Z"/><path class="cls-22" d="M370.98,1034.57v-83.66c0-1.71-.21-4.86-2.3-6.63v95.71c2.57-1.67,2.3-4.53,2.3-5.42Z"/><path class="cls-27" d="M920.08,598.51c4.29,1.99,8.38,4.32,12.24,6.99,12.39,4.53,22.24,11.75,30.48,22.56-5.76-9.67-13.27-18.16-22.1-25.07-6.51-4.01-12.35-5.23-20.63-4.48Z"/><path class="cls-3" d="M975.48,1197.62v-523.48c0-16.82-4.64-32.58-12.68-46.08-8.24-10.81-18.09-18.03-30.48-22.56,21.82,15.04,36.16,40.2,36.16,68.65v523.48h7Z"/><path class="cls-39" d="M427.37,598.51c-4.29,1.99-8.38,4.32-12.24,6.99-12.39,4.53-22.24,11.75-30.48,22.56,5.76-9.67,13.27-18.16,22.1-25.07,6.51-4.01,12.35-5.23,20.63-4.48Z"/><path class="cls-3" d="M371.96,1195.94v-521.8c0-16.82,4.64-32.58,12.68-46.08,8.24-10.81,18.09-18.03,30.48-22.56-21.82,15.04-36.16,40.2-36.16,68.65v521.8h-7Z"/><path class="cls-24" d="M885.15,583.82h-422.87c-20.94,0-40.22,7.18-55.55,19.18,6.51-4.01,12.35-5.23,20.63-4.48,10.63-4.93,22.46-7.7,34.92-7.7h422.87c12.47,0,24.29,2.77,34.92,7.7,8.27-.75,14.12.47,20.63,4.48-15.33-12-34.61-19.18-55.55-19.18Z"/><path d="M974.85,1004.4v-136.24c0-1.71.29-4.86,3.1-6.63v148.29c-3.46-1.67-3.1-4.53-3.1-5.42Z"/><path class="cls-35" d="M886.8,1801.68h-424.91c-44.93,0-81.35-36.42-81.35-81.35V673.2c0-44.58,36.14-80.72,80.72-80.72h424.24c44.98,0,81.45,36.47,81.45,81.45v1047.61c0,44.27-35.88,80.15-80.15,80.15ZM460.78,595.27c-42.77,0-77.44,34.67-77.44,77.44v1047.62c0,43.38,35.17,78.55,78.55,78.55h424.91c42.72,0,77.35-34.63,77.35-77.35V673.92c0-43.44-35.21-78.65-78.65-78.65h-424.72Z"/><path class="cls-24" d="M962.57,680.63c0-44.74-21.25-66.95-44.86-77.01,6.32,12.95,33.88,24.16,33.88,76.66v1033.12c0,52.5-27.56,63.71-33.88,76.66,23.61-10.06,44.86-32.27,44.86-77.01l.66-516.21-.66-516.21Z"/><path class="cls-24" d="M386.47,680.63c0-44.74,21.25-66.95,44.86-77.01-6.32,12.95-33.88,24.16-33.88,76.66v1033.12c0,52.5,27.56,63.71,33.88,76.66-23.61-10.06-44.86-32.27-44.86-77.01l-.66-516.21.66-516.21Z"/><path class="cls-23" d="M882.78,597.24h-419.88c-13.11,0-25.5,3.14-36.47,8.68l2.7,5.58c9.43-3.68,21.94-6.21,33.77-6.21h419.88c11.83,0,23.28,2.58,33.12,7.12l3.29-6.95c-10.92-5.07-23.3-8.21-36.42-8.21Z"/><path class="cls-19" d="M887.26,617.92h-57.06c-3.97,0-7.18,3.22-7.18,7.18v5.88c0,9.99-9.08,29.3-29.98,29.3h-237.53c-23.47,0-31.04-20.38-31.04-28.7v-6.48c0-3.97-3.22-7.18-7.18-7.18h-57.88c-29.48,0-53.39,23.9-53.39,53.39v1051.23c0,29.48,23.9,53.39,53.39,53.39h427.87c29.48,0,53.39-23.9,53.39-53.39V671.31c0-29.48-23.9-53.39-53.39-53.39Z"/><path class="cls-36" d="M711.4,628.98c-.14-.43-.35-.8-.61-1.15l-.27.27.88.88Z"/><polygon class="cls-36" points="650.32 632.22 649.19 633.35 650.06 634.22 650.58 634.22 651.45 633.35 650.32 632.22"/><polygon class="cls-36" points="648.32 634.22 648.82 634.22 648.57 633.97 648.32 634.22"/><rect class="cls-36" x="703.84" y="630.8" width="1.6" height="1.6" transform="translate(-240.23 683.1) rotate(-44.99)"/><rect class="cls-36" x="700.34" y="630.8" width="1.6" height="1.6" transform="translate(-241.25 680.77) rotate(-45)"/><rect class="cls-36" x="677.56" y="629.05" width="1.6" height="1.6" transform="translate(-246.68 664.16) rotate(-45)"/><path class="cls-36" d="M710.2,627.17c-.4-.34-.86-.59-1.37-.76l1.07,1.07.31-.31Z"/><polygon class="cls-36" points="657.33 632.22 656.2 633.35 657.07 634.22 657.59 634.22 658.46 633.35 657.33 632.22"/><polygon class="cls-36" points="646.82 632.22 645.68 633.35 646.55 634.22 647.08 634.22 647.95 633.35 646.82 632.22"/><polygon class="cls-36" points="651.82 634.22 652.32 634.22 652.07 633.97 651.82 634.22"/><path class="cls-36" d="M707.97,634.15c.1,0,.2-.04.3-.06l-.12-.12-.18.18Z"/><polygon class="cls-36" points="706.39 632.22 705.26 633.35 706.13 634.22 706.66 634.22 707.53 633.35 706.39 632.22"/><polygon class="cls-36" points="655.33 634.22 655.83 634.22 655.58 633.97 655.33 634.22"/><path class="cls-36" d="M711.07,632.15c.28-.49.46-1.02.51-1.61l-1.06,1.06.55.55Z"/><path class="cls-36" d="M708.77,633.35l.5.5c.5-.23.93-.56,1.3-.96l-.67-.67-1.13,1.13Z"/><polygon class="cls-36" points="653.82 632.22 652.69 633.35 653.56 634.22 654.09 634.22 654.96 633.35 653.82 632.22"/><rect class="cls-36" x="681.06" y="629.05" width="1.6" height="1.6" transform="translate(-245.66 666.63) rotate(-45)"/><polygon class="cls-36" points="695.88 627.48 697.01 626.34 696.84 626.17 694.93 626.17 694.75 626.35 695.88 627.48"/><rect class="cls-36" x="686.32" y="630.8" width="1.6" height="1.6" transform="translate(-245.36 670.86) rotate(-45)"/><rect class="cls-36" x="670.55" y="629.05" width="1.6" height="1.6" transform="translate(-248.74 659.19) rotate(-45)"/><path class="cls-36" d="M639.81,632.22l-1.13,1.13.81.81c.1,0,.18.06.29.06h.3l.87-.87-1.13-1.13Z"/><rect class="cls-36" x="689.82" y="630.8" width="1.6" height="1.6" transform="translate(-244.33 673.34) rotate(-45)"/><rect class="cls-36" x="682.81" y="630.8" width="1.6" height="1.6" transform="translate(-246.38 668.52) rotate(-45.01)"/><polygon class="cls-36" points="706.39 627.48 707.53 626.35 707.35 626.17 705.44 626.17 705.26 626.34 706.39 627.48"/><rect class="cls-36" x="637.25" y="630.8" width="1.6" height="1.6" transform="translate(-259.73 636.16) rotate(-45)"/><polygon class="cls-36" points="692.38 627.48 693.51 626.35 693.33 626.17 691.42 626.17 691.24 626.35 692.38 627.48"/><polygon class="cls-36" points="643.31 632.22 642.18 633.35 643.05 634.22 643.58 634.22 644.45 633.35 643.31 632.22"/><rect class="cls-36" x="696.83" y="630.8" width="1.6" height="1.6" transform="translate(-242.28 678.29) rotate(-45)"/><polygon class="cls-36" points="702.89 627.48 704.02 626.35 703.84 626.17 701.94 626.17 701.76 626.34 702.89 627.48"/><rect class="cls-36" x="674.05" y="629.05" width="1.6" height="1.6" transform="translate(-247.71 661.67) rotate(-45)"/><polygon class="cls-36" points="644.81 634.22 645.31 634.22 645.06 633.97 644.81 634.22"/><rect class="cls-36" x="693.33" y="630.8" width="1.6" height="1.6" transform="translate(-243.3 675.83) rotate(-45)"/><polygon class="cls-36" points="699.39 627.48 700.52 626.35 700.34 626.17 698.43 626.17 698.25 626.34 699.39 627.48"/><polygon class="cls-36" points="641.31 634.22 641.81 634.22 641.56 633.97 641.31 634.22"/><polygon class="cls-36" points="700.89 634.22 701.39 634.22 701.14 633.97 700.89 634.22"/><polygon class="cls-36" points="685.37 632.22 684.23 633.35 685.1 634.22 685.63 634.22 686.5 633.35 685.37 632.22"/><rect class="cls-36" x="695.08" y="629.05" width="1.6" height="1.6" transform="translate(-241.55 676.53) rotate(-45)"/><polygon class="cls-36" points="669.35 634.22 669.85 634.22 669.6 633.97 669.35 634.22"/><polygon class="cls-36" points="683.36 634.22 683.87 634.22 683.61 633.97 683.36 634.22"/><rect class="cls-36" x="688.07" y="629.05" width="1.6" height="1.6" transform="translate(-243.6 671.58) rotate(-45)"/><polygon class="cls-36" points="688.87 632.22 687.74 633.35 688.61 634.22 689.14 634.22 690.01 633.35 688.87 632.22"/><polygon class="cls-36" points="686.87 634.22 687.37 634.22 687.12 633.97 686.87 634.22"/><polygon class="cls-36" points="704.39 634.22 704.89 634.22 704.64 633.97 704.39 634.22"/><polygon class="cls-36" points="674.85 632.22 673.72 633.35 674.59 634.22 675.12 634.22 675.99 633.35 674.85 632.22"/><rect class="cls-36" x="698.58" y="629.05" width="1.6" height="1.6" transform="translate(-240.53 679.02) rotate(-45)"/><polygon class="cls-36" points="676.35 634.22 676.86 634.22 676.61 633.97 676.35 634.22"/><polygon class="cls-36" points="678.36 632.22 677.22 633.35 678.09 634.22 678.62 634.22 679.49 633.35 678.36 632.22"/><rect class="cls-36" x="691.57" y="629.05" width="1.6" height="1.6" transform="translate(-242.57 674.2) rotate(-45.01)"/><polygon class="cls-36" points="671.35 632.22 670.21 633.35 671.08 634.22 671.61 634.22 672.48 633.35 671.35 632.22"/><polygon class="cls-36" points="681.86 632.22 680.73 633.35 681.6 634.22 682.13 634.22 683 633.35 681.86 632.22"/><polygon class="cls-36" points="679.86 634.22 680.36 634.22 680.11 633.97 679.86 634.22"/><polygon class="cls-36" points="667.84 632.22 666.71 633.35 667.58 634.22 668.11 634.22 668.98 633.35 667.84 632.22"/><polygon class="cls-36" points="660.83 632.22 659.7 633.35 660.57 634.22 661.1 634.22 661.97 633.35 660.83 632.22"/><polygon class="cls-36" points="699.39 632.22 698.25 633.35 699.12 634.22 699.65 634.22 700.52 633.35 699.39 632.22"/><polygon class="cls-36" points="688.87 627.48 690.01 626.35 689.83 626.17 687.92 626.17 687.74 626.34 688.87 627.48"/><rect class="cls-36" x="684.56" y="629.05" width="1.6" height="1.6" transform="translate(-244.63 669.11) rotate(-45)"/><polygon class="cls-36" points="690.37 634.22 690.87 634.22 690.62 633.97 690.37 634.22"/><rect class="cls-36" x="705.59" y="629.05" width="1.6" height="1.6" transform="translate(-238.46 684.27) rotate(-45.02)"/><polygon class="cls-36" points="702.89 632.22 701.76 633.35 702.63 634.22 703.15 634.22 704.02 633.35 702.89 632.22"/><polygon class="cls-36" points="697.38 634.22 697.88 634.22 697.63 633.97 697.38 634.22"/><polygon class="cls-36" points="658.83 634.22 659.33 634.22 659.08 633.97 658.83 634.22"/><polygon class="cls-36" points="692.38 632.22 691.24 633.35 692.11 634.22 692.64 634.22 693.51 633.35 692.38 632.22"/><polygon class="cls-36" points="664.34 632.22 663.2 633.35 664.07 634.22 664.6 634.22 665.47 633.35 664.34 632.22"/><polygon class="cls-36" points="665.84 634.22 666.34 634.22 666.09 633.97 665.84 634.22"/><polygon class="cls-36" points="662.34 634.22 662.84 634.22 662.59 633.97 662.34 634.22"/><polygon class="cls-36" points="695.88 632.22 694.75 633.35 695.62 634.22 696.15 634.22 697.01 633.35 695.88 632.22"/><rect class="cls-36" x="702.09" y="629.05" width="1.6" height="1.6" transform="translate(-239.5 681.5) rotate(-45)"/><polygon class="cls-36" points="693.88 634.22 694.38 634.22 694.13 633.97 693.88 634.22"/><polygon class="cls-36" points="672.85 634.22 673.35 634.22 673.1 633.97 672.85 634.22"/><rect class="cls-36" x="639" y="629.05" width="1.6" height="1.6" transform="translate(-257.97 637.03) rotate(-45.01)"/><rect class="cls-36" x="644.26" y="630.8" width="1.6" height="1.6" transform="translate(-257.68 641.11) rotate(-45)"/><rect class="cls-36" x="679.31" y="627.3" width="1.6" height="1.6" transform="translate(-244.93 665.03) rotate(-45.01)"/><polygon class="cls-36" points="653.82 627.48 654.96 626.35 654.78 626.17 652.87 626.17 652.69 626.35 653.82 627.48"/><rect class="cls-36" x="675.8" y="627.3" width="1.6" height="1.6" transform="translate(-245.95 662.55) rotate(-45.01)"/><polygon class="cls-36" points="646.82 627.48 647.95 626.34 647.77 626.17 645.86 626.17 645.68 626.35 646.82 627.48"/><rect class="cls-36" x="672.3" y="627.3" width="1.6" height="1.6" transform="translate(-246.99 659.92) rotate(-45)"/><rect class="cls-36" x="640.76" y="630.8" width="1.6" height="1.6" transform="translate(-258.7 638.64) rotate(-45)"/><polygon class="cls-36" points="650.32 627.48 651.45 626.35 651.27 626.17 649.37 626.17 649.19 626.34 650.32 627.48"/><rect class="cls-36" x="642.51" y="629.05" width="1.6" height="1.6" transform="translate(-256.95 639.37) rotate(-45)"/><polygon class="cls-36" points="660.83 627.48 661.97 626.35 661.79 626.17 659.88 626.17 659.7 626.34 660.83 627.48"/><rect class="cls-36" x="665.29" y="627.3" width="1.6" height="1.6" transform="translate(-249.04 654.96) rotate(-45)"/><rect class="cls-36" x="651.27" y="630.8" width="1.6" height="1.6" transform="translate(-255.62 646.08) rotate(-45)"/><polygon class="cls-36" points="657.33 627.48 658.46 626.34 658.28 626.17 656.38 626.17 656.2 626.35 657.33 627.48"/><rect class="cls-36" x="668.79" y="627.29" width="1.6" height="1.6" transform="translate(-248.01 657.58) rotate(-45.01)"/><rect class="cls-36" x="647.77" y="630.8" width="1.6" height="1.6" transform="translate(-256.65 643.46) rotate(-44.99)"/><rect class="cls-36" x="696.83" y="627.29" width="1.6" height="1.6" transform="translate(-239.8 677.27) rotate(-45)"/><rect class="cls-36" x="709.1" y="629.05" width="1.6" height="1.6" transform="translate(-237.45 686.45) rotate(-45)"/><path class="cls-36" d="M637.44,629.85l-1.13-1.13-.33.33c-.11.37-.23.74-.23,1.15,0,.1.05.19.06.29l.5.5,1.13-1.13Z"/><rect class="cls-36" x="703.84" y="627.29" width="1.6" height="1.6" transform="translate(-237.75 682.22) rotate(-45)"/><rect class="cls-36" x="707.35" y="627.3" width="1.6" height="1.6" transform="translate(-236.71 684.85) rotate(-45.01)"/><rect class="cls-36" x="707.35" y="630.8" width="1.6" height="1.6" transform="translate(-239.19 685.85) rotate(-45.01)"/><path class="cls-36" d="M636.51,632.43c.25.37.55.68.9.94l.02-.02-.92-.92Z"/><rect class="cls-36" x="682.81" y="627.3" width="1.6" height="1.6" transform="translate(-243.9 667.5) rotate(-45.01)"/><rect class="cls-36" x="700.34" y="627.3" width="1.6" height="1.6" transform="translate(-238.77 679.74) rotate(-45)"/><polygon class="cls-36" points="643.31 627.48 644.45 626.35 644.26 626.17 642.36 626.17 642.18 626.34 643.31 627.48"/><rect class="cls-36" x="689.82" y="627.3" width="1.6" height="1.6" transform="translate(-241.85 672.31) rotate(-45)"/><rect class="cls-36" x="686.32" y="627.29" width="1.6" height="1.6" transform="translate(-242.87 669.98) rotate(-45.01)"/><rect class="cls-36" x="654.78" y="630.8" width="1.6" height="1.6" transform="translate(-254.6 648.55) rotate(-45)"/><rect class="cls-36" x="693.33" y="627.3" width="1.6" height="1.6" transform="translate(-240.82 674.92) rotate(-45.01)"/><path class="cls-36" d="M640.94,626.34l-.18-.18h-.99c-.38,0-.72.12-1.06.22l1.1,1.1,1.13-1.13Z"/><polygon class="cls-36" points="674.85 627.48 675.99 626.34 675.81 626.17 673.9 626.17 673.72 626.35 674.85 627.48"/><rect class="cls-36" x="647.77" y="627.3" width="1.6" height="1.6" transform="translate(-254.17 642.57) rotate(-45)"/><rect class="cls-36" x="672.3" y="630.8" width="1.6" height="1.6" transform="translate(-249.46 660.95) rotate(-45)"/><rect class="cls-36" x="663.54" y="629.05" width="1.6" height="1.6" transform="translate(-250.79 654.24) rotate(-45)"/><rect class="cls-36" x="651.27" y="627.3" width="1.6" height="1.6" transform="translate(-253.14 645.05) rotate(-45)"/><rect class="cls-36" x="668.79" y="630.8" width="1.6" height="1.6" transform="translate(-250.49 658.33) rotate(-44.99)"/><polygon class="cls-36" points="681.86 627.48 683 626.35 682.82 626.17 680.91 626.17 680.73 626.35 681.86 627.48"/><polygon class="cls-36" points="678.36 627.48 679.49 626.35 679.31 626.17 677.4 626.17 677.22 626.34 678.36 627.48"/><rect class="cls-36" x="660.03" y="629.05" width="1.6" height="1.6" transform="translate(-251.82 651.76) rotate(-45)"/><rect class="cls-36" x="644.26" y="627.3" width="1.6" height="1.6" transform="translate(-255.2 640.09) rotate(-45)"/><rect class="cls-36" x="640.76" y="627.29" width="1.6" height="1.6" transform="translate(-256.22 637.62) rotate(-45)"/><rect class="cls-36" x="637.25" y="627.3" width="1.6" height="1.6" transform="translate(-257.25 635.28) rotate(-45.01)"/><rect class="cls-36" x="679.31" y="630.8" width="1.6" height="1.6" transform="translate(-247.41 665.9) rotate(-45)"/><rect class="cls-36" x="675.8" y="630.8" width="1.6" height="1.6" transform="translate(-248.44 663.42) rotate(-45)"/><polygon class="cls-36" points="685.37 627.48 686.5 626.34 686.32 626.17 684.41 626.17 684.23 626.35 685.37 627.48"/><rect class="cls-36" x="667.04" y="629.05" width="1.6" height="1.6" transform="translate(-249.76 656.72) rotate(-45)"/><rect class="cls-36" x="661.79" y="627.3" width="1.6" height="1.6" transform="translate(-250.06 652.63) rotate(-45.01)"/><rect class="cls-36" x="653.02" y="629.05" width="1.6" height="1.6" transform="translate(-253.87 646.8) rotate(-45)"/><polygon class="cls-36" points="671.35 627.48 672.48 626.35 672.3 626.17 670.39 626.17 670.21 626.34 671.35 627.48"/><polygon class="cls-36" points="667.84 627.48 668.98 626.34 668.8 626.17 666.89 626.17 666.71 626.35 667.84 627.48"/><rect class="cls-36" x="658.28" y="627.29" width="1.6" height="1.6" transform="translate(-251.09 650.15) rotate(-45.01)"/><rect class="cls-36" x="649.52" y="629.05" width="1.6" height="1.6" transform="translate(-254.9 644.31) rotate(-45)"/><rect class="cls-36" x="654.78" y="627.3" width="1.6" height="1.6" transform="translate(-252.11 647.67) rotate(-45.01)"/><rect class="cls-36" x="661.78" y="630.8" width="1.6" height="1.6" transform="translate(-252.54 653.51) rotate(-45)"/><rect class="cls-36" x="656.53" y="629.05" width="1.6" height="1.6" transform="translate(-252.85 649.14) rotate(-44.99)"/><rect class="cls-36" x="646.01" y="629.05" width="1.6" height="1.6" transform="translate(-255.92 641.86) rotate(-45)"/><polygon class="cls-36" points="664.34 627.48 665.47 626.35 665.29 626.17 663.38 626.17 663.2 626.35 664.34 627.48"/><rect class="cls-36" x="665.29" y="630.8" width="1.6" height="1.6" transform="translate(-251.52 655.99) rotate(-45)"/><rect class="cls-36" x="658.28" y="630.8" width="1.6" height="1.6" transform="translate(-253.57 651.02) rotate(-45)"/><path class="cls-21" d="M638.05,632.74l-1.13-1.13-.58.58c.05.09.11.17.17.25l.92.92.62-.62Z"/><path class="cls-21" d="M635.8,630.48c.02.29.09.56.17.84l.33-.33-.5-.5Z"/><path class="cls-21" d="M638.16,633.87c.41.18.86.26,1.33.29l-.81-.81-.52.52Z"/><polygon class="cls-21" points="641.56 633.97 641.81 634.22 643.05 634.22 642.18 633.35 641.56 633.97"/><rect class="cls-21" x="640.25" y="631.68" width=".87" height="1.6" transform="translate(-259.58 638.28) rotate(-45)"/><rect class="cls-21" x="636.74" y="628.17" width=".87" height="1.6" transform="translate(-258.13 634.52) rotate(-44.98)"/><rect class="cls-21" x="638.49" y="629.92" width=".87" height="1.6" transform="translate(-258.85 636.78) rotate(-45.02)"/><rect class="cls-21" x="640.25" y="628.17" width=".87" height="1.6" transform="translate(-257.1 637.11) rotate(-44.99)"/><rect class="cls-21" x="643.75" y="631.68" width=".87" height="1.6" transform="translate(-258.55 640.99) rotate(-45.02)"/><polygon class="cls-21" points="645.06 633.97 645.31 634.22 646.55 634.22 645.68 633.35 645.06 633.97"/><rect class="cls-21" x="642" y="629.92" width=".87" height="1.6" transform="translate(-257.82 639.14) rotate(-45.01)"/><path class="cls-21" d="M639.19,628.1l.62-.62-1.1-1.1s-.06,0-.09.02l-.56.56,1.13,1.13Z"/><polygon class="cls-21" points="648.57 633.97 648.82 634.22 650.06 634.22 649.19 633.35 648.57 633.97"/><rect class="cls-21" x="643.75" y="628.17" width=".87" height="1.6" transform="translate(-256.07 639.72) rotate(-45)"/><rect class="cls-21" x="647.25" y="631.68" width=".87" height="1.6" transform="translate(-257.53 643.24) rotate(-45)"/><rect class="cls-21" x="645.5" y="629.92" width=".87" height="1.6" transform="translate(-256.8 641.48) rotate(-45)"/><rect class="cls-21" x="642" y="626.42" width=".87" height="1.6" transform="translate(-255.35 637.98) rotate(-45)"/><polygon class="cls-21" points="641.12 626.17 640.76 626.17 640.94 626.34 641.12 626.17"/><polygon class="cls-21" points="652.07 633.97 652.32 634.22 653.56 634.22 652.69 633.35 652.07 633.97"/><rect class="cls-21" x="645.5" y="626.42" width=".87" height="1.6" transform="translate(-254.32 640.46) rotate(-45)"/><rect class="cls-21" x="650.76" y="631.68" width=".87" height="1.6" transform="translate(-256.5 645.71) rotate(-45)"/><rect class="cls-21" x="647.25" y="628.17" width=".87" height="1.6" transform="translate(-255.05 642.07) rotate(-44.99)"/><rect class="cls-21" x="649.01" y="629.92" width=".87" height="1.6" transform="translate(-255.77 644.1) rotate(-45.01)"/><polygon class="cls-21" points="644.62 626.17 644.26 626.17 644.45 626.35 644.62 626.17"/><rect class="cls-21" x="649.01" y="626.42" width=".87" height="1.6" transform="translate(-253.3 642.8) rotate(-44.99)"/><rect class="cls-21" x="654.26" y="631.68" width=".87" height="1.6" transform="translate(-255.48 647.89) rotate(-44.98)"/><rect class="cls-21" x="652.51" y="629.92" width=".87" height="1.6" transform="translate(-254.75 646.44) rotate(-45)"/><polygon class="cls-21" points="655.58 633.97 655.83 634.22 657.07 634.22 656.2 633.35 655.58 633.97"/><polygon class="cls-21" points="648.13 626.17 647.77 626.17 647.95 626.34 648.13 626.17"/><rect class="cls-21" x="650.76" y="628.17" width=".87" height="1.6" transform="translate(-254.02 644.55) rotate(-44.99)"/><rect class="cls-21" x="652.51" y="626.42" width=".87" height="1.6" transform="translate(-252.27 645.44) rotate(-45)"/><rect class="cls-21" x="657.77" y="631.68" width=".87" height="1.6" transform="translate(-254.45 650.65) rotate(-45)"/><polygon class="cls-21" points="651.63 626.17 651.27 626.17 651.45 626.35 651.63 626.17"/><rect class="cls-21" x="656.02" y="629.92" width=".87" height="1.6" transform="translate(-253.72 648.92) rotate(-45)"/><rect class="cls-21" x="654.26" y="628.17" width=".87" height="1.6" transform="translate(-252.99 647.17) rotate(-45)"/><polygon class="cls-21" points="659.08 633.97 659.33 634.22 660.57 634.22 659.7 633.35 659.08 633.97"/><rect class="cls-21" x="659.52" y="629.92" width=".87" height="1.6" transform="translate(-252.69 651.4) rotate(-45)"/><rect class="cls-21" x="656.02" y="626.42" width=".87" height="1.6" transform="translate(-251.24 647.75) rotate(-44.99)"/><rect class="cls-21" x="661.27" y="631.68" width=".87" height="1.6" transform="translate(-253.41 653.41) rotate(-45.02)"/><polygon class="cls-21" points="662.59 633.97 662.84 634.22 664.07 634.22 663.2 633.35 662.59 633.97"/><polygon class="cls-21" points="655.14 626.17 654.78 626.17 654.96 626.35 655.14 626.17"/><rect class="cls-21" x="657.77" y="628.17" width=".87" height="1.6" transform="translate(-251.97 649.49) rotate(-44.99)"/><rect class="cls-21" x="664.78" y="631.68" width=".87" height="1.6" transform="translate(-252.4 655.32) rotate(-44.98)"/><rect class="cls-21" x="663.03" y="629.92" width=".87" height="1.6" transform="translate(-251.67 653.73) rotate(-44.99)"/><polygon class="cls-21" points="666.09 633.97 666.34 634.22 667.58 634.22 666.71 633.35 666.09 633.97"/><polygon class="cls-21" points="658.64 626.17 658.28 626.17 658.46 626.34 658.64 626.17"/><rect class="cls-21" x="659.52" y="626.42" width=".87" height="1.6" transform="translate(-250.21 650.36) rotate(-45)"/><rect class="cls-21" x="661.27" y="628.17" width=".87" height="1.6" transform="translate(-250.94 652.12) rotate(-45)"/><rect class="cls-21" x="664.78" y="628.17" width=".87" height="1.6" transform="translate(-249.92 654.46) rotate(-44.99)"/><rect class="cls-21" x="666.53" y="629.92" width=".87" height="1.6" transform="translate(-250.64 656.49) rotate(-45.01)"/><polygon class="cls-21" points="662.15 626.17 661.79 626.17 661.97 626.35 662.15 626.17"/><rect class="cls-21" x="663.03" y="626.42" width=".87" height="1.6" transform="translate(-249.19 652.87) rotate(-45)"/><polygon class="cls-21" points="669.6 633.97 669.85 634.22 671.08 634.22 670.21 633.35 669.6 633.97"/><rect class="cls-21" x="668.28" y="631.68" width=".87" height="1.6" transform="translate(-251.37 658.1) rotate(-45)"/><polygon class="cls-21" points="665.65 626.17 665.29 626.17 665.47 626.35 665.65 626.17"/><rect class="cls-21" x="668.28" y="628.17" width=".87" height="1.6" transform="translate(-248.89 656.94) rotate(-44.99)"/><rect class="cls-21" x="670.03" y="629.92" width=".87" height="1.6" transform="translate(-249.61 658.83) rotate(-45)"/><polygon class="cls-21" points="673.1 633.97 673.35 634.22 674.59 634.22 673.72 633.35 673.1 633.97"/><rect class="cls-21" x="666.53" y="626.42" width=".87" height="1.6" transform="translate(-248.16 655.33) rotate(-45)"/><rect class="cls-21" x="671.79" y="631.68" width=".87" height="1.6" transform="translate(-250.33 660.84) rotate(-45.02)"/><polygon class="cls-21" points="676.61 633.97 676.86 634.22 678.09 634.22 677.22 633.35 676.61 633.97"/><rect class="cls-21" x="673.54" y="629.92" width=".87" height="1.6" transform="translate(-248.59 661.31) rotate(-45)"/><polygon class="cls-21" points="669.16 626.17 668.8 626.17 668.98 626.34 669.16 626.17"/><rect class="cls-21" x="671.79" y="628.17" width=".87" height="1.6" transform="translate(-247.86 659.56) rotate(-45)"/><rect class="cls-21" x="670.03" y="626.42" width=".87" height="1.6" transform="translate(-247.14 657.8) rotate(-45)"/><rect class="cls-21" x="675.29" y="631.68" width=".87" height="1.6" transform="translate(-249.3 663.32) rotate(-45.02)"/><polygon class="cls-21" points="680.11 633.97 680.36 634.22 681.6 634.22 680.73 633.35 680.11 633.97"/><polygon class="cls-21" points="672.66 626.17 672.3 626.17 672.48 626.35 672.66 626.17"/><rect class="cls-21" x="675.29" y="628.17" width=".87" height="1.6" transform="translate(-246.83 662.05) rotate(-45)"/><rect class="cls-21" x="677.04" y="629.92" width=".87" height="1.6" transform="translate(-247.56 663.78) rotate(-45)"/><rect class="cls-21" x="678.8" y="631.68" width=".87" height="1.6" transform="translate(-248.28 665.82) rotate(-45.02)"/><rect class="cls-21" x="673.54" y="626.42" width=".87" height="1.6" transform="translate(-246.11 660.28) rotate(-45)"/><polygon class="cls-21" points="683.61 633.97 683.87 634.22 685.1 634.22 684.23 633.35 683.61 633.97"/><polygon class="cls-21" points="676.17 626.17 675.81 626.17 675.99 626.34 676.17 626.17"/><rect class="cls-21" x="677.04" y="626.42" width=".87" height="1.6" transform="translate(-245.08 662.77) rotate(-45)"/><rect class="cls-21" x="680.55" y="629.92" width=".87" height="1.6" transform="translate(-246.54 666.11) rotate(-44.99)"/><rect class="cls-21" x="682.3" y="631.68" width=".87" height="1.6" transform="translate(-247.26 667.97) rotate(-45)"/><rect class="cls-21" x="678.8" y="628.17" width=".87" height="1.6" transform="translate(-245.81 664.52) rotate(-45)"/><rect class="cls-21" x="680.55" y="626.42" width=".87" height="1.6" transform="translate(-244.06 665.27) rotate(-45)"/><rect class="cls-21" x="685.81" y="631.68" width=".87" height="1.6" transform="translate(-246.23 670.5) rotate(-45)"/><polygon class="cls-21" points="687.12 633.97 687.37 634.22 688.61 634.22 687.74 633.35 687.12 633.97"/><polygon class="cls-21" points="679.67 626.17 679.31 626.17 679.49 626.35 679.67 626.17"/><rect class="cls-21" x="684.05" y="629.92" width=".87" height="1.6" transform="translate(-245.51 668.74) rotate(-45)"/><rect class="cls-21" x="682.3" y="628.17" width=".87" height="1.6" transform="translate(-244.78 666.99) rotate(-45)"/><rect class="cls-21" x="684.05" y="626.42" width=".87" height="1.6" transform="translate(-243.03 667.72) rotate(-45)"/><polygon class="cls-21" points="683.18 626.17 682.82 626.17 683 626.35 683.18 626.17"/><rect class="cls-21" x="689.31" y="631.68" width=".87" height="1.6" transform="translate(-245.2 673.24) rotate(-45.02)"/><rect class="cls-21" x="685.81" y="628.17" width=".87" height="1.6" transform="translate(-243.76 669.33) rotate(-44.99)"/><rect class="cls-21" x="687.56" y="629.92" width=".87" height="1.6" transform="translate(-244.48 671.22) rotate(-45)"/><polygon class="cls-21" points="690.62 633.97 690.87 634.22 692.11 634.22 691.24 633.35 690.62 633.97"/><rect class="cls-21" x="692.82" y="631.68" width=".87" height="1.6" transform="translate(-244.18 675.4) rotate(-45)"/><rect class="cls-21" x="689.31" y="628.17" width=".87" height="1.6" transform="translate(-242.74 671.8) rotate(-44.99)"/><polygon class="cls-21" points="694.13 633.97 694.38 634.22 695.62 634.22 694.75 633.35 694.13 633.97"/><rect class="cls-21" x="687.56" y="626.42" width=".87" height="1.6" transform="translate(-242 670.34) rotate(-45.01)"/><rect class="cls-21" x="691.06" y="629.92" width=".87" height="1.6" transform="translate(-243.45 673.7) rotate(-45)"/><polygon class="cls-21" points="686.68 626.17 686.32 626.17 686.5 626.34 686.68 626.17"/><rect class="cls-21" x="691.06" y="626.42" width=".87" height="1.6" transform="translate(-240.97 672.84) rotate(-45.01)"/><polygon class="cls-21" points="697.63 633.97 697.88 634.22 699.12 634.22 698.25 633.35 697.63 633.97"/><polygon class="cls-21" points="690.19 626.17 689.83 626.17 690.01 626.35 690.19 626.17"/><rect class="cls-21" x="692.81" y="628.17" width=".87" height="1.6" transform="translate(-241.7 674.43) rotate(-45)"/><rect class="cls-21" x="696.32" y="631.68" width=".87" height="1.6" transform="translate(-243.14 678.2) rotate(-45.02)"/><rect class="cls-21" x="694.57" y="629.92" width=".87" height="1.6" transform="translate(-242.43 676.19) rotate(-45)"/><rect class="cls-21" x="696.32" y="628.17" width=".87" height="1.6" transform="translate(-240.68 676.76) rotate(-44.99)"/><rect class="cls-21" x="699.82" y="631.68" width=".87" height="1.6" transform="translate(-242.11 680.67) rotate(-45.02)"/><rect class="cls-21" x="694.57" y="626.42" width=".87" height="1.6" transform="translate(-239.95 675.15) rotate(-45)"/><polygon class="cls-21" points="701.14 633.97 701.39 634.22 702.63 634.22 701.76 633.35 701.14 633.97"/><polygon class="cls-21" points="693.69 626.17 693.33 626.17 693.51 626.35 693.69 626.17"/><rect class="cls-21" x="698.07" y="629.92" width=".87" height="1.6" transform="translate(-241.39 678.8) rotate(-45.01)"/><rect class="cls-21" x="698.07" y="626.42" width=".87" height="1.6" transform="translate(-238.92 677.77) rotate(-45.01)"/><rect class="cls-21" x="703.33" y="631.68" width=".87" height="1.6" transform="translate(-241.13 682.35) rotate(-44.97)"/><rect class="cls-21" x="701.58" y="629.92" width=".87" height="1.6" transform="translate(-240.38 681.13) rotate(-45)"/><polygon class="cls-21" points="697.19 626.17 696.84 626.17 697.01 626.34 697.19 626.17"/><polygon class="cls-21" points="704.64 633.97 704.89 634.22 706.13 634.22 705.26 633.35 704.64 633.97"/><rect class="cls-21" x="699.82" y="628.17" width=".87" height="1.6" transform="translate(-239.65 679.38) rotate(-45)"/><polygon class="cls-21" points="700.7 626.17 700.34 626.17 700.52 626.35 700.7 626.17"/><rect class="cls-21" x="701.58" y="626.42" width=".88" height="1.6" transform="translate(-237.89 680.25) rotate(-45.01)"/><rect class="cls-21" x="703.33" y="628.17" width=".88" height="1.6" transform="translate(-238.62 681.86) rotate(-45)"/><rect class="cls-21" x="706.83" y="631.68" width=".88" height="1.6" transform="translate(-240.07 685.36) rotate(-45)"/><path class="cls-21" d="M708.15,633.97l.12.12c.34-.06.69-.1,1-.24l-.5-.5-.62.62Z"/><rect class="cls-21" x="705.08" y="629.92" width=".88" height="1.6" transform="translate(-239.35 683.61) rotate(-45)"/><polygon class="cls-21" points="704.2 626.17 703.84 626.17 704.02 626.35 704.2 626.17"/><path class="cls-21" d="M709.9,632.22l.67.67c.2-.22.35-.48.5-.74l-.55-.55-.62.62Z"/><rect class="cls-21" x="705.08" y="626.42" width=".88" height="1.6" transform="translate(-236.88 682.43) rotate(-44.99)"/><rect class="cls-21" x="706.83" y="628.17" width=".88" height="1.6" transform="translate(-237.59 684.48) rotate(-45.01)"/><rect class="cls-21" x="708.58" y="629.92" width=".88" height="1.6" transform="translate(-238.33 685.94) rotate(-44.99)"/><path class="cls-21" d="M709.9,628.72l1.13,1.13.45-.45c-.03-.14-.04-.28-.08-.41l-.88-.88-.62.62Z"/><path class="cls-21" d="M709.28,628.1l.62-.62-1.07-1.07s-.07-.01-.11-.02l-.58.58,1.13,1.13Z"/><path class="cls-21" d="M707.69,626.18s-.05-.02-.07-.02h-.27l.18.18.16-.17Z"/><path class="cls-32" d="M638.05,626.96l-.23-.23c-.48.27-.88.63-1.21,1.06l.3.3,1.13-1.13Z"/><path class="cls-32" d="M636.12,628.54c-.07.16-.09.34-.15.51l.33-.33-.18-.18Z"/><path class="cls-32" d="M636.92,628.1l-.3-.3c-.18.24-.37.46-.5.74l.18.18.62-.62Z"/><path class="cls-32" d="M638.62,626.4c-.28.09-.54.2-.79.34l.23.23.56-.56Z"/><polygon class="cls-32" points="642.36 626.17 642 626.17 642.18 626.34 642.36 626.17"/><rect class="cls-32" x="638.13" y="628.54" width="1.6" height=".87" transform="translate(-257.61 636.01) rotate(-45)"/><rect class="cls-32" x="639.88" y="626.78" width="1.6" height=".87" transform="translate(-255.86 636.74) rotate(-45)"/><rect class="cls-32" x="636.38" y="630.29" width="1.6" height=".87" transform="translate(-259.37 635.29) rotate(-45)"/><path class="cls-32" d="M636.3,630.98l-.33.33c.09.31.21.59.37.86l.58-.58-.62-.62Z"/><rect class="cls-32" x="637.62" y="629.41" width=".87" height=".87" transform="translate(-258.49 635.65) rotate(-45)"/><rect class="cls-32" x="639.37" y="627.66" width=".87" height=".87" transform="translate(-256.73 636.63) rotate(-45.02)"/><polygon class="cls-32" points="641.56 626.96 642.18 626.34 642 626.17 641.12 626.17 640.94 626.34 641.56 626.96"/><rect class="cls-32" x="641.63" y="628.54" width="1.6" height=".87" transform="translate(-256.59 638.24) rotate(-44.98)"/><rect class="cls-32" x="639.88" y="630.29" width="1.6" height=".87" transform="translate(-258.34 637.63) rotate(-44.99)"/><polygon class="cls-32" points="645.86 626.17 645.5 626.17 645.68 626.35 645.86 626.17"/><rect class="cls-32" x="643.39" y="626.78" width="1.6" height=".87" transform="translate(-254.84 638.96) rotate(-44.98)"/><rect class="cls-32" x="638.13" y="632.04" width="1.6" height=".87" transform="translate(-260.09 636.79) rotate(-44.98)"/><path class="cls-32" d="M637.44,633.35l-.02.02s.08.05.12.08l-.1-.1Z"/><path class="cls-32" d="M638.05,632.74l-.62.62.1.1c.21.14.39.32.62.42l.52-.52-.62-.62Z"/><rect class="cls-32" x="639.37" y="631.16" width=".87" height=".87" transform="translate(-259.21 637.66) rotate(-45.02)"/><rect class="cls-32" x="641.12" y="629.41" width=".87" height=".87" transform="translate(-257.46 638.13) rotate(-45)"/><rect class="cls-32" x="642.87" y="627.66" width=".87" height=".87" transform="translate(-255.71 638.84) rotate(-45)"/><polygon class="cls-32" points="645.06 626.96 645.68 626.35 645.5 626.17 644.62 626.17 644.45 626.35 645.06 626.96"/><rect class="cls-32" x="645.14" y="628.54" width="1.6" height=".87" transform="translate(-255.56 641.24) rotate(-45.02)"/><rect class="cls-32" x="646.89" y="626.78" width="1.6" height=".87" transform="translate(-253.81 641.7) rotate(-45)"/><rect class="cls-32" x="641.63" y="632.04" width="1.6" height=".87" transform="translate(-259.06 639.52) rotate(-45)"/><polygon class="cls-32" points="640.94 633.35 640.07 634.22 641.31 634.22 641.56 633.97 640.94 633.35"/><polygon class="cls-32" points="649.37 626.17 649.01 626.17 649.19 626.34 649.37 626.17"/><rect class="cls-32" x="643.39" y="630.29" width="1.6" height=".87" transform="translate(-257.31 640.24) rotate(-45)"/><rect class="cls-32" x="641.12" y="632.92" width=".87" height=".87" transform="translate(-259.94 639.16) rotate(-45)"/><rect class="cls-32" x="642.87" y="631.16" width=".87" height=".87" transform="translate(-258.19 640.14) rotate(-45.02)"/><rect class="cls-32" x="644.63" y="629.41" width=".87" height=".87" transform="translate(-256.44 640.61) rotate(-45)"/><rect class="cls-32" x="646.38" y="627.66" width=".87" height=".87" transform="translate(-254.68 641.61) rotate(-45.02)"/><polygon class="cls-32" points="648.57 626.96 649.19 626.34 649.01 626.17 648.13 626.17 647.95 626.34 648.57 626.96"/><polygon class="cls-32" points="652.87 626.17 652.51 626.17 652.69 626.35 652.87 626.17"/><rect class="cls-32" x="645.14" y="632.04" width="1.6" height=".87" transform="translate(-258.04 642.25) rotate(-45.02)"/><rect class="cls-32" x="646.89" y="630.29" width="1.6" height=".87" transform="translate(-256.29 642.73) rotate(-45)"/><polygon class="cls-32" points="644.45 633.35 643.58 634.22 644.81 634.22 645.06 633.97 644.45 633.35"/><rect class="cls-32" x="650.39" y="626.78" width="1.6" height=".87" transform="translate(-252.78 644.17) rotate(-45)"/><rect class="cls-32" x="648.64" y="628.54" width="1.6" height=".87" transform="translate(-254.54 643.19) rotate(-44.98)"/><rect class="cls-32" x="644.63" y="632.92" width=".87" height=".87" transform="translate(-258.92 641.43) rotate(-44.99)"/><rect class="cls-32" x="646.38" y="631.16" width=".87" height=".87" transform="translate(-257.16 642.34) rotate(-45)"/><rect class="cls-32" x="648.13" y="629.41" width=".87" height=".87" transform="translate(-255.41 643.09) rotate(-45)"/><rect class="cls-32" x="649.88" y="627.66" width=".87" height=".87" transform="translate(-253.66 643.81) rotate(-45)"/><polygon class="cls-32" points="652.07 626.96 652.69 626.35 652.51 626.17 651.63 626.17 651.45 626.35 652.07 626.96"/><polygon class="cls-32" points="656.38 626.17 656.02 626.17 656.2 626.35 656.38 626.17"/><rect class="cls-32" x="650.39" y="630.29" width="1.6" height=".87" transform="translate(-255.26 645.19) rotate(-45)"/><rect class="cls-32" x="648.64" y="632.04" width="1.6" height=".87" transform="translate(-257.01 644.73) rotate(-45.02)"/><polygon class="cls-32" points="647.95 633.35 647.08 634.22 648.32 634.22 648.57 633.97 647.95 633.35"/><rect class="cls-32" x="652.15" y="628.54" width="1.6" height=".87" transform="translate(-253.51 645.93) rotate(-45)"/><rect class="cls-32" x="653.9" y="626.78" width="1.6" height=".87" transform="translate(-251.75 646.65) rotate(-45)"/><rect class="cls-32" x="648.13" y="632.92" width=".87" height=".87" transform="translate(-257.89 644.11) rotate(-45)"/><rect class="cls-32" x="649.88" y="631.16" width=".87" height=".87" transform="translate(-256.13 645.09) rotate(-45.02)"/><rect class="cls-32" x="651.64" y="629.41" width=".87" height=".87" transform="translate(-254.38 645.56) rotate(-45)"/><rect class="cls-32" x="653.39" y="627.66" width=".87" height=".87" transform="translate(-252.64 646.03) rotate(-44.98)"/><polygon class="cls-32" points="655.58 626.96 656.2 626.35 656.02 626.17 655.14 626.17 654.96 626.35 655.58 626.96"/><polygon class="cls-32" points="651.45 633.35 650.58 634.22 651.82 634.22 652.07 633.97 651.45 633.35"/><rect class="cls-32" x="652.15" y="632.04" width="1.6" height=".87" transform="translate(-255.99 646.95) rotate(-45)"/><polygon class="cls-32" points="659.88 626.17 659.52 626.17 659.7 626.34 659.88 626.17"/><rect class="cls-32" x="655.65" y="628.54" width="1.6" height=".87" transform="translate(-252.49 648.15) rotate(-44.98)"/><rect class="cls-32" x="653.9" y="630.29" width="1.6" height=".87" transform="translate(-254.23 647.68) rotate(-45)"/><rect class="cls-32" x="657.4" y="626.78" width="1.6" height=".87" transform="translate(-250.73 649.13) rotate(-45)"/><rect class="cls-32" x="651.64" y="632.92" width=".87" height=".87" transform="translate(-256.86 646.64) rotate(-45)"/><rect class="cls-32" x="653.39" y="631.16" width=".87" height=".87" transform="translate(-255.1 647.57) rotate(-45.02)"/><rect class="cls-32" x="655.14" y="629.41" width=".87" height=".87" transform="translate(-253.35 648.28) rotate(-45.02)"/><rect class="cls-32" x="656.89" y="627.66" width=".87" height=".87" transform="translate(-251.6 648.75) rotate(-45)"/><polygon class="cls-32" points="659.08 626.96 659.7 626.34 659.52 626.17 658.64 626.17 658.46 626.34 659.08 626.96"/><polygon class="cls-32" points="663.38 626.17 663.02 626.17 663.2 626.35 663.38 626.17"/><rect class="cls-32" x="659.16" y="628.54" width="1.6" height=".87" transform="translate(-251.45 650.88) rotate(-45)"/><rect class="cls-32" x="655.65" y="632.04" width="1.6" height=".87" transform="translate(-254.95 649.69) rotate(-45.02)"/><rect class="cls-32" x="660.91" y="626.78" width="1.6" height=".87" transform="translate(-249.71 651.35) rotate(-44.98)"/><polygon class="cls-32" points="654.96 633.35 654.09 634.22 655.33 634.22 655.58 633.97 654.96 633.35"/><rect class="cls-32" x="657.4" y="630.29" width="1.6" height=".87" transform="translate(-253.21 650.02) rotate(-44.99)"/><rect class="cls-32" x="655.14" y="632.92" width=".87" height=".87" transform="translate(-255.83 649.12) rotate(-45)"/><rect class="cls-32" x="656.89" y="631.16" width=".87" height=".87" transform="translate(-254.08 650.05) rotate(-45.02)"/><rect class="cls-32" x="658.64" y="629.41" width=".87" height=".87" transform="translate(-252.33 650.5) rotate(-45)"/><rect class="cls-32" x="660.4" y="627.66" width=".87" height=".87" transform="translate(-250.57 651.5) rotate(-45.02)"/><polygon class="cls-32" points="662.59 626.96 663.2 626.35 663.02 626.17 662.15 626.17 661.97 626.35 662.59 626.96"/><polygon class="cls-32" points="666.89 626.17 666.53 626.17 666.71 626.35 666.89 626.17"/><rect class="cls-32" x="660.91" y="630.29" width="1.6" height=".87" transform="translate(-252.18 652.64) rotate(-45)"/><rect class="cls-32" x="664.41" y="626.78" width="1.6" height=".87" transform="translate(-248.68 654.09) rotate(-45)"/><rect class="cls-32" x="662.66" y="628.54" width="1.6" height=".87" transform="translate(-250.42 653.62) rotate(-45.02)"/><rect class="cls-32" x="659.16" y="632.04" width="1.6" height=".87" transform="translate(-253.93 651.93) rotate(-45)"/><polygon class="cls-32" points="658.46 633.35 657.59 634.22 658.83 634.22 659.08 633.97 658.46 633.35"/><rect class="cls-32" x="658.64" y="632.92" width=".87" height=".87" transform="translate(-254.81 651.55) rotate(-45)"/><rect class="cls-32" x="660.4" y="631.16" width=".87" height=".87" transform="translate(-253.06 652.27) rotate(-45)"/><rect class="cls-32" x="662.15" y="629.41" width=".87" height=".87" transform="translate(-251.3 653.26) rotate(-45.02)"/><rect class="cls-32" x="663.9" y="627.66" width=".87" height=".87" transform="translate(-249.56 653.47) rotate(-44.98)"/><polygon class="cls-32" points="666.09 626.96 666.71 626.35 666.53 626.17 665.65 626.17 665.47 626.35 666.09 626.96"/><polygon class="cls-32" points="661.97 633.35 661.1 634.22 662.34 634.22 662.59 633.97 661.97 633.35"/><rect class="cls-32" x="662.66" y="632.04" width="1.6" height=".87" transform="translate(-252.9 654.65) rotate(-45.02)"/><rect class="cls-32" x="666.17" y="628.54" width="1.6" height=".87" transform="translate(-249.41 655.58) rotate(-44.98)"/><rect class="cls-32" x="667.92" y="626.78" width="1.6" height=".87" transform="translate(-247.66 656.31) rotate(-44.98)"/><rect class="cls-32" x="664.41" y="630.29" width="1.6" height=".87" transform="translate(-251.15 655.11) rotate(-45)"/><polygon class="cls-32" points="670.39 626.17 670.03 626.17 670.21 626.34 670.39 626.17"/><rect class="cls-32" x="662.15" y="632.92" width=".87" height=".87" transform="translate(-253.79 653.81) rotate(-44.99)"/><rect class="cls-32" x="663.9" y="631.16" width=".87" height=".87" transform="translate(-252.03 654.75) rotate(-45)"/><rect class="cls-32" x="665.65" y="629.41" width=".87" height=".87" transform="translate(-250.28 655.48) rotate(-45)"/><rect class="cls-32" x="667.41" y="627.66" width=".87" height=".87" transform="translate(-248.52 656.2) rotate(-45)"/><polygon class="cls-32" points="669.6 626.96 670.21 626.34 670.03 626.17 669.16 626.17 668.98 626.34 669.6 626.96"/><polygon class="cls-32" points="665.47 633.35 664.6 634.22 665.84 634.22 666.09 633.97 665.47 633.35"/><rect class="cls-32" x="666.17" y="632.04" width="1.6" height=".87" transform="translate(-251.88 656.87) rotate(-45)"/><rect class="cls-32" x="667.92" y="630.29" width="1.6" height=".87" transform="translate(-250.13 657.59) rotate(-45)"/><rect class="cls-32" x="669.67" y="628.54" width="1.6" height=".87" transform="translate(-248.38 658.06) rotate(-44.98)"/><rect class="cls-32" x="671.42" y="626.78" width="1.6" height=".87" transform="translate(-246.62 659.04) rotate(-45)"/><polygon class="cls-32" points="673.9 626.17 673.54 626.17 673.72 626.35 673.9 626.17"/><rect class="cls-32" x="665.65" y="632.92" width=".87" height=".87" transform="translate(-252.75 656.55) rotate(-45)"/><rect class="cls-32" x="667.41" y="631.16" width=".87" height=".87" transform="translate(-251 657.49) rotate(-45.02)"/><rect class="cls-32" x="669.16" y="629.41" width=".87" height=".87" transform="translate(-249.24 658.21) rotate(-45.02)"/><rect class="cls-32" x="670.91" y="627.66" width=".87" height=".87" transform="translate(-247.51 658.42) rotate(-44.98)"/><polygon class="cls-32" points="673.1 626.96 673.72 626.35 673.54 626.17 672.66 626.17 672.48 626.35 673.1 626.96"/><polygon class="cls-32" points="668.98 633.35 668.11 634.22 669.35 634.22 669.6 633.97 668.98 633.35"/><polygon class="cls-32" points="677.4 626.17 677.04 626.17 677.22 626.34 677.4 626.17"/><rect class="cls-32" x="671.42" y="630.29" width="1.6" height=".87" transform="translate(-249.1 660.07) rotate(-45)"/><rect class="cls-32" x="673.17" y="628.54" width="1.6" height=".87" transform="translate(-247.35 660.8) rotate(-45)"/><rect class="cls-32" x="669.67" y="632.04" width="1.6" height=".87" transform="translate(-250.85 659.6) rotate(-45.02)"/><rect class="cls-32" x="674.93" y="626.78" width="1.6" height=".87" transform="translate(-245.6 661.52) rotate(-45)"/><rect class="cls-32" x="669.16" y="632.92" width=".87" height=".87" transform="translate(-251.74 658.72) rotate(-44.98)"/><rect class="cls-32" x="670.91" y="631.16" width=".87" height=".87" transform="translate(-249.97 659.97) rotate(-45.02)"/><rect class="cls-32" x="672.66" y="629.41" width=".87" height=".87" transform="translate(-248.22 660.43) rotate(-45)"/><rect class="cls-32" x="674.42" y="627.66" width=".87" height=".87" transform="translate(-246.46 661.42) rotate(-45.02)"/><polygon class="cls-32" points="676.61 626.96 677.22 626.34 677.04 626.17 676.17 626.17 675.99 626.34 676.61 626.96"/><rect class="cls-32" x="673.18" y="632.04" width="1.6" height=".87" transform="translate(-249.82 662.08) rotate(-45.02)"/><rect class="cls-32" x="674.93" y="630.29" width="1.6" height=".87" transform="translate(-248.07 662.55) rotate(-45)"/><rect class="cls-32" x="676.68" y="628.54" width="1.6" height=".87" transform="translate(-246.32 663.29) rotate(-45)"/><polygon class="cls-32" points="672.48 633.35 671.61 634.22 672.85 634.22 673.1 633.97 672.48 633.35"/><polygon class="cls-32" points="680.91 626.17 680.55 626.17 680.73 626.35 680.91 626.17"/><rect class="cls-32" x="678.43" y="626.78" width="1.6" height=".87" transform="translate(-244.58 663.72) rotate(-44.98)"/><rect class="cls-32" x="672.66" y="632.92" width=".87" height=".87" transform="translate(-250.7 661.51) rotate(-45)"/><rect class="cls-32" x="674.42" y="631.16" width=".87" height=".87" transform="translate(-248.94 662.45) rotate(-45.02)"/><rect class="cls-32" x="676.17" y="629.41" width=".87" height=".87" transform="translate(-247.2 662.93) rotate(-45)"/><rect class="cls-32" x="677.92" y="627.66" width=".87" height=".87" transform="translate(-245.43 663.92) rotate(-45.02)"/><polygon class="cls-32" points="680.11 626.96 680.73 626.35 680.55 626.17 679.67 626.17 679.49 626.35 680.11 626.96"/><rect class="cls-32" x="678.43" y="630.29" width="1.6" height=".87" transform="translate(-247.05 665.04) rotate(-45)"/><polygon class="cls-32" points="675.99 633.35 675.12 634.22 676.35 634.22 676.61 633.97 675.99 633.35"/><rect class="cls-32" x="676.68" y="632.04" width="1.6" height=".87" transform="translate(-248.8 664.3) rotate(-45)"/><rect class="cls-32" x="681.94" y="626.78" width="1.6" height=".87" transform="translate(-243.54 666.48) rotate(-45)"/><rect class="cls-32" x="680.18" y="628.54" width="1.6" height=".87" transform="translate(-245.28 666.01) rotate(-45.02)"/><polygon class="cls-32" points="684.41 626.17 684.05 626.17 684.23 626.35 684.41 626.17"/><rect class="cls-32" x="676.17" y="632.92" width=".87" height=".87" transform="translate(-249.68 663.94) rotate(-45)"/><rect class="cls-32" x="677.92" y="631.16" width=".87" height=".87" transform="translate(-247.92 664.64) rotate(-45)"/><rect class="cls-32" x="679.67" y="629.41" width=".87" height=".87" transform="translate(-246.16 665.67) rotate(-45.02)"/><rect class="cls-32" x="681.42" y="627.66" width=".87" height=".87" transform="translate(-244.42 666.11) rotate(-45)"/><polygon class="cls-32" points="683.61 626.96 684.23 626.35 684.05 626.17 683.18 626.17 683 626.35 683.61 626.96"/><rect class="cls-32" x="683.69" y="628.54" width="1.6" height=".87" transform="translate(-244.27 668.23) rotate(-45)"/><polygon class="cls-32" points="687.92 626.17 687.56 626.17 687.74 626.34 687.92 626.17"/><polygon class="cls-32" points="679.49 633.35 678.62 634.22 679.86 634.22 680.11 633.97 679.49 633.35"/><rect class="cls-32" x="685.44" y="626.78" width="1.6" height=".87" transform="translate(-242.5 669.22) rotate(-45.02)"/><rect class="cls-32" x="680.18" y="632.04" width="1.6" height=".87" transform="translate(-247.76 667.04) rotate(-45.02)"/><rect class="cls-32" x="681.94" y="630.29" width="1.6" height=".87" transform="translate(-246.02 667.5) rotate(-45)"/><rect class="cls-32" x="679.67" y="632.92" width=".87" height=".87" transform="translate(-248.66 666.18) rotate(-44.99)"/><rect class="cls-32" x="681.42" y="631.16" width=".87" height=".87" transform="translate(-246.9 667.14) rotate(-45)"/><rect class="cls-32" x="683.18" y="629.41" width=".87" height=".87" transform="translate(-245.14 667.87) rotate(-45)"/><rect class="cls-32" x="684.93" y="627.66" width=".87" height=".87" transform="translate(-243.39 668.59) rotate(-45)"/><polygon class="cls-32" points="687.12 626.96 687.74 626.34 687.56 626.17 686.68 626.17 686.5 626.34 687.12 626.96"/><polygon class="cls-32" points="683 633.35 682.13 634.22 683.36 634.22 683.61 633.97 683 633.35"/><rect class="cls-32" x="687.19" y="628.54" width="1.6" height=".87" transform="translate(-243.24 670.71) rotate(-45)"/><rect class="cls-32" x="685.44" y="630.29" width="1.6" height=".87" transform="translate(-244.99 669.98) rotate(-45)"/><polygon class="cls-32" points="691.42 626.17 691.06 626.17 691.24 626.35 691.42 626.17"/><rect class="cls-32" x="688.95" y="626.78" width="1.6" height=".87" transform="translate(-241.49 671.43) rotate(-45)"/><rect class="cls-32" x="683.69" y="632.04" width="1.6" height=".87" transform="translate(-246.75 669.26) rotate(-45)"/><rect class="cls-32" x="683.18" y="632.92" width=".87" height=".87" transform="translate(-247.62 668.94) rotate(-45)"/><rect class="cls-32" x="684.93" y="631.16" width=".87" height=".87" transform="translate(-245.87 669.62) rotate(-45)"/><rect class="cls-32" x="686.68" y="629.41" width=".87" height=".87" transform="translate(-244.11 670.61) rotate(-45.02)"/><rect class="cls-32" x="688.43" y="627.66" width=".87" height=".87" transform="translate(-242.35 671.33) rotate(-45.02)"/><polygon class="cls-32" points="690.62 626.96 691.24 626.35 691.06 626.17 690.19 626.17 690.01 626.35 690.62 626.96"/><rect class="cls-32" x="687.19" y="632.04" width="1.6" height=".87" transform="translate(-245.73 671.47) rotate(-44.98)"/><polygon class="cls-32" points="694.93 626.17 694.57 626.17 694.75 626.35 694.93 626.17"/><rect class="cls-32" x="690.7" y="628.54" width="1.6" height=".87" transform="translate(-242.2 673.45) rotate(-45.02)"/><polygon class="cls-32" points="686.5 633.35 685.63 634.22 686.87 634.22 687.12 633.97 686.5 633.35"/><rect class="cls-32" x="692.45" y="626.78" width="1.6" height=".87" transform="translate(-240.48 673.67) rotate(-44.99)"/><rect class="cls-32" x="688.95" y="630.29" width="1.6" height=".87" transform="translate(-243.97 672.46) rotate(-45)"/><rect class="cls-32" x="686.68" y="632.92" width=".87" height=".87" transform="translate(-246.59 671.64) rotate(-45.02)"/><rect class="cls-32" x="688.43" y="631.16" width=".87" height=".87" transform="translate(-244.84 672.1) rotate(-45)"/><rect class="cls-32" x="690.19" y="629.41" width=".87" height=".87" transform="translate(-243.09 672.82) rotate(-45)"/><rect class="cls-32" x="691.94" y="627.66" width=".87" height=".87" transform="translate(-241.34 673.55) rotate(-45)"/><polygon class="cls-32" points="694.13 626.96 694.75 626.35 694.57 626.17 693.69 626.17 693.51 626.35 694.13 626.96"/><polygon class="cls-32" points="690.01 633.35 689.14 634.22 690.37 634.22 690.62 633.97 690.01 633.35"/><polygon class="cls-32" points="698.43 626.17 698.07 626.17 698.25 626.34 698.43 626.17"/><rect class="cls-32" x="690.7" y="632.04" width="1.6" height=".87" transform="translate(-244.69 674.21) rotate(-45)"/><rect class="cls-32" x="692.45" y="630.29" width="1.6" height=".87" transform="translate(-242.94 675.07) rotate(-45.01)"/><rect class="cls-32" x="694.2" y="628.54" width="1.6" height=".87" transform="translate(-241.19 675.64) rotate(-45)"/><rect class="cls-32" x="695.96" y="626.78" width="1.6" height=".87" transform="translate(-239.44 676.39) rotate(-45)"/><rect class="cls-32" x="690.19" y="632.92" width=".87" height=".87" transform="translate(-245.57 673.9) rotate(-45)"/><rect class="cls-32" x="691.94" y="631.16" width=".87" height=".87" transform="translate(-243.82 674.58) rotate(-45)"/><rect class="cls-32" x="693.69" y="629.41" width=".87" height=".87" transform="translate(-242.07 675.3) rotate(-45)"/><rect class="cls-32" x="695.44" y="627.66" width=".87" height=".87" transform="translate(-240.3 676.29) rotate(-45.02)"/><polygon class="cls-32" points="697.63 626.96 698.25 626.34 698.07 626.17 697.19 626.17 697.01 626.34 697.63 626.96"/><rect class="cls-32" x="699.46" y="626.78" width="1.6" height=".87" transform="translate(-238.41 678.87) rotate(-45)"/><polygon class="cls-32" points="693.51 633.35 692.64 634.22 693.88 634.22 694.13 633.97 693.51 633.35"/><polygon class="cls-32" points="701.94 626.17 701.58 626.17 701.76 626.34 701.94 626.17"/><rect class="cls-32" x="697.71" y="628.54" width="1.6" height=".87" transform="translate(-240.18 677.88) rotate(-44.98)"/><rect class="cls-32" x="695.96" y="630.29" width="1.6" height=".87" transform="translate(-241.92 677.41) rotate(-45)"/><rect class="cls-32" x="694.2" y="632.04" width="1.6" height=".87" transform="translate(-243.66 676.94) rotate(-45.01)"/><rect class="cls-32" x="693.69" y="632.92" width=".87" height=".87" transform="translate(-244.55 676.13) rotate(-44.99)"/><rect class="cls-32" x="695.44" y="631.16" width=".87" height=".87" transform="translate(-242.79 677.07) rotate(-45)"/><rect class="cls-32" x="697.2" y="629.41" width=".87" height=".87" transform="translate(-241.04 677.78) rotate(-45)"/><rect class="cls-32" x="698.95" y="627.66" width=".87" height=".87" transform="translate(-239.3 678.24) rotate(-44.98)"/><polygon class="cls-32" points="701.14 626.96 701.76 626.34 701.58 626.17 700.7 626.17 700.52 626.35 701.14 626.96"/><rect class="cls-32" x="702.97" y="626.78" width="1.6" height=".87" transform="translate(-237.37 681.61) rotate(-45.02)"/><rect class="cls-32" x="701.21" y="628.54" width="1.6" height=".87" transform="translate(-239.14 680.62) rotate(-45)"/><rect class="cls-32" x="697.71" y="632.04" width="1.6" height=".87" transform="translate(-242.64 679.17) rotate(-45)"/><polygon class="cls-32" points="697.01 633.35 696.15 634.22 697.38 634.22 697.63 633.97 697.01 633.35"/><polygon class="cls-32" points="705.44 626.17 705.08 626.17 705.26 626.34 705.44 626.17"/><rect class="cls-32" x="699.46" y="630.29" width="1.6" height=".87" transform="translate(-240.89 679.9) rotate(-45)"/><rect class="cls-32" x="697.2" y="632.92" width=".87" height=".87" transform="translate(-243.52 678.81) rotate(-45)"/><rect class="cls-32" x="698.95" y="631.16" width=".87" height=".87" transform="translate(-241.75 679.8) rotate(-45.02)"/><rect class="cls-32" x="700.7" y="629.41" width=".87" height=".87" transform="translate(-240 680.52) rotate(-45.02)"/><rect class="cls-32" x="702.45" y="627.66" width=".88" height=".87" transform="translate(-238.26 680.98) rotate(-45)"/><polygon class="cls-32" points="704.64 626.96 705.26 626.34 705.08 626.17 704.2 626.17 704.02 626.35 704.64 626.96"/><polygon class="cls-32" points="700.52 633.35 699.65 634.22 700.89 634.22 701.14 633.97 700.52 633.35"/><rect class="cls-32" x="701.21" y="632.04" width="1.6" height=".87" transform="translate(-241.63 681.38) rotate(-44.98)"/><rect class="cls-32" x="706.47" y="626.78" width="1.6" height=".88" transform="translate(-236.35 683.88) rotate(-45)"/><rect class="cls-32" x="702.96" y="630.29" width="1.6" height=".88" transform="translate(-239.86 682.37) rotate(-45)"/><rect class="cls-32" x="704.72" y="628.54" width="1.6" height=".88" transform="translate(-238.11 683.1) rotate(-45)"/><rect class="cls-32" x="700.7" y="632.92" width=".87" height=".88" transform="translate(-242.49 681.28) rotate(-45)"/><rect class="cls-32" x="702.45" y="631.16" width=".87" height=".88" transform="translate(-240.72 682.28) rotate(-45.02)"/><rect class="cls-32" x="704.21" y="629.41" width=".88" height=".88" transform="translate(-238.99 682.74) rotate(-45)"/><rect class="cls-32" x="705.96" y="627.66" width=".88" height=".88" transform="translate(-237.23 683.46) rotate(-45)"/><path class="cls-32" d="M708.15,626.96l.58-.58c-.33-.1-.67-.2-1.03-.21l-.16.17.62.62Z"/><path class="cls-32" d="M710.52,628.1l.27-.27c-.18-.24-.36-.46-.58-.65l-.31.31.62.62Z"/><rect class="cls-32" x="708.22" y="628.54" width="1.6" height=".88" transform="translate(-237.08 685.58) rotate(-45)"/><rect class="cls-32" x="706.47" y="630.29" width="1.6" height=".88" transform="translate(-238.84 684.85) rotate(-45)"/><rect class="cls-32" x="704.72" y="632.04" width="1.6" height=".88" transform="translate(-240.59 684.15) rotate(-45)"/><polygon class="cls-32" points="704.02 633.35 703.15 634.22 704.39 634.22 704.64 633.97 704.02 633.35"/><rect class="cls-32" x="704.2" y="632.92" width=".87" height=".88" transform="translate(-241.46 683.76) rotate(-45)"/><rect class="cls-32" x="705.96" y="631.16" width=".88" height=".88" transform="translate(-239.73 684.22) rotate(-44.98)"/><rect class="cls-32" x="707.71" y="629.41" width=".88" height=".88" transform="translate(-237.96 685.21) rotate(-45)"/><rect class="cls-32" x="709.46" y="627.66" width=".88" height=".88" transform="translate(-236.21 685.94) rotate(-45)"/><path class="cls-32" d="M709.9,630.98l.62.62,1.06-1.06s.02-.08.02-.12l-.57-.57-1.13,1.13Z"/><rect class="cls-32" x="708.22" y="632.04" width="1.6" height=".88" transform="translate(-239.56 686.55) rotate(-45)"/><path class="cls-32" d="M707.53,633.35l-.87.87h.96c.12,0,.23-.06.35-.07l.18-.18-.62-.62Z"/><rect class="cls-32" x="707.71" y="632.92" width=".88" height=".88" transform="translate(-240.45 685.97) rotate(-44.98)"/><rect class="cls-32" x="709.46" y="631.16" width=".88" height=".88" transform="translate(-238.7 686.7) rotate(-44.98)"/><path class="cls-32" d="M711.6,630.42c0-.08.05-.15.05-.23,0-.28-.11-.53-.16-.8l-.45.45.57.57Z"/><path class="cls-36" d="M745.91,625.77c.51,1.14.8,2.4.8,3.73,0,5.09-4.13,9.22-9.22,9.22-.25,0-.49-.05-.74-.07.69.18,1.4.31,2.14.31,4.67,0,8.46-3.79,8.46-8.46,0-1.75-.53-3.38-1.44-4.73Z"/><path class="cls-14" d="M743.96,629.9c0,3-2.44,5.44-5.44,5.44s-5.44-2.44-5.44-5.44,2.44-5.44,5.44-5.44,5.44,2.44,5.44,5.44Z"/><path class="cls-30" d="M740.8,626.03c-2.87.23-4.27,2.87-1.46,7.02,2.98-.29,4.27-3.04,1.46-7.02Z"/><path class="cls-37" d="M737.06,625.86c-2.98.94-3.98,5.67-.58,7.66-.58-2.69,1.99-5.5.58-7.66Z"/><path class="cls-15" d="M968.15,1693.99h9.84v-7.4h-9.84v7.4ZM968.15,700.01v7.4h9.84v-7.4h-9.84Z"/><path class="cls-38" d="M378.45,1686.59h-9.84v7.4h9.84v-7.4ZM368.61,700.01v7.4h9.84v-7.4h-9.84Z"/><path class="cls-16" d="M981.41,866.55c-1.26,1.22-1.26,5.05-1.26,12.18v121.99c0,2.35-.06,5,1.11,5.34.52-.42.57-1.74.57-3.25v-131.32c0-1.82.05-4.51-.43-4.94Z"/><path class="cls-2" d="M980.15,1000.71v-121.99c0-7.12,0-10.95,1.26-12.18l-3.6-2.24c-1.8,2.73-1.69,8.52-1.69,10.73v122.48c0,5.59.34,9.22,1.42,10l3.73-1.47c-1.18-.34-1.11-2.99-1.11-5.34Z"/><path class="cls-31" d="M365.19,836.49c1.26,1.22,1.26,5.05,1.26,12.18v69.86c0,2.35.06,5-1.11,5.34-.52-.42-.57-1.74-.57-3.25v-79.19c0-1.82-.05-4.51.43-4.94Z"/><path class="cls-1" d="M366.45,918.53v-69.86c0-7.12,0-10.95-1.26-12.18l3.6-2.24c1.8,2.73,1.69,8.52,1.69,10.73v70.36c0,5.59-.34,9.22-1.42,10l-3.73-1.47c1.18-.34,1.11-2.99,1.11-5.34Z"/><path class="cls-42" d="M365.19,948.98c1.26,1.22,1.26,5.05,1.26,12.18v69.86c0,2.35.06,5-1.11,5.34-.52-.42-.57-1.74-.57-3.25v-79.19c0-1.82-.05-4.51.43-4.94Z"/><path class="cls-33" d="M366.45,1031.02v-69.86c0-7.12,0-10.95-1.26-12.18l3.6-2.24c1.8,2.73,1.69,8.52,1.69,10.73v70.36c0,5.59-.34,9.22-1.42,10l-3.73-1.47c1.18-.34,1.11-2.99,1.11-5.34Z"/><polygon class="cls-40" points="364.48 748.77 364.48 792.89 365.57 793.98 365.57 747.67 364.48 748.77"/><path class="cls-46" d="M368.69,747.67h-3.12v46.31l.08.08h3.3c.55-.55.58-1.35.58-2.53v-41.32c0-1.37-.15-2.22-.85-2.53Z"/><path class="cls-36" d="M616.79,630.73c0,3.41-2.76,6.17-6.17,6.17s-6.17-2.76-6.17-6.17,2.76-6.17,6.17-6.17,6.17,2.76,6.17,6.17Z"/><path class="cls-28" d="M787.71,630.73c0,3.41-2.76,6.17-6.17,6.17s-6.17-2.76-6.17-6.17,2.76-6.17,6.17-6.17,6.17,2.76,6.17,6.17Z"/><path class="cls-36" d="M574.14,630.73c0,3.41-2.76,6.17-6.17,6.17s-6.17-2.76-6.17-6.17,2.76-6.17,6.17-6.17,6.17,2.76,6.17,6.17Z"/><polygon class="cls-7" points="1020.48 386.38 979.73 392.33 975.51 437.05 971.33 392.39 927.63 389.12 969.41 382.24 972.6 338.46 979.76 381.92 1020.48 386.38"/><polygon class="cls-11" points="910.28 329.94 889.2 332.04 886.38 351.4 884.87 331.97 862.4 330.03 884.03 327.54 886.3 308.57 889.36 327.52 910.28 329.94"/><polygon class="cls-10" points="919.38 441.17 901.36 442.89 897.78 467.57 895.7 443.05 879.27 439.42 896.9 437.64 898.97 422.18 901.55 437.64 919.38 441.17"/></svg>