<svg xmlns="http://www.w3.org/2000/svg" viewBox="0 0 2800 2100" width="512" height="512">
  <defs>
    <style>
      .logo-bg{fill:#86c441;}
      .logo-text{fill:#fff;}
    </style>
  </defs>
  <rect class="logo-bg" x="996.16" y="646.16" width="807.69" height="807.69" rx="156.5" ry="156.5"/>
  <path class="logo-text" d="M1691.25,838.59c-18.12-30.97-43.36-55.29-75.25-72.96-32.12-17.9-67.91-26.62-107.37-26.62s-75.25,8.72-107.37,26.62c-31.89,17.67-57.13,41.99-75.25,72.96-1.84,2.99-3.44,5.97-5.05,9.18,3.67,1.6,6.88,4.82,8.49,8.72l59.19,138.34,68.37,144.77c16.29,3.9,33.5,5.74,51.62,5.74,39.46,0,75.25-8.95,107.37-26.62,31.89-17.66,57.13-42.21,75.25-72.96,18.36-30.97,27.3-65.61,27.3-103.47s-8.95-72.73-27.3-103.7ZM1582.05,985.65c-7.34,13.08-17.44,23.4-30.51,30.74-12.85,7.34-27.07,11.01-42.9,11.01s-30.05-3.67-43.13-11.01c-12.85-7.34-22.94-17.44-30.28-30.51-7.34-12.85-11.01-27.54-11.01-43.59s3.67-30.29,11.01-43.59c7.34-13.08,17.44-23.4,30.28-30.74,13.08-7.34,27.3-11.01,43.13-11.01s30.05,3.67,42.9,11.01c13.08,7.34,23.17,17.44,30.51,30.52,7.34,12.85,11.01,27.53,11.01,43.82s-3.67,30.06-11.01,43.36Z"/>
  <polygon class="logo-text" points="1520.79 1229.76 1520.79 1360.99 1332.66 1360.99 1081.44 798.44 1242.96 798.44 1298.94 929.67 1332.89 1009.51 1335.42 1014.78 1376.94 1103.11 1405.85 1164.14 1412.96 1178.82 1414.57 1182.72 1415.03 1182.72 1434.07 1229.76 1520.79 1229.76"/>
</svg>
