<?xml version="1.0" encoding="UTF-8"?><svg id="Layer_1" xmlns="http://www.w3.org/2000/svg" viewBox="0 0 1080 1080"><defs><style>.cls-1{fill:#d61d1d;}.cls-2{fill:#005699;stroke:#231f20;stroke-miterlimit:10;stroke-width:2px;}.cls-3{fill:#c5d3d8;}</style></defs><rect class="cls-2" x="519.37" y="713.67" width="41.26" height="77.49"/><rect class="cls-2" x="373.76" y="535.58" width="332.47" height="41.26"/><path class="cls-2" d="M731.44,531.42c0,25.84-5.07,50.91-15.05,74.52-9.64,22.8-23.44,43.27-41.02,60.84-17.57,17.58-38.05,31.38-60.85,41.02-17.27,7.31-46.14,14.87-74.52,14.87s-57.25-7.57-74.52-14.87c-22.8-9.64-43.27-23.44-60.85-41.02-17.57-17.57-31.37-38.04-41.02-60.84-9.99-23.61-15.05-48.69-15.05-74.52,0-11.39,9.24-20.63,20.63-20.63s20.63,9.24,20.63,20.63c0,20.28,3.97,39.95,11.79,58.45,7.56,17.88,18.39,33.94,32.19,47.74,13.8,13.79,29.86,24.63,47.74,32.19,18.5,7.83,38.17,11.79,58.45,11.79s39.95-3.97,58.45-11.79c17.88-7.56,33.94-18.39,47.74-32.19,13.8-13.8,24.63-29.86,32.19-47.74,7.82-18.5,11.79-38.17,11.79-58.45,0-11.39,9.24-20.63,20.63-20.63s20.63,9.24,20.63,20.63Z"/><path class="cls-2" d="M519.37,784.17c-67.04,0-93.97,23.95-104.87,39.44-5.3,7.53.06,17.9,9.27,17.9h232.47c9.2,0,14.56-10.37,9.27-17.9-10.9-15.49-37.83-39.44-104.87-39.44h-41.26Z"/><path class="cls-3" d="M540,651.39c66.87,0,121.08-54.21,121.08-121.08v-148.44c0-66.87-54.21-121.08-121.08-121.08s-121.08,54.21-121.08,121.08v148.44c0,66.87,54.21,121.08,121.08,121.08Z"/><path class="cls-1" d="M733.59,728.54c-6.17,0-12.33-2.35-17.04-7.06l-387.18-387.18c-9.41-9.41-9.41-24.66,0-34.07,9.41-9.41,24.66-9.41,34.07,0l387.18,387.18c9.41,9.41,9.41,24.66,0,34.07-4.7,4.7-10.87,7.06-17.04,7.06Z"/></svg>