<?xml version="1.0" encoding="UTF-8"?><svg id="Layer_1" xmlns="http://www.w3.org/2000/svg" xmlns:xlink="http://www.w3.org/1999/xlink" viewBox="0 0 1080 1080"><defs><style>.cls-1{fill:#fff;}.cls-2{fill:#005699;}.cls-3{fill:#e80027;}</style></defs><path class="cls-2" d="M733.63,199.2c-5.62,0-11.23-2.26-15.34-6.73-21.77-23.65-47.61-42.28-76.81-55.37-30.21-13.54-62.46-20.41-95.86-20.41s-65.65,6.87-95.86,20.41c-29.2,13.09-55.04,31.72-76.81,55.37-7.79,8.47-20.98,9.01-29.44,1.22-8.47-7.79-9.01-20.98-1.22-29.44,25.62-27.83,56.04-49.76,90.43-65.17,35.61-15.96,73.59-24.05,112.91-24.05s77.3,8.09,112.91,24.05c34.39,15.41,64.81,37.34,90.43,65.17,7.79,8.47,7.25,21.65-1.22,29.44-4,3.69-9.06,5.51-14.11,5.51Z"/><path class="cls-2" d="M677.93,270.68c-5.26,0-10.52-1.98-14.58-5.95-31.63-30.96-73.44-48.01-117.74-48.01s-86.11,17.05-117.74,48.01c-8.22,8.05-21.42,7.91-29.47-.31-8.05-8.22-7.91-21.42.31-29.47,39.46-38.63,91.63-59.9,146.89-59.9s107.43,21.27,146.89,59.9c8.22,8.05,8.36,21.24.31,29.47-4.08,4.17-9.49,6.26-14.89,6.26Z"/><path class="cls-2" d="M620.35,344.59c-4.87,0-9.75-1.69-13.7-5.15-17.24-15.06-37.77-22.7-61.02-22.7s-43.79,7.64-61.02,22.7c-8.67,7.57-21.83,6.69-29.4-1.98-7.57-8.67-6.69-21.83,1.98-29.4,24.7-21.59,55.29-32.99,88.45-32.99s63.75,11.41,88.45,32.99c8.67,7.57,9.55,20.74,1.98,29.4-4.12,4.71-9.89,7.13-15.7,7.13Z"/><path class="cls-2" d="M545.62,439.41c-9.96,0-18.94-3.72-25.99-10.76-7.04-7.04-10.76-16.03-10.76-25.99s3.72-18.94,10.76-25.99c7.04-7.04,16.03-10.76,25.99-10.76s18.94,3.72,25.99,10.76,10.76,16.03,10.76,25.99-3.72,18.94-10.76,25.99-16.03,10.76-25.99,10.76Z"/><path class="cls-3" d="M696.21,402.6c-25.14,0-47.82-9.4-65.6-27.17-17.78-17.78-27.17-40.46-27.17-65.6s9.4-47.82,27.17-65.6c17.78-17.78,40.46-27.17,65.6-27.17s47.82,9.4,65.6,27.17c17.78,17.78,27.17,40.46,27.17,65.6s-9.4,47.82-27.17,65.6c-17.78,17.78-40.46,27.17-65.6,27.17Z"/><polygon class="cls-1" points="742.32 281.9 724.34 263.84 696.21 291.85 668.09 263.84 650.11 281.9 678.15 309.83 650.11 337.76 668.09 355.82 696.21 327.81 724.34 355.82 742.32 337.76 714.27 309.83 742.32 281.9"/><image width="2400" height="3263" transform="translate(380.34 598.09) scale(.12)" xlink:href="E:\Assets\bluetooth.png"/><path class="cls-3" d="M696.21,712.6c-25.14,0-47.82-9.4-65.6-27.17-17.78-17.78-27.17-40.46-27.17-65.6s9.4-47.82,27.17-65.6c17.78-17.78,40.46-27.17,65.6-27.17s47.82,9.4,65.6,27.17c17.78,17.78,27.17,40.46,27.17,65.6s-9.4,47.82-27.17,65.6c-17.78,17.78-40.46,27.17-65.6,27.17Z"/><polygon class="cls-1" points="742.32 591.91 724.34 573.85 696.21 601.85 668.09 573.85 650.11 591.91 678.15 619.84 650.11 647.76 668.09 665.82 696.21 637.82 724.34 665.82 742.32 647.76 714.27 619.84 742.32 591.91"/></svg>