<?xml version="1.0" encoding="UTF-8"?><svg id="Layer_1" xmlns="http://www.w3.org/2000/svg" viewBox="0 0 1080 1080"><defs><style>.cls-1,.cls-2,.cls-3{fill:#1e2435;}.cls-2{stroke-width:4px;}.cls-2,.cls-4,.cls-5,.cls-6,.cls-7,.cls-8,.cls-3,.cls-9,.cls-10,.cls-11{stroke-miterlimit:10;}.cls-2,.cls-4,.cls-8,.cls-3,.cls-9{stroke:#e30613;}.cls-12{fill:#6a5855;}.cls-4{fill:#e30613;stroke-width:6px;}.cls-5,.cls-6{fill:#fff;}.cls-5,.cls-6,.cls-10{stroke:#231f20;}.cls-5,.cls-8,.cls-3,.cls-9{stroke-width:3px;}.cls-6,.cls-7{stroke-width:2px;}.cls-7{fill:#005699;stroke:#08173b;}.cls-8{fill:#d0d2d3;}.cls-13,.cls-9{fill:#231f20;}.cls-10,.cls-11{fill:none;}.cls-11{stroke:#fff;stroke-width:.25px;}</style></defs><rect class="cls-6" x="410.46" y="277.95" width="253.75" height="59.63" transform="translate(-1.65 2.9) rotate(-.31)"/><rect class="cls-1" x="409.68" y="218.96" width="258.92" height="14.6" transform="translate(-1.21 2.91) rotate(-.31)"/><rect class="cls-10" x="407.45" y="232.92" width="263.79" height="14.6" transform="translate(-1.29 2.91) rotate(-.31)"/><path class="cls-7" d="M664.23,284.57l-248.27,1.34c-10.29.06-18.76-8.32-18.81-18.61h0c-.06-10.29,8.32-18.76,18.61-18.81l248.27-1.34c10.29-.06,18.76,8.32,18.81,18.61h0c.06,10.29-8.32,18.76-18.61,18.81Z"/><rect class="cls-13" x="410.37" y="284.34" width="253.75" height="13.69" transform="translate(-1.56 2.9) rotate(-.31)"/><rect class="cls-7" x="410.64" y="336.06" width="253.75" height="11.87" transform="translate(-1.83 2.9) rotate(-.31)"/><path class="cls-9" d="M669.11,384.63l-263.47-10.99c-1.95-.08-3.47-1.74-3.39-3.69l-.85-19.45c-.01-1.95,1.58-3.55,3.52-3.56l263.7-1.42c1.95-.01,3.55,1.58,3.56,3.52l.62,32.19c-.08,1.95-1.74,3.47-3.69,3.39Z"/><polygon class="cls-12" points="421.96 373.88 416.2 373.64 415.47 347.33 421.24 347.3 421.96 373.88"/><polygon class="cls-12" points="435.82 374.46 430.06 374.22 429.35 347.25 435.11 347.22 435.82 374.46"/><polygon class="cls-12" points="447.8 374.96 442.03 374.72 441.33 347.19 447.1 347.16 447.8 374.96"/><polygon class="cls-12" points="461.79 375.54 456.03 375.3 455.34 347.11 461.11 347.08 461.79 375.54"/><polygon class="cls-12" points="475.65 376.12 469.89 375.88 469.21 347.04 474.98 347.01 475.65 376.12"/><polygon class="cls-12" points="490.86 376.75 485.09 376.51 484.43 346.96 490.2 346.93 490.86 376.75"/><polygon class="cls-12" points="504.85 377.34 499.09 377.1 498.43 346.88 504.2 346.85 504.85 377.34"/><polygon class="cls-12" points="518.71 377.91 512.95 377.67 512.3 346.81 518.07 346.78 518.71 377.91"/><polygon class="cls-12" points="532.03 378.47 526.27 378.23 525.64 346.74 531.41 346.7 532.03 378.47"/><polygon class="cls-12" points="546.02 379.05 540.26 378.81 539.64 346.66 545.41 346.63 546.02 379.05"/><polygon class="cls-12" points="559.88 379.63 554.12 379.39 553.51 346.59 559.28 346.55 559.88 379.63"/><polygon class="cls-12" points="575.09 380.26 569.33 380.02 568.73 346.5 574.5 346.47 575.09 380.26"/><polygon class="cls-12" points="589.08 380.85 583.32 380.61 582.74 346.43 588.51 346.4 589.08 380.85"/><polygon class="cls-12" points="602.94 381.43 597.18 381.19 596.61 346.35 602.38 346.32 602.94 381.43"/><polygon class="cls-12" points="618.51 382.08 612.74 381.83 612.19 346.27 617.96 346.24 618.51 382.08"/><polygon class="cls-12" points="632.5 382.66 626.74 382.42 626.19 346.19 631.96 346.16 632.5 382.66"/><polygon class="cls-12" points="646.36 383.24 640.6 383 640.06 346.12 645.83 346.09 646.36 383.24"/><polygon class="cls-12" points="661.57 383.87 655.8 383.63 655.28 346.04 661.05 346.01 661.57 383.87"/><path class="cls-5" d="M403.14,430.38h268.49c3.24,0,5.86,2.63,5.86,5.86v43.95c0,3.24-2.63,5.86-5.86,5.86h-268.49c-3.24,0-5.86-2.63-5.86-5.86v-43.95c0-3.24,2.63-5.86,5.86-5.86Z" transform="translate(-2.46 2.9) rotate(-.31)"/><polygon class="cls-7" points="670.75 562.93 405.75 564.36 405.33 486.77 671.77 485.34 670.44 505.08 670.88 519.8 670.91 529.39 670.91 540.06 670.75 562.93"/><rect class="cls-8" x="404.77" y="590.54" width="270.79" height="43.28" rx="4.07" ry="4.07" transform="translate(-3.29 2.92) rotate(-.31)"/><rect class="cls-12" x="418.86" y="591.76" width="5.77" height="42.11" transform="translate(-3.27 2.26) rotate(-.31)"/><rect class="cls-12" x="432.74" y="591.68" width="5.77" height="42.11" transform="translate(-3.3 2.36) rotate(-.31)"/><rect class="cls-12" x="444.72" y="591.62" width="5.77" height="42.11" transform="translate(-3.3 2.42) rotate(-.31)"/><rect class="cls-12" x="458.73" y="591.54" width="5.77" height="42.11" transform="translate(-3.3 2.5) rotate(-.31)"/><rect class="cls-12" x="472.6" y="591.47" width="5.77" height="42.11" transform="translate(-3.3 2.57) rotate(-.31)"/><rect class="cls-12" x="487.82" y="591.39" width="5.77" height="42.11" transform="translate(-3.3 2.66) rotate(-.31)"/><rect class="cls-12" x="501.82" y="591.31" width="5.77" height="42.11" transform="translate(-3.3 2.73) rotate(-.31)"/><rect class="cls-12" x="515.7" y="591.24" width="5.77" height="42.11" transform="translate(-3.3 2.81) rotate(-.31)"/><rect class="cls-12" x="529.03" y="591.17" width="5.77" height="42.11" transform="translate(-3.3 2.88) rotate(-.31)"/><rect class="cls-12" x="543.03" y="591.09" width="5.77" height="42.11" transform="translate(-3.29 2.95) rotate(-.31)"/><rect class="cls-12" x="556.91" y="591.02" width="5.77" height="42.11" transform="translate(-3.29 3.03) rotate(-.31)"/><rect class="cls-12" x="572.12" y="590.93" width="5.77" height="42.11" transform="translate(-3.29 3.11) rotate(-.31)"/><rect class="cls-12" x="586.13" y="590.86" width="5.77" height="42.11" transform="translate(-3.26 3.15) rotate(-.31)"/><rect class="cls-12" x="600" y="590.78" width="5.77" height="42.11" transform="translate(-3.29 3.26) rotate(-.31)"/><rect class="cls-12" x="615.58" y="590.7" width="5.77" height="42.11" transform="translate(-3.29 3.35) rotate(-.31)"/><rect class="cls-12" x="629.58" y="590.62" width="5.77" height="42.11" transform="translate(-3.29 3.42) rotate(-.31)"/><rect class="cls-12" x="643.46" y="590.55" width="5.77" height="42.11" transform="translate(-3.29 3.5) rotate(-.31)"/><rect class="cls-12" x="658.67" y="590.47" width="5.77" height="42.11" transform="translate(-3.29 3.58) rotate(-.31)"/><path class="cls-9" d="M668.99,432.87l-264.6,1.42c-1.95.01-3.56-1.58-3.57-3.53l-.78-32.17c.08-1.95,1.74-3.48,3.69-3.4l264.37,11.02c1.95.08,3.48,1.74,3.4,3.69l1.01,19.39c.01,1.95-1.58,3.56-3.53,3.57Z"/><polygon class="cls-12" points="420.78 433.77 414.99 433.8 414.31 396.08 420.09 396.32 420.78 433.77"/><polygon class="cls-12" points="434.7 433.69 428.91 433.72 428.22 396.66 434 396.9 434.7 433.69"/><polygon class="cls-12" points="446.72 433.63 440.93 433.66 440.23 397.16 446.02 397.4 446.72 433.63"/><polygon class="cls-12" points="460.78 433.55 454.99 433.58 454.27 397.75 460.06 397.99 460.78 433.55"/><polygon class="cls-12" points="474.69 433.48 468.9 433.51 468.18 398.33 473.96 398.57 474.69 433.48"/><polygon class="cls-12" points="489.96 433.4 484.17 433.43 483.44 398.96 489.22 399.2 489.96 433.4"/><polygon class="cls-12" points="504.02 433.32 498.23 433.35 497.48 399.55 503.26 399.79 504.02 433.32"/><polygon class="cls-12" points="517.93 433.24 512.14 433.28 511.38 400.13 517.17 400.37 517.93 433.24"/><polygon class="cls-12" points="531.31 433.17 525.52 433.2 524.75 400.68 530.53 400.92 531.31 433.17"/><polygon class="cls-12" points="545.36 433.1 539.58 433.13 538.79 401.27 544.58 401.51 545.36 433.1"/><polygon class="cls-12" points="559.28 433.02 553.49 433.05 552.7 401.85 558.48 402.09 559.28 433.02"/><polygon class="cls-12" points="574.55 432.94 568.76 432.97 567.95 402.49 573.74 402.73 574.55 432.94"/><polygon class="cls-12" points="588.61 432.86 582.82 432.9 582 403.07 587.78 403.31 588.61 432.86"/><polygon class="cls-12" points="602.52 432.79 596.73 432.82 595.9 403.65 601.69 403.89 602.52 432.79"/><polygon class="cls-12" points="618.15 432.7 612.36 432.74 611.52 404.3 617.3 404.54 618.15 432.7"/><polygon class="cls-12" points="632.21 432.63 626.42 432.66 625.56 404.89 631.34 405.13 632.21 432.63"/><polygon class="cls-12" points="646.12 432.55 640.34 432.59 639.47 405.47 645.25 405.71 646.12 432.55"/><polygon class="cls-12" points="661.39 432.47 655.61 432.5 654.72 406.1 660.51 406.34 661.39 432.47"/><rect class="cls-3" x="400.14" y="371.76" width="272.61" height="32.87" rx="3.55" ry="3.55" transform="translate(16.64 -22.01) rotate(2.39)"/><rect class="cls-12" x="414.52" y="367.27" width="5.81" height="31.98" transform="translate(16.34 -17.07) rotate(2.39)"/><rect class="cls-12" x="428.48" y="367.85" width="5.81" height="31.98" transform="translate(16.35 -17.63) rotate(2.39)"/><rect class="cls-12" x="440.53" y="368.36" width="5.81" height="31.98" transform="translate(16.41 -18.15) rotate(2.39)"/><rect class="cls-12" x="454.62" y="368.94" width="5.81" height="31.98" transform="translate(16.44 -18.74) rotate(2.39)"/><rect class="cls-12" x="468.57" y="369.53" width="5.81" height="31.98" transform="translate(16.46 -19.29) rotate(2.39)"/><rect class="cls-12" x="483.88" y="370.16" width="5.81" height="31.98" transform="translate(16.5 -19.93) rotate(2.39)"/><rect class="cls-12" x="497.97" y="370.75" width="5.81" height="31.98" transform="translate(16.54 -20.52) rotate(2.39)"/><rect class="cls-12" x="511.92" y="371.33" width="5.81" height="31.98" transform="translate(16.59 -21.12) rotate(2.39)"/><rect class="cls-12" x="525.33" y="371.89" width="5.81" height="31.98" transform="translate(16.63 -21.68) rotate(2.39)"/><rect class="cls-12" x="539.42" y="372.48" width="5.81" height="31.98" transform="translate(1068.01 799.19) rotate(-177.61)"/><rect class="cls-12" x="553.38" y="373.06" width="5.81" height="31.98" transform="translate(16.68 -22.82) rotate(2.39)"/><rect class="cls-12" x="568.68" y="373.7" width="5.81" height="31.98" transform="translate(16.72 -23.46) rotate(2.39)"/><rect class="cls-12" x="582.77" y="374.29" width="5.81" height="31.98" transform="translate(16.78 -24.07) rotate(2.39)"/><rect class="cls-12" x="596.72" y="374.87" width="5.81" height="31.98" transform="translate(16.81 -24.66) rotate(2.39)"/><rect class="cls-12" x="612.39" y="375.52" width="5.81" height="31.98" transform="translate(16.86 -25.31) rotate(2.39)"/><rect class="cls-12" x="626.48" y="376.11" width="5.81" height="31.98" transform="translate(16.89 -25.9) rotate(2.39)"/><rect class="cls-12" x="640.43" y="376.69" width="5.81" height="31.98" transform="translate(16.91 -26.44) rotate(2.39)"/><rect class="cls-12" x="655.74" y="377.33" width="5.81" height="31.98" transform="translate(16.95 -27.08) rotate(2.39)"/><path class="cls-2" d="M672.23,666.76l-264.45,1.42c-2.24.01-4.09-1.81-5.25-17.95l3.37-34.96c-2.42,11.49-.59,9.64,1.65,9.63l264.45-1.42c2.24-.01,4.09,1.81,5.25,17.95l-3.37,34.96c2.42-11.49.59-9.64-1.65-9.63Z"/><rect class="cls-12" x="418.32" y="613.34" width="5.81" height="42.11" transform="translate(62.83 -37.5) rotate(5.51)"/><rect class="cls-12" x="432.22" y="614.68" width="5.81" height="42.11" transform="translate(63.02 -38.82) rotate(5.51)"/><rect class="cls-12" x="444.23" y="615.83" width="5.81" height="42.11" transform="translate(63.15 -39.95) rotate(5.5)"/><rect class="cls-12" x="458.27" y="617.19" width="5.81" height="42.11" transform="translate(63.34 -41.29) rotate(5.5)"/><rect class="cls-12" x="472.17" y="618.53" width="5.81" height="42.11" transform="translate(63.57 -42.64) rotate(5.51)"/><rect class="cls-12" x="487.42" y="620" width="5.81" height="42.11" transform="translate(63.78 -44.1) rotate(5.51)"/><rect class="cls-12" x="501.45" y="621.35" width="5.81" height="42.11" transform="translate(63.98 -45.44) rotate(5.51)"/><rect class="cls-12" x="515.35" y="622.69" width="5.81" height="42.11" transform="translate(64.13 -46.74) rotate(5.5)"/><rect class="cls-12" x="528.71" y="623.98" width="5.81" height="42.11" transform="translate(64.32 -48.02) rotate(5.5)"/><rect class="cls-12" x="542.75" y="625.33" width="5.81" height="42.11" transform="translate(64.51 -49.36) rotate(5.5)"/><rect class="cls-12" x="556.65" y="626.67" width="5.81" height="42.11" transform="translate(64.74 -50.71) rotate(5.51)"/><rect class="cls-12" x="571.9" y="628.14" width="5.81" height="42.11" transform="translate(64.96 -52.17) rotate(5.51)"/><rect class="cls-12" x="585.94" y="629.49" width="5.81" height="42.11" transform="translate(65.15 -53.51) rotate(5.51)"/><rect class="cls-12" x="599.84" y="630.83" width="5.81" height="42.11" transform="translate(65.31 -54.81) rotate(5.5)"/><rect class="cls-12" x="615.45" y="632.34" width="5.81" height="42.11" transform="translate(65.52 -56.3) rotate(5.5)"/><rect class="cls-12" x="629.48" y="633.69" width="5.81" height="42.11" transform="translate(65.72 -57.64) rotate(5.5)"/><rect class="cls-12" x="643.38" y="635.03" width="5.81" height="42.11" transform="translate(65.95 -59) rotate(5.51)"/><rect class="cls-12" x="658.63" y="636.5" width="5.81" height="42.11" transform="translate(66.16 -60.45) rotate(5.51)"/><rect class="cls-4" x="404.15" y="662.28" width="271.7" height="43.28" rx="4.07" ry="4.07" transform="translate(-3.67 2.92) rotate(-.31)"/><rect class="cls-12" x="418.3" y="663.5" width="5.79" height="42.11" transform="translate(-3.68 2.27) rotate(-.31)"/><rect class="cls-12" x="432.22" y="663.43" width="5.79" height="42.11" transform="translate(-3.67 2.35) rotate(-.31)"/><rect class="cls-12" x="444.24" y="663.36" width="5.79" height="42.11" transform="translate(-3.67 2.41) rotate(-.31)"/><rect class="cls-12" x="458.3" y="663.29" width="5.79" height="42.11" transform="translate(-3.67 2.49) rotate(-.31)"/><rect class="cls-12" x="472.22" y="663.21" width="5.79" height="42.11" transform="translate(-3.67 2.56) rotate(-.31)"/><rect class="cls-12" x="487.49" y="663.13" width="5.79" height="42.11" transform="translate(-3.67 2.65) rotate(-.31)"/><rect class="cls-12" x="501.54" y="663.05" width="5.79" height="42.11" transform="translate(-3.67 2.72) rotate(-.31)"/><rect class="cls-12" x="515.46" y="662.98" width="5.79" height="42.11" transform="translate(-3.67 2.8) rotate(-.31)"/><rect class="cls-12" x="528.83" y="662.91" width="5.79" height="42.11" transform="translate(-3.67 2.87) rotate(-.31)"/><rect class="cls-12" x="542.89" y="662.83" width="5.79" height="42.11" transform="translate(-3.67 2.94) rotate(-.31)"/><rect class="cls-12" x="556.81" y="662.76" width="5.79" height="42.11" transform="translate(-3.67 3.02) rotate(-.31)"/><rect class="cls-12" x="572.08" y="662.67" width="5.79" height="42.11" transform="translate(-3.67 3.1) rotate(-.31)"/><rect class="cls-12" x="586.13" y="662.6" width="5.79" height="42.11" transform="translate(-3.67 3.18) rotate(-.31)"/><rect class="cls-12" x="600.05" y="662.52" width="5.79" height="42.11" transform="translate(-3.67 3.25) rotate(-.31)"/><rect class="cls-12" x="615.68" y="662.44" width="5.79" height="42.11" transform="translate(-3.67 3.34) rotate(-.31)"/><rect class="cls-12" x="629.73" y="662.36" width="5.79" height="42.11" transform="translate(-3.67 3.41) rotate(-.31)"/><rect class="cls-12" x="643.65" y="662.29" width="5.79" height="42.11" transform="translate(-3.67 3.49) rotate(-.31)"/><rect class="cls-12" x="658.92" y="662.21" width="5.79" height="42.11" transform="translate(-3.66 3.57) rotate(-.31)"/><rect class="cls-13" x="405.52" y="563.26" width="265.31" height="29.52" transform="translate(-3.1 2.91) rotate(-.31)"/><rect class="cls-7" x="414.93" y="705.57" width="251.16" height="19.17" transform="translate(-3.84 2.92) rotate(-.31)"/><rect class="cls-1" x="414.72" y="724.74" width="251.92" height="14.83" transform="translate(-3.93 2.92) rotate(-.31)"/><rect class="cls-10" x="414.13" y="739.19" width="252.53" height="49.9" transform="translate(-4.11 2.92) rotate(-.31)"/><polygon class="cls-13" points="414.27 789.77 429.57 806.72 657.15 804.89 666.8 788.41 414.27 789.77"/><rect class="cls-5" x="436.31" y="801.85" width="216.02" height="27.38" transform="translate(-4.38 2.94) rotate(-.31)"/><rect class="cls-7" x="444.35" y="818" width="198.37" height="43.2" transform="translate(-4.51 2.94) rotate(-.31)"/><line class="cls-11" x1="397.15" y1="738.51" x2="434.67" y2="766.08"/><line class="cls-11" x1="423.73" y1="220.04" x2="423.73" y2="242.19"/></svg>