<?xml version="1.0" encoding="UTF-8"?><svg id="Layer_1" xmlns="http://www.w3.org/2000/svg" viewBox="0 0 1080 1080"><defs><style>.cls-1{fill:#ef4136;}.cls-2{fill:#005699;stroke-width:6px;}.cls-2,.cls-3{stroke:#005699;stroke-miterlimit:10;}.cls-3{fill:#fff;stroke-width:8px;}</style></defs><path class="cls-2" d="M466.31,187.96h147.37c8.63,0,15.64,7.01,15.64,15.64v28.32h-178.65v-28.32c0-8.63,7.01-15.64,15.64-15.64Z"/><rect class="cls-3" x="356.89" y="231.93" width="366.23" height="623.01" rx="12" ry="12"/><path class="cls-1" d="M362.59,612.67v221.06c0,8.76,7.82,15.85,17.47,15.85h322.43c17.36,0,24.09-20.48,9.57-29.11l-349.47-207.8Z"/><polygon class="cls-1" points="586.3 337.08 506.32 482.31 603.14 482.31 512.64 633.85 569.47 496.8 476.86 496.8 586.3 337.08"/><polygon class="cls-1" points="519.08 590.57 549.12 596.2 512.64 633.85 519.08 590.57"/></svg>