<?xml version="1.0" encoding="UTF-8"?><svg xmlns="http://www.w3.org/2000/svg" xmlns:xlink="http://www.w3.org/1999/xlink" viewBox="0 0 1080 1080"><defs><style>.cls-1{fill:#1768a1;mix-blend-mode:multiply;}.cls-2{fill:#fff;}.cls-3{fill:#eff2f6;}.cls-4{fill:none;}.cls-5{fill:#f5ab85;}.cls-6{fill:#83c4e4;mix-blend-mode:overlay;opacity:.3;}.cls-7{fill:#df9b82;}.cls-8{fill:url(#_åçûìßííûé_ãðàäèåíò_2);}.cls-9{isolation:isolate;}.cls-10{fill:#ed1c24;}.cls-11{clip-path:url(#clippath);}</style><linearGradient id="_åçûìßííûé_ãðàäèåíò_2" x1="1646.31" y1="-878.28" x2="1646.31" y2="-1341.56" gradientTransform="translate(-1262.18 1083.54) rotate(14.11)" gradientUnits="userSpaceOnUse"><stop offset="0" stop-color="#83c4e4"/><stop offset="1" stop-color="#008cc0"/></linearGradient><clipPath id="clippath"><path class="cls-4" d="M635.8,655.09l-174.53-43.87c-9.15-2.3-14.71-11.59-12.41-20.74l106.81-424.87c2.3-9.15,11.59-14.71,20.74-12.41l174.53,43.87c9.15,2.3,14.71,11.59,12.41,20.74l-106.81,424.87c-2.3,9.15-11.59,14.71-20.74,12.41Z"/></clipPath></defs><g class="cls-9"><g id="Layer_1"><path class="cls-5" d="M540.59,230.76s-2.85-41.93-32.03-56.89c-29.18-14.96-26.23,36.04-19.27,63.66,6.96,27.62,31.89,57.35,31.89,57.35l19.41-64.12Z"/><path class="cls-5" d="M733.29,879.37s-86.15-160.92-98.74-180.06c-12.6-19.14-60.84-52.13-99.48-106.73-38.64-54.6-37.2-69.49-37.2-69.49l186.84-28.22,219.63,295.29s-48.88,110.86-171.05,89.21Z"/><path d="M443.18,589.05l106.81-424.87c3.09-12.3,15.57-19.76,27.86-16.67l174.53,43.87c12.3,3.09,19.76,15.56,16.67,27.86l-106.81,424.87c-3.09,12.3-15.56,19.76-27.86,16.67l-174.53-43.87c-12.3-3.09-19.76-15.57-16.67-27.86Z"/><path class="cls-8" d="M635.8,655.09l-174.53-43.87c-9.15-2.3-14.71-11.59-12.41-20.74l106.81-424.87c2.3-9.15,11.59-14.71,20.74-12.41l174.53,43.87c9.15,2.3,14.71,11.59,12.41,20.74l-106.81,424.87c-2.3,9.15-11.59,14.71-20.74,12.41Z"/><path d="M696.03,204.44l-74.73-18.79c-2.93-.74-4.71-3.71-3.97-6.64l3.67-14.61,85.35,21.45-3.67,14.61c-.74,2.93-3.71,4.71-6.64,3.97Z"/><g class="cls-11"><polygon class="cls-6" points="450.07 308.96 830.21 132.3 816.9 234.82 410.67 513.81 450.07 308.96"/><polygon class="cls-6" points="409.86 589.22 795.88 268.86 532.99 695 409.86 589.22"/><path class="cls-1" d="M665.92,489.33c-1.38,2.68-2.48,5.12-3.23,7.12-5.15,13.73-23.69,63.17-18.19,115.36,5.49,52.19,115.71,234.49,115.71,234.49,0,0,55.55,2.07,105.68-48,.05-.04.06-.07.06-.07l-.49-.78-.46-.7c-10.52-16.89-106.96-171.59-108.92-190.09-2.06-19.57,15.79-50.47,15.45-91.33-.34-40.86-12.36-92.35-10.65-113.64.52-6.41,3.16-15.45,6.35-25.47,7.14-22.29,17.03-49.44,12.46-63.22-.16-.56-.38-1.08-.62-1.61-8.58-18.88-54.25-14.07-69.69,27.12-15.45,41.2-11.67,89.61-15.79,100.59-3.51,9.37-19.79,34.49-27.66,50.22Z"/><path class="cls-1" d="M485.26,334.76c1.88,3.91,3.74,7.51,5.53,10.78,6.36,11.58,12.22,19.36,17.72,24.58,5.47,5.21,10.6,7.93,15.48,9.41,11.23,3.4,24.49-20.17,22.02-42.37-3.2-28.71-35.83-53.75-50.72-55.19-14.89-1.44-25.24,21.32-10.04,52.8Z"/><path class="cls-1" d="M457.06,408.29c3.18,8.72,7.62,16.25,12.5,22.51v.03c4.98,6.41,10.44,11.44,15.48,14.95,5.61,3.94,10.73,5.97,14.07,5.88,9.27-.26,21.69-21.02,18.36-40.41-3.32-19.39-27.44-52.44-39.49-52.41-12.08.02-30.96,21.89-20.91,49.45Z"/><path class="cls-1" d="M448.92,494.13c.12.22.23.47.34.69,1.37,2.56,3.11,4.71,5.11,6.39,12.14,10.42,33.23,4.42,32.57-19.5-.55-19.66-18.18-35.84-26.89-32.66-13.61,4.95-20.41,26.92-11.13,45.08Z"/><path class="cls-1" d="M101.48,968.18s7.01,101.79,192.19,63.51c0,0,101.91-178.71,114.13-189.86,12.22-11.14,88.01-46.67,108.56-69.14,20.55-22.47,86.27-93.58,102.57-108.44,2.04-1.86,4.16-3.98,6.42-6.34,15.52-16.61,33.48-44,23.72-54.71-.78-.86-1.6-1.63-2.51-2.3-11.68-9.12-32.12-3.4-56.62,15.18-24.26,18.39-41.64,56.62-72.61,51.28-12.16-2.08,33.37-131.14,46.13-153.97,12.76-22.83,42.54-76.09,47.51-99.27,1.44-6.65.59-12.73-1.84-17.72-5.91-12.33-21.42-17.85-35.75-7.62-.08.04-.2.11-.28.18-20.19,14.68-92.32,140.13-97.12,159.42,0,0-9.53-47.27-53.98-14.2,0,0-29.36-40.38-70.28.66,0,0-29.9-28.7-67.28,20.31-37.38,49.01-41.22,216.64-45.83,232.03-4.61,15.4-137.14,180.99-137.14,180.99Z"/></g><path class="cls-3" d="M591.49,438.73c-24.47,0-44.38-19.91-44.38-44.38s19.91-44.38,44.38-44.38,44.38,19.91,44.38,44.38-19.91,44.38-44.38,44.38ZM591.49,361.25c-18.25,0-33.1,14.85-33.1,33.1s14.85,33.1,33.1,33.1,33.1-14.85,33.1-33.1-14.85-33.1-33.1-33.1Z"/><path class="cls-3" d="M591.49,463.91c-38.36,0-69.56-31.21-69.56-69.56s31.21-69.56,69.56-69.56,69.56,31.21,69.56,69.56-31.21,69.56-69.56,69.56ZM591.49,336.07c-32.14,0-58.28,26.14-58.28,58.28s26.14,58.28,58.28,58.28,58.28-26.15,58.28-58.28-26.15-58.28-58.28-58.28Z"/><path class="cls-5" d="M684.72,494.87c-1.2,2.76-2.14,5.27-2.76,7.32-4.25,14.04-19.54,64.58-10.68,116.29,8.86,51.72,130.66,226.5,130.66,226.5,0,0,55.57-1.54,102.35-54.74.05-.05.05-.08.05-.08l-.54-.75-.5-.67c-11.6-16.17-117.86-164.3-121.01-182.63-3.32-19.39,12.49-51.39,9.5-92.13-2.99-40.75-18.32-91.36-17.99-112.71.11-6.43,2.15-15.62,4.69-25.83,5.68-22.71,13.8-50.44,8.33-63.89-.2-.55-.45-1.05-.72-1.57-9.79-18.29-55.04-10.53-67.79,31.58-12.75,42.11-5.84,90.18-9.24,101.41-2.9,9.57-17.52,35.7-24.35,51.9Z"/><path class="cls-7" d="M778.49,375.43c5.68-22.71,13.8-50.44,8.33-63.89-3.15,1.71-6.91,4.31-9.54,8.02-5.31,7.52-14.26,66.85,1.2,55.87Z"/><path class="cls-5" d="M476.35,330.3c1.88,3.91,3.74,7.51,5.53,10.78,6.36,11.58,12.22,19.36,17.72,24.58,5.47,5.21,10.59,7.93,15.48,9.41,11.23,3.4,24.49-20.17,22.02-42.37-3.2-28.71-35.83-53.75-50.72-55.19s-25.24,21.32-10.04,52.8Z"/><path class="cls-5" d="M448.15,403.84c3.18,8.72,7.62,16.25,12.5,22.51v.03c4.98,6.41,10.44,11.44,15.48,14.95,5.61,3.94,10.73,5.97,14.07,5.88,9.27-.26,21.69-21.02,18.36-40.41-3.32-19.39-27.44-52.44-39.49-52.41-12.08.02-30.96,21.89-20.91,49.45Z"/><path class="cls-5" d="M440.01,489.67c.12.22.23.47.34.69,1.37,2.56,3.11,4.71,5.11,6.39,12.14,10.42,33.23,4.42,32.57-19.5-.55-19.66-18.18-35.84-26.89-32.66-13.61,4.95-20.41,26.92-11.13,45.09Z"/><path class="cls-7" d="M481.89,341.08c6.36,11.58,12.22,19.36,17.72,24.58.28-.62.55-1.31.79-2.12,5.37-17.74,27.12-22.87,23.13-30.54-6.71-12.97-21.03-16.91-30.82-10.86-5.77,3.59-9.1,12.35-10.82,18.94Z"/><path class="cls-7" d="M460.64,426.35v.03c4.02,5.18,8.35,9.45,12.52,12.75,1.3,1.03,3.21.31,3.55-1.31.74-3.53,2.06-7.61,4.36-10.43,4.87-5.97,13.3-3.42,14.14-6.23.85-2.81-7.37-20.5-15.59-21.51-8.24-1.02-19.82,11.5-18.99,26.71Z"/><path class="cls-7" d="M441.26,475.09c-.54,3.42-1.79,9.66-1.25,14.58.12.22.23.47.34.69,1.37,2.56,3.11,4.71,5.11,6.39,0,0,1.55-7.44,6.05-12.2s12.08.59,12.93-2.22c.85-2.81-4.33-11.91-10.28-14.54-5.98-2.64-11.9,1.24-12.91,7.31Z"/><path class="cls-5" d="M69.18,924.3s-20.89,126.24,166.46,100.53c0,0,134.74-195.65,147.69-205.95,12.94-10.29,90.95-40.63,112.97-61.66,22.02-21.03,92.38-87.55,109.64-101.28,2.16-1.72,4.42-3.69,6.83-5.89,16.6-15.53,36.37-41.64,27.35-52.99-.72-.91-1.49-1.74-2.35-2.47-11.04-9.89-31.82-5.55-57.52,11.33-25.45,16.72-45.36,53.68-75.9,46.27-11.99-2.9,42.13-128.6,56.4-150.51,14.27-21.91,47.57-73.05,54.09-95.84,1.88-6.53,1.44-12.67-.64-17.81-5.06-12.7-20.17-19.25-35.15-10.01-.08.03-.21.09-.29.16-21.13,13.28-101.56,133.59-107.64,152.52,0,0-6.32-47.8-52.9-17.8,0,0-26.57-42.27-70.16-4.08,0,0-27.89-30.65-68.5,15.73-40.6,46.38-55.73,213.37-61.37,228.42-5.64,15.05-149.02,171.34-149.02,171.34Z"/><path class="cls-7" d="M568.37,400.54c-1.77,15.49,17.6,17.7,25.79,14.71,4.97-1.8,13.56-15.63,19.52-26.26.34-.61.39-1.35.1-1.99-5.4-11.89-19.83-17.85-34.25-9.27-.3.18-.57.43-.76.73-5.31,7.99-9.73,16.26-10.39,22.07Z"/><path class="cls-7" d="M611.19,649.07c.88.6,2.06.54,2.83-.2,16.32-15.64,34.91-40.75,26.11-51.81-.38-.47-.77-.93-1.18-1.36-.65-.69-1.67-.89-2.53-.5-11.93,5.39-34.32,16.41-38.12,24.55-3.26,7,3.26,22.78,12.89,29.32Z"/><circle class="cls-10" cx="931.03" cy="112.52" r="69.5"/><path class="cls-2" d="M931.02,124.88c-9.5,0-13.22-33.09-13.59-53.87,0-7.41,6.01-13.42,13.42-13.42h.35c7.41,0,13.42,6.01,13.42,13.42,0,0-2.69,54.51-13.61,53.87Z"/><circle class="cls-2" cx="931.03" cy="146.72" r="8.82"/></g></g></svg>