<?xml version="1.0" encoding="UTF-8"?><svg id="Layer_1" xmlns="http://www.w3.org/2000/svg" viewBox="0 0 1080 1080"><defs><style>.cls-1{fill:#005699;stroke:#005699;stroke-miterlimit:10;stroke-width:4px;}.cls-2{fill:#fff;}.cls-3{fill:#e80027;}</style></defs><path class="cls-3" d="M249.24,375.93c-25.14,0-47.82-9.4-65.6-27.17-17.78-17.78-27.17-40.46-27.17-65.6s9.4-47.82,27.17-65.6c17.78-17.78,40.46-27.17,65.6-27.17s47.82,9.4,65.6,27.17c17.78,17.78,27.17,40.46,27.17,65.6s-9.4,47.82-27.17,65.6c-17.78,17.78-40.46,27.17-65.6,27.17Z"/><polygon class="cls-2" points="295.35 255.23 277.36 237.17 249.24 265.17 221.12 237.17 203.13 255.23 231.18 283.16 203.13 311.08 221.12 329.14 249.24 301.14 277.36 329.14 295.35 311.08 267.3 283.16 295.35 255.23"/><path class="cls-1" d="M206.9,460.41v208.85c0,21.11,17.11,38.22,38.22,38.22h108.52v-285.3h-108.52c-21.11,0-38.22,17.11-38.22,38.22Z"/><path class="cls-1" d="M554.13,264.61l-176.48,157.57v285.3l176.48,157.57c27.5,24.55,71.09,5.03,71.09-31.83V296.44c0-36.86-43.59-56.38-71.09-31.83Z"/><path class="cls-1" d="M649.23,483.66v162.36c39.05-6.4,68.88-40.3,68.88-81.18s-29.82-74.78-68.88-81.18Z"/><path class="cls-1" d="M757.88,473.43c-5.78-7.87-16.85-9.56-24.72-3.78-7.87,5.78-9.56,16.85-3.78,24.72,15.09,20.53,23.06,44.89,23.06,70.46s-7.97,49.93-23.06,70.46c-5.78,7.87-4.09,18.94,3.78,24.72,3.15,2.32,6.82,3.44,10.46,3.44,5.43,0,10.8-2.5,14.26-7.21,19.58-26.64,29.93-58.25,29.93-91.41s-10.35-64.76-29.93-91.41Z"/><path class="cls-1" d="M811.82,430.69c-5.87-7.8-16.96-9.37-24.76-3.5-7.8,5.87-9.37,16.96-3.5,24.76,24.64,32.74,37.66,71.77,37.66,112.88s-13.02,80.14-37.66,112.88c-5.87,7.8-4.31,18.89,3.5,24.76,3.19,2.4,6.92,3.56,10.62,3.56,5.37,0,10.67-2.43,14.14-7.05,29.29-38.92,44.77-85.3,44.77-134.14s-15.48-95.23-44.77-134.14Z"/><path class="cls-1" d="M905.98,471.21c-9.98-29.06-24.51-56.25-43.19-80.79-5.92-7.77-17.01-9.28-24.78-3.36-7.77,5.92-9.28,17.01-3.36,24.78,16.39,21.53,29.14,45.37,37.89,70.85,9.05,26.36,13.63,53.99,13.63,82.14s-4.59,55.78-13.63,82.14c-8.75,25.48-21.49,49.32-37.89,70.85-5.92,7.77-4.41,18.87,3.36,24.78,3.2,2.44,6.96,3.61,10.7,3.61,5.33,0,10.61-2.4,14.08-6.97,18.68-24.55,33.22-51.73,43.19-80.79,10.32-30.06,15.55-61.56,15.55-93.62s-5.23-63.56-15.55-93.62Z"/></svg>