<?xml version="1.0" encoding="UTF-8"?><svg id="Layer_1" xmlns="http://www.w3.org/2000/svg" viewBox="0 0 1080 1080"><defs><style>.cls-1,.cls-2{fill:none;}.cls-1,.cls-2,.cls-3{stroke-miterlimit:10;}.cls-1,.cls-3{stroke:#0071ab;stroke-width:15px;}.cls-2{stroke:#fff;}.cls-3{fill:#0071ab;}</style></defs><path class="cls-1" d="M359.22,316.41v-100.28c0-8.09,1.92-15.76,5.34-22.56,8.34-16.62,25.55-28.09,45.32-28.09h259.96c27.86,0,50.66,22.79,50.66,50.66v638.43c0,27.86-22.79,50.66-50.66,50.66h-259.96c-27.86,0-50.66-22.79-50.66-50.66v-352.61"/><path class="cls-1" d="M365.32,511.22c-8.72-69.76-17.43-139.52-26.15-209.28"/><path class="cls-3" d="M442.66,175.63h194.4v1.1c0,6.62-5.38,12-12,12h-170.4c-6.62,0-12-5.38-12-12v-1.1h0Z"/><path class="cls-3" d="M371.94,855.37h335.83v16.72c0,13.16-10.68,23.84-23.84,23.84h-288.16c-13.16,0-23.84-10.68-23.84-23.84v-16.72h0Z"/><line class="cls-2" x1="683.63" y1="846.24" x2="623.22" y2="886.03"/><line class="cls-2" x1="643.49" y1="893.19" x2="720.49" y2="846.24"/><line class="cls-2" x1="618.44" y1="869.72" x2="563.58" y2="909.47"/><line class="cls-2" x1="630.37" y1="893.19" x2="606.52" y2="909.47"/><line class="cls-2" x1="646.67" y1="842.23" x2="588.08" y2="884.64"/><line class="cls-2" x1="608.65" y1="890.9" x2="683.5" y2="840.6"/><line class="cls-2" x1="582.59" y1="868.56" x2="529.53" y2="910.7"/><line class="cls-2" x1="595.54" y1="891.48" x2="572.43" y2="908.8"/><line class="cls-2" x1="610.85" y1="840.25" x2="554.47" y2="885.56"/><line class="cls-2" x1="575.33" y1="890.77" x2="647.55" y2="836.77"/><line class="cls-2" x1="548.18" y1="869.77" x2="497.31" y2="914.53"/><line class="cls-2" x1="562.27" y1="892.01" x2="540.06" y2="910.47"/><line class="cls-2" x1="820.17" y1="641.17" x2="759.75" y2="680.96"/><line class="cls-2" x1="780.03" y1="688.12" x2="857.03" y2="641.17"/><line class="cls-2" x1="754.98" y1="664.65" x2="700.12" y2="704.4"/><line class="cls-2" x1="766.91" y1="688.12" x2="743.06" y2="704.4"/><line class="cls-2" x1="783.21" y1="637.16" x2="724.62" y2="679.57"/><line class="cls-2" x1="745.19" y1="685.83" x2="820.04" y2="635.53"/><line class="cls-2" x1="719.13" y1="663.49" x2="666.07" y2="705.63"/><line class="cls-2" x1="732.08" y1="686.41" x2="708.97" y2="703.73"/><line class="cls-2" x1="747.39" y1="635.18" x2="691" y2="680.49"/><line class="cls-2" x1="711.87" y1="685.7" x2="784.09" y2="631.7"/><line class="cls-2" x1="684.71" y1="664.7" x2="633.85" y2="709.46"/><line class="cls-2" x1="698.81" y1="686.94" x2="676.59" y2="705.4"/></svg>