<?xml version="1.0" encoding="UTF-8"?><svg id="Layer_1" xmlns="http://www.w3.org/2000/svg" viewBox="0 0 1080 1080"><defs><style>.cls-1{fill:#fff;}.cls-2{fill:#e0e0e0;}.cls-3{fill:#e80027;}</style></defs><rect class="cls-2" x="286.52" y="540" width="105.06" height="236.34" rx="52.53" ry="52.53"/><rect class="cls-2" x="487.47" y="421.83" width="105.06" height="354.52" rx="52.53" ry="52.53"/><rect class="cls-2" x="688.42" y="303.66" width="105.06" height="472.69" rx="52.53" ry="52.53"/><path class="cls-3" d="M824.09,754.54c-26.11,0-49.68-9.76-68.14-28.23-18.46-18.46-28.23-42.03-28.23-68.14s9.76-49.68,28.23-68.14c18.46-18.46,42.03-28.23,68.14-28.23s49.68,9.76,68.14,28.23c18.46,18.46,28.23,42.03,28.23,68.14s-9.76,49.68-28.23,68.14c-18.46,18.46-42.03,28.23-68.14,28.23Z"/><polygon class="cls-1" points="871.98 629.16 853.3 610.4 824.09 639.49 794.87 610.4 776.19 629.16 805.33 658.17 776.19 687.18 794.87 705.94 824.09 676.85 853.3 705.94 871.98 687.18 842.85 658.17 871.98 629.16"/></svg>